<svg id="圖層_1" data-name="圖層 1" xmlns="http://www.w3.org/2000/svg" viewBox="0 0 828 162"><title>buy-process-diagram</title><rect x="27.25" y="11" width="126" height="142" rx="5" ry="5" style="fill:#dd549f"/><rect x="27.25" y="11" width="126" height="138" rx="5" ry="5" style="fill:#f473b4"/><rect x="61.75" y="23" width="57" height="54" rx="7" ry="7" style="fill:#fff"/><g id="_5" data-name="5"><path d="M171.66,81.62,165.38,75a1.56,1.56,0,0,0-2.28,0,1.77,1.77,0,0,0,0,2.41l5.13,5.41-5.13,5.41a1.77,1.77,0,0,0,0,2.4,1.56,1.56,0,0,0,2.28,0L171.66,84A1.77,1.77,0,0,0,171.66,81.62Zm9.5.48-7.9-7.9A1.6,1.6,0,0,0,171,76.45l6.77,6.77L171,90a1.6,1.6,0,0,0,2.26,2.26l7.9-7.9A1.6,1.6,0,0,0,181.16,82.1Z" style="fill:#f473b4"/></g><g id="_5-2" data-name="5"><path d="M342.5,82.1l-7.9-7.9a1.6,1.6,0,0,0-2.26,2.26l6.77,6.77L332.34,90a1.6,1.6,0,0,0,2.26,2.26l7.9-7.9A1.6,1.6,0,0,0,342.5,82.1Zm-9.5-.48L326.73,75a1.56,1.56,0,0,0-2.28,0,1.77,1.77,0,0,0,0,2.41l5.13,5.41-5.13,5.41a1.77,1.77,0,0,0,0,2.4,1.56,1.56,0,0,0,2.28,0L333,84A1.77,1.77,0,0,0,333,81.62Z" style="fill:#f473b4"/></g><g id="_5-3" data-name="5"><path d="M503.84,82.1l-7.9-7.9a1.6,1.6,0,1,0-2.26,2.26l6.77,6.77L493.68,90a1.6,1.6,0,1,0,2.26,2.26l7.9-7.9A1.6,1.6,0,0,0,503.84,82.1Zm-9.5-.48L488.07,75a1.56,1.56,0,0,0-2.28,0,1.77,1.77,0,0,0,0,2.41l5.13,5.41-5.13,5.41a1.77,1.77,0,0,0,0,2.4,1.56,1.56,0,0,0,2.28,0L494.34,84A1.77,1.77,0,0,0,494.34,81.62Z" style="fill:#f473b4"/></g><g id="_5-4" data-name="5"><path d="M655.68,81.62,649.41,75a1.56,1.56,0,0,0-2.28,0,1.77,1.77,0,0,0,0,2.41l5.13,5.41-5.13,5.41a1.77,1.77,0,0,0,0,2.4,1.56,1.56,0,0,0,2.28,0L655.68,84A1.77,1.77,0,0,0,655.68,81.62Zm9.5.48-7.9-7.9A1.6,1.6,0,0,0,655,76.45l6.77,6.77L655,90a1.6,1.6,0,0,0,2.26,2.26l7.9-7.9A1.6,1.6,0,0,0,665.19,82.1Z" style="fill:#f473b4"/></g><path d="M78,67h24.52a5.79,5.79,0,0,0,5.74-5.83V61a5.83,5.83,0,0,0-4-5.55,6.47,6.47,0,0,0,.93-3.34V40.85a6.39,6.39,0,0,0-6.33-6.42H81.64a6.39,6.39,0,0,0-6.35,6.42V52.09a6.45,6.45,0,0,0,.94,3.34,5.83,5.83,0,0,0-4,5.55v.2A5.79,5.79,0,0,0,78,67Zm.68-26.14a3,3,0,0,1,3-3H97.14l-4.28,3.78a1.73,1.73,0,0,0-.16,2.42,1.67,1.67,0,0,0,2.38.17l6-5.32a3,3,0,0,1,.73,1.95v.49l-.08.06-7.48,7.26a1.73,1.73,0,0,0-.05,2.42,1.67,1.67,0,0,0,2.39.05l5.22-5.07v6A3,3,0,0,1,101,54.2a2.92,2.92,0,0,1-2.09.87H81.63a3,3,0,0,1-3-3ZM75.62,61A2.39,2.39,0,0,1,78,58.57h24.52a2.39,2.39,0,0,1,2.36,2.4v.2a2.39,2.39,0,0,1-2.36,2.4H78a2.39,2.39,0,0,1-2.36-2.4Z" style="fill:#dd549f"/><path d="M86,62.46h8.45a1.14,1.14,0,0,0,0-2.29H86a1.14,1.14,0,0,0,0,2.29Z" style="fill:#dd549f"/><path d="M64.38,112.16l-.46.18-.69.24-.43-1.22.9-.25q.5-.17.69-.25v-2.48H62.82v-1.16h1.55v-2.66h1.3v2.66H67v1.16H65.68v2l.57-.27a5.5,5.5,0,0,0,.7-.36l.13,1.11a5.23,5.23,0,0,1-.69.45l-.71.35v4.24a1.62,1.62,0,0,1-.31,1.11,1.78,1.78,0,0,1-1.29.34h-.8L63,116l1,.06a.39.39,0,0,0,.45-.43Zm4.84,0-.2.21a10.65,10.65,0,0,1-2,1.53l-.74-1.19a12.25,12.25,0,0,0,3-2.25v-5.77h1.27V110a17.28,17.28,0,0,1-.39,4.23,5,5,0,0,1-1.28,2.19q-1,1-1.23,1l-1.11-1.06a6.26,6.26,0,0,0,1.88-1.67,5.07,5.07,0,0,0,.77-2.39A1.46,1.46,0,0,1,69.22,112.12Zm-1.39-2.32q-.08-.31-.13-.5a15.7,15.7,0,0,0-1-2.73l1.16-.39a15.56,15.56,0,0,1,1.16,2.9l.1.29Zm5,2v3.67a.4.4,0,0,0,.45.45h.5a.48.48,0,0,0,.47-.28,5.18,5.18,0,0,0,.2-1.43,2.09,2.09,0,0,1,0-.31l1.25.45a6.38,6.38,0,0,1-.49,2.21,1.35,1.35,0,0,1-1.3.62H73a1.32,1.32,0,0,1-1.48-1.5v-11h1.32v5.74l.5.29a20,20,0,0,1,2.34,1.6l-.73,1.23A18.11,18.11,0,0,0,73.11,112Zm.15-2.6a14.39,14.39,0,0,0,1.13-2.81l.11-.32,1.19.41a16.06,16.06,0,0,1-1.16,3.33Z" style="fill:#fff"/><path d="M77.1,111.46l.14-.21a18.85,18.85,0,0,0,1.44-2.46H76.94v-1.11H80v.94l-.18.41a18.77,18.77,0,0,1-1.29,2.28H80v.78l-.17,1.06a4.46,4.46,0,0,1-.31,1.11,2.66,2.66,0,0,0,1.85,1.46,22.21,22.21,0,0,0,4.39.29q1.68,0,3.22-.07a6.63,6.63,0,0,0,.67,0l-.22,1.27H86.08a25.69,25.69,0,0,1-5.15-.31,3,3,0,0,1-1.85-1.45,8.94,8.94,0,0,1-1.41,2.07l-.85-1a7.26,7.26,0,0,0,2-4.09H77.1Zm1.83-4.13-.83-1a10.59,10.59,0,0,0-.91-.94l.81-.67.32.27a14.8,14.8,0,0,1,1.51,1.47Zm1.48,5.24h2.07v-1H80.58v-1h1.92V110h1.19v.64h2.17V110h1.2v.64h2.07v1H87.06v1H89.4v1h-9Zm4-4.87H81.72v.69q0,.39.36.39h1.15q.38,0,.5-.87l1.06.36a2.56,2.56,0,0,1-.43,1.15,1.05,1.05,0,0,1-.82.29H81.63q-1.06,0-1.06-1.22V105H84.4Zm-.52,6.72a16.91,16.91,0,0,1-2.48,1.29l-.74-1a10.4,10.4,0,0,0,2.41-1.12Zm-.64-8.48H81.72v.9h1.51Zm2.62,5.66H83.68v1h2.17ZM89,107.7H86.2v.64a.38.38,0,0,0,.42.43h1.2a.34.34,0,0,0,.36-.28l.13-.57,1.09.35a2.79,2.79,0,0,1-.49,1.2,1.11,1.11,0,0,1-.78.24h-2q-1.06,0-1.06-1.22V105H89Zm-2.69,5.84.25.08a12,12,0,0,1,2.38,1.08l-.74,1L86.92,115l-1-.55-.25-.13Zm1.54-7.67H86.2v1h1.62Z" style="fill:#fff"/><path d="M103.45,105.53v1.15H91v-1.15h5.57l-.28-.38-.35-.42,1.36-.15a3.94,3.94,0,0,1,.38.5l.28.45Zm-2.83,1.68-.11.21a5.07,5.07,0,0,1-.71,1.09H103v7a2.52,2.52,0,0,1-.26,1.34q-.26.38-1.11.38h-1.06l-.32-1.23,1,0q.48,0,.48-.43V109.6H99.21v.76c0,.28.11.42.32.42h1.85v1.11H99.24a1.26,1.26,0,0,1-.91-.31,1.89,1.89,0,0,1-.32-1.32v-.66H96.58a3,3,0,0,1-.69,1.8,4,4,0,0,1-1.76,1l-.43.14-.71-1a3.85,3.85,0,0,0,1.61-.57q.69-.45.72-.8c0-.24,0-.41.06-.51H92.78v7.84H91.51v-8.93h3.21a6.14,6.14,0,0,0-.43-.64l-.49-.62,1.18-.48.11.15a12,12,0,0,1,.9,1.43l.08.15h2.23a5.91,5.91,0,0,0,1.16-1.72Zm-.08,8.72H94v-3.44h6.55Zm-1.29-2.34h-4v1.22h4Z" style="fill:#fff"/><path d="M105.48,110.94h5.1v6.5h-1.32v-.84h-2.48v.84h-1.3Zm3.78,1.13h-2.48v3.37h2.48Zm-2.39-6.9h9v4.47h-9Zm7.67,1.19H108.2v2.1h6.34Zm-2.8,4.58H117v6.5h-1.3v-.84h-2.66v.84h-1.32Zm4,1.13h-2.66v3.37h2.66Z" style="fill:#fff"/><rect x="189" y="11" width="126" height="142" rx="5" ry="5" style="fill:#dd549f"/><rect x="189" y="11" width="126" height="138" rx="5" ry="5" style="fill:#f473b4"/><rect x="223.5" y="23" width="57" height="54" rx="7" ry="7" style="fill:#fff"/><path d="M223.06,114.71a4.2,4.2,0,0,1-.21,1.36,1.43,1.43,0,0,1-.6.77,3.5,3.5,0,0,1-1.59.24h-.56l-.29-1.25q.5,0,1.11,0a.65.65,0,0,0,.68-.41,5.35,5.35,0,0,0,.22-1.45q.06-1,.06-2.3v-.18q0-.57,0-.63H220.3a14.44,14.44,0,0,1-1.74,6.45l-1-1A15.15,15.15,0,0,0,219,109.5v-1.43h-1.32v-1.19h2.84a13.42,13.42,0,0,0-1.67-1.55l1-.77.43.35q.78.63,1.26,1.09l.28.28-.67.6h2.53v1.19h-3.4v1.62h2.83v.66a19.74,19.74,0,0,0,2.16-5.81l1.26.31-.21.9-.24.92h4.23v1.25h-1a14.12,14.12,0,0,1-1.55,6.15,10.17,10.17,0,0,0,2.69,2.27l-.88,1.11a12.14,12.14,0,0,1-2.63-2.34l-.38.38a12.12,12.12,0,0,1-2.87,2l-.73-1.13a7.79,7.79,0,0,0,3.22-2.27,14.43,14.43,0,0,1-1.34-3.37l-.13-.46-.36.73a4.47,4.47,0,0,1-.5.76l-.71-1.19v1.36q0,1.46,0,1.88C223.08,114.21,223.06,114.53,223.06,114.71Zm2.62-6.79-.08.24-.08.27a17.39,17.39,0,0,0,1.46,4.35,15.59,15.59,0,0,0,1-4.44c0-.11,0-.25,0-.42Z" style="fill:#fff"/><path d="M238.85,105.26a14.61,14.61,0,0,0,2.65,7.67,14.85,14.85,0,0,0,1.82,2.06,7,7,0,0,0,1.13,1l-.9,1.44q-.21,0-1.68-1.61a17.26,17.26,0,0,1-2.27-3,16.87,16.87,0,0,1-1.37-3.18,17.81,17.81,0,0,1-1.67,3.7,12.8,12.8,0,0,1-2.4,2.81,7.35,7.35,0,0,1-1.69,1.32l-.94-1.26a7.22,7.22,0,0,0,1.78-1.37,12.21,12.21,0,0,0,2.63-3.42,20.64,20.64,0,0,0,1.67-4.08l-.13-.6h-3.7v-1.44Z" style="fill:#fff"/><path d="M247.72,114.46a11.49,11.49,0,0,1-1,2.93l-1.19-.45a14,14,0,0,0,1.11-2.74Zm2.1-9.53V114H246v-9.06ZM248.64,106h-1.41v1.54h1.41Zm-1.41,4.19h1.41v-1.67h-1.41Zm0,2.76h1.41v-1.79h-1.41Zm2.91,3.6-1,.43-.13-.39q-.15-.46-.29-.8l-.5-1.23.94-.32.1.17A10.12,10.12,0,0,1,250,116Q250,116.21,250.14,116.53Zm3.61-6v-.69H250.1v-1H252V108h-1.5v-1H252v-.73h-1.78v-1H252v-.8h1.13v.8h2.24v-.8h1.13v.8h1.75v1h-1.75v.73H258v1h-1.5v.8h1.89v1h-3.56v.69h3v3.61h.59v1h-.59v.67a1.82,1.82,0,0,1-.26,1.07,1.25,1.25,0,0,1-1.06.36h-1.41l-.31-1.09,1.43.07q.48,0,.48-.45v-.63H252v2.27h-1.13v-2.27H250v-1h.87v-3.61Zm0,1.85v-.81H252v.81Zm0,1.76v-.88H252v.88Zm1.65-7.07v-.73h-2.24v.73Zm-2.24,1v.8h2.24V108Zm3.56,4.35v-.81h-1.85v.81Zm0,1.76v-.88h-1.85v.88Z" style="fill:#fff"/><path d="M260.79,110.8l-1.22-.42a17.52,17.52,0,0,0,.7-4.35,3.15,3.15,0,0,1,0-.38l1.13.13v.83l0,.74h.88v-2.79h1.26v2.79h1.2v1.25h-1.2v2.32l.6-.25.57-.28.13-.07.22,1.27-.83.41-.7.32v5.12h-1.26v-4.65q-.5.24-1.09.46l-1,.41-.52-1.32,1.43-.48a10.87,10.87,0,0,0,1.23-.49v-2.79h-1l-.18,1.11c-.06.29-.13.6-.22.92Zm9.59-3.22a18.52,18.52,0,0,1-.58,3.83,10.46,10.46,0,0,1-1.41,2.93,12.52,12.52,0,0,1-1.46,1.77,4.09,4.09,0,0,1-.91.8l-1-1.08a9.86,9.86,0,0,0,4.09-7.5l.06-.76h-.57a10.37,10.37,0,0,1-3.18,6.33l-1-1.06a8,8,0,0,0,3-5.26h-.6l-.07.21a7.08,7.08,0,0,1-1.22,2.14l-1-.87a9.58,9.58,0,0,0,1.75-4.49l1.32.13-.17.91a7.19,7.19,0,0,1-.21.83h5v1q0,3.95-.13,6.36a6.09,6.09,0,0,1-.59,3,2.84,2.84,0,0,1-2.1.54c-.35,0-.62,0-.83,0l-.32-1.48a11.58,11.58,0,0,0,1.5.13,1,1,0,0,0,.78-.23,4.78,4.78,0,0,0,.33-1.83q.17-2.07.17-4.94v-.69q0-.57,0-.63Z" style="fill:#fff"/><path d="M280.64,104.56v1.15h5.63v1.19h-5.63v.9h4.83v5.6h-4.83v1h5.8v1.19h-5.8v1.85h-1.32v-1.85h-5.78V114.4h5.78v-1h-4.76v-5.6h4.76v-.9h-5.59v-1.19h5.59v-1.15ZM279.33,110v-1h-3.47v1Zm0,2.21v-1.11h-3.47v1.11Zm4.84-2.21v-1h-3.53v1Zm0,2.21v-1.11h-3.53v1.11Z" style="fill:#fff"/><rect x="350.75" y="11" width="126" height="142" rx="5" ry="5" style="fill:#dd549f"/><rect x="350.75" y="11" width="126" height="138" rx="5" ry="5" style="fill:#f473b4"/><rect x="385.25" y="23" width="57" height="54" rx="7" ry="7" style="fill:#fff"/><path d="M372.6,111.46l.14-.21a18.85,18.85,0,0,0,1.44-2.46h-1.75v-1.11h3.07v.94l-.18.41a18.77,18.77,0,0,1-1.29,2.28h1.5v.78l-.17,1.06a4.46,4.46,0,0,1-.31,1.11,2.66,2.66,0,0,0,1.85,1.46,22.21,22.21,0,0,0,4.39.29q1.68,0,3.22-.07a6.63,6.63,0,0,0,.67,0l-.22,1.27h-3.39a25.69,25.69,0,0,1-5.15-.31,3,3,0,0,1-1.85-1.45,8.94,8.94,0,0,1-1.41,2.07l-.85-1a7.26,7.26,0,0,0,2-4.09H372.6Zm1.83-4.13-.83-1a10.59,10.59,0,0,0-.91-.94l.81-.67.32.27a14.8,14.8,0,0,1,1.51,1.47Zm1.48,5.24H378v-1h-1.92v-1H378V110h1.19v.64h2.17V110h1.2v.64h2.07v1h-2.07v1h2.34v1h-9Zm4-4.87h-2.67v.69q0,.39.36.39h1.15q.38,0,.5-.87l1.06.36a2.56,2.56,0,0,1-.43,1.15,1.05,1.05,0,0,1-.82.29h-1.93q-1.06,0-1.06-1.22V105h3.84Zm-.52,6.72a16.91,16.91,0,0,1-2.48,1.29l-.74-1a10.4,10.4,0,0,0,2.41-1.12Zm-.64-8.48h-1.51v.9h1.51Zm2.62,5.66h-2.17v1h2.17Zm3.12-3.89H381.7v.64a.38.38,0,0,0,.42.43h1.2a.34.34,0,0,0,.36-.28l.13-.57,1.09.35a2.79,2.79,0,0,1-.49,1.2,1.11,1.11,0,0,1-.78.24h-2q-1.06,0-1.06-1.22V105h3.92Zm-2.69,5.84.25.08a12,12,0,0,1,2.38,1.08l-.74,1-1.26-.71-1-.55-.25-.13Zm1.54-7.67H381.7v1h1.62Z" style="fill:#fff"/><path d="M387.72,112.54l-.55.18-.67.21-.2-1.29.78-.2.63-.21v-2.9h-1.39v-1.18h1.39v-2.6H389v2.6h1.15v1.18H389v2.44l.6-.27a1.82,1.82,0,0,0,.53-.28l.17,1.27-.56.25-.74.34v3.82a1.62,1.62,0,0,1-.31,1.1,1.72,1.72,0,0,1-1.27.34h-.67l-.31-1.33.84.06q.46,0,.46-.43Zm7.39-4.38v.7h3.39v1h-3.39v.76h4v1.08h-1.85l-.22.55a3.24,3.24,0,0,1-.22.39l0,.08h2.34v1.09h-4v.85h3.67v1h-3.67v1.68h-1.19v-1.68H390.5v-1h3.43v-.85h-3.81v-1.09h2.37l-.24-.53-.25-.49h-1.5v-1.08h3.43v-.76h-3.22v-1h3.22v-.7h-3.35V105h8.13v3.19ZM391.64,106v1.13H393V106Zm3.86,6.78a3.61,3.61,0,0,0,.32-.5l.25-.52h-2.91a3.28,3.28,0,0,1,.25.49l.24.53ZM394,106v1.13h1.27V106Zm3.67,1.12V106h-1.37v1.13Z" style="fill:#fff"/><path d="M407,107.64v9.8H405.8v-.78h-4v.78h-1.16v-9.8h1.92v-1.36h-2.28v-1.15h6.75v1.15h-2v1.36Zm-1.16,4.24h-.64a.92.92,0,0,1-1-1v-2.09h-.56a7.51,7.51,0,0,1-.85,3.74l-.77-.7a5.86,5.86,0,0,0,.62-2.52q0-.2,0-.52h-.74v4.4h4Zm-4,3.65h4v-1.25h-4Zm2.28-7.9v-1.36h-.53v1.36Zm1.68,1.12h-.7v1.72q0,.36.38.36h.32Zm4,8.4a2.16,2.16,0,0,1-1.5-.37,1.64,1.64,0,0,1-.36-1.18v-6.19h3.44v-2.94h-3.64v-1.32h5v5.52h-3.47v4.66a.53.53,0,0,0,.6.6h1.34a.57.57,0,0,0,.46-.17,2.18,2.18,0,0,0,.18-1q0-.83,0-1.46V113l1.36.42a7.49,7.49,0,0,1-.43,3.21,1.77,1.77,0,0,1-1.48.5Z" style="fill:#fff"/><path d="M414.65,111.46l.24-.24a13.18,13.18,0,0,0,1.83-2.41h-2.3v-1.16h3.79v1a16.28,16.28,0,0,1-1.86,2.67h1.83v.81c0,.12,0,.22-.06.29a10,10,0,0,1-.5,1.69,3,3,0,0,0,1.82,1.41,17.18,17.18,0,0,0,3.86.3q2.1,0,3.89-.11L427,117h-3.36a18.32,18.32,0,0,1-4.78-.38,3.31,3.31,0,0,1-1.76-1.41,7.24,7.24,0,0,1-1.92,2.09l-.85-1a5.75,5.75,0,0,0,2.48-3.53l.07-.35h-2.21Zm2.07-4.09-.31-.32a15,15,0,0,0-1.69-1.57l.8-.8a11.93,11.93,0,0,1,2.07,1.74Zm6,5a5.93,5.93,0,0,1-3.37,2.72l-.67-1.18a6.3,6.3,0,0,0,2.18-1.18,3.5,3.5,0,0,0,1-2h-3.28v-1.22H422l0-.78v-.85h-3V106.7h1.57q-.21-.45-.41-.78l-.53-.84,1.22-.49a14.81,14.81,0,0,1,1.06,1.93l.08.18h1.15a8.19,8.19,0,0,0,1-1.75l.15-.36,1.29.5-.48.94a4,4,0,0,1-.42.67h1.79v1.19H423.4v.88l0,.76H427v1.22h-3.78l-.08.52a23.68,23.68,0,0,1,2,1.34l1.79,1.33-.74,1.23A23.87,23.87,0,0,0,422.74,112.41Z" style="fill:#fff"/><path d="M433.1,105.54l-.31-.22,1-.76a10.43,10.43,0,0,1,2.21,1.62l-.85.7H441v1.29h-7.67v.92q0,.74,0,1.22h6.22a30.69,30.69,0,0,1-.23,4.11,3.87,3.87,0,0,1-.78,2.2,3.52,3.52,0,0,1-2.3.53q-.66,0-1,0l-.39-1.39q.77.07,1.51.07h.43a1.06,1.06,0,0,0,.83-.34,3,3,0,0,0,.31-1q.13-.75.25-2.88h-4.86a9,9,0,0,1-3.63,5.89l-1.05-1a7.92,7.92,0,0,0,2.68-3.12,9.57,9.57,0,0,0,.71-3.79v-1.33H428.6v-1.29h6.15A13.63,13.63,0,0,0,433.1,105.54Z" style="fill:#fff"/><path d="M455.12,106.83v1.27h-3.91l.06,1.4a16,16,0,0,0,.83,4.4q.64,1.69,1.13,1.69c.11,0,.2-.09.27-.27a13.2,13.2,0,0,0,.36-1.51q.06-.31.17-.84l1.18,1.18a10,10,0,0,1-.87,2.44,1.26,1.26,0,0,1-1.1.71q-1.13,0-2.14-2.29a20.33,20.33,0,0,1-1.22-6.91H442.3v-1.27h7.5v-2.27h1.36v2.27Zm-8.44,4.47v3.51a24,24,0,0,0,2.8-.64v1.39a46.7,46.7,0,0,1-6.3,1.18l-.71.08-.17-1.39,1.46-.17q.9-.08,1.57-.2v-3.77h-2.56V110h6.37v1.29Zm6.79-4.48-.14-.21a13.21,13.21,0,0,0-1.15-1.46l.9-.62a7.36,7.36,0,0,1,1.4,1.57Z" style="fill:#fff"/><rect x="512.5" y="11" width="126" height="142" rx="5" ry="5" style="fill:#dd549f"/><rect x="512.5" y="11" width="126" height="138" rx="5" ry="5" style="fill:#f473b4"/><rect x="547" y="23" width="57" height="54" rx="7" ry="7" style="fill:#fff"/><path d="M534.35,111.46l.14-.21a18.83,18.83,0,0,0,1.44-2.46h-1.75v-1.11h3.07v.94l-.18.41a18.77,18.77,0,0,1-1.29,2.28h1.5v.78l-.17,1.06a4.47,4.47,0,0,1-.31,1.11,2.65,2.65,0,0,0,1.85,1.46A22.21,22.21,0,0,0,543,116q1.68,0,3.22-.07a6.61,6.61,0,0,0,.67,0l-.22,1.27h-3.39a25.67,25.67,0,0,1-5.14-.31,3,3,0,0,1-1.86-1.45,8.94,8.94,0,0,1-1.41,2.07l-.85-1a7.27,7.27,0,0,0,2-4.09h-1.71Zm1.83-4.13-.83-1a10.44,10.44,0,0,0-.91-.94l.81-.67.32.27a14.8,14.8,0,0,1,1.51,1.47Zm1.48,5.24h2.07v-1h-1.92v-1h1.92V110h1.19v.64h2.17V110h1.21v.64h2.07v1h-2.07v1h2.34v1h-9Zm4-4.87H539v.69q0,.39.36.39h1.15q.38,0,.5-.87l1.06.36a2.57,2.57,0,0,1-.43,1.15,1.05,1.05,0,0,1-.82.29h-1.93q-1.06,0-1.06-1.22V105h3.84Zm-.52,6.72a16.93,16.93,0,0,1-2.48,1.29l-.74-1a10.4,10.4,0,0,0,2.41-1.12Zm-.64-8.48H539v.9h1.51Zm2.62,5.66h-2.17v1h2.17Zm3.12-3.89h-2.77v.64q0,.44.42.43h1.2a.34.34,0,0,0,.36-.28l.13-.57,1.09.35a2.79,2.79,0,0,1-.49,1.2,1.11,1.11,0,0,1-.78.24h-2q-1.06,0-1.06-1.22V105h3.92Zm-2.69,5.84.25.08a12,12,0,0,1,2.38,1.08l-.74,1-1.26-.71-1-.55-.25-.13Zm1.54-7.67h-1.62v1h1.62Z" style="fill:#fff"/><path d="M549.47,112.54l-.55.18-.67.21-.2-1.29.78-.2.63-.21v-2.9h-1.39v-1.18h1.39v-2.6h1.26v2.6h1.15v1.18h-1.15v2.44l.6-.27a1.82,1.82,0,0,0,.53-.28l.17,1.27-.56.25-.74.34v3.82a1.62,1.62,0,0,1-.31,1.1,1.72,1.72,0,0,1-1.27.34h-.67l-.31-1.33.84.06q.46,0,.46-.43Zm7.39-4.38v.7h3.39v1h-3.39v.76h4v1.08H559l-.22.55a3.36,3.36,0,0,1-.22.39l0,.08h2.34v1.09h-4v.85h3.67v1h-3.67v1.68h-1.19v-1.68h-3.43v-1h3.43v-.85h-3.81v-1.09h2.37l-.24-.53-.25-.49h-1.5v-1.08h3.43v-.76h-3.22v-1h3.22v-.7h-3.35V105h8.13v3.19ZM553.39,106v1.13h1.32V106Zm3.86,6.78a3.61,3.61,0,0,0,.32-.5l.25-.52h-2.91a3.37,3.37,0,0,1,.25.49l.24.53ZM555.73,106v1.13H557V106Zm3.67,1.12V106H558v1.13Z" style="fill:#fff"/><path d="M563.91,110.09q-.22.36-.62.88l-.66.85L562,110.3a14.65,14.65,0,0,0,3-5.74l1.29.29-.08.25a26.1,26.1,0,0,1-1.06,2.77v9.56h-1.3Zm8.13-1.62h-5.91v-1.25H572v-2.39h1.36v2.39h1.54v1.25H573.4v7.41a1.62,1.62,0,0,1-.31,1.1,1.73,1.73,0,0,1-1.27.34H569.7l-.38-1.37,2.27.11a.39.39,0,0,0,.45-.43Zm-3,5.46a26.44,26.44,0,0,0-1.9-3.68l1.12-.53a23.48,23.48,0,0,1,1.78,3c.07.16.18.36.31.6Z" style="fill:#fff"/><path d="M578.44,113.21l-.14.56a8.76,8.76,0,0,1-1.18,3l-1.06-.78a8.46,8.46,0,0,0,1.32-3.11Zm2.09,2.65V116q0,1.3-1.25,1.3h-1l-.31-1.25.88.06a.61.61,0,0,0,.34-.06c.05,0,.08-.15.08-.33v-3.32h-3.22v-1.11h7v1.11h-2.52Zm-.25-11.3v1h2.62v1.11h-2.62v.88h2.14v1.05h-5.67V107.6H579v-.88h-2.77v-1.11H579v-1Zm2,4.84v1.06h-5.7V109.4Zm-.24,5.92-.2-.43a12.67,12.67,0,0,0-.8-1.6l.94-.43a6,6,0,0,1,.57.94l.5,1Zm2.63-5.56v-1.36H586v1.36a8.37,8.37,0,0,0,.77,3.25,9.76,9.76,0,0,0,2.2,3.18l-.81,1.19a11.19,11.19,0,0,1-2.7-4.8,10,10,0,0,1-2.63,4.82l-.94-1a7,7,0,0,0,2.09-3.06A10.14,10.14,0,0,0,584.68,109.77Zm0-2.18a10.94,10.94,0,0,1-.74,1.48l-.63,1-1.16-.81a10.79,10.79,0,0,0,2.21-4.7l1.19.15-.21.91a6.46,6.46,0,0,1-.24.78h3.6v1a11.38,11.38,0,0,1-.26,1.92,15.86,15.86,0,0,1-.71,2.51l-1.13-.84a11.52,11.52,0,0,0,.76-2.8l.11-.57Z" style="fill:#fff"/><path d="M594.85,105.54l-.31-.22,1-.76a10.43,10.43,0,0,1,2.21,1.62l-.85.7h5.81v1.29h-7.67v.92q0,.74,0,1.22h6.22a30.7,30.7,0,0,1-.23,4.11,3.88,3.88,0,0,1-.78,2.2,3.52,3.52,0,0,1-2.3.53c-.44,0-.79,0-1,0l-.39-1.39q.77.07,1.51.07h.43a1.05,1.05,0,0,0,.83-.34,3,3,0,0,0,.31-1q.13-.75.25-2.88H595a9,9,0,0,1-3.63,5.89l-1-1A7.92,7.92,0,0,0,593,113.3a9.56,9.56,0,0,0,.71-3.79v-1.33h-3.33v-1.29h6.15A13.61,13.61,0,0,0,594.85,105.54Z" style="fill:#fff"/><path d="M616.87,106.83v1.27H613l.06,1.4a16,16,0,0,0,.83,4.4q.64,1.69,1.13,1.69c.11,0,.2-.09.27-.27a13.24,13.24,0,0,0,.36-1.51c0-.21.09-.49.17-.84l1.18,1.18a10,10,0,0,1-.87,2.44,1.26,1.26,0,0,1-1.1.71q-1.13,0-2.14-2.29a20.33,20.33,0,0,1-1.22-6.91H604v-1.27h7.5v-2.27h1.36v2.27Zm-8.44,4.47v3.51a24,24,0,0,0,2.8-.64v1.39a46.74,46.74,0,0,1-6.3,1.18l-.71.08-.17-1.39,1.46-.17q.9-.08,1.57-.2v-3.77h-2.56V110h6.37v1.29Zm6.79-4.48-.14-.21a13.16,13.16,0,0,0-1.15-1.46l.9-.62a7.38,7.38,0,0,1,1.4,1.57Z" style="fill:#fff"/><rect x="674.25" y="11" width="126" height="142" rx="5" ry="5" style="fill:#dd549f"/><rect x="674.25" y="11" width="126" height="138" rx="5" ry="5" style="fill:#f473b4"/><rect x="708.75" y="23" width="57" height="54" rx="7" ry="7" style="fill:#fff"/><path d="M712.25,106.16l-.24-.62-.35-.81,1.26-.17a6.35,6.35,0,0,1,.38.84l.24.76h2v1.22H709.8v-1.22Zm-1.92,2.06h4.8v1.16h-4.8Zm0,2h4.84v1.16h-4.84Zm0,2.18h4.84v4.73h-1.29v-.73H711.6v.87h-1.27Zm3.56,1.15H711.6v1.72h2.28Zm6.62,1.82v.2a1.72,1.72,0,0,1-.41,1.25,2,2,0,0,1-1.43.42h-1.53l-.32-1.41,1.57.08h.22q.49-.07.49-.73v-8.54h-3v-1.3h6.62v1.3h-2.18Z" style="fill:#fff"/><path d="M726,114.46a11.53,11.53,0,0,1-1,2.93l-1.19-.45a14,14,0,0,0,1.11-2.74Zm2.1-9.53V114H724.3v-9.06ZM726.89,106h-1.41v1.54h1.41Zm-1.41,4.19h1.41v-1.67h-1.41Zm0,2.76h1.41v-1.79h-1.41Zm2.91,3.6-1,.43-.13-.39c-.1-.31-.2-.57-.29-.8l-.5-1.23.94-.32.1.17a10.12,10.12,0,0,1,.73,1.64C728.26,116.15,728.31,116.32,728.39,116.53Zm3.61-6v-.69h-3.65v-1h1.93V108h-1.5v-1h1.5v-.73H728.5v-1h1.78v-.8h1.13v.8h2.24v-.8h1.13v.8h1.75v1h-1.75v.73h1.5v1h-1.5v.8h1.89v1h-3.56v.69h3v3.61h.59v1h-.59v.67a1.82,1.82,0,0,1-.26,1.07,1.25,1.25,0,0,1-1.06.36h-1.41l-.31-1.09,1.43.07c.32,0,.48-.15.48-.45v-.63h-4.75v2.27h-1.13v-2.27h-.87v-1h.87v-3.61Zm0,1.85v-.81h-1.78v.81Zm0,1.76v-.88h-1.78v.88Zm1.65-7.07v-.73h-2.24v.73Zm-2.24,1v.8h2.24V108Zm3.56,4.35v-.81h-1.85v.81Zm0,1.76v-.88h-1.85v.88Z" style="fill:#fff"/><path d="M744.81,112.22h-1.88v.42a4.32,4.32,0,0,1-1,2.82,7.16,7.16,0,0,1-3.25,2l-.92-1.27a5.78,5.78,0,0,0,2.93-1.34,3.22,3.22,0,0,0,.88-2.35v-.18a.22.22,0,0,0,0-.07H737.8v-1.27h12.89v1.27h-4.58v3.21a.43.43,0,0,0,.49.49h1.83a.78.78,0,0,0,.49-.1,5.07,5.07,0,0,0,.25-1.48c0-.11,0-.26.06-.45l1.29.41a5.29,5.29,0,0,1-.5,2.49,1.93,1.93,0,0,1-1.43.4h-2.38a1.44,1.44,0,0,1-1.06-.34,1.82,1.82,0,0,1-.34-1.28Zm-1.3-6.41-.22-.53a2.46,2.46,0,0,0-.29-.55l1.43-.17.28.6.24.64h5.28v3.86h-1.3v-2.6h-9.42v2.6h-1.3v-3.86Zm-3.25,2.52H748v1.25h-7.76Z" style="fill:#fff"/><path d="M758,113.1a2.82,2.82,0,0,1-.48,1.85,2.53,2.53,0,0,1-1.93.55,7.17,7.17,0,0,1-.73,0l-.31-1.3q.74.07,1.32.07a.69.69,0,0,0,.74-.47,8.44,8.44,0,0,0,.22-2q0-.42,0-1.2h-2.45a25.89,25.89,0,0,1-.43,4.11,12.14,12.14,0,0,1-1,2.67l-1.15-1.09a10.1,10.1,0,0,0,1-2.72,18.56,18.56,0,0,0,.27-3.52c0-.17,0-.32,0-.46s0-.27,0-.39v-2.6h6.09v-2h1.34v2h3.79v1.26h-3.75a18.23,18.23,0,0,0,.7,4.51,16.53,16.53,0,0,0,1.74-3.68l1.11.62-.28.77a17.84,17.84,0,0,1-2,3.85,5.53,5.53,0,0,0,.6,1.34q.36.57.52.57.35,0,.92-2.18l.88,1.19a8.23,8.23,0,0,1-.81,1.91,1.14,1.14,0,0,1-1,.59q-1.25,0-2.24-2.35l-.18.17a14.25,14.25,0,0,1-3.05,2.13l-.85-1.16a10.19,10.19,0,0,0,3.57-2.52,18.6,18.6,0,0,1-.92-5l-.07-.74H754.4v1.47h3.65Q758,111.14,758,113.1Zm4.35-6.51q-.25-.28-.62-.62l-.69-.62.92-.8.73.55q.18.14.5.45l.13.11Z" style="fill:#fff"/><path d="M244.75,39.91h17.57A5.68,5.68,0,0,1,268,45.59l-1.72,9.52c-.8,3-2.54,5.68-5.67,5.68H245.34c-3.13,0-4-2.49-5.1-5.68,0,0-1.52-11.71-2.86-15.82C235.64,34,233,34.1,233,34.1" style="fill:none;stroke:#dd549f;stroke-linecap:round;stroke-linejoin:round;stroke-width:3px"/><line x1="245.3" y1="46.85" x2="261.19" y2="46.85" style="fill:none;stroke:#dd549f;stroke-linecap:round;stroke-linejoin:round;stroke-width:3px"/><line x1="247.02" y1="53.8" x2="259.47" y2="53.8" style="fill:none;stroke:#dd549f;stroke-linecap:round;stroke-linejoin:round;stroke-width:3px"/><ellipse cx="243.52" cy="63.36" rx="2.72" ry="2.73" style="fill:none;stroke:#dd549f;stroke-linecap:round;stroke-linejoin:round;stroke-width:3px"/><ellipse cx="262.42" cy="63.36" rx="2.72" ry="2.73" style="fill:none;stroke:#dd549f;stroke-linecap:round;stroke-linejoin:round;stroke-width:3px"/><rect x="406.07" y="38.18" width="26.93" height="25.07" style="fill:none;stroke:#dd549f;stroke-linecap:round;stroke-linejoin:round;stroke-width:3px"/><rect x="394" y="53.04" width="12.07" height="10.21" style="fill:none;stroke:#dd549f;stroke-linecap:round;stroke-linejoin:round;stroke-width:3px"/><polygon points="406.07 53.04 394 53.04 397.29 42.82 406.07 42.82 406.07 53.04" style="fill:none;stroke:#dd549f;stroke-linecap:round;stroke-linejoin:round;stroke-width:3px"/><circle cx="400.96" cy="62.79" r="3.71" style="fill:#fff;stroke:#dd549f;stroke-linecap:round;stroke-linejoin:round;stroke-width:3px"/><circle cx="426.04" cy="62.79" r="3.71" style="fill:#fff;stroke:#dd549f;stroke-linecap:round;stroke-linejoin:round;stroke-width:3px"/><circle cx="575" cy="51" r="16" style="fill:#fff;stroke:#dd549f;stroke-linecap:round;stroke-linejoin:round;stroke-width:3px"/><line x1="575" y1="59.69" x2="575" y2="42.31" style="fill:#fff;stroke:#dd549f;stroke-linecap:round;stroke-linejoin:round;stroke-width:3px"/><line x1="582.01" y1="45.09" x2="567.99" y2="45.09" style="fill:#fff;stroke:#dd549f;stroke-linecap:round;stroke-linejoin:round;stroke-width:3px"/><line x1="582.01" y1="50.88" x2="567.99" y2="50.88" style="fill:#fff;stroke:#dd549f;stroke-linecap:round;stroke-linejoin:round;stroke-width:3px"/><line x1="582.01" y1="56.91" x2="567.99" y2="56.91" style="fill:#fff;stroke:#dd549f;stroke-linecap:round;stroke-linejoin:round;stroke-width:3px"/><line x1="567.99" y1="50.51" x2="567.99" y2="45.37" style="fill:#fff;stroke:#dd549f;stroke-linecap:round;stroke-linejoin:round;stroke-width:3px"/><line x1="582.01" y1="56.88" x2="582.01" y2="50.88" style="fill:#fff;stroke:#dd549f;stroke-linecap:round;stroke-linejoin:round;stroke-width:3px"/><path d="M751.55,41.72h-5.7V40.21a7.87,7.87,0,0,0-2.25-5.5l-.05-.05a7.78,7.78,0,0,0-11-.06l-.06.06h0a7.86,7.86,0,0,0-2.3,5.55v1.52h-5.71A1.47,1.47,0,0,0,723,43.2V68.52A1.47,1.47,0,0,0,724.47,70h27.07A1.47,1.47,0,0,0,753,68.53h0V43.2a1.47,1.47,0,0,0-1.46-1.48h0Zm-7.31,7.62h0a1.07,1.07,0,0,1,.69-.28H745a1,1,0,0,1,.72.32h0a1.1,1.1,0,0,1,0,1.53h0a1.07,1.07,0,0,1-.76.32,1.1,1.1,0,0,1-.76-.32l0,0a1.08,1.08,0,0,1,0-1.51l0,0h0Zm-12.31-9.14h0a6.09,6.09,0,0,1,1.78-4.31h0a6,6,0,0,1,8.54,0l0,0,0,0a6.08,6.08,0,0,1,1.74,4.26v1.52H731.93V40.21Zm-1.64,9.17h0l0,0a1.08,1.08,0,0,1,.7-.28h.07a1,1,0,0,1,.72.32h0a1.08,1.08,0,0,1,0,1.53h0a1.08,1.08,0,0,1-.76.32,1.11,1.11,0,0,1-.77-.32l0,0a1.08,1.08,0,0,1-.29-.73,1.12,1.12,0,0,1,.32-.77Zm19.8,17.67H725.94V44.67h4.24v2.77a2.76,2.76,0,0,0-1.07.64l-.06.05a2.84,2.84,0,0,0-.05,4l.05.06a2.82,2.82,0,0,0,4,0l0,0h0a2.85,2.85,0,0,0,0-4h0a2.82,2.82,0,0,0-1.13-.7V44.67h12.15v2.77a2.79,2.79,0,0,0-1.07.64l-.06.05a2.84,2.84,0,0,0-.05,4l.05.06a2.82,2.82,0,0,0,4,0l0,0h0a2.85,2.85,0,0,0,0-4h0a2.86,2.86,0,0,0-1.12-.7V44.67h4.24V67.05h0Z" style="fill:#dd549f"/><polyline points="746.27 54.09 736.75 63.61 731.99 58.85" style="fill:none;stroke:#dd549f;stroke-linecap:round;stroke-linejoin:round;stroke-width:3px"/></svg>