<?xml version="1.0" encoding="UTF-8"?>
<svg width="112px" height="112px" viewBox="0 0 112 112" version="1.1" xmlns="http://www.w3.org/2000/svg" xmlns:xlink="http://www.w3.org/1999/xlink" style="background: #FFFFFF;">
    <!-- Generator: Sketch 43.2 (39069) - http://www.bohemiancoding.com/sketch -->
    <title>tt-qrcode</title>
    <desc>Created with Sketch.</desc>
    <defs></defs>
    <g id="common" stroke="none" stroke-width="1" fill="none" fill-rule="evenodd">
        <g id="QRcode-Copy">
            <rect id="Rectangle-332" fill="#FFFFFF" x="0" y="0" width="112" height="112"></rect>
            <g id="tt-qrcode" transform="translate(8.000000, 8.000000)" fill="#000000">
                <g id="quickmark">
                    <rect id="Rectangle-path" x="0" y="0" width="3.84" height="3.84"></rect>
                    <rect id="Rectangle-path" x="3.84" y="0" width="3.84" height="3.84"></rect>
                    <rect id="Rectangle-path" x="7.68" y="0" width="3.84" height="3.84"></rect>
                    <rect id="Rectangle-path" x="11.52" y="0" width="3.84" height="3.84"></rect>
                    <rect id="Rectangle-path" x="15.36" y="0" width="3.84" height="3.84"></rect>
                    <rect id="Rectangle-path" x="19.2" y="0" width="3.84" height="3.84"></rect>
                    <rect id="Rectangle-path" x="23.04" y="0" width="3.84" height="3.84"></rect>
                    <rect id="Rectangle-path" x="30.72" y="0" width="3.84" height="3.84"></rect>
                    <rect id="Rectangle-path" x="42.24" y="0" width="3.84" height="3.84"></rect>
                    <rect id="Rectangle-path" x="46.08" y="0" width="3.84" height="3.84"></rect>
                    <rect id="Rectangle-path" x="49.92" y="0" width="3.84" height="3.84"></rect>
                    <rect id="Rectangle-path" x="53.76" y="0" width="3.84" height="3.84"></rect>
                    <rect id="Rectangle-path" x="69.12" y="0" width="3.84" height="3.84"></rect>
                    <rect id="Rectangle-path" x="72.96" y="0" width="3.84" height="3.84"></rect>
                    <rect id="Rectangle-path" x="76.8" y="0" width="3.84" height="3.84"></rect>
                    <rect id="Rectangle-path" x="80.64" y="0" width="3.84" height="3.84"></rect>
                    <rect id="Rectangle-path" x="84.48" y="0" width="3.84" height="3.84"></rect>
                    <rect id="Rectangle-path" x="88.32" y="0" width="3.84" height="3.84"></rect>
                    <rect id="Rectangle-path" x="92.16" y="0" width="3.84" height="3.84"></rect>
                    <rect id="Rectangle-path" x="0" y="3.84" width="3.84" height="3.84"></rect>
                    <rect id="Rectangle-path" x="23.04" y="3.84" width="3.84" height="3.84"></rect>
                    <rect id="Rectangle-path" x="30.72" y="3.84" width="3.84" height="3.84"></rect>
                    <rect id="Rectangle-path" x="46.08" y="3.84" width="3.84" height="3.84"></rect>
                    <rect id="Rectangle-path" x="53.76" y="3.84" width="3.84" height="3.84"></rect>
                    <rect id="Rectangle-path" x="69.12" y="3.84" width="3.84" height="3.84"></rect>
                    <rect id="Rectangle-path" x="92.16" y="3.84" width="3.84" height="3.84"></rect>
                    <rect id="Rectangle-path" x="0" y="7.68" width="3.84" height="3.84"></rect>
                    <rect id="Rectangle-path" x="7.68" y="7.68" width="3.84" height="3.84"></rect>
                    <rect id="Rectangle-path" x="11.52" y="7.68" width="3.84" height="3.84"></rect>
                    <rect id="Rectangle-path" x="15.36" y="7.68" width="3.84" height="3.84"></rect>
                    <rect id="Rectangle-path" x="23.04" y="7.68" width="3.84" height="3.84"></rect>
                    <rect id="Rectangle-path" x="30.72" y="7.68" width="3.84" height="3.84"></rect>
                    <rect id="Rectangle-path" x="34.56" y="7.68" width="3.84" height="3.84"></rect>
                    <rect id="Rectangle-path" x="46.08" y="7.68" width="3.84" height="3.84"></rect>
                    <rect id="Rectangle-path" x="49.92" y="7.68" width="3.84" height="3.84"></rect>
                    <rect id="Rectangle-path" x="53.76" y="7.68" width="3.84" height="3.84"></rect>
                    <rect id="Rectangle-path" x="69.12" y="7.68" width="3.84" height="3.84"></rect>
                    <rect id="Rectangle-path" x="76.8" y="7.68" width="3.84" height="3.84"></rect>
                    <rect id="Rectangle-path" x="80.64" y="7.68" width="3.84" height="3.84"></rect>
                    <rect id="Rectangle-path" x="84.48" y="7.68" width="3.84" height="3.84"></rect>
                    <rect id="Rectangle-path" x="92.16" y="7.68" width="3.84" height="3.84"></rect>
                    <rect id="Rectangle-path" x="0" y="11.52" width="3.84" height="3.84"></rect>
                    <rect id="Rectangle-path" x="7.68" y="11.52" width="3.84" height="3.84"></rect>
                    <rect id="Rectangle-path" x="11.52" y="11.52" width="3.84" height="3.84"></rect>
                    <rect id="Rectangle-path" x="15.36" y="11.52" width="3.84" height="3.84"></rect>
                    <rect id="Rectangle-path" x="23.04" y="11.52" width="3.84" height="3.84"></rect>
                    <rect id="Rectangle-path" x="49.92" y="11.52" width="3.84" height="3.84"></rect>
                    <rect id="Rectangle-path" x="57.6" y="11.52" width="3.84" height="3.84"></rect>
                    <rect id="Rectangle-path" x="61.44" y="11.52" width="3.84" height="3.84"></rect>
                    <rect id="Rectangle-path" x="69.12" y="11.52" width="3.84" height="3.84"></rect>
                    <rect id="Rectangle-path" x="76.8" y="11.52" width="3.84" height="3.84"></rect>
                    <rect id="Rectangle-path" x="80.64" y="11.52" width="3.84" height="3.84"></rect>
                    <rect id="Rectangle-path" x="84.48" y="11.52" width="3.84" height="3.84"></rect>
                    <rect id="Rectangle-path" x="92.16" y="11.52" width="3.84" height="3.84"></rect>
                    <rect id="Rectangle-path" x="0" y="15.36" width="3.84" height="3.84"></rect>
                    <rect id="Rectangle-path" x="7.68" y="15.36" width="3.84" height="3.84"></rect>
                    <rect id="Rectangle-path" x="11.52" y="15.36" width="3.84" height="3.84"></rect>
                    <rect id="Rectangle-path" x="15.36" y="15.36" width="3.84" height="3.84"></rect>
                    <rect id="Rectangle-path" x="23.04" y="15.36" width="3.84" height="3.84"></rect>
                    <rect id="Rectangle-path" x="30.72" y="15.36" width="3.84" height="3.84"></rect>
                    <rect id="Rectangle-path" x="34.56" y="15.36" width="3.84" height="3.84"></rect>
                    <rect id="Rectangle-path" x="38.4" y="15.36" width="3.84" height="3.84"></rect>
                    <rect id="Rectangle-path" x="49.92" y="15.36" width="3.84" height="3.84"></rect>
                    <rect id="Rectangle-path" x="53.76" y="15.36" width="3.84" height="3.84"></rect>
                    <rect id="Rectangle-path" x="69.12" y="15.36" width="3.84" height="3.84"></rect>
                    <rect id="Rectangle-path" x="76.8" y="15.36" width="3.84" height="3.84"></rect>
                    <rect id="Rectangle-path" x="80.64" y="15.36" width="3.84" height="3.84"></rect>
                    <rect id="Rectangle-path" x="84.48" y="15.36" width="3.84" height="3.84"></rect>
                    <rect id="Rectangle-path" x="92.16" y="15.36" width="3.84" height="3.84"></rect>
                    <rect id="Rectangle-path" x="0" y="19.2" width="3.84" height="3.84"></rect>
                    <rect id="Rectangle-path" x="23.04" y="19.2" width="3.84" height="3.84"></rect>
                    <rect id="Rectangle-path" x="34.56" y="19.2" width="3.84" height="3.84"></rect>
                    <rect id="Rectangle-path" x="49.92" y="19.2" width="3.84" height="3.84"></rect>
                    <rect id="Rectangle-path" x="53.76" y="19.2" width="3.84" height="3.84"></rect>
                    <rect id="Rectangle-path" x="69.12" y="19.2" width="3.84" height="3.84"></rect>
                    <rect id="Rectangle-path" x="92.16" y="19.2" width="3.84" height="3.84"></rect>
                    <rect id="Rectangle-path" x="0" y="23.04" width="3.84" height="3.84"></rect>
                    <rect id="Rectangle-path" x="3.84" y="23.04" width="3.84" height="3.84"></rect>
                    <rect id="Rectangle-path" x="7.68" y="23.04" width="3.84" height="3.84"></rect>
                    <rect id="Rectangle-path" x="11.52" y="23.04" width="3.84" height="3.84"></rect>
                    <rect id="Rectangle-path" x="15.36" y="23.04" width="3.84" height="3.84"></rect>
                    <rect id="Rectangle-path" x="19.2" y="23.04" width="3.84" height="3.84"></rect>
                    <rect id="Rectangle-path" x="23.04" y="23.04" width="3.84" height="3.84"></rect>
                    <rect id="Rectangle-path" x="30.72" y="23.04" width="3.84" height="3.84"></rect>
                    <rect id="Rectangle-path" x="38.4" y="23.04" width="3.84" height="3.84"></rect>
                    <rect id="Rectangle-path" x="46.08" y="23.04" width="3.84" height="3.84"></rect>
                    <rect id="Rectangle-path" x="53.76" y="23.04" width="3.84" height="3.84"></rect>
                    <rect id="Rectangle-path" x="61.44" y="23.04" width="3.84" height="3.84"></rect>
                    <rect id="Rectangle-path" x="69.12" y="23.04" width="3.84" height="3.84"></rect>
                    <rect id="Rectangle-path" x="72.96" y="23.04" width="3.84" height="3.84"></rect>
                    <rect id="Rectangle-path" x="76.8" y="23.04" width="3.84" height="3.84"></rect>
                    <rect id="Rectangle-path" x="80.64" y="23.04" width="3.84" height="3.84"></rect>
                    <rect id="Rectangle-path" x="84.48" y="23.04" width="3.84" height="3.84"></rect>
                    <rect id="Rectangle-path" x="88.32" y="23.04" width="3.84" height="3.84"></rect>
                    <rect id="Rectangle-path" x="92.16" y="23.04" width="3.84" height="3.84"></rect>
                    <rect id="Rectangle-path" x="34.56" y="26.88" width="3.84" height="3.84"></rect>
                    <rect id="Rectangle-path" x="38.4" y="26.88" width="3.84" height="3.84"></rect>
                    <rect id="Rectangle-path" x="42.24" y="26.88" width="3.84" height="3.84"></rect>
                    <rect id="Rectangle-path" x="46.08" y="26.88" width="3.84" height="3.84"></rect>
                    <rect id="Rectangle-path" x="49.92" y="26.88" width="3.84" height="3.84"></rect>
                    <rect id="Rectangle-path" x="57.6" y="26.88" width="3.84" height="3.84"></rect>
                    <rect id="Rectangle-path" x="61.44" y="26.88" width="3.84" height="3.84"></rect>
                    <rect id="Rectangle-path" x="0" y="30.72" width="3.84" height="3.84"></rect>
                    <rect id="Rectangle-path" x="11.52" y="30.72" width="3.84" height="3.84"></rect>
                    <rect id="Rectangle-path" x="15.36" y="30.72" width="3.84" height="3.84"></rect>
                    <rect id="Rectangle-path" x="19.2" y="30.72" width="3.84" height="3.84"></rect>
                    <rect id="Rectangle-path" x="23.04" y="30.72" width="3.84" height="3.84"></rect>
                    <rect id="Rectangle-path" x="26.88" y="30.72" width="3.84" height="3.84"></rect>
                    <rect id="Rectangle-path" x="30.72" y="30.72" width="3.84" height="3.84"></rect>
                    <rect id="Rectangle-path" x="38.4" y="30.72" width="3.84" height="3.84"></rect>
                    <rect id="Rectangle-path" x="42.24" y="30.72" width="3.84" height="3.84"></rect>
                    <rect id="Rectangle-path" x="46.08" y="30.72" width="3.84" height="3.84"></rect>
                    <rect id="Rectangle-path" x="53.76" y="30.72" width="3.84" height="3.84"></rect>
                    <rect id="Rectangle-path" x="61.44" y="30.72" width="3.84" height="3.84"></rect>
                    <rect id="Rectangle-path" x="65.28" y="30.72" width="3.84" height="3.84"></rect>
                    <rect id="Rectangle-path" x="76.8" y="30.72" width="3.84" height="3.84"></rect>
                    <rect id="Rectangle-path" x="84.48" y="30.72" width="3.84" height="3.84"></rect>
                    <rect id="Rectangle-path" x="88.32" y="30.72" width="3.84" height="3.84"></rect>
                    <rect id="Rectangle-path" x="92.16" y="30.72" width="3.84" height="3.84"></rect>
                    <rect id="Rectangle-path" x="0" y="34.56" width="3.84" height="3.84"></rect>
                    <rect id="Rectangle-path" x="19.2" y="34.56" width="3.84" height="3.84"></rect>
                    <rect id="Rectangle-path" x="26.88" y="34.56" width="3.84" height="3.84"></rect>
                    <rect id="Rectangle-path" x="30.72" y="34.56" width="3.84" height="3.84"></rect>
                    <rect id="Rectangle-path" x="34.56" y="34.56" width="3.84" height="3.84"></rect>
                    <rect id="Rectangle-path" x="38.4" y="34.56" width="3.84" height="3.84"></rect>
                    <rect id="Rectangle-path" x="42.24" y="34.56" width="3.84" height="3.84"></rect>
                    <rect id="Rectangle-path" x="49.92" y="34.56" width="3.84" height="3.84"></rect>
                    <rect id="Rectangle-path" x="53.76" y="34.56" width="3.84" height="3.84"></rect>
                    <rect id="Rectangle-path" x="57.6" y="34.56" width="3.84" height="3.84"></rect>
                    <rect id="Rectangle-path" x="65.28" y="34.56" width="3.84" height="3.84"></rect>
                    <rect id="Rectangle-path" x="72.96" y="34.56" width="3.84" height="3.84"></rect>
                    <rect id="Rectangle-path" x="76.8" y="34.56" width="3.84" height="3.84"></rect>
                    <rect id="Rectangle-path" x="80.64" y="34.56" width="3.84" height="3.84"></rect>
                    <rect id="Rectangle-path" x="84.48" y="34.56" width="3.84" height="3.84"></rect>
                    <rect id="Rectangle-path" x="88.32" y="34.56" width="3.84" height="3.84"></rect>
                    <rect id="Rectangle-path" x="3.84" y="38.4" width="3.84" height="3.84"></rect>
                    <rect id="Rectangle-path" x="7.68" y="38.4" width="3.84" height="3.84"></rect>
                    <rect id="Rectangle-path" x="11.52" y="38.4" width="3.84" height="3.84"></rect>
                    <rect id="Rectangle-path" x="15.36" y="38.4" width="3.84" height="3.84"></rect>
                    <rect id="Rectangle-path" x="19.2" y="38.4" width="3.84" height="3.84"></rect>
                    <rect id="Rectangle-path" x="23.04" y="38.4" width="3.84" height="3.84"></rect>
                    <rect id="Rectangle-path" x="26.88" y="38.4" width="3.84" height="3.84"></rect>
                    <rect id="Rectangle-path" x="30.72" y="38.4" width="3.84" height="3.84"></rect>
                    <rect id="Rectangle-path" x="42.24" y="38.4" width="3.84" height="3.84"></rect>
                    <rect id="Rectangle-path" x="57.6" y="38.4" width="3.84" height="3.84"></rect>
                    <rect id="Rectangle-path" x="61.44" y="38.4" width="3.84" height="3.84"></rect>
                    <rect id="Rectangle-path" x="69.12" y="38.4" width="3.84" height="3.84"></rect>
                    <rect id="Rectangle-path" x="72.96" y="38.4" width="3.84" height="3.84"></rect>
                    <rect id="Rectangle-path" x="80.64" y="38.4" width="3.84" height="3.84"></rect>
                    <rect id="Rectangle-path" x="92.16" y="38.4" width="3.84" height="3.84"></rect>
                    <rect id="Rectangle-path" x="3.84" y="42.24" width="3.84" height="3.84"></rect>
                    <rect id="Rectangle-path" x="11.52" y="42.24" width="3.84" height="3.84"></rect>
                    <rect id="Rectangle-path" x="15.36" y="42.24" width="3.84" height="3.84"></rect>
                    <rect id="Rectangle-path" x="26.88" y="42.24" width="3.84" height="3.84"></rect>
                    <rect id="Rectangle-path" x="38.4" y="42.24" width="3.84" height="3.84"></rect>
                    <rect id="Rectangle-path" x="53.76" y="42.24" width="3.84" height="3.84"></rect>
                    <rect id="Rectangle-path" x="61.44" y="42.24" width="3.84" height="3.84"></rect>
                    <rect id="Rectangle-path" x="72.96" y="42.24" width="3.84" height="3.84"></rect>
                    <rect id="Rectangle-path" x="80.64" y="42.24" width="3.84" height="3.84"></rect>
                    <rect id="Rectangle-path" x="84.48" y="42.24" width="3.84" height="3.84"></rect>
                    <rect id="Rectangle-path" x="88.32" y="42.24" width="3.84" height="3.84"></rect>
                    <rect id="Rectangle-path" x="92.16" y="42.24" width="3.84" height="3.84"></rect>
                    <rect id="Rectangle-path" x="7.68" y="46.08" width="3.84" height="3.84"></rect>
                    <rect id="Rectangle-path" x="15.36" y="46.08" width="3.84" height="3.84"></rect>
                    <rect id="Rectangle-path" x="19.2" y="46.08" width="3.84" height="3.84"></rect>
                    <rect id="Rectangle-path" x="23.04" y="46.08" width="3.84" height="3.84"></rect>
                    <rect id="Rectangle-path" x="26.88" y="46.08" width="3.84" height="3.84"></rect>
                    <rect id="Rectangle-path" x="34.56" y="46.08" width="3.84" height="3.84"></rect>
                    <rect id="Rectangle-path" x="42.24" y="46.08" width="3.84" height="3.84"></rect>
                    <rect id="Rectangle-path" x="53.76" y="46.08" width="3.84" height="3.84"></rect>
                    <rect id="Rectangle-path" x="57.6" y="46.08" width="3.84" height="3.84"></rect>
                    <rect id="Rectangle-path" x="61.44" y="46.08" width="3.84" height="3.84"></rect>
                    <rect id="Rectangle-path" x="65.28" y="46.08" width="3.84" height="3.84"></rect>
                    <rect id="Rectangle-path" x="69.12" y="46.08" width="3.84" height="3.84"></rect>
                    <rect id="Rectangle-path" x="92.16" y="46.08" width="3.84" height="3.84"></rect>
                    <rect id="Rectangle-path" x="15.36" y="49.92" width="3.84" height="3.84"></rect>
                    <rect id="Rectangle-path" x="30.72" y="49.92" width="3.84" height="3.84"></rect>
                    <rect id="Rectangle-path" x="34.56" y="49.92" width="3.84" height="3.84"></rect>
                    <rect id="Rectangle-path" x="46.08" y="49.92" width="3.84" height="3.84"></rect>
                    <rect id="Rectangle-path" x="53.76" y="49.92" width="3.84" height="3.84"></rect>
                    <rect id="Rectangle-path" x="57.6" y="49.92" width="3.84" height="3.84"></rect>
                    <rect id="Rectangle-path" x="61.44" y="49.92" width="3.84" height="3.84"></rect>
                    <rect id="Rectangle-path" x="76.8" y="49.92" width="3.84" height="3.84"></rect>
                    <rect id="Rectangle-path" x="88.32" y="49.92" width="3.84" height="3.84"></rect>
                    <rect id="Rectangle-path" x="15.36" y="53.76" width="3.84" height="3.84"></rect>
                    <rect id="Rectangle-path" x="19.2" y="53.76" width="3.84" height="3.84"></rect>
                    <rect id="Rectangle-path" x="23.04" y="53.76" width="3.84" height="3.84"></rect>
                    <rect id="Rectangle-path" x="26.88" y="53.76" width="3.84" height="3.84"></rect>
                    <rect id="Rectangle-path" x="38.4" y="53.76" width="3.84" height="3.84"></rect>
                    <rect id="Rectangle-path" x="53.76" y="53.76" width="3.84" height="3.84"></rect>
                    <rect id="Rectangle-path" x="57.6" y="53.76" width="3.84" height="3.84"></rect>
                    <rect id="Rectangle-path" x="61.44" y="53.76" width="3.84" height="3.84"></rect>
                    <rect id="Rectangle-path" x="65.28" y="53.76" width="3.84" height="3.84"></rect>
                    <rect id="Rectangle-path" x="76.8" y="53.76" width="3.84" height="3.84"></rect>
                    <rect id="Rectangle-path" x="80.64" y="53.76" width="3.84" height="3.84"></rect>
                    <rect id="Rectangle-path" x="84.48" y="53.76" width="3.84" height="3.84"></rect>
                    <rect id="Rectangle-path" x="88.32" y="53.76" width="3.84" height="3.84"></rect>
                    <rect id="Rectangle-path" x="92.16" y="53.76" width="3.84" height="3.84"></rect>
                    <rect id="Rectangle-path" x="3.84" y="57.6" width="3.84" height="3.84"></rect>
                    <rect id="Rectangle-path" x="7.68" y="57.6" width="3.84" height="3.84"></rect>
                    <rect id="Rectangle-path" x="15.36" y="57.6" width="3.84" height="3.84"></rect>
                    <rect id="Rectangle-path" x="34.56" y="57.6" width="3.84" height="3.84"></rect>
                    <rect id="Rectangle-path" x="38.4" y="57.6" width="3.84" height="3.84"></rect>
                    <rect id="Rectangle-path" x="46.08" y="57.6" width="3.84" height="3.84"></rect>
                    <rect id="Rectangle-path" x="53.76" y="57.6" width="3.84" height="3.84"></rect>
                    <rect id="Rectangle-path" x="57.6" y="57.6" width="3.84" height="3.84"></rect>
                    <rect id="Rectangle-path" x="72.96" y="57.6" width="3.84" height="3.84"></rect>
                    <rect id="Rectangle-path" x="76.8" y="57.6" width="3.84" height="3.84"></rect>
                    <rect id="Rectangle-path" x="84.48" y="57.6" width="3.84" height="3.84"></rect>
                    <rect id="Rectangle-path" x="92.16" y="57.6" width="3.84" height="3.84"></rect>
                    <rect id="Rectangle-path" x="3.84" y="61.44" width="3.84" height="3.84"></rect>
                    <rect id="Rectangle-path" x="7.68" y="61.44" width="3.84" height="3.84"></rect>
                    <rect id="Rectangle-path" x="19.2" y="61.44" width="3.84" height="3.84"></rect>
                    <rect id="Rectangle-path" x="23.04" y="61.44" width="3.84" height="3.84"></rect>
                    <rect id="Rectangle-path" x="26.88" y="61.44" width="3.84" height="3.84"></rect>
                    <rect id="Rectangle-path" x="30.72" y="61.44" width="3.84" height="3.84"></rect>
                    <rect id="Rectangle-path" x="42.24" y="61.44" width="3.84" height="3.84"></rect>
                    <rect id="Rectangle-path" x="46.08" y="61.44" width="3.84" height="3.84"></rect>
                    <rect id="Rectangle-path" x="49.92" y="61.44" width="3.84" height="3.84"></rect>
                    <rect id="Rectangle-path" x="61.44" y="61.44" width="3.84" height="3.84"></rect>
                    <rect id="Rectangle-path" x="65.28" y="61.44" width="3.84" height="3.84"></rect>
                    <rect id="Rectangle-path" x="69.12" y="61.44" width="3.84" height="3.84"></rect>
                    <rect id="Rectangle-path" x="72.96" y="61.44" width="3.84" height="3.84"></rect>
                    <rect id="Rectangle-path" x="76.8" y="61.44" width="3.84" height="3.84"></rect>
                    <rect id="Rectangle-path" x="84.48" y="61.44" width="3.84" height="3.84"></rect>
                    <rect id="Rectangle-path" x="88.32" y="61.44" width="3.84" height="3.84"></rect>
                    <rect id="Rectangle-path" x="30.72" y="65.28" width="3.84" height="3.84"></rect>
                    <rect id="Rectangle-path" x="34.56" y="65.28" width="3.84" height="3.84"></rect>
                    <rect id="Rectangle-path" x="42.24" y="65.28" width="3.84" height="3.84"></rect>
                    <rect id="Rectangle-path" x="53.76" y="65.28" width="3.84" height="3.84"></rect>
                    <rect id="Rectangle-path" x="61.44" y="65.28" width="3.84" height="3.84"></rect>
                    <rect id="Rectangle-path" x="76.8" y="65.28" width="3.84" height="3.84"></rect>
                    <rect id="Rectangle-path" x="88.32" y="65.28" width="3.84" height="3.84"></rect>
                    <rect id="Rectangle-path" x="0" y="69.12" width="3.84" height="3.84"></rect>
                    <rect id="Rectangle-path" x="3.84" y="69.12" width="3.84" height="3.84"></rect>
                    <rect id="Rectangle-path" x="7.68" y="69.12" width="3.84" height="3.84"></rect>
                    <rect id="Rectangle-path" x="11.52" y="69.12" width="3.84" height="3.84"></rect>
                    <rect id="Rectangle-path" x="15.36" y="69.12" width="3.84" height="3.84"></rect>
                    <rect id="Rectangle-path" x="19.2" y="69.12" width="3.84" height="3.84"></rect>
                    <rect id="Rectangle-path" x="23.04" y="69.12" width="3.84" height="3.84"></rect>
                    <rect id="Rectangle-path" x="30.72" y="69.12" width="3.84" height="3.84"></rect>
                    <rect id="Rectangle-path" x="38.4" y="69.12" width="3.84" height="3.84"></rect>
                    <rect id="Rectangle-path" x="46.08" y="69.12" width="3.84" height="3.84"></rect>
                    <rect id="Rectangle-path" x="49.92" y="69.12" width="3.84" height="3.84"></rect>
                    <rect id="Rectangle-path" x="61.44" y="69.12" width="3.84" height="3.84"></rect>
                    <rect id="Rectangle-path" x="69.12" y="69.12" width="3.84" height="3.84"></rect>
                    <rect id="Rectangle-path" x="76.8" y="69.12" width="3.84" height="3.84"></rect>
                    <rect id="Rectangle-path" x="80.64" y="69.12" width="3.84" height="3.84"></rect>
                    <rect id="Rectangle-path" x="92.16" y="69.12" width="3.84" height="3.84"></rect>
                    <rect id="Rectangle-path" x="0" y="72.96" width="3.84" height="3.84"></rect>
                    <rect id="Rectangle-path" x="23.04" y="72.96" width="3.84" height="3.84"></rect>
                    <rect id="Rectangle-path" x="30.72" y="72.96" width="3.84" height="3.84"></rect>
                    <rect id="Rectangle-path" x="34.56" y="72.96" width="3.84" height="3.84"></rect>
                    <rect id="Rectangle-path" x="42.24" y="72.96" width="3.84" height="3.84"></rect>
                    <rect id="Rectangle-path" x="49.92" y="72.96" width="3.84" height="3.84"></rect>
                    <rect id="Rectangle-path" x="53.76" y="72.96" width="3.84" height="3.84"></rect>
                    <rect id="Rectangle-path" x="57.6" y="72.96" width="3.84" height="3.84"></rect>
                    <rect id="Rectangle-path" x="61.44" y="72.96" width="3.84" height="3.84"></rect>
                    <rect id="Rectangle-path" x="76.8" y="72.96" width="3.84" height="3.84"></rect>
                    <rect id="Rectangle-path" x="92.16" y="72.96" width="3.84" height="3.84"></rect>
                    <rect id="Rectangle-path" x="0" y="76.8" width="3.84" height="3.84"></rect>
                    <rect id="Rectangle-path" x="7.68" y="76.8" width="3.84" height="3.84"></rect>
                    <rect id="Rectangle-path" x="11.52" y="76.8" width="3.84" height="3.84"></rect>
                    <rect id="Rectangle-path" x="15.36" y="76.8" width="3.84" height="3.84"></rect>
                    <rect id="Rectangle-path" x="23.04" y="76.8" width="3.84" height="3.84"></rect>
                    <rect id="Rectangle-path" x="30.72" y="76.8" width="3.84" height="3.84"></rect>
                    <rect id="Rectangle-path" x="38.4" y="76.8" width="3.84" height="3.84"></rect>
                    <rect id="Rectangle-path" x="42.24" y="76.8" width="3.84" height="3.84"></rect>
                    <rect id="Rectangle-path" x="46.08" y="76.8" width="3.84" height="3.84"></rect>
                    <rect id="Rectangle-path" x="53.76" y="76.8" width="3.84" height="3.84"></rect>
                    <rect id="Rectangle-path" x="57.6" y="76.8" width="3.84" height="3.84"></rect>
                    <rect id="Rectangle-path" x="61.44" y="76.8" width="3.84" height="3.84"></rect>
                    <rect id="Rectangle-path" x="65.28" y="76.8" width="3.84" height="3.84"></rect>
                    <rect id="Rectangle-path" x="69.12" y="76.8" width="3.84" height="3.84"></rect>
                    <rect id="Rectangle-path" x="72.96" y="76.8" width="3.84" height="3.84"></rect>
                    <rect id="Rectangle-path" x="76.8" y="76.8" width="3.84" height="3.84"></rect>
                    <rect id="Rectangle-path" x="80.64" y="76.8" width="3.84" height="3.84"></rect>
                    <rect id="Rectangle-path" x="0" y="80.64" width="3.84" height="3.84"></rect>
                    <rect id="Rectangle-path" x="7.68" y="80.64" width="3.84" height="3.84"></rect>
                    <rect id="Rectangle-path" x="11.52" y="80.64" width="3.84" height="3.84"></rect>
                    <rect id="Rectangle-path" x="15.36" y="80.64" width="3.84" height="3.84"></rect>
                    <rect id="Rectangle-path" x="23.04" y="80.64" width="3.84" height="3.84"></rect>
                    <rect id="Rectangle-path" x="30.72" y="80.64" width="3.84" height="3.84"></rect>
                    <rect id="Rectangle-path" x="46.08" y="80.64" width="3.84" height="3.84"></rect>
                    <rect id="Rectangle-path" x="57.6" y="80.64" width="3.84" height="3.84"></rect>
                    <rect id="Rectangle-path" x="61.44" y="80.64" width="3.84" height="3.84"></rect>
                    <rect id="Rectangle-path" x="65.28" y="80.64" width="3.84" height="3.84"></rect>
                    <rect id="Rectangle-path" x="69.12" y="80.64" width="3.84" height="3.84"></rect>
                    <rect id="Rectangle-path" x="72.96" y="80.64" width="3.84" height="3.84"></rect>
                    <rect id="Rectangle-path" x="80.64" y="80.64" width="3.84" height="3.84"></rect>
                    <rect id="Rectangle-path" x="88.32" y="80.64" width="3.84" height="3.84"></rect>
                    <rect id="Rectangle-path" x="92.16" y="80.64" width="3.84" height="3.84"></rect>
                    <rect id="Rectangle-path" x="0" y="84.48" width="3.84" height="3.84"></rect>
                    <rect id="Rectangle-path" x="7.68" y="84.48" width="3.84" height="3.84"></rect>
                    <rect id="Rectangle-path" x="11.52" y="84.48" width="3.84" height="3.84"></rect>
                    <rect id="Rectangle-path" x="15.36" y="84.48" width="3.84" height="3.84"></rect>
                    <rect id="Rectangle-path" x="23.04" y="84.48" width="3.84" height="3.84"></rect>
                    <rect id="Rectangle-path" x="34.56" y="84.48" width="3.84" height="3.84"></rect>
                    <rect id="Rectangle-path" x="42.24" y="84.48" width="3.84" height="3.84"></rect>
                    <rect id="Rectangle-path" x="49.92" y="84.48" width="3.84" height="3.84"></rect>
                    <rect id="Rectangle-path" x="72.96" y="84.48" width="3.84" height="3.84"></rect>
                    <rect id="Rectangle-path" x="76.8" y="84.48" width="3.84" height="3.84"></rect>
                    <rect id="Rectangle-path" x="84.48" y="84.48" width="3.84" height="3.84"></rect>
                    <rect id="Rectangle-path" x="88.32" y="84.48" width="3.84" height="3.84"></rect>
                    <rect id="Rectangle-path" x="92.16" y="84.48" width="3.84" height="3.84"></rect>
                    <rect id="Rectangle-path" x="0" y="88.32" width="3.84" height="3.84"></rect>
                    <rect id="Rectangle-path" x="23.04" y="88.32" width="3.84" height="3.84"></rect>
                    <rect id="Rectangle-path" x="34.56" y="88.32" width="3.84" height="3.84"></rect>
                    <rect id="Rectangle-path" x="38.4" y="88.32" width="3.84" height="3.84"></rect>
                    <rect id="Rectangle-path" x="53.76" y="88.32" width="3.84" height="3.84"></rect>
                    <rect id="Rectangle-path" x="65.28" y="88.32" width="3.84" height="3.84"></rect>
                    <rect id="Rectangle-path" x="69.12" y="88.32" width="3.84" height="3.84"></rect>
                    <rect id="Rectangle-path" x="72.96" y="88.32" width="3.84" height="3.84"></rect>
                    <rect id="Rectangle-path" x="76.8" y="88.32" width="3.84" height="3.84"></rect>
                    <rect id="Rectangle-path" x="84.48" y="88.32" width="3.84" height="3.84"></rect>
                    <rect id="Rectangle-path" x="88.32" y="88.32" width="3.84" height="3.84"></rect>
                    <rect id="Rectangle-path" x="92.16" y="88.32" width="3.84" height="3.84"></rect>
                    <rect id="Rectangle-path" x="0" y="92.16" width="3.84" height="3.84"></rect>
                    <rect id="Rectangle-path" x="3.84" y="92.16" width="3.84" height="3.84"></rect>
                    <rect id="Rectangle-path" x="7.68" y="92.16" width="3.84" height="3.84"></rect>
                    <rect id="Rectangle-path" x="11.52" y="92.16" width="3.84" height="3.84"></rect>
                    <rect id="Rectangle-path" x="15.36" y="92.16" width="3.84" height="3.84"></rect>
                    <rect id="Rectangle-path" x="19.2" y="92.16" width="3.84" height="3.84"></rect>
                    <rect id="Rectangle-path" x="23.04" y="92.16" width="3.84" height="3.84"></rect>
                    <rect id="Rectangle-path" x="30.72" y="92.16" width="3.84" height="3.84"></rect>
                    <rect id="Rectangle-path" x="34.56" y="92.16" width="3.84" height="3.84"></rect>
                    <rect id="Rectangle-path" x="46.08" y="92.16" width="3.84" height="3.84"></rect>
                    <rect id="Rectangle-path" x="53.76" y="92.16" width="3.84" height="3.84"></rect>
                    <rect id="Rectangle-path" x="61.44" y="92.16" width="3.84" height="3.84"></rect>
                    <rect id="Rectangle-path" x="80.64" y="92.16" width="3.84" height="3.84"></rect>
                    <rect id="Rectangle-path" x="92.16" y="92.16" width="3.84" height="3.84"></rect>
                </g>
            </g>
        </g>
    </g>
</svg>