<?xml version="1.0" encoding="UTF-8" standalone="no"?>
<svg width="130px" height="40px" viewBox="0 0 130 40" version="1.1" xmlns="http://www.w3.org/2000/svg" xmlns:xlink="http://www.w3.org/1999/xlink">
    <!-- Generator: Sketch 3.7.2 (28276) - http://www.bohemiancoding.com/sketch -->
    <title>btn-download-appstore</title>
    <desc>Created with Sketch.</desc>
    <defs></defs>
    <g id="Page-1" stroke="none" stroke-width="1" fill="none" fill-rule="evenodd">
        <g id="Button---App-Store-Copy">
            <rect id="Button" fill="#2B2D32" x="0" y="0" width="130" height="40" rx="2"></rect>
            <path d="M31.8672613,19.0843384 C31.8415165,16.2231086 34.210043,14.831111 34.3183489,14.766305 C32.9769533,12.8105839 30.8978344,12.5433701 30.1672132,12.522064 C28.421002,12.338299 26.7271681,13.56695 25.8376391,13.56695 C24.9303549,13.56695 23.5605512,12.5398191 22.084217,12.5700027 C20.1844243,12.5992986 18.4071417,13.6992252 17.4323883,15.4072631 C15.4207387,18.8899204 16.9210422,24.0078197 18.8483552,26.8228863 C19.8124556,28.2024553 20.9390149,29.7409322 22.4135736,29.6867793 C23.8561731,29.6281875 24.3950395,28.7670666 26.1359243,28.7670666 C27.8608295,28.7670666 28.366849,29.6867793 29.8707035,29.6512691 C31.4189458,29.6281875 32.3936992,28.2672613 33.3240649,26.8752637 C34.4381956,25.2968379 34.8856234,23.7388304 34.9033785,23.6589325 C34.8678684,23.6473917 31.8974449,22.5137304 31.8672613,19.0843384 Z M29.0264499,10.6702101 C29.8023465,9.69989542 30.3332231,8.37980586 30.185856,7.04018573 C29.0628478,7.08989992 27.6584216,7.8169701 26.8496781,8.76597866 C26.1341488,9.60224252 25.4949662,10.972934 25.6600884,12.2619522 C26.9215862,12.3560541 28.2168186,11.6254329 29.0264499,10.6702101 Z" id="Combined-Shape" fill="#FFFFFF"></path>
            <path d="M52.7623171,29.4888102 L50.7462287,29.4888102 L49.6418633,26.0185815 L45.8032168,26.0185815 L44.7512289,29.4888102 L42.7884057,29.4888102 L46.5924298,17.6745857 L48.9414257,17.6745857 L52.7623171,29.4888102 L52.7623171,29.4888102 Z M49.3089557,24.5626657 L48.3102329,21.4786098 C48.2045902,21.1625695 48.0057334,20.4204075 47.7145503,19.2521238 L47.6790401,19.2521238 C47.5618566,19.7545923 47.3745406,20.4967543 47.1179799,21.4786098 L46.1361244,24.5626657 L49.3089557,24.5626657 Z M62.5258308,25.1246137 C62.5258308,26.5734275 62.132556,27.7186296 61.3451186,28.5593322 C60.6402422,29.3077085 59.7640295,29.6814527 58.7191435,29.6814527 C57.5908087,29.6814527 56.779402,29.2793004 56.2866987,28.4723324 L56.2866987,32.9421716 L54.3940081,32.9421716 L54.3940081,23.7699017 C54.3940081,22.8599543 54.3700388,21.9269253 54.3238756,20.969927 L55.9884135,20.969927 L56.0940562,22.3210879 L56.1295663,22.3210879 C56.7607591,21.3028346 57.7186452,20.7941518 59.0041124,20.7941518 C60.0090494,20.7941518 60.8479766,21.1909776 61.5191183,21.9855171 C62.1893722,22.781832 62.5258308,23.8276057 62.5258308,25.1246137 Z M60.5976301,25.1938585 C60.5976301,24.3646966 60.4112018,23.6811264 60.0365698,23.1431477 C59.6273154,22.5829752 59.0777959,22.3015573 58.3888992,22.3015573 C57.9219408,22.3015573 57.4975946,22.457802 57.1185238,22.7667402 C56.7385653,23.0765662 56.4899943,23.4822696 56.3736986,23.9856258 C56.3151068,24.219105 56.285811,24.4099721 56.285811,24.5608902 L56.285811,25.9830714 C56.285811,26.6009479 56.4757902,27.1238347 56.8557488,27.5517319 C57.2357073,27.9778536 57.7292983,28.1918023 58.3365217,28.1918023 C59.0493878,28.1918023 59.6042338,27.9157109 60.0010597,27.3679669 C60.3987733,26.8184475 60.5976301,26.0940406 60.5976301,25.1938585 Z M72.3239669,25.1246137 C72.3239669,26.5734275 71.9306921,27.7186296 71.1432547,28.5593322 C70.4374906,29.3077085 69.5621656,29.6814527 68.5163919,29.6814527 C67.3889449,29.6814527 66.5775381,29.2793004 66.0839471,28.4723324 L66.0839471,32.9421716 L64.1912565,32.9421716 L64.1912565,23.7699017 C64.1912565,22.8599543 64.1672872,21.9269253 64.121124,20.969927 L65.7856619,20.969927 L65.8913046,22.3210879 L65.9268147,22.3210879 C66.5571198,21.3028346 67.5150059,20.7941518 68.8013608,20.7941518 C69.8054101,20.7941518 70.6452249,21.1909776 71.3172544,21.9855171 C71.9866206,22.781832 72.3239669,23.8276057 72.3239669,25.1246137 Z M70.3948784,25.1938585 C70.3948784,24.3646966 70.2075624,23.6811264 69.8329304,23.1431477 C69.4245638,22.5829752 68.8759321,22.3015573 68.1870353,22.3015573 C67.7200769,22.3015573 67.2957307,22.457802 66.9148844,22.7667402 C66.5358137,23.0765662 66.2872427,23.4822696 66.170947,23.9856258 C66.113243,24.219105 66.0821716,24.4099721 66.0821716,24.5608902 L66.0821716,25.9830714 C66.0821716,26.6009479 66.2730386,27.1238347 66.6512216,27.5517319 C67.0311802,27.9769659 67.5247711,28.1918023 68.1337701,28.1918023 C68.847524,28.1918023 69.4023699,27.9157109 69.798308,27.3679669 C70.1960216,26.8184475 70.3948784,26.0940406 70.3948784,25.1938585 Z M83.278846,26.1757139 C83.278846,27.1806509 82.9281833,27.998272 82.2286335,28.6294648 C81.4598389,29.3183615 80.3865449,29.6636977 79.0105268,29.6636977 C77.7392637,29.6636977 76.7201226,29.4186777 75.951328,28.92775 L76.3889905,27.3502119 C77.2190401,27.8411396 78.130763,28.0870473 79.1232715,28.0870473 C79.8370254,28.0870473 80.3918714,27.9254762 80.7878095,27.6049971 C81.1855231,27.2827426 81.3852676,26.8539576 81.3852676,26.3177545 C81.3852676,25.8374798 81.2201455,25.4344397 80.8934521,25.1068586 C80.5658711,24.781053 80.0243414,24.4756658 79.2644243,24.1969112 C77.1959585,23.4254533 76.1608379,22.2962308 76.1608379,20.8127946 C76.1608379,19.8433677 76.5265923,19.049716 77.255438,18.4291763 C77.9851715,17.8095243 78.9528228,17.4996983 80.1566167,17.4996983 C81.2316863,17.4996983 82.1274296,17.6870143 82.8385202,18.0607585 L82.3635721,19.6036742 C81.6942059,19.2414708 80.9387276,19.060369 80.0935862,19.060369 C79.4259955,19.060369 78.9013331,19.2246035 78.5275889,19.5512968 C78.2124364,19.8433677 78.051753,20.1993569 78.051753,20.6219276 C78.051753,21.0879982 78.2337424,21.4750588 78.5968337,21.7777827 C78.9110984,22.0583128 79.4845872,22.3628123 80.3137491,22.6895056 C81.3311147,23.0996478 82.0777154,23.5772592 82.5571023,24.1258909 C83.0391525,24.6745226 83.278846,25.3589806 83.278846,26.1757139 Z M89.5526005,22.3903327 L87.4663796,22.3903327 L87.4663796,26.5263766 C87.4663796,27.5783645 87.8339095,28.1030269 88.570745,28.1030269 C88.9089791,28.1030269 89.1895092,28.0746188 89.4114476,28.0151393 L89.4638251,29.4524123 C89.0909686,29.5917896 88.6000409,29.6619222 87.9928174,29.6619222 C87.2444412,29.6619222 86.6611871,29.4328817 86.2386164,28.9774642 C85.8178212,28.5211588 85.6074236,27.756803 85.6074236,26.6808457 L85.6074236,22.3867817 L84.3654563,22.3867817 L84.3654563,20.966376 L85.6074236,20.966376 L85.6074236,19.4065929 L87.4663796,18.8455327 L87.4663796,20.966376 L89.5526005,20.966376 L89.5526005,22.3903327 Z M98.9468087,25.1592361 C98.9468087,26.4686726 98.5730645,27.5437421 97.8246882,28.3844448 C97.0425773,29.2491168 96.0021301,29.6814527 94.7051222,29.6814527 C93.4533896,29.6814527 92.4582179,29.2668718 91.7160559,28.43771 C90.9738939,27.6085482 90.6028129,26.5627745 90.6028129,25.3012766 C90.6028129,23.9811871 90.9872102,22.8999032 91.7506783,22.0592006 C92.5159219,21.218498 93.5474915,20.796815 94.8444995,20.796815 C96.0953443,20.796815 97.0985058,21.2131715 97.8593106,22.0414455 C98.585493,22.846638 98.9468087,23.8844219 98.9468087,25.1592361 Z M96.9848733,25.202736 C96.9848733,24.4224006 96.8162002,23.7530344 96.477966,23.1928619 C96.0811402,22.5163937 95.5120902,22.1790473 94.7770302,22.1790473 C94.0197764,22.1790473 93.4365223,22.5163937 93.041472,23.1928619 C92.7014624,23.7530344 92.5336769,24.4339414 92.5336769,25.2382461 C92.5336769,26.0194693 92.7014624,26.690611 93.041472,27.2481202 C93.4507264,27.9254762 94.0215519,28.2637103 94.7619384,28.2637103 C95.4845698,28.2637103 96.0518443,27.9174864 96.4628742,27.2321406 C96.8099859,26.6586518 96.9848733,25.9848469 96.9848733,25.202736 Z M105.101604,22.6344649 C104.914288,22.5998425 104.713656,22.5829752 104.505034,22.5829752 C103.839219,22.5829752 103.324322,22.832434 102.962118,23.336678 C102.646966,23.7805548 102.489833,24.341615 102.489833,25.018971 L102.489833,29.4888102 L100.597143,29.4888102 L100.597143,23.6527183 C100.597143,22.6717506 100.5785,21.7760072 100.542102,20.9708147 L102.19066,20.9708147 L102.259905,22.6007303 L102.312282,22.6007303 C102.512915,22.0405578 102.82718,21.5886912 103.258628,21.2513449 C103.681198,20.9459576 104.135728,20.7941518 104.626656,20.7941518 C104.801544,20.7941518 104.959564,20.8074681 105.099829,20.8287742 L105.101604,22.6344649 Z M113.566334,24.8263285 C113.566334,25.1654503 113.544141,25.451307 113.49709,25.6847862 L107.819906,25.6847862 C107.840324,26.5263766 108.116415,27.1708856 108.642853,27.6147624 C109.121352,28.0107005 109.741004,28.2095573 110.500034,28.2095573 C111.340736,28.2095573 112.107755,28.0763943 112.79754,27.8065172 L113.09405,29.1203925 C112.287969,29.4710551 111.33541,29.6468304 110.238146,29.6468304 C108.917169,29.6468304 107.880273,29.2579943 107.125682,28.4820977 C106.373755,27.7053133 105.995572,26.6604273 105.995572,25.3536541 C105.995572,24.0699624 106.345347,23.0002194 107.048448,22.1470882 C107.783508,21.236253 108.776904,20.7808355 110.026861,20.7808355 C111.254624,20.7808355 112.184102,21.236253 112.814407,22.1470882 C113.3151,22.8688319 113.566334,23.7636875 113.566334,24.8263285 Z M111.761531,24.3354008 C111.774848,23.7734527 111.650562,23.2905148 111.394002,22.8803727 C111.06642,22.353047 110.562176,22.090272 109.886596,22.090272 C109.266944,22.090272 108.763588,22.3468328 108.380078,22.8617298 C108.064926,23.2709842 107.87761,23.7636875 107.819906,24.3336252 L111.761531,24.3354008 Z" id="Combined-Shape" fill="#FFFFFF"></path>
            <path d="M48.396345,13.4462155 L47.4047243,13.4462155 L46.8623068,11.7408409 L44.9758305,11.7408409 L44.4582702,13.4462155 L43.493282,13.4462155 L45.3628911,7.63941938 L46.5169707,7.63941938 L48.396345,13.4462155 L48.396345,13.4462155 Z M46.6989602,11.0253115 L46.2080325,9.5090284 C46.1565427,9.35367153 46.0615531,8.99235582 45.9150738,8.415316 L45.8973187,8.415316 C45.8369515,8.66477476 45.7508394,9.02697821 45.6212273,9.5090284 L45.1391772,11.0253115 L46.6989602,11.0253115 Z M53.0712553,9.25956965 L51.4857274,13.4462155 L50.5811065,13.4462155 L49.0470684,9.25956965 L50.0466789,9.25956965 L50.7622083,11.473627 C50.8829427,11.8438203 50.9859222,12.1971462 51.0631567,12.5327171 L51.0889016,12.5327171 C51.1581464,12.2317686 51.2611258,11.8784427 51.38985,11.473627 L52.0965019,9.25956965 L53.0712553,9.25956965 Z M56.4464944,13.4462155 L56.3772496,12.9641653 L56.3515047,12.9641653 C56.0674236,13.3521136 55.6537304,13.5412051 55.1281803,13.5412051 C54.3789163,13.5412051 53.8444887,13.015655 53.8444887,12.3090032 C53.8444887,11.275658 54.740232,10.7412304 56.2911375,10.7412304 L56.2911375,10.6639958 C56.2911375,10.1127008 55.9981788,9.83660947 55.421139,9.83660947 C55.0074458,9.83660947 54.6452424,9.94047663 54.3274266,10.1473232 L54.1383351,9.53566101 C54.5262834,9.29419204 55.0083336,9.17345755 55.5773836,9.17345755 C56.671096,9.17345755 57.2232787,9.75049737 57.2232787,10.9054648 L57.2232787,12.4474927 C57.2232787,12.8700634 57.2410338,13.1976445 57.283646,13.4471032 L56.4464944,13.4462155 Z M56.3168823,11.3608823 C55.2826494,11.3608823 54.7659769,11.6112289 54.7659769,12.205136 C54.7659769,12.644574 55.0331907,12.8594104 55.4033839,12.8594104 C55.8774443,12.8594104 56.3168823,12.4980947 56.3168823,12.0071669 L56.3168823,11.3608823 Z M59.2952956,8.56978512 C58.9854696,8.56978512 58.7440006,8.32831615 58.7440006,8.00961262 C58.7440006,7.69090909 58.9934594,7.45831766 59.3130506,7.45831766 C59.6317542,7.45831766 59.8900905,7.69090909 59.8812129,8.00961262 C59.8812129,8.34607122 59.6406317,8.56978512 59.2952956,8.56978512 Z M58.8478678,9.25956965 L59.7782335,9.25956965 L59.7782335,13.4462155 L58.8478678,13.4462155 L58.8478678,9.25956965 Z M61.4312307,7.33847092 L62.3615964,7.33847092 L62.3615964,13.4462155 L61.4312307,13.4462155 L61.4312307,7.33847092 Z M66.3156508,13.4462155 L66.2455183,12.9641653 L66.2206612,12.9641653 C65.93658,13.3521136 65.5228869,13.5412051 64.9973367,13.5412051 C64.2480727,13.5412051 63.7136451,13.015655 63.7136451,12.3090032 C63.7136451,11.275658 64.6093884,10.7412304 66.1602939,10.7412304 L66.1602939,10.6639958 C66.1602939,10.1127008 65.8673352,9.83660947 65.2902954,9.83660947 C64.8766023,9.83660947 64.5143988,9.94047663 64.196583,10.1473232 L64.0066038,9.53477325 C64.3945521,9.29330428 64.8766023,9.1725698 65.4456523,9.1725698 C66.5393647,9.1725698 67.0924352,9.74960962 67.0924352,10.904577 L67.0924352,12.446605 C67.0924352,12.8691757 67.1101902,13.1967567 67.1510269,13.4462155 L66.3156508,13.4462155 Z M66.1860388,11.3608823 C65.1518059,11.3608823 64.6351333,11.6112289 64.6351333,12.205136 C64.6351333,12.644574 64.9023471,12.8594104 65.2725403,12.8594104 C65.7466008,12.8594104 66.1860388,12.4980947 66.1860388,12.0071669 L66.1860388,11.3608823 Z M70.8609491,13.5412051 C70.2670419,13.5412051 69.8284917,13.2908586 69.5435228,12.7999309 L69.5257677,12.7999309 L69.4725025,13.4462155 L68.6806263,13.4462155 C68.7054834,13.1106446 68.7143609,12.7306861 68.7143609,12.3178807 L68.7143609,7.33847092 L69.6465022,7.33847092 L69.6465022,9.87211961 L69.6633695,9.87211961 C69.9394609,9.40693674 70.3868887,9.1743453 70.9985509,9.1743453 C72.0070389,9.1743453 72.7136908,10.036354 72.7136908,11.2934131 C72.7136908,12.5930843 71.9289166,13.5412051 70.8609491,13.5412051 Z M70.6718576,9.90496649 C70.1365421,9.90496649 69.6465022,10.3701494 69.6465022,11.016434 L69.6465022,11.7488307 C69.6465022,12.3258705 70.0868279,12.7999309 70.6549902,12.7999309 C71.3518768,12.7999309 71.7673455,12.2317686 71.7673455,11.3271477 C71.7664577,10.4828941 71.3350095,9.90496649 70.6718576,9.90496649 Z M74.0905965,7.33847092 L75.0200745,7.33847092 L75.0200745,13.4462155 L74.0905965,13.4462155 L74.0905965,7.33847092 Z M80.0838209,11.5766065 L77.2909482,11.5766065 C77.309591,12.3693704 77.8333656,12.8167982 78.6083745,12.8167982 C79.0229554,12.8167982 79.4020261,12.7475534 79.737597,12.6188292 L79.8823008,13.2651137 C79.4863627,13.4373379 79.0211799,13.52345 78.4787624,13.52345 C77.1684382,13.52345 76.3934293,12.6960637 76.3934293,11.4132598 C76.3934293,10.1295681 77.187081,9.16458002 78.3748953,9.16458002 C79.4419751,9.16458002 80.11578,9.95734395 80.11578,11.1549235 C80.1184433,11.3182702 80.1104535,11.4647495 80.0838209,11.5766065 Z M79.2315775,10.9134545 C79.2315775,10.2671699 78.9031086,9.81086461 78.3083137,9.81086461 C77.7738861,9.81086461 77.3530909,10.2760475 77.2909482,10.9134545 L79.2315775,10.9134545 Z M85.7228316,13.5412051 C84.4995071,13.5412051 83.7067432,12.6277067 83.7067432,11.387515 C83.7067432,10.0949458 84.5163745,9.17345755 85.7929641,9.17345755 C86.9976457,9.17345755 87.8090524,10.043456 87.8090524,11.3191579 C87.8090524,12.6277067 86.9727886,13.5412051 85.7228316,13.5412051 Z M85.7583417,9.85347678 C85.0863122,9.85347678 84.6557518,10.4820063 84.6557518,11.3608823 C84.6557518,12.2228911 85.0951898,12.8514206 85.7494642,12.8514206 C86.4037385,12.8514206 86.8431766,12.1793911 86.8431766,11.3431273 C86.8431766,10.4908838 86.4126161,9.85347678 85.7583417,9.85347678 Z M92.810656,13.4462155 L91.8820658,13.4462155 L91.8820658,11.0421788 C91.8820658,10.3017923 91.5970969,9.93071134 91.0369244,9.93071134 C90.4856295,9.93071134 90.1056709,10.4047718 90.1056709,10.9560667 L90.1056709,13.4462155 L89.1770807,13.4462155 L89.1770807,10.4562615 C89.1770807,10.0860682 89.1664276,9.68924237 89.1415705,9.25868189 L89.9600793,9.25868189 L90.0035793,9.90496649 L90.0302119,9.90496649 C90.2778951,9.45753869 90.7874657,9.1725698 91.3565157,9.1725698 C92.2336162,9.1725698 92.810656,9.84459925 92.810656,10.9383116 L92.810656,13.4462155 Z M98.8979823,9.95734395 L97.8744024,9.95734395 L97.8744024,11.9902996 C97.8744024,12.50786 98.0546164,12.7661962 98.4159321,12.7661962 C98.5792787,12.7661962 98.718656,12.7484412 98.8296252,12.7226963 L98.8553701,13.4293482 C98.6742684,13.4985929 98.4319116,13.5332153 98.1327387,13.5332153 C97.3985665,13.5332153 96.9617917,13.1283997 96.9617917,12.0684219 L96.9617917,9.95734395 L96.351905,9.95734395 L96.351905,9.25956965 L96.9617917,9.25956965 L96.9617917,8.49255056 L97.8744024,8.2164592 L97.8744024,9.25868189 L98.8979823,9.25868189 L98.8979823,9.95734395 Z M103.825015,13.4462155 L102.893761,13.4462155 L102.893761,11.0599339 C102.893761,10.3106699 102.608792,9.9315991 102.049507,9.9315991 C101.567457,9.9315991 101.120029,10.2591802 101.120029,10.9223321 L101.120029,13.4462155 L100.188776,13.4462155 L100.188776,7.33847092 L101.120029,7.33847092 L101.120029,9.85347678 L101.137785,9.85347678 C101.429855,9.39717145 101.853314,9.1725698 102.395731,9.1725698 C103.282597,9.1725698 103.825015,9.86146657 103.825015,10.9560667 L103.825015,13.4462155 Z M108.578935,11.5766065 L105.78695,11.5766065 C105.804705,12.3693704 106.32848,12.8167982 107.104376,12.8167982 C107.519845,12.8167982 107.898028,12.7475534 108.231823,12.6188292 L108.377415,13.2651137 C107.982365,13.4373379 107.516294,13.52345 106.972989,13.52345 C105.663552,13.52345 104.888543,12.6960637 104.888543,11.4132598 C104.888543,10.1295681 105.681307,9.16458002 106.869122,9.16458002 C107.937089,9.16458002 108.610006,9.95734395 108.610006,11.1549235 C108.613557,11.3182702 108.60468,11.4647495 108.578935,11.5766065 Z M106.804316,9.81086461 C106.269888,9.81086461 105.848205,10.2760475 105.78695,10.9134545 L107.725804,10.9134545 C107.725804,10.2671699 107.39911,9.81086461 106.804316,9.81086461 Z" id="Combined-Shape" fill="#FFFFFF"></path>
        </g>
    </g>
</svg>