<?xml version="1.0" encoding="UTF-8" standalone="no"?>
<svg width="136px" height="40px" viewBox="0 0 136 40" version="1.1" xmlns="http://www.w3.org/2000/svg" xmlns:xlink="http://www.w3.org/1999/xlink">
    <!-- Generator: Sketch 3.7.2 (28276) - http://www.bohemiancoding.com/sketch -->
    <title>btn-download-googleplay</title>
    <desc>Created with Sketch.</desc>
    <defs>
        <linearGradient x1="19.2147947%" y1="-35.1571758%" x2="69.3023416%" y2="93.5367562%" id="linearGradient-1">
            <stop stop-color="#19A3B4" offset="0%"></stop>
            <stop stop-color="#5BC3AF" offset="34.816763%"></stop>
            <stop stop-color="#C9F7A6" offset="92.2336229%"></stop>
            <stop stop-color="#D7FEA5" offset="100%"></stop>
        </linearGradient>
        <path d="M15.3477141,8.14415442 L1.97585559,0.243523307 C1.59670321,0.0206193773 1.24700564,-0.0312344069 0.963738073,0.0637186265 L11.9165417,11.8318339 L15.3477141,8.14415442" id="path-2"></path>
        <linearGradient x1="-14.698314%" y1="-114.321644%" x2="74.8444046%" y2="114.156353%" id="linearGradient-4">
            <stop stop-color="#FC227C" offset="0%"></stop>
            <stop stop-color="#FEEB7B" offset="100%"></stop>
        </linearGradient>
        <linearGradient x1="28.1511582%" y1="-14.8137139%" x2="48.1878808%" y2="82.8944571%" id="linearGradient-5">
            <stop stop-color="#0E4DA0" offset="0%"></stop>
            <stop stop-color="#6BFED4" offset="100%"></stop>
        </linearGradient>
        <path d="M0.963111375,0.0637186265 C0.556384274,0.200424058 0.29317105,0.642864788 0.29317105,1.31225 L0.295677843,22.3797017 C0.295677843,23.0416793 0.550743991,23.4773857 0.945563827,23.6228457 L11.9165417,11.8338542 L0.963111375,0.0637186265" id="path-6"></path>
        <linearGradient x1="132.244588%" y1="16.465744%" x2="5.95853392%" y2="126.310354%" id="linearGradient-8">
            <stop stop-color="#FC472E" offset="0%"></stop>
            <stop stop-color="#FC472E" offset="0.331892433%"></stop>
            <stop stop-color="#893CD8" offset="100%"></stop>
        </linearGradient>
        <path d="M0.945563827,23.6228457 C1.23071149,23.7265533 1.58730273,23.6780666 1.97585559,23.4491019 L15.3633815,15.5376959 L11.9165417,11.8338542 L0.945563827,23.6228457" id="path-9"></path>
    </defs>
    <g id="Page-1" stroke="none" stroke-width="1" fill="none" fill-rule="evenodd">
        <g id="Button---Play-Store-Copy">
            <rect id="Button" fill="#2B2D32" x="0" y="0" width="136" height="40" rx="2"></rect>
            <g id="Icon---Google-Play" transform="translate(16.000000, 8.000000)">
                <mask id="mask-3" fill="white">
                    <use xlink:href="#path-2"></use>
                </mask>
                <use id="Fill-1" fill="url(#linearGradient-1)" xlink:href="#path-2"></use>
                <path d="M15.3652616,15.5376959 L19.930131,12.8406257 C20.8557641,12.2917837 20.8557641,11.3988212 19.930131,10.851326 L15.3483408,8.14415442 L11.9165417,11.8318339 L15.3652616,15.5376959" id="Fill-2" fill="url(#linearGradient-4)"></path>
                <mask id="mask-7" fill="white">
                    <use xlink:href="#path-6"></use>
                </mask>
                <use id="Fill-3" fill="url(#linearGradient-5)" xlink:href="#path-6"></use>
                <mask id="mask-10" fill="white">
                    <use xlink:href="#path-9"></use>
                </mask>
                <use id="Fill-4" fill="url(#linearGradient-8)" xlink:href="#path-9"></use>
            </g>
            <path d="M92.2680367,26.0701181 L91.4875117,26.8109511 C91.3071302,26.9106692 91.1277159,27.0264396 90.9487851,27.1086463 C90.4066733,27.3562392 89.8553732,27.4185022 89.3654898,27.4185022 C88.8441727,27.4185022 88.0268944,27.3844521 87.1931739,26.7778738 C86.03496,25.9572664 85.5286344,24.5466192 85.5286344,23.3174105 C85.5286344,20.7724086 87.5882723,19.5242291 89.2682869,19.5242291 C89.8553732,19.5242291 90.4584182,19.6721038 90.9487851,19.9839055 C91.764129,20.526275 91.9749771,21.2311121 92.0920075,21.6085818 L88.2556356,23.1675901 L86.9992516,23.2658489 C87.4059564,25.3526338 88.8093537,26.5662768 90.360248,26.5662768 C91.1349698,26.5662768 91.7099662,26.3118739 92.2375701,26.0496881 C92.2375701,26.0496881 92.3434777,25.994235 92.2680367,26.0701181 L92.2680367,26.0701181 Z M89.9240173,21.8838792 C90.2319093,21.7692887 90.3920705,21.6703687 90.3920705,21.4402083 C90.3920705,20.7800887 89.6629785,20.0176211 88.7928491,20.0176211 C88.1483796,20.0176211 86.938326,20.5318093 86.938326,22.3172663 C86.938326,22.5959073 86.9708363,22.8926673 86.9870915,23.1894273 L89.9240173,21.8838792 Z M83.9445724,26.333261 C83.9445724,26.9694152 84.0573635,27.0684049 84.5919164,27.118385 C84.8705201,27.1513816 85.1481599,27.1659389 85.4229075,27.1989354 L84.8213548,27.5594714 L81.9548211,27.5594714 C82.3307916,27.0684049 82.3953814,27.0193953 82.3953814,26.6923412 L82.3953814,26.3269528 L82.3891152,16.5910266 L81.123348,16.5910266 L82.3418779,16 L84.6680745,16 C84.1638885,16.2940576 84.0130183,16.4731124 83.9484285,17.0461851 L83.9445724,26.333261 Z M79.2505103,20.1161417 C79.6234584,20.4251977 80.4015966,21.0811533 80.4015966,22.3251401 C80.4015966,23.5375906 79.7235529,24.1091258 79.0397344,24.6500951 C78.829921,24.8630866 78.5844971,25.0940296 78.5844971,25.4511178 C78.5844971,25.813543 78.829921,26.0100386 79.00653,26.1565612 L79.5931413,26.6131102 C80.3063144,27.2200632 80.9564472,27.7765581 80.9564472,28.9070141 C80.9564472,30.4469572 79.4781289,32 76.6846271,32 C74.3314447,32 73.1938326,30.8700291 73.1938326,29.658549 C73.1938326,29.0690623 73.4849728,28.2340774 74.4454947,27.6620569 C75.452214,27.0415191 76.8160011,26.9585543 77.5464982,26.9100368 C77.3183983,26.6131102 77.0580565,26.3021135 77.0580565,25.7946212 C77.0580565,25.5171015 77.1408269,25.3516571 77.22071,25.1566171 C77.0431385,25.1735982 76.8641234,25.1910644 76.7014699,25.1910644 C74.9791714,25.1910644 74.0056565,23.8956492 74.0056565,22.6191557 C74.0056565,21.8661652 74.3463626,21.0306952 75.0460614,20.4251977 C75.9719353,19.6566816 77.0758617,19.5242291 77.953132,19.5242291 L81.2995595,19.5242291 L80.2591545,20.1161417 L79.2505103,20.1161417 Z M78.1080251,27.3657991 C77.9736471,27.3480176 77.8931173,27.3480176 77.7310875,27.3480176 C77.5826411,27.3480176 76.6982688,27.380617 76.0132805,27.6147395 C75.6508965,27.7495822 74.6035242,28.1481831 74.6035242,29.3321317 C74.6035242,30.5136107 75.734337,31.3656388 77.4836768,31.3656388 C79.0554629,31.3656388 79.8898678,30.5985665 79.8898678,29.5657603 C79.8898678,28.7157079 79.3499302,28.2672201 78.1080251,27.3657991 Z M78.5672398,24.212531 C78.9409853,23.8357485 78.9735683,23.3153146 78.9735683,23.0197894 C78.9735683,21.8459112 78.2802223,20.0176211 76.9361758,20.0176211 C76.5169099,20.0176211 76.0626653,20.2299543 75.8048767,20.5583694 C75.5312757,20.8983926 75.4493392,21.3395038 75.4493392,21.7636865 C75.4493392,22.8567911 76.0808734,24.6696035 77.4699611,24.6696035 C77.8753313,24.6696035 78.3113678,24.4708133 78.5672398,24.212531 Z M69.2351974,27.4185022 C66.6483864,27.4185022 65.2643172,25.3778822 65.2643172,23.5302344 C65.2643172,21.3713883 67.00429,19.5242291 69.479218,19.5242291 C71.8716806,19.5242291 73.3700441,21.4217077 73.3700441,23.4139625 C73.3700441,25.3598063 71.8890417,27.4185022 69.2351974,27.4185022 Z M71.2582165,26.0839045 C71.653085,25.5547827 71.7488987,24.8943603 71.7488987,24.2505955 C71.7488987,22.7945307 71.0636857,20.0176211 69.0385329,20.0176211 C68.4999438,20.0176211 67.9574835,20.2307396 67.5664863,20.5785882 C66.9286962,21.1571927 66.814978,21.8842452 66.814978,22.5975798 C66.814978,24.2309984 67.6124575,26.9251101 69.5916391,26.9251101 C70.230397,26.9251101 70.8822204,26.6120464 71.2582165,26.0839045 Z M60.4243493,27.4185022 C57.8359781,27.4185022 56.4537445,25.3778822 56.4537445,23.5302344 C56.4537445,21.3713883 58.1949247,19.5242291 60.669919,19.5242291 C63.061931,19.5242291 64.5594714,21.4217077 64.5594714,23.4139625 C64.5594714,25.3598063 63.0797818,27.4185022 60.4243493,27.4185022 Z M62.938326,24.2505955 C62.938326,22.7945307 62.2508402,20.0176211 60.2266304,20.0176211 C59.6858405,20.0176211 59.1489238,20.2307396 58.7567665,20.5785882 C58.1176952,21.1571927 58.0044053,21.8842452 58.0044053,22.5975798 C58.0044053,24.2309984 58.8056651,26.9251101 60.7824287,26.9251101 C61.4200476,26.9251101 62.0712225,26.6120464 62.4483713,26.0839045 C62.8405287,25.5547827 62.938326,24.8943603 62.938326,24.2505955 Z M55.5568271,27.4594121 L53.3657418,27.9643967 C52.4779745,28.1052659 51.6807759,28.2290749 50.8365979,28.2290749 C46.6103799,28.2290749 45,25.0982679 45,22.6479228 C45,19.6555479 47.281654,16.8810573 51.1891863,16.8810573 C52.0159287,16.8810573 52.81119,17.0034039 53.5357398,17.2022782 C54.6840739,17.5269111 55.2211901,17.9270968 55.5568271,18.1615539 L54.2840216,19.3781963 L53.7473898,19.4990807 L54.1300063,18.8853977 C53.6117788,18.3760261 52.659112,17.4357604 50.8511276,17.4357604 C48.4338627,17.4357604 46.6103799,19.2850959 46.6103799,21.9850087 C46.6103799,24.8847706 48.6924921,27.6124673 52.0319114,27.6124673 C53.0131534,27.6124673 53.5183041,27.4140805 53.9769597,27.2288544 L53.9769597,24.7429264 L51.6633403,24.8681977 L52.8896506,24.2052836 L56.1365639,24.2052836 L55.7394176,24.5898713 C55.6323818,24.6815094 55.617852,24.7127054 55.5878239,24.8355394 C55.5718412,24.9759213 55.5568271,25.4224134 55.5568271,25.5793681 L55.5568271,27.4594121 Z M96.9261613,26.1455347 L96.9261613,30.30837 L96.1013216,30.30837 L96.1013216,19.7155403 L96.9261613,19.7155403 L96.9261613,20.9220118 C97.463491,20.142237 98.445374,19.5242291 99.5857499,19.5242291 C101.631178,19.5242291 103.008811,21.0794198 103.008811,23.5412804 C103.008811,25.9866737 101.631178,27.5743147 99.5857499,27.5743147 C98.5091577,27.5743147 97.5446703,27.017817 96.9261613,26.1455347 Z M102.162996,23.6047485 C102.162996,21.7297034 101.194419,20.2995595 99.4769785,20.2995595 C98.410429,20.2995595 97.3904409,21.145312 96.9471366,21.8828982 L96.9471366,25.3094684 C97.3904409,26.0485229 98.410429,26.9251101 99.4769785,26.9251101 C101.194419,26.9251101 102.162996,25.4827302 102.162996,23.6047485 Z M104.030837,16.8810573 L104.876652,16.8810573 L104.876652,27.5242291 L104.030837,27.5242291 L104.030837,16.8810573 Z M113.649394,29.4344385 C113.825778,29.5134024 114.126839,29.5618465 114.31772,29.5618465 C114.822227,29.5618465 115.173545,29.3549902 115.489103,28.6244531 L116.090742,27.2578451 L112.84141,19.5242291 L113.761506,19.5242291 L116.548857,26.2259858 L119.309147,19.5242291 L120.242291,19.5242291 L116.279207,28.8807224 C115.867967,29.84476 115.220903,30.30837 114.332217,30.30837 C114.065467,30.30837 113.713665,30.2608948 113.507803,30.1974331 L113.649394,29.4344385 Z M111.39207,27.4080009 C111.336667,27.140614 111.294872,26.904885 111.264254,26.7081195 C111.238983,26.511841 111.224403,26.3111791 111.224403,26.1071079 C110.940098,26.5254782 110.53721,26.8737142 110.022544,27.1479197 C109.507392,27.4240733 109.017997,27.5594714 108.346842,27.5594714 C107.538636,27.5594714 106.91122,27.3602706 106.463621,26.9560246 C106.01748,26.5522656 105.792952,26.0053158 105.792952,25.3132271 C105.792952,24.6221125 106.11808,24.0610385 106.766394,23.6319533 C107.414708,23.2009198 108.252559,22.9866207 109.289667,22.9866207 L111.224403,22.9866207 L111.224403,22.0286063 C111.224403,21.4767861 111.03681,21.0428304 110.66211,20.7282004 C110.285952,20.4130833 109.758164,20.2538201 109.073887,20.2538201 C108.448414,20.2538201 107.941038,20.3994461 107.554674,20.6829054 C107.171712,20.9722092 106.978773,21.3306731 106.978773,21.7626806 L106.129744,21.7626806 L106.112249,21.7212819 C106.081631,21.138778 106.347469,20.6278695 106.912678,20.1866081 C107.475457,19.7458338 108.212708,19.5242291 109.120056,19.5242291 C110.024488,19.5242291 110.756392,19.7424245 111.307994,20.1778413 C111.859109,20.6088748 112.135639,21.2318033 112.135639,22.0461399 L112.135639,25.849949 C112.135639,26.1231803 112.148761,26.3871579 112.18278,26.6443168 C112.217772,26.9019628 112.273661,27.1591217 112.348018,27.4080009 L111.39207,27.4080009 Z M108.446647,26.8546256 C109.150734,26.8546256 109.656705,26.6960108 110.173845,26.3822081 C110.687586,26.0703636 111.037202,25.663546 111.220264,25.1710569 L111.220264,23.6828194 L109.277955,23.6828194 C108.535993,23.6828194 107.921738,23.8482879 107.438588,24.1821622 C106.954468,24.5150575 106.709251,24.9179586 106.709251,25.3864597 C106.709251,25.828525 106.864636,26.1819814 107.173463,26.4497662 C107.483261,26.7204884 107.906685,26.8546256 108.446647,26.8546256 Z" id="Combined-Shape" fill="#FFFFFF"></path>
            <path d="M48.1611328,13 L47.8505859,11.9804688 L46.2890625,11.9804688 L45.9785156,13 L45,13 L46.5117188,8.69921875 L47.6220703,8.69921875 L49.1396484,13 L48.1611328,13 Z M47.6337891,11.21875 C47.3466783,10.2949173 47.1850588,9.77246154 47.1489258,9.65136719 C47.1127928,9.53027283 47.0869141,9.43457066 47.0712891,9.36425781 C47.0068356,9.61425906 46.8222671,10.2324169 46.5175781,11.21875 L47.6337891,11.21875 Z M53.3451823,13 L52.1908854,13 L50.3276042,9.75976562 L50.301237,9.75976562 C50.3383465,10.3320341 50.356901,10.7402332 50.356901,10.984375 L50.356901,13 L49.5453776,13 L49.5453776,8.71679688 L50.6908854,8.71679688 L52.551237,11.9248047 L52.5717448,11.9248047 C52.5424478,11.3681613 52.5277995,10.9746105 52.5277995,10.7441406 L52.5277995,8.71679688 L53.3451823,8.71679688 L53.3451823,13 Z M57.8436849,10.8173828 C57.8436849,11.5224645 57.6430033,12.0624981 57.2416341,12.4375 C56.8402649,12.8125019 56.2606809,13 55.5028646,13 L54.2899739,13 L54.2899739,8.71679688 L55.6347005,8.71679688 C56.3339228,8.71679688 56.8768861,8.90136534 57.2636068,9.27050781 C57.6503274,9.63965028 57.8436849,10.1552701 57.8436849,10.8173828 L57.8436849,10.8173828 Z M56.9003255,10.8408203 C56.9003255,9.92089384 56.4940796,9.4609375 55.6815755,9.4609375 L55.1981771,9.4609375 L55.1981771,12.25 L55.5878255,12.25 C56.4628299,12.25 56.9003255,11.7802781 56.9003255,10.8408203 L56.9003255,10.8408203 Z M59.50625,10.6181641 L59.7992187,10.6181641 C60.0863295,10.6181641 60.2982415,10.570313 60.4349609,10.4746094 C60.5716804,10.3789058 60.640039,10.2285167 60.640039,10.0234375 C60.640039,9.82031148 60.5702155,9.67578168 60.4305664,9.58984375 C60.2909172,9.50390582 60.0746108,9.4609375 59.7816406,9.4609375 L59.50625,9.4609375 L59.50625,10.6181641 Z M59.50625,11.3564453 L59.50625,13 L58.5980469,13 L58.5980469,8.71679688 L59.8460937,8.71679688 C60.4281279,8.71679688 60.8587876,8.82275285 61.1380859,9.03466797 C61.4173842,9.24658309 61.5570312,9.56835722 61.5570312,10 C61.5570312,10.2519544 61.487696,10.4760732 61.3490234,10.6723633 C61.2103508,10.8686533 61.0140637,11.0224604 60.7601562,11.1337891 C61.4046907,12.0966845 61.8246084,12.7187486 62.0199219,13 L61.0121094,13 L59.9896484,11.3564453 L59.50625,11.3564453 Z M66.3133463,10.8525391 C66.3133463,11.561527 66.1375668,12.1064434 65.7860026,12.4873047 C65.4344383,12.868166 64.9305371,13.0585938 64.2742838,13.0585938 C63.6180305,13.0585938 63.1141293,12.868166 62.7625651,12.4873047 C62.4110008,12.1064434 62.2352213,11.5595739 62.2352213,10.8466797 C62.2352213,10.1337855 62.4114891,9.58935735 62.7640299,9.21337891 C63.1165707,8.83740046 63.6219368,8.64941406 64.2801432,8.64941406 C64.9383496,8.64941406 65.4417626,8.83886529 65.7903971,9.21777344 C66.1390317,9.59668158 66.3133463,10.141598 66.3133463,10.8525391 L66.3133463,10.8525391 Z M63.1873698,10.8525391 C63.1873698,11.3310571 63.2781892,11.691405 63.4598307,11.9335938 C63.6414722,12.1757825 63.9129539,12.296875 64.2742838,12.296875 C64.9988968,12.296875 65.3611979,11.8154345 65.3611979,10.8525391 C65.3611979,9.88769049 65.0008499,9.40527344 64.2801432,9.40527344 C63.9188133,9.40527344 63.6463551,9.52685425 63.4627604,9.77001953 C63.2791657,10.0131848 63.1873698,10.374021 63.1873698,10.8525391 L63.1873698,10.8525391 Z M67.0677083,13 L67.0677083,8.71679688 L67.9759114,8.71679688 L67.9759114,13 L67.0677083,13 Z M72.474414,10.8173828 C72.474414,11.5224645 72.2737324,12.0624981 71.8723632,12.4375 C71.470994,12.8125019 70.89141,13 70.1335937,13 L68.9207031,13 L68.9207031,8.71679688 L70.2654296,8.71679688 C70.9646519,8.71679688 71.5076152,8.90136534 71.8943359,9.27050781 C72.2810566,9.63965028 72.474414,10.1552701 72.474414,10.8173828 L72.474414,10.8173828 Z M71.5310546,10.8408203 C71.5310546,9.92089384 71.1248087,9.4609375 70.3123046,9.4609375 L69.8289062,9.4609375 L69.8289062,12.25 L70.2185546,12.25 C71.093559,12.25 71.5310546,11.7802781 71.5310546,10.8408203 L71.5310546,10.8408203 Z M77.2761067,13 L76.9655598,11.9804688 L75.4040364,11.9804688 L75.0934895,13 L74.1149739,13 L75.6266927,8.69921875 L76.7370442,8.69921875 L78.2546223,13 L77.2761067,13 Z M76.748763,11.21875 C76.4616522,10.2949173 76.3000327,9.77246154 76.2638997,9.65136719 C76.2277667,9.53027283 76.201888,9.43457066 76.186263,9.36425781 C76.1218095,9.61425906 75.9372411,10.2324169 75.632552,11.21875 L76.748763,11.21875 Z M79.5685546,10.7324219 L79.8673827,10.7324219 C80.146681,10.7324219 80.3556633,10.6772466 80.4943359,10.5668945 C80.6330084,10.4565424 80.7023437,10.2958995 80.7023437,10.0849609 C80.7023437,9.87206925 80.6442388,9.71484426 80.5280273,9.61328125 C80.4118158,9.51171824 80.2296887,9.4609375 79.9816406,9.4609375 L79.5685546,9.4609375 L79.5685546,10.7324219 Z M81.6193359,10.0527344 C81.6193359,10.5136742 81.4752943,10.8662097 81.187207,11.1103516 C80.8991196,11.3544934 80.4894557,11.4765625 79.9582031,11.4765625 L79.5685546,11.4765625 L79.5685546,13 L78.6603515,13 L78.6603515,8.71679688 L80.0285156,8.71679688 C80.5480494,8.71679688 80.943065,8.82861216 81.2135742,9.05224609 C81.4840833,9.27588002 81.6193359,9.60937278 81.6193359,10.0527344 L81.6193359,10.0527344 Z M83.2027994,10.7324219 L83.5016275,10.7324219 C83.7809258,10.7324219 83.9899081,10.6772466 84.1285807,10.5668945 C84.2672532,10.4565424 84.3365885,10.2958995 84.3365885,10.0849609 C84.3365885,9.87206925 84.2784836,9.71484426 84.1622721,9.61328125 C84.0460605,9.51171824 83.8639335,9.4609375 83.6158853,9.4609375 L83.2027994,9.4609375 L83.2027994,10.7324219 Z M85.2535807,10.0527344 C85.2535807,10.5136742 85.1095391,10.8662097 84.8214518,11.1103516 C84.5333644,11.3544934 84.1237005,11.4765625 83.5924478,11.4765625 L83.2027994,11.4765625 L83.2027994,13 L82.2945963,13 L82.2945963,8.71679688 L83.6627603,8.71679688 C84.1822942,8.71679688 84.5773098,8.82861216 84.8478189,9.05224609 C85.1183281,9.27588002 85.2535807,9.60937278 85.2535807,10.0527344 L85.2535807,10.0527344 Z M91.2417968,10.8525391 C91.2417968,11.561527 91.0660173,12.1064434 90.714453,12.4873047 C90.3628888,12.868166 89.8589876,13.0585938 89.2027343,13.0585938 C88.546481,13.0585938 88.0425798,12.868166 87.6910155,12.4873047 C87.3394513,12.1064434 87.1636718,11.5595739 87.1636718,10.8466797 C87.1636718,10.1337855 87.3399396,9.58935735 87.6924804,9.21337891 C88.0450212,8.83740046 88.5503873,8.64941406 89.2085937,8.64941406 C89.8668001,8.64941406 90.370213,8.83886529 90.7188476,9.21777344 C91.0674821,9.59668158 91.2417968,10.141598 91.2417968,10.8525391 L91.2417968,10.8525391 Z M88.1158202,10.8525391 C88.1158202,11.3310571 88.2066396,11.691405 88.3882812,11.9335938 C88.5699227,12.1757825 88.8414044,12.296875 89.2027343,12.296875 C89.9273473,12.296875 90.2896484,11.8154345 90.2896484,10.8525391 C90.2896484,9.88769049 89.9293004,9.40527344 89.2085937,9.40527344 C88.8472637,9.40527344 88.5748055,9.52685425 88.3912109,9.77001953 C88.2076162,10.0131848 88.1158202,10.374021 88.1158202,10.8525391 L88.1158202,10.8525391 Z M95.7959635,13 L94.6416666,13 L92.7783853,9.75976562 L92.7520181,9.75976562 C92.7891277,10.3320341 92.8076822,10.7402332 92.8076822,10.984375 L92.8076822,13 L91.9961588,13 L91.9961588,8.71679688 L93.1416666,8.71679688 L95.0020181,11.9248047 L95.022526,11.9248047 C94.9932289,11.3681613 94.9785806,10.9746105 94.9785806,10.7441406 L94.9785806,8.71679688 L95.7959635,8.71679688 L95.7959635,13 Z" id="ANDROID-APP-ON" fill="#FFFFFF"></path>
        </g>
    </g>
</svg>