<svg xmlns="http://www.w3.org/2000/svg" width="52.05" height="56" viewBox="0 0 52.05 56">
  <defs>
    <style>
      .cls-1 {
        fill: #fff;
      }
    </style>
  </defs>
  <title>icon-normal-share-white</title>
  <g id="圖層_2" data-name="圖層 2">
    <g id="圖層_1-2" data-name="圖層 1">
      <g>
        <path class="cls-1" d="M47.07,24.11H34v5.32H45.9a.82.82,0,0,1,.83.83V49.85a.82.82,0,0,1-.83.83H6.15a.83.83,0,0,1-.83-.83V30.26a.83.83,0,0,1,.83-.83h12V24.11H5a5,5,0,0,0-5,5V51a5,5,0,0,0,5,5H47.07a5,5,0,0,0,5-5V29.1A5,5,0,0,0,47.07,24.11Z"/>
        <path class="cls-1" d="M40.42,13.39,27.74.71a2.42,2.42,0,0,0-3.43,0L11.63,13.39a2.43,2.43,0,0,0,3.43,3.43L23.6,8.27V31.94a2.43,2.43,0,0,0,4.85,0V8.27L37,16.82a2.5,2.5,0,0,0,3.43,0A2.44,2.44,0,0,0,40.42,13.39Z"/>
      </g>
    </g>
  </g>
</svg>
