<?xml version="1.0" encoding="UTF-8" standalone="no"?>
<svg width="144px" height="40px" viewBox="0 0 144 40" version="1.1" xmlns="http://www.w3.org/2000/svg" xmlns:xlink="http://www.w3.org/1999/xlink">
    <!-- Generator: Sketch 3.8.3 (29802) - http://www.bohemiancoding.com/sketch -->
    <title>logo-asus</title>
    <desc>Created with Sketch.</desc>
    <defs></defs>
    <g id="Page-1" stroke="none" stroke-width="1" fill="none" fill-rule="evenodd">
        <g id="Artboard-7" fill="#00539B">
            <g id="logo-asus" transform="translate(22.000000, 10.000000)">
                <g id="svg3875">
                    <path d="M96.1308411,2.52336449 C96.1308411,1.38317757 97.046729,0.448598131 98.1682243,0.448598131 C98.7102804,0.448598131 99.2149533,0.672897196 99.6074766,1.04672897 C100,1.43925234 100.205607,1.96261682 100.205607,2.5046729 C100.205607,3.04672897 100,3.57009346 99.6074766,3.96261682 C99.2149533,4.35514019 98.7102804,4.57943925 98.1682243,4.57943925 C97.046729,4.57943925 96.1308411,3.6635514 96.1308411,2.52336449 L96.1308411,2.52336449 Z M95.9626168,2.52336449 C95.9626168,3.75700935 96.953271,4.76635514 98.1869159,4.76635514 C98.7850467,4.76635514 99.3271028,4.54205607 99.7383178,4.11214953 C100.149533,3.68224299 100.392523,3.12149533 100.392523,2.52336449 C100.392523,1.92523364 100.168224,1.36448598 99.7383178,0.934579439 C99.3084112,0.504672897 98.7663551,0.280373832 98.1869159,0.280373832 C96.953271,0.280373832 95.9626168,1.28971963 95.9626168,2.52336449 L95.9626168,2.52336449 Z M97.3457944,3.85046729 L97.6635514,3.85046729 L97.6635514,2.80373832 L98.3738318,2.80373832 C98.4859813,2.80373832 98.5794393,2.80373832 98.6542056,2.8411215 C98.7476636,2.89719626 98.8037383,3.00934579 98.8224299,3.1588785 L98.8598131,3.57009346 L98.8598131,3.75700935 C98.8785047,3.79439252 98.8785047,3.81308411 98.8971963,3.8317757 L99.2897196,3.8317757 L99.2897196,3.77570093 C99.2336449,3.75700935 99.2149533,3.70093458 99.1962617,3.62616822 C99.1775701,3.58878505 99.1775701,3.51401869 99.1775701,3.42056075 L99.1588785,3.10280374 C99.1588785,2.95327103 99.1214953,2.85981308 99.0841121,2.80373832 C99.0280374,2.74766355 98.953271,2.69158879 98.8598131,2.65420561 C98.9719626,2.59813084 99.046729,2.52336449 99.1028037,2.42990654 C99.1588785,2.3364486 99.1775701,2.22429907 99.1775701,2.07476636 C99.1775701,1.79439252 99.0654206,1.60747664 98.8598131,1.4953271 C98.7476636,1.43925234 98.5981308,1.42056075 98.4299065,1.42056075 L97.364486,1.42056075 L97.3457944,3.85046729 L97.3457944,3.85046729 L97.3457944,3.85046729 Z M97.6448598,2.52336449 L97.6448598,1.68224299 L98.3925234,1.68224299 C98.5046729,1.68224299 98.5981308,1.70093458 98.6542056,1.73831776 C98.7663551,1.79439252 98.8224299,1.92523364 98.8224299,2.09345794 C98.8224299,2.26168224 98.7850467,2.37383178 98.6915888,2.42990654 C98.6168224,2.48598131 98.5046729,2.52336449 98.3551402,2.52336449 L97.6448598,2.52336449 L97.6448598,2.52336449 Z M9.08411215,5.60747664 L0,19.8878505 L6.20560748,19.8878505 L14.953271,6.24299065 L9.08411215,5.60747664 L9.08411215,5.60747664 Z M46.4859813,5.28971963 L46.4859813,0 L28.8224299,0 C26.411215,0.14953271 25.364486,1.30841121 24.5794393,2.13084112 C23.7383178,3.00934579 23.271028,4.85981308 23.271028,4.85981308 L23.271028,0.0373831776 L13.8691589,0.0373831776 C13.1588785,0.0373831776 12.4859813,0.336448598 11.9813084,1.04672897 C11.4579439,1.73831776 9.30841121,5.28971963 9.30841121,5.28971963 L46.4859813,5.28971963 L46.4859813,5.28971963 Z M94.5233645,5.28971963 L94.5233645,0 L75.6261682,0 C73.2336449,0.14953271 72.1682243,1.30841121 71.3831776,2.13084112 C70.5420561,3.00934579 70.0747664,4.85981308 70.0747664,4.85981308 L70.0747664,5.28971963 L94.5233645,5.28971963 L94.5233645,5.28971963 Z M52.6915888,0.0186915888 L47.4018692,0.0186915888 L47.4018692,5.28971963 L52.6915888,5.28971963 L52.6915888,0.0186915888 L52.6915888,0.0186915888 Z M70.0186916,0.0186915888 L64.7476636,0.0186915888 L64.7476636,5.28971963 L70.0186916,5.28971963 L70.0186916,0.0186915888 L70.0186916,0.0186915888 Z M70.0186916,7.19626168 L64.8224299,6.87850467 L64.8224299,12.9906542 C64.8224299,12.9906542 64.8037383,14.7476636 63.1028037,14.7476636 L54.2056075,14.7476636 C54.2056075,14.7476636 52.6915888,14.6168224 52.6915888,13.0093458 L52.6915888,6.05607477 L47.4579439,5.68224299 L47.4579439,15.046729 C48.2990654,19.5327103 52.3551402,19.8878505 52.3551402,19.8878505 C52.3551402,19.8878505 52.7663551,19.9065421 52.8411215,19.9252336 L64.8971963,19.9252336 C64.8971963,19.9252336 70.0560748,19.5140187 70.0560748,14.5420561 L70.0186916,7.19626168 L70.0186916,7.19626168 L70.0186916,7.19626168 Z M17.8878505,19.8878505 L42.5981308,19.8878505 C46.8971963,19.0280374 47.3457944,15.1028037 47.3457944,15.1028037 C47.5514019,13.9439252 47.4392523,12.9906542 47.4392523,12.9906542 C47.3084112,12.2056075 45.8130841,8.72897196 42.5981308,8.42990654 C40.6728972,8.24299065 23.5327103,6.87850467 23.5327103,6.87850467 C23.8691589,8.59813084 24.635514,9.47663551 25.1588785,9.96261682 C26.3551402,11.1028037 28.2429907,11.4392523 28.2429907,11.4392523 C28.6915888,11.4766355 41.4579439,12.5420561 41.4579439,12.5420561 C41.8691589,12.5607477 42.635514,12.6728972 42.6168224,13.682243 C42.6168224,13.8130841 42.5046729,14.6915888 41.5327103,14.6915888 L23.046729,14.6915888 L23.046729,6.8411215 L17.9065421,6.46728972 C17.8878505,6.46728972 17.8878505,19.8878505 17.8878505,19.8878505 L17.8878505,19.8878505 Z M70.0560748,19.9252336 L88.9719626,19.9252336 C93.7196262,19.6448598 94.3925234,15.1401869 94.3925234,15.1401869 C94.5607477,13.9626168 94.4299065,12.9906542 94.4299065,12.9906542 C94.2990654,11.9252336 92.7850467,8.71028037 89.5514019,8.39252336 C87.6448598,8.20560748 70.3925234,7.19626168 70.3925234,7.19626168 C70.8971963,8.97196262 71.588785,9.51401869 72.1121495,10 C73.3084112,11.1588785 75.0841121,11.4205607 75.0841121,11.4205607 C75.5327103,11.4579439 88.4299065,12.5420561 88.4299065,12.5420561 C88.8411215,12.5607477 89.682243,12.5981308 89.682243,13.6074766 C89.682243,13.9065421 89.5327103,14.2242991 89.3457944,14.3925234 C89.3457944,14.3925234 88.8971963,14.635514 88.4672897,14.635514 L70.1121495,14.635514 L70.0560748,19.9252336 L70.0560748,19.9252336 Z" id="Shape"></path>
                </g>
            </g>
        </g>
    </g>
</svg>