<?xml version="1.0" encoding="UTF-8" standalone="no"?>
<svg width="144px" height="40px" viewBox="0 0 144 40" version="1.1" xmlns="http://www.w3.org/2000/svg" xmlns:xlink="http://www.w3.org/1999/xlink">
    <!-- Generator: Sketch 3.8.3 (29802) - http://www.bohemiancoding.com/sketch -->
    <title>logo-oppo</title>
    <desc>Created with Sketch.</desc>
    <defs></defs>
    <g id="Page-1" stroke="none" stroke-width="1" fill="none" fill-rule="evenodd">
        <g id="Artboard-7" fill="#00935F">
            <g id="logo-oppo" transform="translate(12.000000, 11.000000)">
                <g id="Group">
                    <path d="M105.648,0.170666667 C97.816,0.170666667 91.4676667,3.333 91.4676667,7.23333333 C91.4676667,11.134 97.816,14.2966667 105.648,14.2966667 C113.48,14.2966667 119.828333,11.134 119.828333,7.23333333 C119.828333,3.333 113.48,0.170666667 105.648,0.170666667 L105.648,0.170666667 Z M103.670333,12.6456667 C98.106,12.6456667 93.5953333,10.174 93.5953333,7.125 C93.5953333,4.07633333 98.1056667,1.60466667 103.670333,1.60466667 C109.235,1.60466667 113.745333,4.07633333 113.745333,7.125 C113.745,10.174 109.234667,12.6456667 103.670333,12.6456667 L103.670333,12.6456667 Z" id="Shape"></path>
                    <path d="M76.1506667,0.170666667 C73.6166667,0.170666667 71.2393333,0.502333333 69.1813333,1.082 L69.1813333,2.33 C70.652,1.86866667 72.3556667,1.605 74.1723333,1.605 C79.7366667,1.605 84.2473333,4.07666667 84.2473333,7.12533333 C84.2473333,10.1743333 79.737,12.646 74.1723333,12.646 C70.2763333,12.646 66.9003333,11.433 65.2236667,9.66 L65.2236667,5.52333333 L65.2196667,5.52333333 L65.2196667,0 L60.1013333,0 L60.1013333,19.979 L65.2236667,19.979 L65.2236667,11.7356667 C67.8246667,13.3 71.7536667,14.297 76.1506667,14.297 C83.9826667,14.297 90.331,11.1343333 90.331,7.23366667 C90.331,3.333 83.9826667,0.170666667 76.1506667,0.170666667 L76.1506667,0.170666667 Z" id="Shape"></path>
                    <path d="M45.0146667,0.170666667 C42.4806667,0.170666667 40.1033333,0.502333333 38.0453333,1.082 L38.0453333,2.33 C39.516,1.86866667 41.2196667,1.605 43.0363333,1.605 C48.6006667,1.605 53.1116667,4.07666667 53.1116667,7.12533333 C53.1116667,10.1743333 48.601,12.646 43.0363333,12.646 C39.1403333,12.646 35.7636667,11.433 34.0873333,9.66 L34.0873333,5.52333333 L34.0833333,5.52333333 L34.0833333,0 L28.9653333,0 L28.9653333,19.979 L34.0873333,19.979 L34.0873333,11.7356667 C36.6886667,13.3 40.618,14.297 45.0146667,14.297 C52.8463333,14.297 59.195,11.1343333 59.195,7.23366667 C59.195,3.333 52.8466667,0.170666667 45.0146667,0.170666667 L45.0146667,0.170666667 Z" id="Shape"></path>
                    <path d="M14.1803333,0.170666667 C6.34866667,0.170666667 0,3.333 0,7.23333333 C0,11.134 6.34866667,14.2966667 14.1803333,14.2966667 C22.0123333,14.2966667 28.361,11.134 28.361,7.23333333 C28.361,3.333 22.0123333,0.170666667 14.1803333,0.170666667 L14.1803333,0.170666667 Z M12.202,12.6456667 C6.638,12.6456667 2.12733333,10.174 2.12733333,7.125 C2.12733333,4.07633333 6.63766667,1.60466667 12.202,1.60466667 C17.7663333,1.60466667 22.2766667,4.07633333 22.2766667,7.125 C22.277,10.174 17.7666667,12.6456667 12.202,12.6456667 L12.202,12.6456667 Z" id="Shape"></path>
                </g>
            </g>
        </g>
    </g>
</svg>