<?xml version="1.0" encoding="UTF-8" standalone="no"?>
<svg width="144px" height="40px" viewBox="0 0 144 40" version="1.1" xmlns="http://www.w3.org/2000/svg" xmlns:xlink="http://www.w3.org/1999/xlink">
    <!-- Generator: Sketch 3.8.3 (29802) - http://www.bohemiancoding.com/sketch -->
    <title>logo-sony</title>
    <desc>Created with Sketch.</desc>
    <defs></defs>
    <g id="Page-1" stroke="none" stroke-width="1" fill="none" fill-rule="evenodd">
        <g id="Artboard-7" fill="#000000">
            <g id="logo-sony" transform="translate(17.000000, 10.000000)">
                <path d="M107.075385,3.33846154 C106.292308,3.33846154 105.973846,3.48769231 105.386154,4.18153846 C105.116923,4.49846154 99.0523077,11.6953846 98.8876923,11.8907692 C98.8015385,11.9938462 98.8092308,12.1353846 98.8092308,12.22 L98.8092308,15.7276923 C98.8092308,15.7984615 98.8246154,16.1323077 98.8553846,16.2076923 C98.9276923,16.3876923 99.0861538,16.56 99.3184615,16.6338462 C99.3984615,16.66 99.8123077,16.6723077 99.9061538,16.6723077 L102.112308,16.6723077 L102.112308,18.8923077 L90.3969231,18.8923077 L90.3969231,16.6723077 L92.4861538,16.6738462 C92.58,16.6738462 93,16.6615385 93.08,16.6353846 C93.3123077,16.56 93.4707692,16.3892308 93.5430769,16.2092308 C93.5738462,16.1338462 93.5892308,15.8 93.5892308,15.7292308 C93.5892308,15.7292308 93.5907692,12.3369231 93.5907692,12.22 C93.5907692,12.1353846 93.5846154,12.0984615 93.4476923,11.9123077 C93.2953846,11.7061538 87.2953846,4.63384615 87.0215385,4.32461538 C86.68,3.93692308 86.0815385,3.33846154 85.1707692,3.33846154 L83.0846154,3.33846154 L83.0846154,1.11692308 L94.86,1.11692308 L94.86,3.33538462 L93.44,3.33538462 C93.1123077,3.33538462 92.8953846,3.66 93.1753846,4.02 C93.1753846,4.02 97.1369231,8.94923077 97.1738462,9.00153846 C97.2123077,9.05230769 97.2430769,9.06461538 97.2938462,9.01692308 C97.3430769,8.96769231 101.353846,4.06615385 101.386154,4.02615385 C101.576923,3.78769231 101.447692,3.33846154 101.036923,3.33846154 L99.58,3.33846154 L99.58,1.11692308 L109.230769,1.11692308 L109.230769,3.33846154 L107.075385,3.33846154 L107.075385,3.33846154 Z M77.7476923,4.71846154 L77.9307692,18.8984615 L74.4907692,18.8984615 L60.9661538,6.34307692 L60.9676923,15.2538462 C60.98,16.2215385 61.0230769,16.6784615 61.9830769,16.6784615 L64.3953846,16.6784615 L64.3953846,18.8969231 L54.5338462,18.8969231 L54.5338462,16.6784615 L56.8384615,16.6784615 C57.7,16.6784615 57.6661538,15.8246154 57.6661538,15.2030769 L57.6661538,4.80153846 C57.6661538,4.13076923 57.5753846,3.34 56.2230769,3.34 L54.3538462,3.34 L54.3538462,1.11692308 L62.7523077,1.11692308 L74.4969231,12.1384615 L74.3753846,4.71846154 C74.3630769,3.74461538 74.1907692,3.33846154 73.18,3.33846154 L70.9707692,3.33846154 L70.9707692,1.11846154 L81.0123077,1.11846154 L81.0123077,3.33846154 L78.8584615,3.33846154 C77.8261538,3.33846154 77.7615385,3.68307692 77.7476923,4.71846154 L77.7476923,4.71846154 Z M38.9153846,20 C34.9584615,20 31.2861538,18.7661538 28.8338462,16.4784615 C26.9815385,14.7492308 26.0907692,12.4 26.0907692,9.98307692 C26.0907692,7.59384615 27.02,5.22923077 28.8338462,3.50923077 C31.1092308,1.35230769 35.1307692,8.75668864e-16 38.9153846,8.75668864e-16 C43.1030769,8.75668864e-16 46.4553846,1.09846154 49.0184615,3.51538462 C50.8415385,5.23692308 51.7230769,7.59076923 51.7230769,9.98307692 C51.7230769,12.3015385 50.7876923,14.7692308 49.0184615,16.4784615 C46.6323077,18.7815385 42.8815385,20 38.9153846,20 L38.9153846,20 Z M44.3230769,4.75384615 C42.9815385,3.37846154 40.9861538,2.60461538 38.9153846,2.60461538 C36.8369231,2.60461538 34.84,3.37076923 33.4969231,4.75384615 C32.2030769,6.08769231 31.5215385,7.97538462 31.5215385,9.98307692 C31.5215385,11.9846154 32.2092308,13.8692308 33.4969231,15.2015385 C34.8415385,16.5923077 36.8307692,17.3615385 38.9153846,17.3615385 C41.0153846,17.3615385 42.9630769,16.6076923 44.3230769,15.2015385 C45.6753846,13.8030769 46.3046154,12.0830769 46.3046154,9.98307692 C46.3046154,7.97076923 45.6246154,6.08769231 44.3230769,4.75384615 L44.3230769,4.75384615 Z M10.8984615,7.11692308 C12.3876923,7.27846154 15.4984615,7.71230769 16.8738462,8.06307692 C17.5830769,8.24461538 18.4492308,8.56615385 18.9984615,8.83538462 C19.6292308,9.14153846 20.2338462,9.54307692 20.7292308,10.0569231 C21.0923077,10.4353846 22.1246154,11.6784615 22.1246154,13.68 C22.1246154,15.7646154 20.9369231,16.9138462 20.3969231,17.3615385 C19.3969231,18.1907692 18.1661538,18.7246154 17.1707692,19.02 C16.1138462,19.3353846 14.5846154,19.8153846 11.7384615,19.8153846 C9.99384615,19.8153846 9.08923077,19.5969231 7.68615385,19.2938462 C5.97538462,18.92 4.33846154,18.2430769 3.78153846,17.98 C3.33230769,17.7676923 3.20461538,18.2123077 3.20461538,18.3184615 L3.20461538,19.2646154 L0.533846154,19.2646154 L0.533846154,12.2661538 L2.93692308,12.2661538 C2.93692308,13.0969231 3.31538462,13.9353846 3.55692308,14.2415385 C4.52461538,15.4707692 5.56307692,15.9553846 6.55230769,16.3215385 C7.41076923,16.64 9.76615385,17.2538462 11.7261538,17.2538462 C14.3784615,17.2538462 15.8553846,16.5492308 16.0692308,16.4615385 C16.2830769,16.3723077 17.5138462,15.9569231 17.5138462,14.6 C17.5138462,13.2369231 16.3446154,12.9861538 15.6492308,12.8030769 C14.7753846,12.5723077 12.6261538,12.3446154 10.4430769,12.1061538 C8.24307692,11.8661538 6.03384615,11.5046154 5.00153846,11.2707692 C2.68923077,10.7446154 1.80615385,9.84923077 1.25692308,9.32307692 C1.29076923,9.35692308 8.95008893e-15,8.12 0.00153846154,6.00615385 C0.00153846154,3.66 1.54461538,2.24615385 3.43076923,1.37076923 C5.47230769,0.421538462 7.87846154,0.00923076923 9.99384615,0.00923076923 C13.7292308,0.0153846154 16.7753846,1.28461538 17.8523077,1.87076923 C18.2815385,2.11692308 18.5092308,1.82 18.5092308,1.59076923 L18.5092308,0.883076923 L20.9153846,0.883076923 L20.9153846,6.97538462 L18.76,6.97538462 C18.5276923,5.84769231 17.8830769,5.04153846 17.4246154,4.65230769 C17.0184615,4.30769231 16.5076923,4.01538462 16.0707692,3.81230769 C14.7846154,3.21538462 12.7646154,2.64769231 10.3784615,2.65692308 C8.36,2.65692308 6.42461538,3.04615385 5.46615385,3.66923077 C4.86153846,4.06307692 4.55692308,4.54923077 4.55692308,5.12307692 C4.55692308,5.92923077 5.22461538,6.26 5.55230769,6.36615385 C6.63230769,6.71384615 9.34,6.94769231 10.8984615,7.11692308 L10.8984615,7.11692308 Z" id="path-1"></path>
            </g>
        </g>
    </g>
</svg>