<?xml version="1.0" encoding="UTF-8" standalone="no"?>
<svg width="144px" height="40px" viewBox="0 0 144 40" version="1.1" xmlns="http://www.w3.org/2000/svg" xmlns:xlink="http://www.w3.org/1999/xlink">
    <!-- Generator: Sketch 3.8.3 (29802) - http://www.bohemiancoding.com/sketch -->
    <title>logo-samsung</title>
    <desc>Created with Sketch.</desc>
    <defs></defs>
    <g id="Page-1" stroke="none" stroke-width="1" fill="none" fill-rule="evenodd">
        <g id="Artboard-7" fill="#034EA2">
            <g id="logo-samsung" transform="translate(0.000000, 10.000000)">
                <g id="Group">
                    <polygon id="Shape" points="118.948364 16.7738182 118.666909 0.654545455 123.748364 0.654545455 123.748364 20.9738182 116.439273 20.9738182 111.366545 4.29818182 111.257455 4.29818182 111.538909 20.9738182 106.490182 20.9738182 106.490182 0.654545455 114.113455 0.654545455 118.832727 16.7738182"></polygon>
                    <polygon id="Shape" points="26.5396364 2.55709091 23.7272727 21.1876364 18.1832727 21.1876364 21.9905455 0.654545455 31.1258182 0.654545455 34.9134545 21.1876364 29.3934545 21.1876364 26.6552727 2.55709091"></polygon>
                    <polygon id="Shape" points="50.4872727 16.3505455 53.0225455 0.654545455 61.3985455 0.654545455 61.8436364 21.1876364 56.7098182 21.1876364 56.5767273 2.72727273 56.4676364 2.72727273 53.0378182 21.1876364 47.8254545 21.1876364 44.3934545 2.72727273 44.28 2.72727273 44.1512727 21.1876364 39.0087273 21.1876364 39.4625455 0.654545455 47.8407273 0.654545455 50.376 16.3505455"></polygon>
                    <path d="M9.53672727,15.3949091 C9.73745455,15.8923636 9.67636364,16.5316364 9.58254545,16.9178182 C9.41018182,17.5985455 8.94763636,18.2967273 7.58181818,18.2967273 C6.29454545,18.2967273 5.51345455,17.5592727 5.51345455,16.4312727 L5.51345455,14.4414545 L0.00436363636,14.4414545 L0,16.032 C0,20.6094545 3.60436364,21.9905455 7.46618182,21.9905455 C11.1796364,21.9905455 14.2385455,20.7207273 14.7250909,17.2996364 C14.9738182,15.5258182 14.7883636,14.3650909 14.7032727,13.9265455 C13.8370909,9.62836364 6.04363636,8.34545455 5.46327273,5.94109091 C5.36509091,5.52872727 5.39345455,5.09236364 5.44145455,4.85890909 C5.58327273,4.20436364 6.03272727,3.48218182 7.31781818,3.48218182 C8.51781818,3.48218182 9.22690909,4.224 9.22690909,5.34545455 L9.22690909,6.61309091 L14.3476364,6.61309091 L14.3476364,5.17090909 C14.3476364,0.698181818 10.3330909,0 7.42472727,0 C3.77236364,0 0.787636364,1.20654545 0.242181818,4.54909091 C0.0938181818,5.472 0.072,6.29454545 0.288,7.32436364 C1.18690909,11.5221818 8.48290909,12.7374545 9.53672727,15.3949091 L9.53672727,15.3949091 Z" id="Shape"></path>
                    <path d="M76.3069091,15.3578182 C76.5098182,15.8509091 76.4443636,16.4727273 76.3527273,16.8589091 C76.1847273,17.5396364 75.7265455,18.2247273 74.3694545,18.2247273 C73.0996364,18.2247273 72.3250909,17.4872727 72.3250909,16.3854545 L72.3207273,14.4152727 L66.8705455,14.4152727 L66.864,15.984 C66.864,20.5156364 70.4356364,21.8836364 74.2581818,21.8836364 C77.9323636,21.8836364 80.9629091,20.6312727 81.4407273,17.2407273 C81.6894545,15.48 81.5127273,14.3345455 81.4232727,13.9047273 C80.5614545,9.64581818 72.8465455,8.376 72.2727273,5.99563636 C72.1745455,5.58545455 72.2029091,5.15345455 72.2530909,4.93309091 C72.3992727,4.27418182 72.84,3.56945455 74.112,3.56945455 C75.3010909,3.56945455 75.9949091,4.29381818 75.9949091,5.40654545 L75.9949091,6.66109091 L81.0763636,6.66109091 L81.0763636,5.22981818 C81.0763636,0.805090909 77.0945455,0.111272727 74.2145455,0.111272727 C70.6036364,0.111272727 67.6429091,1.30254545 67.1083636,4.62109091 C66.96,5.53090909 66.9447273,6.33818182 67.1563636,7.36363636 C68.04,11.52 75.2596364,12.7265455 76.3069091,15.3578182 L76.3069091,15.3578182 Z" id="Shape"></path>
                    <path d="M93.552,18.1156364 C94.9767273,18.1156364 95.4218182,17.1294545 95.52,16.6254545 C95.5614545,16.4029091 95.5723636,16.1061818 95.568,15.84 L95.568,0.645818182 L100.760727,0.645818182 L100.760727,15.3752727 C100.771636,15.7527273 100.734545,16.5294545 100.717091,16.7236364 C100.352727,20.5570909 97.3221818,21.8007273 93.5498182,21.8007273 C89.7730909,21.8007273 86.7403636,20.5570909 86.3803636,16.7236364 C86.3629091,16.5294545 86.3258182,15.7527273 86.3367273,15.3752727 L86.3367273,0.645818182 L91.5250909,0.645818182 L91.5250909,15.84 C91.5250909,16.1061818 91.5338182,16.4050909 91.5730909,16.6254545 C91.6843636,17.1294545 92.1185455,18.1156364 93.552,18.1156364 L93.552,18.1156364 Z" id="Shape"></path>
                    <path d="M136.385455,17.8996364 C137.873455,17.8996364 138.392727,16.9592727 138.488727,16.4116364 C138.525818,16.176 138.536727,15.8901818 138.534545,15.6305455 L138.534545,12.6501818 L136.426909,12.6501818 L136.426909,9.65236364 L143.707636,9.65236364 L143.707636,15.1636364 C143.703273,15.5476364 143.694545,15.8312727 143.633455,16.5163636 C143.290909,20.2516364 140.050909,21.5847273 136.411636,21.5847273 C132.765818,21.5847273 129.530182,20.2516364 129.183273,16.5163636 C129.124364,15.8312727 129.115636,15.5476364 129.109091,15.1636364 L129.115636,6.51709091 C129.115636,6.15272727 129.161455,5.50690909 129.200727,5.16436364 C129.656727,1.32654545 132.768,0.0916363636 136.413818,0.0916363636 C140.055273,0.0916363636 143.242909,1.32 143.620364,5.16436364 C143.688,5.81890909 143.666182,6.51709091 143.666182,6.51709091 L143.666182,7.20218182 L138.488727,7.20218182 L138.488727,6.05236364 C138.493091,6.05454545 138.482182,5.56363636 138.421091,5.27127273 C138.327273,4.81745455 137.934545,3.77454545 136.368,3.77454545 C134.871273,3.77454545 134.432727,4.76072727 134.323636,5.27127273 C134.260364,5.54181818 134.236364,5.90836364 134.236364,6.24 L134.236364,15.6305455 C134.232,15.8901818 134.247273,16.176 134.288727,16.4116364 C134.382545,16.9592727 134.899636,17.8996364 136.385455,17.8996364 L136.385455,17.8996364 Z" id="Shape"></path>
                </g>
            </g>
        </g>
    </g>
</svg>