<?xml version="1.0" encoding="UTF-8" standalone="no"?>
<svg width="144px" height="40px" viewBox="0 0 144 40" version="1.1" xmlns="http://www.w3.org/2000/svg" xmlns:xlink="http://www.w3.org/1999/xlink">
    <!-- Generator: Sketch 3.8.3 (29802) - http://www.bohemiancoding.com/sketch -->
    <title>logo-htc</title>
    <desc>Created with Sketch.</desc>
    <defs></defs>
    <g id="Page-1" stroke="none" stroke-width="1" fill="none" fill-rule="evenodd">
        <g id="Artboard-7" fill="#8CC751">
            <g id="logo-htc" transform="translate(30.000000, 6.000000)">
                <g id="svg2">
                    <path d="M77.0841229,23.5914157 C72.6354693,23.6202864 68.4222444,23.6558219 67.2473337,23.5514358 C64.8708678,23.3448836 63.2828512,21.7901866 63.0985122,19.502561 C62.974141,18.0011679 62.974141,16.75741 63.0918537,15.5736195 C63.3072863,13.3459606 65.1707068,11.2249098 67.2473337,11.1227439 C67.9913688,11.0827637 69.9813834,11.0872095 73.5860556,11.102758 L84.0758185,11.1227439 L84.0758185,6.77181332 C84.0758185,6.77181332 75.7204341,6.76292844 73.2084927,6.75182746 C69.8370161,6.73628063 68.1401751,6.73405771 67.0652107,6.77181332 C64.6998561,6.86287376 62.7187263,7.70463161 61.1795766,9.26821273 C59.7203805,10.7451745 58.8497478,13.0949878 58.7209307,15.4736745 C58.647639,16.75741 58.6232141,18.4342617 58.7209307,19.4314888 C58.9630215,21.9900759 59.7914561,23.9978559 61.1795766,25.4037468 C62.663201,26.9140238 64.9219541,27.8712727 67.0674337,27.9001455 C68.8286815,27.9223543 84.0758185,27.9001455 84.0758185,27.9001455 L84.0758185,23.5514358 C84.0758185,23.5514358 79.445042,23.5692056 77.0841263,23.5914157" id="path38"></path>
                    <polygon id="path40" points="29.7302709 7.00501951 29.7302709 11.3515083 40.0801151 11.3515083 40.0801151 27.8246336 44.4488151 27.8246336 44.4488151 11.3515083 54.7986498 11.3515083 54.7986498 7.00501951 29.7302709 7.00501951"></polygon>
                    <path d="M25.1927794,15.2249252 C25.1616714,12.8839958 24.3354734,10.8762155 22.734139,9.25266727 C21.0639462,7.55360576 18.5164673,6.84732898 16.8484977,6.75848941 C15.3981855,6.67631215 9.68356576,6.702962 8.34208576,6.75848941 C6.45201917,6.83844512 5.07499829,7.40257785 4.384268,7.91784854 C4.37762654,7.92232171 4.37091678,7.92006805 4.37091678,7.90896366 L4.37091678,0 L0,0 L0,27.9001462 L4.36425449,27.9001462 C4.36425449,27.9001462 4.27763854,16.4797865 4.37536912,15.2360289 C4.54860068,13.0261381 6.2254558,11.2893197 8.36427507,11.102756 C10.0788807,10.9561702 15.2249334,10.9961484 16.839592,11.1049755 C19.0561485,11.2582236 20.6930234,12.990601 20.8218421,15.3248668 C20.8640651,16.1843927 20.8198617,27.9001448 20.8198617,27.9001448 L25.1930014,27.9001448 C25.1930014,27.9001448 25.204116,16.2288126 25.1930014,15.2249225" id="path50"></path>
                </g>
            </g>
        </g>
    </g>
</svg>