<?xml version="1.0" encoding="UTF-8" standalone="no"?>
<svg width="144px" height="40px" viewBox="0 0 144 40" version="1.1" xmlns="http://www.w3.org/2000/svg" xmlns:xlink="http://www.w3.org/1999/xlink">
    <!-- Generator: Sketch 3.8.3 (29802) - http://www.bohemiancoding.com/sketch -->
    <title>logo-apple</title>
    <desc>Created with Sketch.</desc>
    <defs></defs>
    <g id="Page-1" stroke="none" stroke-width="1" fill="none" fill-rule="evenodd">
        <g id="Artboard-7" fill="#000000">
            <g id="logo-apple" transform="translate(57.000000, 2.000000)">
                <path d="M29.4958537,27.9329268 C28.9580488,29.1753659 28.3214634,30.3190244 27.5839024,31.3704878 C26.5785366,32.8039024 25.7553659,33.7960976 25.1209756,34.3470732 C24.137561,35.2514634 23.0839024,35.7146341 21.9556098,35.7409756 C21.1456098,35.7409756 20.1687805,35.5104878 19.0317073,35.0429268 C17.8909024,34.577561 16.8425122,34.3470732 15.8839024,34.3470732 C14.8785366,34.3470732 13.8002927,34.577561 12.6469756,35.0429268 C11.4919024,35.5104878 10.5613902,35.7541463 9.84995122,35.7782927 C8.76797561,35.8243902 7.6895122,35.3480488 6.61302439,34.3470732 C5.92595122,33.7478049 5.06656098,32.7204878 4.03704878,31.265122 C2.93246341,29.7109756 2.02434146,27.9087805 1.31290244,25.8541463 C0.55097561,23.634878 0.16902439,21.4858537 0.16902439,19.4053171 C0.16902439,17.0220732 0.684,14.966561 1.7154878,13.2440488 C2.52614634,11.8604634 3.60460976,10.7690488 4.95439024,9.96782927 C6.30417073,9.16660976 7.76260976,8.75831707 9.33321951,8.73219512 C10.1926098,8.73219512 11.3195854,8.99802439 12.7200732,9.52046341 C14.1166098,10.0446585 15.0133171,10.3104878 15.4064634,10.3104878 C15.7003902,10.3104878 16.6965366,9.99965854 18.3852439,9.37997561 C19.9821951,8.80529268 21.33,8.56734146 22.4341463,8.66107317 C25.4260976,8.90253659 27.6739024,10.0819756 29.1687805,12.2068537 C26.4929268,13.8281707 25.1692683,16.0990244 25.1956098,19.0121707 C25.2197561,21.2812683 26.0429268,23.1695122 27.6607317,24.6687805 C28.3939024,25.3646341 29.2126829,25.902439 30.1236585,26.2843902 C29.9260976,26.8573171 29.717561,27.4060976 29.4958537,27.9329268 L29.4958537,27.9329268 Z M22.6339024,0.930731707 C22.6339024,2.70924146 21.9841463,4.36982927 20.6890244,5.90685366 C19.1260976,7.73407317 17.2356585,8.78992683 15.1856341,8.62331707 C15.1595122,8.40995122 15.1443659,8.18539024 15.1443659,7.94941463 C15.1443659,6.24204878 15.8876341,4.41482927 17.207561,2.92082927 C17.8665366,2.16439024 18.7046341,1.53542195 19.7209756,1.03368293 C20.735122,0.539429268 21.6943902,0.266092683 22.5965854,0.219292683 C22.6229268,0.457046341 22.6339024,0.694821951 22.6339024,0.930709756 L22.6339024,0.930731707 Z" id="Shape"></path>
            </g>
        </g>
    </g>
</svg>