<?xml version="1.0" encoding="UTF-8" standalone="no"?>
<svg width="144px" height="40px" viewBox="0 0 144 40" version="1.1" xmlns="http://www.w3.org/2000/svg" xmlns:xlink="http://www.w3.org/1999/xlink">
    <!-- Generator: Sketch 3.8.3 (29802) - http://www.bohemiancoding.com/sketch -->
    <title>logo-panasonic</title>
    <desc>Created with Sketch.</desc>
    <defs></defs>
    <g id="Page-1" stroke="none" stroke-width="1" fill="none" fill-rule="evenodd">
        <g id="Artboard-7" fill="#001EAA">
            <g id="logo-panasonic" transform="translate(10.000000, 10.000000)">
                <g id="Group">
                    <path d="M31.4364645,5.89206989 L36.2888058,5.89206989 L36.5019198,7.49205344 C36.8750175,6.21248099 39.3280493,5.30585817 40.8211799,5.30585817 C44.2867996,5.30585817 45.6730771,7.43847893 45.6730771,11.1712312 L45.6730771,19.2220596 L40.2879507,19.2220596 L40.2879507,12.0239836 C40.2879507,10.5844275 40.0212621,9.51811716 38.5817061,9.51811716 C37.2485591,9.51811716 36.5554943,10.9584132 36.5554943,11.971593 L36.5554943,19.2220596 L31.4364645,19.2220596 L31.4364645,5.89206989 L31.4364645,5.89206989 L31.4364645,5.89206989 Z" id="Shape"></path>
                    <path d="M0.0309969168,19.2759301 L0.0309969168,0.400238438 L9.04172662,0.400238438 C14.427593,0.400238438 16.8801809,3.01310586 16.8801809,6.7988407 C16.8801809,10.8505242 14.6408551,13.6230791 9.04172662,13.6230791 L6.00277903,13.6230791 L6.00277903,19.2759301 L0.0309969168,19.2759301 L0.0309969168,19.2759301 L0.0309969168,19.2759301 Z M8.40208839,9.03831449 C9.8414964,9.03831449 11.3882014,8.71834738 11.3882014,7.0652333 C11.3882014,5.35898869 9.73508736,4.98574306 8.40208839,4.98574306 L6.00277903,4.98574306 L6.00277903,9.0381665 L8.40208839,9.0381665 L8.40208839,9.03831449 L8.40208839,9.03831449 Z" id="Shape"></path>
                    <path d="M90.7289455,5.89206989 L95.6347133,5.89206989 L95.7942528,7.49205344 C96.220629,6.21248099 98.6738088,5.30585817 100.166791,5.30585817 C103.579133,5.30585817 105.018689,7.43847893 105.018689,11.1712312 L105.018689,19.2760781 L99.6340062,19.2760781 L99.6340062,12.0241316 C99.6340062,10.5845755 99.3137431,9.51826516 97.8735951,9.51826516 C96.5943186,9.51826516 95.9006619,10.9585612 95.9006619,11.971741 L95.9006619,19.2760781 L90.7287975,19.2760781 L90.7287975,5.89206989 L90.7289455,5.89206989 L90.7289455,5.89206989 Z" id="Shape"></path>
                    <path d="M65.9881768,14.4773114 C65.9881768,15.0106886 66.2548654,15.8097184 66.5748325,16.076555 C66.9480781,16.3432436 67.4283248,16.6099322 68.0142405,16.6099322 C68.9742898,16.6099322 69.7212251,16.3432436 69.7212251,15.4366208 C69.7745036,13.197591 61.6160822,15.1699322 61.6160822,9.83823227 C61.6160822,6.10577595 64.4954902,5.25272765 67.4814553,5.25272765 C70.4677163,5.25272765 74.5732703,5.83893936 74.4129908,9.8913628 L69.8810606,9.8913628 C69.8810606,9.51826516 69.7212251,9.25172456 69.507815,8.93160946 C69.1878479,8.55836382 68.8146023,8.39838027 68.1215375,8.34510175 C67.2149147,8.29197122 66.3612744,8.45195478 66.3612744,9.14472354 C66.4151449,11.2252497 74.7862364,9.83823227 74.7862364,14.744 C74.7862364,18.1566372 72.386779,19.7017143 67.7481439,19.7017143 C64.8154573,19.6491757 61.1361316,18.1566372 61.1361316,14.4771634 L65.9881768,14.4771634 L65.9881768,14.4773114 L65.9881768,14.4773114 Z" id="Shape"></path>
                    <path d="M121.175104,11.0648222 C121.175104,10.7441151 121.175104,10.3180349 120.748876,9.78495375 C120.53517,9.51811716 120.055071,8.93146146 119.30858,8.93146146 C117.283108,8.93146146 116.749731,10.9043947 116.749731,12.5034902 C116.749731,14.3707544 117.602483,15.9158314 119.202171,15.9158314 C120.588448,15.9158314 121.281809,14.637591 121.281809,13.5703926 L125.974166,13.5703926 C126.080428,16.3429476 124.161365,19.6490277 118.989501,19.6490277 C114.776798,19.6490277 111.790536,16.7161932 111.790536,12.4508037 C111.790536,7.27849538 115.629994,5.30556218 118.935334,5.30556218 C123.414134,5.30556218 125.974166,8.02483864 125.92074,11.0646742 L121.175104,11.0646742 L121.175104,11.0648222 L121.175104,11.0648222 Z" id="Shape"></path>
                    <path d="M25.731371,19.2759301 L25.1981418,18.1566372 C24.18511,19.0092415 23.1185036,19.4887482 21.412111,19.4887482 C19.7594409,19.4363577 16.5069353,19.2220596 16.5069353,15.6492909 C16.5069353,9.78495375 25.2514203,12.4510997 25.2514203,9.57139568 C25.2514203,8.61193834 24.184962,8.66506886 23.5983063,8.66506886 C22.5318479,8.66506886 21.8387831,8.87818294 21.6789476,10.4775745 L17.199704,10.4775745 C17.199704,7.70501953 18.0531963,5.35898869 23.9187174,5.35898869 C29.6238109,5.35898869 30.2101706,8.34495375 30.2101706,11.2776403 L30.2101706,17.3562754 C30.2101706,18.1566372 30.2634491,18.5298828 30.7969743,19.1157986 L30.7969743,19.2220596 L25.731371,19.2759301 L25.731371,19.2759301 L25.731371,19.2759301 Z M25.3045509,13.1435725 C23.4918972,13.9961768 21.1989969,13.9437862 21.1457184,15.2760452 C21.1457184,16.1302775 21.6256691,16.5557657 22.6919794,16.5557657 C24.4515026,16.5559137 25.4114039,14.744 25.3045509,13.1435725 L25.3045509,13.1435725 L25.3045509,13.1435725 Z M55.8041357,19.2759301 L55.2709065,18.1566372 C54.2578746,19.0092415 53.1378417,19.4887482 51.4848756,19.4887482 C49.778779,19.4363577 46.5262734,19.2220596 46.5262734,15.6492909 C46.5262734,9.78495375 55.2709065,12.4510997 55.324185,9.57139568 C55.324185,8.61193834 54.2047441,8.66506886 53.6712189,8.66506886 C52.551778,8.66506886 51.9116958,8.87818294 51.7518602,10.4775745 L47.2729126,10.4775745 C47.2729126,7.70501953 48.0725344,5.35898869 53.991186,5.35898869 C59.643001,5.35898869 60.2298047,8.34495375 60.2298047,11.2776403 L60.2298047,17.3562754 C60.2298047,18.1566372 60.2829353,18.5298828 60.8161644,19.1157986 L60.8161644,19.2220596 L55.8041357,19.2759301 L55.8041357,19.2759301 L55.8041357,19.2759301 Z M55.3777595,13.1435725 C53.5648099,13.9961768 51.218483,13.9437862 51.218483,15.2760452 C51.218483,16.1302775 51.6448592,16.5557657 52.7648921,16.5557657 C54.4709887,16.5559137 55.4841686,14.744 55.3777595,13.1435725 L55.3777595,13.1435725 L55.3777595,13.1435725 Z" id="Shape"></path>
                    <path d="M110.937784,19.2759301 L110.937784,5.89206989 L105.978738,5.89206989 L105.978738,19.2760781 L110.937784,19.2760781 L110.937784,19.2759301 L110.937784,19.2759301 Z M105.978738,4.18597328 L110.937784,4.18597328 L110.937784,0.347107914 L105.978738,0.347107914 L105.978738,4.18597328 L105.978738,4.18597328 L105.978738,4.18597328 Z" id="Shape"></path>
                    <path d="M82.7310997,5.41256321 C87.1569168,5.41256321 89.8758972,8.5050853 89.8758972,12.5575087 C89.8758972,16.6623227 87.1569168,19.7017143 82.7310997,19.7017143 C78.3055786,19.7017143 75.5321357,16.6623227 75.5321357,12.5575087 C75.5322837,8.5052333 78.3055786,5.41256321 82.7310997,5.41256321 L82.7310997,5.41256321 L82.7310997,5.41256321 Z M80.3852169,12.5575087 C80.3852169,14.2106228 80.9180021,16.2368345 82.7312477,16.2892251 C84.5439013,16.2892251 85.023556,14.2106228 85.023556,12.5575087 C85.023556,10.9584132 84.5439013,8.87818294 82.7312477,8.87818294 C80.9178541,8.87818294 80.4380514,10.9584132 80.3852169,12.5575087 L80.3852169,12.5575087 L80.3852169,12.5575087 Z" id="Shape"></path>
                </g>
            </g>
        </g>
    </g>
</svg>