<?xml version="1.0" encoding="UTF-8" standalone="no"?>
<svg width="144px" height="40px" viewBox="0 0 144 40" version="1.1" xmlns="http://www.w3.org/2000/svg" xmlns:xlink="http://www.w3.org/1999/xlink">
    <!-- Generator: Sketch 3.8.3 (29802) - http://www.bohemiancoding.com/sketch -->
    <title>logo-mi</title>
    <desc>Created with Sketch.</desc>
    <defs>
        <rect id="path-1" x="0" y="0" width="40" height="40"></rect>
        <rect id="path-3" x="0" y="0" width="40" height="40"></rect>
        <rect id="path-5" x="0" y="0" width="40" height="40"></rect>
    </defs>
    <g id="Page-1" stroke="none" stroke-width="1" fill="none" fill-rule="evenodd">
        <g id="Artboard-7">
            <g id="logo-mi" transform="translate(52.000000, 0.000000)">
                <g id="Group">
                    <rect id="Rectangle-path" fill="#F57921" x="0" y="0" width="40" height="40"></rect>
                    <g id="Clipped">
                        <mask id="mask-2" fill="white">
                            <use xlink:href="#path-1"></use>
                        </mask>
                        <g id="SVGID_1_"></g>
                        <path d="M27.091,30.1735 L27.091,15.5925 C27.091,12.2796 24.40605,9.5935 21.0935,9.5935 L4.234,9.5935 C4.104,9.5935 3.99875,9.6982 3.99875,9.82685 L3.99875,30.17335 C3.99875,30.302 4.104,30.40625 4.234,30.40625 L8.73735,30.40625 C8.86735,30.40625 8.9726,30.30145 8.9726,30.1719 L8.9726,14.2024 C8.9726,14.07285 9.07785,13.96765 9.2079,13.96765 L18.8919,13.96765 C20.71025,13.96765 22.18515,15.4416 22.18515,17.2604 L22.18515,30.1714 C22.18515,30.30095 22.29035,30.40575 22.41955,30.40575 L26.85675,30.40575 C26.98575,30.40575 27.09125,30.30125 27.09125,30.17275" id="Shape" fill="#FAF9F5" mask="url(#mask-2)"></path>
                    </g>
                    <g id="Clipped">
                        <mask id="mask-4" fill="white">
                            <use xlink:href="#path-3"></use>
                        </mask>
                        <g id="SVGID_1_"></g>
                        <path d="M17.997,30.172 C17.997,30.3016 17.89275,30.40635 17.76265,30.40635 L13.26035,30.40635 C13.1303,30.40635 13.02505,30.3016 13.02505,30.172 L13.02505,17.9345 C13.02505,17.80495 13.1303,17.69975 13.26035,17.69975 L17.76265,17.69975 C17.89275,17.69975 17.997,17.80495 17.997,17.9345 L17.997,30.1725 L17.997,30.172 Z" id="Shape" fill="#FAF9F5" mask="url(#mask-4)"></path>
                    </g>
                    <g id="Clipped">
                        <mask id="mask-6" fill="white">
                            <use xlink:href="#path-5"></use>
                        </mask>
                        <g id="SVGID_1_"></g>
                        <path d="M36.001,30.172 C36.001,30.3016 35.89575,30.40635 35.76565,30.40635 L31.26435,30.40635 C31.1342,30.40635 31.028,30.3016 31.028,30.172 L31.028,9.829 C31.028,9.6989 31.1342,9.59375 31.26435,9.59375 L35.76565,9.59375 C35.89575,9.59375 36.001,9.6989 36.001,9.829 L36.001,30.172 L36.001,30.172 Z" id="Shape" fill="#FAF9F5" mask="url(#mask-6)"></path>
                    </g>
                </g>
            </g>
        </g>
    </g>
</svg>