<?xml version="1.0" encoding="UTF-8"?>
<svg width="64px" height="64px" viewBox="0 0 64 64" version="1.1" xmlns="http://www.w3.org/2000/svg" xmlns:xlink="http://www.w3.org/1999/xlink">
    <!-- Generator: Sketch 42 (36781) - http://www.bohemiancoding.com/sketch -->
    <title>icon-store</title>
    <desc>Created with Sketch.</desc>
    <defs></defs>
    <g id="cart/order/product" stroke="none" stroke-width="1" fill="none" fill-rule="evenodd">
        <g id="icon-store" fill-rule="nonzero" fill="#6F7274">
            <path d="M19.2876712,42.3662894 L13.6422226,48.011738 C13.1286564,48.5253042 12.2960011,48.5253042 11.7824349,48.011738 C11.2688687,47.4981718 11.2688687,46.6655165 11.7824349,46.1519503 L19.2876712,38.646714 L19.2876712,30.6626018 C19.1457262,30.6888309 19.0082972,30.7160334 18.8760028,30.7441725 L5.69863014,33.5470091 L5.69863014,48.5749289 C5.69863014,48.6096892 5.85330297,48.8288923 5.88048439,48.8384058 L19.2876712,53.5309212 L19.2876712,42.3662894 Z M46.4657534,50.2936831 L58.3013699,48.4525872 L58.3013699,33.164896 L46.4657534,32.0801643 L46.4657534,50.2936831 Z M42.9589041,50.839193 L42.9589041,31.7587623 L26.7829152,30.2762365 C25.9012417,30.1954313 24.8062876,30.1804766 23.6712329,30.2210686 L23.6712329,53.8394974 L42.9589041,50.839193 Z M58.3013699,19.1315535 L58.3013699,16.6251292 C58.3077079,16.6241662 30.192563,10.9986582 23.6712328,9.69384713 L23.6712329,13.4365532 C24.0093517,13.4629386 24.3302971,13.5004978 24.6273579,13.5497387 L58.3013699,19.1315535 Z M5.69863014,17.8396792 L16.8936112,14.1480455 C17.5782037,13.9222957 18.406601,13.7418652 19.2876712,13.6136505 L19.2876712,9.99451344 L5.95469004,15.3277059 C5.88351539,15.3561758 5.69863014,15.6287428 5.69863014,15.7010768 L5.69863014,17.8396792 Z M62.6849315,20.8733068 C63.4918198,21.7380205 64,22.8850112 64,24.0679461 L64,29.6953882 C64,30.8673404 63.4925288,31.8776886 62.6849315,32.5350896 L62.6849315,48.5689935 C62.6849315,50.62146 61.127663,52.4492219 59.0967216,52.7651461 L23.1113091,58.362877 C21.7993124,58.5669653 19.9165676,58.3953352 18.6674608,57.9581478 L4.43237294,52.9758671 C2.64271147,52.3494856 1.31506849,50.4679439 1.31506849,48.5749289 L1.31506849,34.3679045 C0.549583738,34.2582841 3.55271368e-14,33.6337762 3.55271368e-14,32.7618808 L3.55271368e-14,23.7098754 C3.55271368e-14,22.5012225 0.509677436,21.2511854 1.31506849,20.2541489 L1.31506849,15.7010768 C1.31506849,13.8347615 2.59265565,11.9512793 4.32667611,11.2576711 L18.5932552,5.55103949 C19.8900442,5.03232388 21.8240672,4.85393102 23.1915131,5.1274202 L59.2024206,12.3296017 C61.177862,12.72469 62.6849315,14.5702519 62.6849315,16.5837245 L62.6849315,20.8733068 Z M14.4125719,37.3848271 C14.9261381,36.8712609 15.7587934,36.8712609 16.2723596,37.3848271 C16.7859258,37.8983932 16.7859258,38.7310486 16.2723596,39.2446148 L11.0120856,44.5048887 C10.4985194,45.0184549 9.66586412,45.0184549 9.15229793,44.5048887 C8.63873174,43.9913225 8.63873174,43.1586672 9.15229793,42.645101 L14.4125719,37.3848271 Z M38.5753425,39.6297894 C38.5753425,38.9034971 39.1641187,38.3147209 39.890411,38.3147209 C40.6167032,38.3147209 41.2054795,38.9034971 41.2054795,39.6297894 L41.2054795,44.4388032 C41.2054795,45.1650955 40.6167032,45.7538717 39.890411,45.7538717 C39.1641187,45.7538717 38.5753425,45.1650955 38.5753425,44.4388032 L38.5753425,39.6297894 Z M30.3457045,24.5227263 C30.4039177,23.8983833 30.3135774,23.3607424 30.0689172,22.9094022 C29.8239825,22.4494776 29.4131951,22.0845754 28.8329853,21.8093198 C28.5715752,21.6832886 28.3104396,21.5781349 28.0490294,21.4848623 C27.7862463,21.3898143 27.5413116,21.2984877 27.3172457,21.2099416 C26.9050853,21.0353876 26.6483432,20.8817892 26.5453718,20.7538111 C26.4429495,20.6275176 26.4042323,20.4556098 26.4220806,20.2428122 C26.447343,20.0024028 26.59013,19.8358022 26.8537369,19.7430771 C27.11652,19.653467 27.4336721,19.6353174 27.7980537,19.6907066 C28.2387715,19.7576995 28.669604,19.9151688 29.0795676,20.1638166 C29.4909042,20.4099569 29.8536383,20.7066034 30.1598067,21.0462479 L30.382225,18.8234225 C30.1238353,18.6227374 29.9535892,18.4553694 29.4804698,18.2441338 C29.0106454,18.0260554 28.5015546,17.8757565 27.9768121,17.7894734 C26.8537369,17.6048066 25.9398997,17.7508382 25.2399685,18.2206268 C24.5345454,18.7032546 24.1394097,19.3822815 24.0559342,20.2642634 C23.9933275,20.9509467 24.0930039,21.5456229 24.3612788,22.0482875 C24.6270825,22.5451516 25.0735666,22.9489673 25.7001822,23.2481742 C25.925621,23.3571343 26.1823631,23.4603341 26.4616217,23.5542153 C26.7482942,23.6432184 26.9693395,23.7244977 27.1357414,23.7966975 C27.4830984,23.9328229 27.7090864,24.0576761 27.8279841,24.1697479 C27.9452342,24.2811213 27.9908162,24.4485529 27.9699474,24.6676261 C27.9488039,24.9166025 27.8213939,25.0889053 27.5951313,25.1870172 C27.3688687,25.2917681 27.0305732,25.316243 26.5832653,25.2646919 C26.242773,25.2254511 25.925621,25.1427981 25.6394977,25.0187776 C25.347608,24.8944605 25.0883945,24.7605501 24.8646032,24.6049704 C24.6040168,24.4293875 24.4054879,24.2707241 24.2679181,24.1254869 C24.1284261,23.9858443 24.0095284,23.8531354 23.9021635,23.7430553 L23.6712329,26.166695 C23.9625734,26.3879279 24.1589056,26.5789068 24.6553653,26.7844079 C25.156493,26.9926143 25.7232478,27.1230315 26.3572773,27.1882223 C27.4971025,27.305419 28.426866,27.1156424 29.13833,26.6230144 C29.8514416,26.1364938 30.2523437,25.4353093 30.3457045,24.5227263 Z M34.5296401,20.6111696 L34.5296401,18.9042114 C33.6133316,18.876617 32.8400847,19.1604402 32.206879,19.7567713 C31.4465378,20.4894609 30.9929143,21.5805968 30.850951,23.0286063 C30.8248649,23.2515329 30.8105862,23.4723231 30.8105862,23.6919244 L30.8105862,23.9357363 C30.8248649,24.9832879 31.0881972,25.8509273 31.5871282,26.5324435 C32.2164896,27.394367 33.1984253,27.883908 34.5296401,28.0271726 L34.5296401,26.0657177 C34.042242,25.9440858 33.6663275,25.7273167 33.4126059,25.413248 C33.0787038,25.0095406 32.9348184,24.4610679 32.9691422,23.7735434 L34.5296401,23.9765153 L34.5296401,22.3513953 L33.1311506,22.154212 C33.2228639,21.5476276 33.4194707,21.128723 33.7135571,20.8896277 C33.9442131,20.7017929 34.219902,20.6128777 34.5296401,20.6111696 Z M34.5296401,28.0271726 L34.5573738,28.0300245 C35.0799195,28.0837572 35.557707,28.0787059 35.997601,28.0098023 C36.4410647,27.9452395 36.7628848,27.7918375 37.2736231,27.5971564 L37.4990619,25.4422374 C37.2288649,25.6455797 36.7807331,25.8265823 36.3334252,25.9874312 C35.8877648,26.1474697 35.4390839,26.1983432 34.9821653,26.1454157 C34.8229028,26.1269674 34.6691321,26.0975225 34.5296401,26.0657177 L34.5296401,28.0271726 Z M35.9146747,22.5466814 L34.5296401,22.3513953 L34.5296401,23.9765153 L37.8865091,24.4131388 L37.984538,23.4783459 C38.1171652,22.1900717 37.9493904,21.1687931 37.4759963,20.3997797 C36.9951883,19.6230758 36.2126054,19.1436809 35.1233048,18.9645677 C34.9187349,18.9309304 34.7232264,18.9134017 34.5296401,18.9042114 L34.5296401,20.6111696 C34.6087222,20.6116079 34.6894518,20.6176276 34.7753986,20.6307621 C35.2172148,20.6982808 35.5316209,20.8937021 35.7109285,21.2143243 C35.892982,21.5310133 35.9610805,21.9766465 35.9146747,22.5466814 Z M45.1466823,21.3477746 C45.0511248,21.2014967 44.9465058,21.0709033 44.831727,20.9514992 C44.587616,20.6952374 42.891745,19.0533872 39.0315516,20.2009355 L38.8843711,21.7800583 L38.2245301,28.038082 L40.3830861,28.265537 L41.0341402,22.1250005 C41.2903331,21.9939287 41.5171449,21.9056243 41.7269321,21.8616609 C41.9345225,21.8172715 42.1341498,21.8091372 42.330482,21.839066 C42.6006791,21.8802547 42.8104662,21.9505608 42.9529787,22.0541563 C43.0971387,22.1553261 43.2025815,22.3034508 43.2621676,22.4886905 C43.3146144,22.6470588 43.3324628,22.8847452 43.3277947,23.2089496 C43.3190078,23.5294631 43.2838603,24.0147922 43.2487127,24.3337614 L42.7970113,28.5199012 L44.9533706,28.7471247 L45.5127115,23.6379207 C45.6200763,22.6610167 45.5006295,21.9026465 45.1466823,21.3477746 Z M56.6363908,30.1369658 L56.6363908,28.465975 C56.549071,28.4693346 56.4617513,28.4670408 56.3733331,28.4566827 C56.1377345,28.4290826 55.9367342,28.366805 55.7642914,28.2627111 C55.590201,28.1639059 55.4498852,28.0211769 55.3348318,27.8300029 C55.2236226,27.631821 55.1519545,27.380053 55.1184545,27.0703531 C55.0816593,26.7649415 55.0937413,26.407878 55.1423438,26.0045095 C55.200557,25.5480733 55.2851309,25.1768202 55.403754,24.8887885 C55.5179837,24.6023931 55.6544551,24.3832139 55.8112463,24.2300294 C55.9867097,24.0687153 56.1608001,23.9696825 56.3332429,23.9374565 C56.4296242,23.9167162 56.5295751,23.9064979 56.6363908,23.9089849 L56.6363908,22.2402599 C55.6544551,22.1606831 54.8413926,22.3762717 54.1881418,22.8907052 C53.4310958,23.4942273 52.9785706,24.4211275 52.8247999,25.6737488 C52.6729514,26.9255287 52.8896033,27.943591 53.469813,28.74098 C54.0500228,29.5283823 54.9465608,29.9822593 56.1517386,30.1075424 C56.3167675,30.1246978 56.4782267,30.1307064 56.6363908,30.1369658 Z M60.445785,26.7048791 C60.597359,25.5376941 60.3853751,24.5637373 59.8065383,23.7831202 C59.2301728,22.9994669 58.3344586,22.5017466 57.1210431,22.2995107 C56.9529937,22.2715024 56.7923582,22.2506701 56.6363908,22.2402599 L56.6363908,23.9089849 C56.7242598,23.9085885 56.8184443,23.9176653 56.9156494,23.9325831 C57.1306537,23.9655793 57.3261622,24.0324829 57.5008018,24.1326486 C57.6787364,24.23592 57.8234456,24.3833253 57.9310851,24.5801047 C58.0400975,24.7717359 58.1117656,25.0144051 58.1543272,25.3172436 C58.1870034,25.617362 58.1820608,25.9786729 58.1260444,26.407808 C58.0700279,26.8675755 57.9909458,27.2250689 57.8833063,27.4759628 C57.7786874,27.7268447 57.6435888,27.9407275 57.4755394,28.1106193 C57.3261622,28.264941 57.1567398,28.3656866 56.9648011,28.4183462 C56.8574362,28.4432793 56.7476,28.4620438 56.6363908,28.465975 L56.6363908,30.1369658 C57.6227199,30.1573255 58.4379792,29.9010179 59.0937013,29.3727496 C59.8460793,28.7641376 60.2964078,27.8827017 60.445785,26.7048791 Z M48.918777,20.9751349 C47.8860421,20.9380842 46.9697336,21.1746368 46.5339584,21.3619328 L46.7698317,23.0117601 C47.24707,22.7849399 48.196604,22.5790873 48.918777,22.654843 L48.918777,20.9751349 Z M46.6943193,28.7832051 C47.1215821,29.0503682 47.8292019,29.3238667 48.918777,29.3222927 L48.918777,27.904607 C48.8254162,27.9110327 48.727662,27.9130673 48.6321045,27.9021229 C48.1287801,27.8444764 47.6037631,27.4023316 47.715796,26.5092862 C47.7904846,25.9079878 48.2781574,25.5407439 48.918777,25.3985666 L48.918777,23.8790167 C47.0790206,23.9124775 45.8463838,24.7264854 45.6549942,26.4454254 C45.5803056,27.1368591 45.7604369,27.8407953 46.1635358,28.338178 C46.1791875,28.3530729 46.1962121,28.3766987 46.2195523,28.4007002 C46.353827,28.552201 46.5122658,28.6855227 46.6943193,28.7832051 Z M48.918777,29.3222927 C49.7205813,29.3228066 50.7156973,29.1837217 51.9615145,28.8006109 L52.1119901,27.298921 L52.3945437,24.8776162 C52.6040563,23.0739248 52.032908,21.451488 49.6294173,21.0509061 C49.3921711,21.0113651 49.1538265,20.9872389 48.918777,20.9751349 L48.918777,22.654843 C48.9588672,22.6562043 49.0022525,22.6628804 49.0395968,22.6686269 C50.1448237,22.8386981 50.2799222,23.459422 50.2335164,23.8717289 L50.2244549,23.9697901 C49.7631429,23.9026844 49.3270931,23.8713075 48.918777,23.8790167 L48.918777,25.3985666 C49.2911218,25.3229889 49.7093231,25.3125609 50.1409794,25.3707695 L50.0237292,26.348532 C49.9885817,26.679407 49.9147168,27.2425372 49.9377824,27.1862739 C49.7862085,27.5399155 49.4317121,27.7973381 49.0538756,27.8777849 L48.918777,27.904607 L48.918777,29.3222927 Z" id="Combined-Shape-Copy-13"></path>
        </g>
    </g>
</svg>