<?xml version="1.0" encoding="UTF-8"?>
<svg width="64px" height="64px" viewBox="0 0 64 64" version="1.1" xmlns="http://www.w3.org/2000/svg" xmlns:xlink="http://www.w3.org/1999/xlink">
    <!-- Generator: Sketch 41.2 (35397) - http://www.bohemiancoding.com/sketch -->
    <title>icon-free-blue</title>
    <desc>Created with Sketch.</desc>
    <defs></defs>
    <g id="cart/order/product" stroke="none" stroke-width="1" fill="none" fill-rule="evenodd">
        <g id="icon-free-blue" fill="#0090D4">
            <path d="M57.2696172,10.650693 C57.738482,11.6682255 58,12.801543 58,13.9968376 L58,50.0031624 C58,54.4196938 54.4258294,58 50.0031624,58 L13.9968376,58 C13.0741951,58 12.188047,57.8440162 11.3634115,57.5568987 L18.5562629,50.3640473 C19.7329444,49.1873658 19.7279221,47.2928932 18.5563492,46.1213203 C17.3871602,44.9521314 15.4852427,44.9497861 14.3136222,46.1214067 L6.84582766,53.5892012 C6.30464581,52.5111548 6,51.2932576 6,50.0031624 L6,13.9968376 C6,9.58030617 9.57417059,6 13.9968376,6 L50.0031624,6 C51.0234724,6 51.9991526,6.19075543 52.8963693,6.53865955 L45.1214067,14.3136222 C43.9447251,15.4903037 43.9497475,17.3847763 45.1213203,18.5563492 C46.2905093,19.7255381 48.1924268,19.7278834 49.3640473,18.5562629 L57.2696172,10.650693 Z M0,12.0003513 C0,5.3727403 5.37395589,0 12.0003513,0 L51.9996487,0 C58.6272597,0 64,5.37395589 64,12.0003513 L64,51.9996487 C64,58.6272597 58.6260441,64 51.9996487,64 L12.0003513,64 C5.3727403,64 0,58.6260441 0,51.9996487 L0,12.0003513 Z M43.802,25.8 C45.459,25.8 46.802,24.457 46.802,22.8 C46.802,21.143 45.459,19.8 43.802,19.8 L35.403,19.8 L35.403,18.3 C35.403,16.643 34.06,15.3 32.403,15.3 C30.746,15.3 29.403,16.643 29.403,18.3 L29.403,19.8 L20.903,19.8 C19.246,19.8 17.903,21.143 17.903,22.8 C17.903,22.885 17.921,22.966 17.928,23.05 C17.921,23.134 17.903,23.214 17.903,23.3 L17.903,31.7 C17.903,31.803 17.923,31.9 17.933,32 C17.923,32.1 17.903,32.197 17.903,32.3 C17.903,33.957 19.246,35.3 20.903,35.3 L29.403,35.3 L29.403,39.1 L20.903,39.1 C19.246,39.1 17.903,40.442 17.903,42.1 C17.903,43.757 19.246,45.1 20.903,45.1 L29.403,45.1 L29.403,46.6 C29.403,48.257 30.746,49.6 32.403,49.6 C34.06,49.6 35.403,48.257 35.403,46.6 L35.403,45.1 L43.802,45.1 C45.459,45.1 46.802,43.757 46.802,42.1 L46.802,32.3 C46.802,30.643 45.459,29.3 43.802,29.3 L35.403,29.3 L35.403,25.8 L43.802,25.8 Z M23.903,29.3 L29.403,29.3 L29.403,25.8 L23.903,25.8 L23.903,29.3 Z M35.403,39.1 L40.802,39.1 L40.802,35.3 L35.403,35.3 L35.403,39.1 Z" id="Combined-Shape"></path>
        </g>
    </g>
</svg>