<?xml version="1.0" encoding="UTF-8" standalone="no"?>
<svg width="64px" height="64px" viewBox="0 0 64 64" version="1.1" xmlns="http://www.w3.org/2000/svg" xmlns:xlink="http://www.w3.org/1999/xlink">
    <!-- Generator: Sketch 39.1 (31720) - http://www.bohemiancoding.com/sketch -->
    <title>icon-horn-light</title>
    <desc>Created with Sketch.</desc>
    <defs></defs>
    <g id="form" stroke="none" stroke-width="1" fill="none" fill-rule="evenodd">
        <g id="icon-horn-light" fill="#A3A5A6">
            <path d="M18.8336174,41.0563199 L2,41.0563199 L2,23.3897502 L18.8336174,23.3897502 L34.4203001,6 L34.4203001,58.371254 L18.8336174,41.0563199 Z M51.8773848,32.185627 C51.8773848,26.4198013 49.011929,21.0904028 44.3259487,17.8508666 L40.9617191,21.6041398 C44.625213,23.871067 46.8896463,27.85627 46.8896463,32.185627 C46.8896463,36.534935 44.6077559,40.5301135 40.9243111,42.7945467 L44.30101,46.5453261 C49.0019535,43.3032961 51.8773848,37.9664159 51.8773848,32.185627 Z M50.8748493,54.2862962 L47.8946756,50.2861299 C53.6879338,45.9642545 57.0122615,39.3654765 57.0122615,32.185627 C57.0122615,25.0057775 53.6879338,18.4069995 47.8946756,14.0876179 L50.8748493,10.0874517 C57.9449686,15.3594913 62,23.4146889 62,32.185627 C62,40.9565651 57.9449686,49.0117627 50.8748493,54.2862962 Z" id="icon-horn"></path>
        </g>
    </g>
</svg>