<?xml version="1.0" encoding="utf-8"?>
<!-- Generator: Adobe Illustrator 22.0.1, SVG Export Plug-In . SVG Version: 6.00 Build 0)  -->
<svg version="1.1" id="圖層_1" xmlns="http://www.w3.org/2000/svg" xmlns:xlink="http://www.w3.org/1999/xlink" x="0px" y="0px"
	 viewBox="0 0 64 64" style="enable-background:new 0 0 64 64;" xml:space="preserve">
<style type="text/css">
	.st0{fill:#6F7274;}
</style>
<title>icon-add-heart-outline</title>
<desc>Created with Sketch.</desc>
<g id="cart_x2F_order_x2F_product">
	<g id="icon-add-heart-outline">
		<path id="Fill-1" class="st0" d="M58,24.2C57.2,37.8,46.8,49.7,32,54c-9.9-2.9-17.9-9.3-22.3-17.2h16.4l-5.3,5.6
			c-1.1,1.2-1.1,3,0,4.2l0.1,0.1c1,1,2.8,1,3.8-0.1l10-10.6v-0.1c1.1-1.1,1.1-3,0-4.1l-11-11.6c-0.1-0.1-0.1-0.1-0.2-0.2
			c-1-0.9-2.7-0.9-3.7,0.2c-1.1,1.1-1.1,3,0,4.1L26,31H7.3c-0.7-2.2-1.1-4.5-1.3-6.8c-0.4-8,4.2-12.7,9.1-13.9
			c4.4-1.1,10.5,0.6,14,8.6c0.5,1.2,1.8,1.9,3,1.8c1.2,0.1,2.5-0.6,3-1.8c3.6-8,9.6-9.7,14-8.6C53.9,11.5,58.5,16.2,58,24.2
			 M50.5,4.5C45,3.1,37.4,4.5,32.1,12c-5.3-7.5-12.9-8.9-18.4-7.6C5.1,6.6-0.5,14.8,0,24.6c1,16.3,13.5,30.5,31,35.4
			c0.3,0.1,0.5,0.1,0.8,0.1c0.1,0,0.1,0,0.2,0c0.1,0,0.1,0,0.2,0c0.3,0,0.5,0,0.8-0.1c17.5-4.9,30-19.1,31-35.4
			C64.6,14.8,59.1,6.5,50.5,4.5"/>
	</g>
</g>
</svg>
