<?xml version="1.0" encoding="UTF-8"?>
<svg width="64px" height="64px" viewBox="0 0 64 64" version="1.1" xmlns="http://www.w3.org/2000/svg" xmlns:xlink="http://www.w3.org/1999/xlink">
    <!-- Generator: Sketch 43.2 (39069) - http://www.bohemiancoding.com/sketch -->
    <title>icon-purse-silver</title>
    <desc>Created with Sketch.</desc>
    <defs></defs>
    <g id="member" stroke="none" stroke-width="1" fill="none" fill-rule="evenodd">
        <g id="icon-purse-silver" fill="#DCDDDE">
            <path d="M49.8168018,25.7205902 C57.7338562,35.2189286 59.1513758,45.1213612 53.9172936,54.3602286 C51.8766184,57.9630467 48.7023528,60.5917852 44.4838229,62.1751961 C40.9107803,63.5172139 36.5210421,64.1159112 31.4539146,63.9797953 C30.9711285,63.9925562 30.4947228,64 30.025761,64 C25.6328326,64 21.7439585,63.3874784 18.5165226,62.1741327 C14.2969294,60.5896584 11.1226638,57.9609198 9.08305196,54.3602286 C0.0951481963,38.4963445 12.5774026,23.9489565 23.252931,16.4487571 C23.14021,16.0563605 23.0625814,15.6522664 23.0625814,15.2322212 C23.0625814,14.0688555 23.512402,12.9703576 24.328034,12.1387744 C24.3418583,12.1249502 24.3609996,12.1058089 24.3748239,12.0919846 C24.5003057,11.9675661 24.6417387,11.862289 24.7821082,11.754885 L21.8641233,5.92104214 C21.4823607,5.15539014 21.5950817,4.23448093 22.1523062,3.58580354 C22.7084674,2.93499934 23.6038548,2.68297222 24.4173601,2.94456999 C26.6802871,3.6740662 26.8770171,3.32314236 27.0673667,2.98710621 C28.7241526,0.0840090389 31.2210288,0 31.5007045,0 C31.7793167,0 34.276193,0.0840090389 35.9329788,2.98710621 C36.1233284,3.32207896 36.3253755,3.67193939 38.5840489,2.94456999 C39.3986176,2.68297222 40.2908148,2.93499934 40.8491027,3.58580354 C41.4052638,4.23448093 41.5179848,5.15539014 41.1362222,5.92104214 L38.2193008,11.7527582 C38.3586069,11.8601622 38.5000399,11.9675661 38.6265851,12.0919846 C38.6382826,12.103682 38.6552971,12.1206965 38.6669945,12.132394 C39.4868802,12.9650405 39.9377642,14.0656653 39.9377642,15.2322212 C39.9377642,15.6639638 39.8558819,16.0797554 39.7367805,16.4838495 C42.4410209,18.4224379 46.3703044,21.5860694 49.8168018,25.7205902 Z M49.2914794,51.7389339 C58.1273162,36.1440915 39.8378041,22.8302539 34.9493287,19.6411006 L28.0595241,19.6411006 C23.2699455,22.7887811 4.90918515,36.205769 13.7088661,51.7389339 C15.1380832,54.2613319 17.3223182,56.0467898 20.3849262,57.1984581 C23.3103549,58.2958926 27.0099428,58.7839957 31.3954273,58.6648943 C31.4198857,58.6638309 31.5038947,58.6638309 31.5294164,58.6638309 C35.9850857,58.7882494 39.6899907,58.296956 42.6154194,57.1984581 C45.6780274,56.0478533 47.861199,54.2623953 49.2914794,51.7389339 Z M26.6058487,14.3719261 C26.388914,14.5931144 26.2527981,14.8983118 26.2527981,15.2322212 C26.2527981,15.5671939 26.388914,15.8723913 26.6058487,16.0925163 L26.6111657,16.0978333 C26.8047056,16.2881829 27.0620497,16.416855 27.3481058,16.4455669 L27.3523594,16.4466303 L27.3640569,16.4466303 L27.3789446,16.4476937 L27.3948956,16.4487571 L27.4044663,16.4498206 L27.4097833,16.4498206 L27.4725242,16.450884 L35.5288847,16.450884 L35.5916257,16.4498206 L35.5980061,16.4498206 L35.6065133,16.4487571 L35.6224644,16.4476937 L35.6235278,16.4476937 L35.6373521,16.4466303 L35.650113,16.4466303 L35.6522398,16.4455669 C35.9382959,16.4157916 36.19564,16.2892463 36.3891798,16.0978333 L36.3944969,16.0925163 C36.6114316,15.8713279 36.7475475,15.5661305 36.7475475,15.2322212 C36.7475475,14.8972484 36.6114316,14.592051 36.3944969,14.3719261 L36.3891798,14.3666091 C36.19564,14.1762595 35.9382959,14.0475874 35.6522398,14.0188754 L35.650113,14.017812 L35.6373521,14.017812 L35.6235278,14.0167486 L35.6224644,14.0167486 L35.6065133,14.0156852 L35.5980061,14.0146218 L35.5916257,14.0146218 L35.5288847,14.0135584 L27.4725242,14.0135584 L27.4097833,14.0146218 L27.4044663,14.0146218 L27.3948956,14.0156852 L27.3789446,14.0167486 L27.3640569,14.017812 L27.3523594,14.017812 L27.3481058,14.0188754 C27.0620497,14.0486508 26.8036421,14.1773229 26.6111657,14.3666091 L26.6058487,14.3719261 Z M30.7616376,5.09583943 C29.879011,6.6409677 28.657158,7.30984979 27.424671,7.52891134 L29.0729496,10.8233418 L33.9284594,10.8233418 L35.576738,7.52891134 C34.3421241,7.30984979 33.1213346,6.6409677 32.2387079,5.09583943 C31.9494616,4.58859498 31.6665958,4.3822943 31.5007045,4.29934866 C31.3337498,4.3822943 31.0519473,4.58859498 30.7616376,5.09583943 Z M27.2030615,31.765128 C26.928486,31.9478594 26.7457546,32.3142789 26.7457546,32.6797417 L26.7457546,37.1638364 C26.7457546,37.5292992 26.928486,37.8957187 27.1112174,38.1702942 C27.3857929,38.4448696 27.7522124,38.6276011 28.1176752,38.6276011 L35.0719923,38.6276011 C36.1702942,38.7194451 37.176752,39.176752 37.9086343,39.9086343 C38.7323607,40.6405166 39.1896675,41.7388185 39.1896675,42.8371203 L39.1896675,47.3202583 C39.1896675,48.4185602 38.7323607,49.516862 37.9086343,50.2487443 C37.0849079,50.9806266 36.0784501,51.4379335 34.981105,51.4379335 L32.8763454,51.4379335 L32.8763454,52.6280794 C32.8763454,53.3599617 32.2353504,54 31.5034681,54 C30.6797417,54 30.1315475,53.3599617 30.1315475,52.6280794 L30.1315475,51.4379335 L28.1176752,51.4379335 C27.0203301,51.4379335 26.0138723,50.9806266 25.1901459,50.2487443 C24.4582636,49.516862 24,48.4185602 24,47.3202583 C24,46.4965319 24.5491509,45.9483377 25.28199,45.9483377 C26.0138723,45.9483377 26.6539105,46.588376 26.6539105,47.3202583 C26.6539105,47.6866778 26.836642,48.0521406 27.1112174,48.3267161 C27.3857929,48.6012916 27.7522124,48.7849797 28.1176752,48.7849797 L34.981105,48.7849797 C35.3465678,48.7849797 35.7129873,48.6012916 35.9875628,48.3267161 C36.2621382,48.0521406 36.4448696,47.6866778 36.4448696,47.3202583 L36.4448696,42.8371203 C36.4448696,42.4707008 36.2621382,42.105238 35.9875628,41.8306625 C35.7129873,41.5560871 35.3465678,41.3723989 34.981105,41.3723989 L28.1176752,41.3723989 C27.0203301,41.2815116 26.0138723,40.8242047 25.2810332,40.0913657 C24.5491509,39.3594834 24.0918441,38.2621382 24.0918441,37.1638364 L24.0918441,32.6797417 C24.0918441,31.5823966 24.4582636,30.4840947 25.2810332,29.7522124 C26.0138723,29.0203301 27.1112174,28.5620665 28.2095193,28.5620665 L30.2224348,28.5620665 L30.2224348,27.3728773 C30.2224348,26.640995 30.8634298,26 31.5953121,26 C32.3271945,26 32.9672327,26.640995 32.9672327,27.3728773 L32.9672327,28.5620665 L34.981105,28.5620665 C36.0784501,28.5620665 37.176752,28.928486 37.9086343,29.7522124 C38.7323607,30.4840947 39.1896675,31.5823966 39.1896675,32.6797417 C39.1896675,33.4125807 38.5496293,34.052619 37.817747,34.052619 C37.0849079,34.052619 36.4448696,33.4125807 36.4448696,32.6797417 C36.4448696,32.3142789 36.2621382,32.0397034 35.9875628,31.765128 C35.7129873,31.4905525 35.3465678,31.3078211 34.981105,31.3078211 L28.2095193,31.3078211 C27.8430997,31.3078211 27.4776369,31.4905525 27.2030615,31.765128 Z" id="Combined-Shape"></path>
        </g>
    </g>
</svg>