<?xml version="1.0" encoding="UTF-8"?>
<svg width="64px" height="64px" viewBox="0 0 64 64" version="1.1" xmlns="http://www.w3.org/2000/svg" xmlns:xlink="http://www.w3.org/1999/xlink">
    <!-- Generator: Sketch 43.2 (39069) - http://www.bohemiancoding.com/sketch -->
    <title>icon-nav-tv-color</title>
    <desc>Created with Sketch.</desc>
    <defs></defs>
    <g id="menu" stroke="none" stroke-width="1" fill="none" fill-rule="evenodd">
        <g id="icon-nav-tv-color" fill-rule="nonzero" fill="#889DFF">
            <path d="M6,12.0045177 L6,40.9954823 C6,43.2082028 7.7910937,45 10,45 L54,45 C56.2097872,45 58,43.208702 58,40.9954823 L58,12.0045177 C58,9.79179719 56.2089063,8 54,8 L10,8 C7.7902128,8 6,9.79129798 6,12.0045177 Z M29,53.9081197 L29,51 L10,51 C4.4771525,51 0,46.521679 0,40.9954823 L0,12.0045177 C0,6.47917514 4.47491856,2 10,2 L54,2 C59.5228475,2 64,6.47832105 64,12.0045177 L64,40.9954823 C64,46.5208249 59.5250814,51 54,51 L35,51 L35,53.6118234 L46.852265,57.1236057 C48.4408537,57.5942986 49.3470873,59.2636763 48.8763943,60.852265 C48.4057014,62.4408537 46.7363237,63.3470873 45.147735,62.8763943 L32.5,59.1289173 L19.852265,62.8763943 C18.2636763,63.3470873 16.5942986,62.4408537 16.1236057,60.852265 C15.6529127,59.2636763 16.5591463,57.5942986 18.147735,57.1236057 L29,53.9081197 Z M13,16.0018785 L13,36.9981215 C13,37.5511898 13.4487644,38 14.00181,38 L49.99819,38 C50.5506979,38 51,37.5508003 51,36.9981215 L51,16.0018785 C51,15.4488102 50.5512356,15 49.99819,15 L14.00181,15 C13.4493021,15 13,15.4491997 13,16.0018785 Z M10,16.0018785 C10,13.791702 11.7930912,12 14.00181,12 L49.99819,12 C52.2083286,12 54,13.7921947 54,16.0018785 L54,36.9981215 C54,39.208298 52.2069088,41 49.99819,41 L14.00181,41 C11.7916714,41 10,39.2078053 10,36.9981215 L10,16.0018785 Z" id="Combined-Shape-Copy"></path>
        </g>
    </g>
</svg>