<?xml version="1.0" encoding="UTF-8" standalone="no"?>
<svg width="64px" height="64px" viewBox="0 0 64 64" version="1.1" xmlns="http://www.w3.org/2000/svg" xmlns:xlink="http://www.w3.org/1999/xlink">
    <!-- Generator: Sketch 39.1 (31720) - http://www.bohemiancoding.com/sketch -->
    <title>icon-card-light</title>
    <desc>Created with Sketch.</desc>
    <defs></defs>
    <g id="member" stroke="none" stroke-width="1" fill="none" fill-rule="evenodd">
        <g id="icon-card-light" fill="#A3A5A6">
            <path d="M62.2063694,7.56086624 C61.1656561,6.52015287 59.9150064,6 58.4540127,6 L5.31403822,6 C3.85263694,6 2.60198726,6.52015287 1.56086624,7.56086624 C0.520152866,8.60157962 0,9.8522293 0,11.3136306 L0,51.6992611 C0,53.1606624 0.520152866,54.4117197 1.56086624,55.4524331 C2.60198726,56.4931465 3.85263694,57.0132994 5.31403822,57.0132994 L58.4540127,57.0132994 C59.9150064,57.0132994 61.1656561,56.4931465 62.2063694,55.4524331 C63.2470828,54.4117197 63.7676433,53.1606624 63.7676433,51.6992611 L63.7676433,11.3136306 C63.7676433,9.8522293 63.2470828,8.60157962 62.2063694,7.56086624 L62.2063694,7.56086624 Z M59.5159236,51.6996688 C59.5159236,51.9878726 59.4107516,52.236535 59.2008153,52.4472866 C58.9904713,52.6572229 58.7414013,52.7619873 58.4540127,52.7619873 L5.31403822,52.7619873 C5.02624204,52.7619873 4.77717197,52.6568153 4.56682803,52.446879 C4.35648408,52.2357197 4.2513121,51.987465 4.2513121,51.6992611 L4.2513121,31.5066497 L59.5159236,31.5066497 L59.5159236,51.6996688 L59.5159236,51.6996688 Z M59.5159236,18.7527134 L4.2513121,18.7527134 L4.2513121,11.3132229 C4.2513121,11.0254268 4.35607643,10.7767643 4.56682803,10.5660127 C4.77717197,10.3560764 5.02624204,10.2509045 5.31403822,10.2509045 L58.4540127,10.2509045 C58.7414013,10.2509045 58.9904713,10.3556688 59.2008153,10.5660127 C59.4111592,10.7767643 59.5159236,11.0254268 59.5159236,11.3132229 L59.5159236,18.7527134 Z M8.64815287,44.1435924 L8.64815287,48.3949045 L17.1503694,48.3949045 L17.1503694,44.1435924 L8.64815287,44.1435924 Z M21.2850955,44.1435924 L21.2850955,48.3949045 L34.0386242,48.3949045 L34.0386242,44.1435924 L21.2850955,44.1435924 Z" id="Combined-Shape"></path>
        </g>
    </g>
</svg>