<?xml version="1.0" encoding="UTF-8"?>
<svg width="64px" height="64px" viewBox="0 0 64 64" version="1.1" xmlns="http://www.w3.org/2000/svg" xmlns:xlink="http://www.w3.org/1999/xlink">
    <!-- Generator: Sketch 48.2 (47327) - http://www.bohemiancoding.com/sketch -->
    <title>icon-twitter</title>
    <desc>Created with Sketch.</desc>
    <defs></defs>
    <g id="Page-1" stroke="none" stroke-width="1" fill="none" fill-rule="evenodd">
        <g id="icon-twitter">
            <rect id="Combined-Shape" fill="#1DA1F2" x="0" y="0" width="64" height="64" rx="3.79999995"></rect>
            <path d="M23.09504,52 C41.20832,52 51.11552,37.3791251 51.11552,24.6999682 C51.11552,24.2846875 51.11552,23.8712774 51.08672,23.4597379 C53.0140762,22.1014909 54.6778025,20.4197322 56,18.4932048 C54.2026478,19.2691471 52.2959922,19.7780098 50.34368,20.0028064 C52.3995085,18.8036965 53.9381571,16.9177045 54.67328,14.6958179 C52.7401424,15.8134381 50.6252405,16.6010811 48.41984,17.0247572 C45.3671989,13.8622527 40.5165812,13.0882186 36.5879346,15.1366888 C32.659288,17.1851589 30.629648,21.5466887 31.63712,25.7755827 C23.7188398,25.3888283 16.3413935,21.7449713 11.3408,15.7508554 C8.72695569,20.1349568 10.0620567,25.7435191 14.38976,28.5590861 C12.8225431,28.5138308 11.2894964,28.1019278 9.92,27.3581391 C9.92,27.3974224 9.92,27.4385763 9.92,27.4797303 C9.92128282,32.047057 13.2257629,35.980892 17.8208,36.8852777 C16.3709496,37.2705162 14.8497547,37.3268302 13.37408,37.0498935 C14.66422,40.9584388 18.3614232,43.6359913 22.57472,43.7130916 C19.0874913,46.3832943 14.7796343,47.8328406 10.34432,47.8284863 C9.56077485,47.8270208 8.77799181,47.7807991 8,47.6900594 C12.503621,50.5058808 17.7438337,51.9994705 23.09504,51.9925175" id="Shape" fill="#FFFFFF" fill-rule="nonzero"></path>
        </g>
    </g>
</svg>