<?xml version="1.0" encoding="UTF-8" standalone="no"?>
<svg width="64px" height="64px" viewBox="0 0 64 64" version="1.1" xmlns="http://www.w3.org/2000/svg" xmlns:xlink="http://www.w3.org/1999/xlink">
    <!-- Generator: Sketch 39.1 (31720) - http://www.bohemiancoding.com/sketch -->
    <title>icon-fontsetting-light</title>
    <desc>Created with Sketch.</desc>
    <defs></defs>
    <g id="header" stroke="none" stroke-width="1" fill="none" fill-rule="evenodd">
        <g id="icon-fontsetting-light" fill="#A3A5A6">
            <path d="M15.2743962,12 L0,51.9484209 L6.99377117,51.9484209 L10.6305322,41.9333406 L27.3596328,41.9333406 L30.9963938,51.9484209 L37.990165,51.9484209 L22.7157688,12 L15.2743962,12 L15.2743962,12 Z M12.5887881,36.5621244 L18.9111573,19.0497213 L19.1349579,19.0497213 L25.4013769,36.5621244 L12.5887881,36.5621244 L12.5887881,36.5621244 Z M51.8588132,22.4906568 C48.1661021,22.4906568 45.2566933,23.1061086 43.1305868,24.4489127 C40.6128292,25.9036171 39.0462245,28.2535242 38.4307726,31.4426839 L44.7531417,31.9462354 C45.0888427,30.4355808 45.9280953,29.3165774 47.158999,28.5892252 C48.2220522,27.9178232 49.6208065,27.6380723 51.4112119,27.6380723 C55.5515244,27.6380723 57.6216807,29.4844279 57.6216807,33.2890394 L57.6216807,34.4080428 L51.2993116,34.5758933 C47.0470987,34.6877937 43.7460387,35.5829964 41.3961316,37.2615015 C38.8224238,38.9959567 37.5915201,41.5137143 37.5915201,44.7588242 C37.5915201,47.1646815 38.4867228,49.1229374 40.2771282,50.6895421 C42.0115834,52.2001967 44.3614905,52.9834991 47.3827997,52.9834991 C49.9005573,52.9834991 52.0826139,52.5358977 53.9289695,51.6966452 C55.5515244,50.9133428 56.9502787,49.8502896 58.069282,48.3955852 L58.069282,52.2001967 L64,52.2001967 L64,33.7366408 C64,30.2117801 63.1047973,27.526172 61.3143919,25.6798164 C59.3001858,23.55371 56.1110261,22.4906568 51.8588132,22.4906568 L51.8588132,22.4906568 L51.8588132,22.4906568 Z M57.1950606,39.1008633 L57.1950606,40.5555677 C57.1950606,42.7935745 56.2998579,44.6399301 54.6213529,46.0946345 C52.9428478,47.4933887 50.8726915,48.2207409 48.4108841,48.2207409 C47.0121298,48.2207409 45.8931264,47.8290897 44.9979237,47.1576877 C44.102721,46.4862857 43.7110698,45.6470331 43.7110698,44.6399301 C43.7110698,41.1710196 46.2288275,39.3806141 51.3202929,39.2687138 L57.1950606,39.1008633 L57.1950606,39.1008633 Z" id="Aa"></path>
        </g>
    </g>
</svg>