<?xml version="1.0" encoding="utf-8"?>
<!-- Generator: Adobe Illustrator 22.0.1, SVG Export Plug-In . SVG Version: 6.00 Build 0)  -->
<svg version="1.1" id="圖層_1" xmlns="http://www.w3.org/2000/svg" xmlns:xlink="http://www.w3.org/1999/xlink" x="0px" y="0px"
	 viewBox="0 0 200 200" style="enable-background:new 0 0 200 200;" xml:space="preserve">
<style type="text/css">
	.st0{fill:#A0A2A3;}
</style>
<path class="st0" d="M191,116H176V101c0-5-4.1-9-9-9c-5,0-9,4.1-9,9V116H143c-5,0-9,4.1-9,9s4.1,9,9,9H158V149
	c0,2.4,0.9,4.7,2.6,6.4c1.7,1.7,4,2.6,6.4,2.6c2.4,0,4.7-0.9,6.4-2.6c1.7-1.7,2.6-4,2.6-6.4V134H191c5,0,9-4.1,9-9
	S195.9,116,191,116z"/>
<path class="st0" d="M142.6,159.4l-32.7-4.3c-2.3-0.5-3.8-2.5-3.8-5.1v-15c11.4-7.6,20.6-20.8,25.1-37c4.6,0,9.4-5.1,11.4-12.2
	c2.3-8.1,0.5-16.2-4.3-17.8c-0.5-0.3-1.3-0.3-1.8-0.3c-0.8,0-1.3,0-2,0.3c0-0.5,1.3-9.1,1.3-13.4C135.8,24.4,112.7,0,84.3,0
	S32.7,24.4,32.7,54.6c0,4.3,1.3,13.2,1.3,13.4c-0.8-0.3-1.3-0.3-2-0.3c-0.5,0-1.3,0-1.8,0.3c-4.8,1.5-6.9,9.6-4.3,17.8
	C28.2,92.9,33,98,37.3,98c4.8,16.2,13.7,29.4,25.1,37v15c0,2.5-1.5,4.6-3.8,5.1l-32.7,4.3c-15,3-25.9,17.3-25.9,33.5
	c0,0,0,3.8,0,7.1h168.5v-7.1C168.5,176.6,157.6,162.7,142.6,159.4z"/>
</svg>
