<?xml version="1.0" encoding="UTF-8"?>
<svg width="64px" height="64px" viewBox="0 0 64 64" version="1.1" xmlns="http://www.w3.org/2000/svg" xmlns:xlink="http://www.w3.org/1999/xlink">
    <!-- Generator: Sketch 41.2 (35397) - http://www.bohemiancoding.com/sketch -->
    <title>icon-purview-question-white</title>
    <desc>Created with Sketch.</desc>
    <defs></defs>
    <g id="member" stroke="none" stroke-width="1" fill="none" fill-rule="evenodd">
        <g id="icon-purview-question-white" fill="#FFFFFF">
            <path d="M31.5420827,51.4008559 C29.7161198,51.4008559 28.2553495,52.0399429 26.9771755,53.2268188 C25.6990014,54.4136947 25.1512126,55.9657632 25.1512126,57.700428 C25.1512126,59.7089872 25.7902996,61.2610556 27.0684736,62.3566334 C28.3466476,63.4522111 29.8987161,64 31.5420827,64 C33.1854494,64 34.6462197,63.4522111 35.9243937,62.2653352 C37.2025678,61.1697575 37.8416548,59.617689 37.8416548,57.6091298 C37.8416548,55.874465 37.2025678,54.3223966 36.0156919,53.1355207 C34.828816,52.0399429 33.2767475,51.4008559 31.5420827,51.4008559 Z M43.3195435,2.28245364 C40.2154066,0.82168331 36.5634807,0 32.5463623,0 C28.1640514,0 24.3295292,0.912981455 21.042796,2.73894437 C17.7560628,4.56490728 15.1997147,6.84736091 13.5563481,9.58630528 C11.8216833,12.3252496 11,15.064194 11,17.7118402 C11,18.9900143 11.5477889,20.1768902 12.6433666,21.2724679 C13.7389444,22.3680456 15.0171184,22.9158345 16.660485,22.9158345 C19.3081312,22.9158345 21.1340942,21.363766 22.1383738,18.168331 C23.1426534,15.1554922 24.4208274,12.7817404 25.8815977,11.2296719 C27.342368,9.67760342 29.6248217,8.85592011 32.7289586,8.85592011 C35.3766049,8.85592011 37.5677603,9.67760342 39.211127,11.1383738 C40.8544936,12.6904422 41.767475,14.6077033 41.767475,16.8901569 C41.767475,18.0770328 41.4935806,19.0813124 40.9457917,20.085592 C40.3980029,21.0898716 39.7589158,22.0028531 38.9372325,22.7332382 C38.1155492,23.5549215 36.8373752,24.7417974 35.0114123,26.2938659 C33.0028531,28.1198288 31.3594864,29.6718973 30.0813124,30.9500713 C28.8944365,32.2282454 27.8901569,33.7803138 27.1597718,35.5149786 C26.4293866,37.2496434 26.064194,39.2582026 26.064194,41.6319544 C26.064194,43.5492154 26.5206847,44.9186876 27.5249643,45.9229672 C28.5292439,46.9272468 29.7161198,47.3837375 31.1768902,47.3837375 C34.0071327,47.3837375 35.6504993,45.9229672 36.1982882,43.0014265 C36.4721826,41.6319544 36.746077,40.6276748 36.9286733,40.0798859 C37.1112696,39.532097 37.2938659,38.9843081 37.5677603,38.4365193 C37.8416548,37.8887304 38.2981455,37.2496434 38.8459344,36.6105563 C39.3937233,35.9714693 40.2154066,35.149786 41.128388,34.3281027 C44.5977175,31.2239658 46.9714693,29.0328103 48.3409415,27.7546362 C49.7104137,26.4764622 50.8059914,24.9243937 51.810271,23.0984308 C52.8145506,21.2724679 53.2710414,19.1726106 53.2710414,16.7988588 C53.2710414,13.78602 52.4493581,10.9557775 50.7146933,8.30813124 C48.8887304,5.84308131 46.4236805,3.83452211 43.3195435,2.28245364 Z" id="Combined-Shape"></path>
        </g>
    </g>
</svg>