<?xml version="1.0" encoding="UTF-8"?>
<svg width="64px" height="64px" viewBox="0 0 64 64" version="1.1" xmlns="http://www.w3.org/2000/svg" xmlns:xlink="http://www.w3.org/1999/xlink">
    <!-- Generator: Sketch 43.2 (39069) - http://www.bohemiancoding.com/sketch -->
    <title>icon-nav-car-color</title>
    <desc>Created with Sketch.</desc>
    <defs></defs>
    <g id="menu" stroke="none" stroke-width="1" fill="none" fill-rule="evenodd">
        <g id="icon-nav-car-color" fill="#BA4AE7">
            <path d="M61.119,21.7770034 L61.119,21.7780034 C62.735,21.7780034 64.045,23.0880034 64.045,24.7050034 C64.045,26.3210034 62.735,27.6320034 61.119,27.6320034 L59.419,27.6320034 L59.583,28.1070034 C59.72,28.4420034 59.791,28.8000034 59.795,29.1620034 L59.795,51.3870034 C59.78,53.0030034 58.473,54.3080034 56.858,54.3220034 L56.135,54.3220034 L56.135,58.1700034 C56.117,59.1270034 55.333,59.8910034 54.377,59.8860034 L45.899,59.8860034 C44.944,59.8780034 44.163,59.1240034 44.122,58.1700034 L44.122,54.3220034 L19.901,54.3220034 L19.901,58.1700034 C19.888,59.1130034 19.126,59.8750034 18.183,59.8860034 L9.668,59.8860034 C8.721,59.8750034 7.953,59.1160034 7.931,58.1700034 L7.931,54.3220034 L7.231,54.3220034 C5.612,54.3160034 4.301,53.0060034 4.294,51.3870034 L4.294,29.1620034 C4.294,28.8460034 4.342,28.5320034 4.439,28.2310034 L4.666,27.6310034 L2.927,27.6310034 C1.31,27.6310034 3.55271368e-15,26.3210034 3.55271368e-15,24.7040034 C3.55271368e-15,23.0880034 1.31,21.7770034 2.927,21.7770034 L6.548,21.7770034 L10.021,7.17200336 C10.364,5.88900336 11.527,4.99800336 12.855,5.00000336 L51.212,5.00000336 L51.212,5.04200336 C52.47,5.04000336 53.591,5.83600336 54.004,7.02500336 L57.519,21.7770034 L61.119,21.7770034 Z M10.126,48.4720034 L53.964,48.4720034 L53.964,30.9200034 L10.126,30.9200034 L10.126,48.4720034 Z M14.943,10.8300034 L49.126,10.8300034 L53.218,27.4440034 L10.829,27.4440034 L14.943,10.8300034 Z M44.5936,43.1450034 L44.5586,43.1450034 C42.3666,43.1270034 40.6046,41.3360034 40.6226,39.1450034 C40.6226,36.9360034 42.4136,35.1450034 44.6226,35.1450034 C46.8316,35.1450034 48.6226,36.9360034 48.6226,39.1450034 L48.6226,39.1740034 C48.6066,41.3830034 46.8026,43.1610034 44.5936,43.1450034 Z M20.4456,43.1180034 L20.4236,43.1180034 C18.2146,43.1060034 16.4336,41.3050034 16.4456,39.0960034 C16.4576,36.8870034 18.2586,35.1060034 20.4676,35.1180034 C22.6766,35.1300034 24.4576,36.9310034 24.4456,39.1400034 L24.4456,39.2140034 C24.4186,41.3970034 22.6276,43.1450034 20.4456,43.1180034 Z" id="Combined-Shape"></path>
        </g>
    </g>
</svg>