<?xml version="1.0" encoding="UTF-8"?>
<svg width="64px" height="64px" viewBox="0 0 64 64" version="1.1" xmlns="http://www.w3.org/2000/svg" xmlns:xlink="http://www.w3.org/1999/xlink">
    <!-- Generator: Sketch 43.2 (39069) - http://www.bohemiancoding.com/sketch -->
    <title>icon-repair-blue</title>
    <desc>Created with Sketch.</desc>
    <defs></defs>
    <g id="repair" stroke="none" stroke-width="1" fill="none" fill-rule="evenodd">
        <g id="icon-repair-blue" fill-rule="nonzero" fill="#0090D4">
            <path d="M31.2683415,5.58717612 C36.5129475,0.342916163 44.2397859,-1.33331666 51.1342749,1.08555107 C52.7223307,1.64270581 53.1835302,3.6671616 51.9934915,4.85712169 L44.0633591,12.7867308 C43.8863194,12.9637587 43.8860256,13.2526059 44.0608131,13.4273818 L49.9253655,19.2915473 C50.1023674,19.4685373 50.3868201,19.4682286 50.566059,19.2890015 L58.7834705,11.0721321 C59.9321219,9.92355668 61.8788171,10.3066032 62.5066153,11.8047262 C65.4883851,18.9201652 63.9452113,27.1969271 58.4123651,32.7294086 C53.2952864,37.8461495 45.8295182,39.5516878 39.1043322,37.4177495 L18.1199964,60.7262784 C14.2052207,65.0097766 7.3262121,65.1151194 3.10334479,60.8925306 C-1.11455791,56.6749062 -1.01164746,49.7891049 3.28226964,45.8653865 L26.5796756,24.8938861 C24.4456198,18.1691552 26.1512757,10.7039043 31.2683415,5.58717612 Z M34.4997728,8.81839427 C30.3077294,13.010161 29.1252785,19.2778616 31.3646476,24.6874827 C31.7347916,25.5816352 31.5014505,26.6119753 30.7821766,27.25944 L6.35248174,49.2501006 C4.00554272,51.3947465 3.94756224,55.274256 6.33477617,57.6613126 C8.72641705,60.0527956 12.5989355,59.9934932 14.7350528,57.6562755 L36.7386263,33.2155244 C37.3861353,32.4962956 38.4165472,32.2629702 39.3107601,32.6330929 C44.7207456,34.8723354 50.98888,33.6899674 55.1809338,29.4981902 C58.5112087,26.1681351 59.9414382,21.5284997 59.2672515,17.0508195 L53.7974903,22.5202197 C51.8351494,24.482431 48.6571782,24.4858799 46.6939342,22.5227654 L40.8293818,16.6586 C38.8684509,14.6977985 38.8716876,11.5156233 40.8319276,9.55551267 L45.7829294,4.60483776 C41.6663706,4.31850362 37.5358409,5.78252666 34.4997728,8.81839427 Z M10.1285219,55.5938292 C9.11895991,55.5938292 8.30054825,54.7754714 8.30054825,53.7659761 C8.30054825,52.7564809 9.11895991,51.938123 10.1285219,51.938123 C11.1380838,51.938123 11.9564955,52.7564809 11.9564955,53.7659761 C11.9564955,54.7754714 11.1380838,55.5938292 10.1285219,55.5938292 Z M14.2969051,51.5365987 C13.7615041,52.0719645 12.8934474,52.0719645 12.3580463,51.5365987 C11.8226452,51.0012332 11.8226452,50.1332337 12.3580463,49.5978679 L19.3487012,42.6076742 C19.8841023,42.0723086 20.752159,42.0723086 21.2875601,42.6076742 C21.8229611,43.14304 21.8229611,44.0110394 21.2875601,44.5464052 L14.2969051,51.5365987 Z" id="Combined-Shape"></path>
        </g>
    </g>
</svg>