<?xml version="1.0" encoding="UTF-8" standalone="no"?>
<svg width="64px" height="64px" viewBox="0 0 64 64" version="1.1" xmlns="http://www.w3.org/2000/svg" xmlns:xlink="http://www.w3.org/1999/xlink">
    <!-- Generator: Sketch 39.1 (31720) - http://www.bohemiancoding.com/sketch -->
    <title>icon-download-blue</title>
    <desc>Created with Sketch.</desc>
    <defs></defs>
    <g id="member" stroke="none" stroke-width="1" fill="none" fill-rule="evenodd">
        <g id="icon-download-blue" fill="#0090D4">
            <path d="M61.2154702,35.1825992 C59.3596625,32.8603848 56.9879435,31.3552004 54.0986767,30.6662277 C55.0102154,29.2886914 55.4651665,27.7552771 55.4651665,26.0663939 C55.4651665,23.710631 54.6317714,21.6997635 52.9653903,20.0329732 C51.2990091,18.3665921 49.2881417,17.533197 46.9323787,17.533197 C44.8212747,17.533197 42.9769226,18.2221697 41.3993224,19.6001151 C40.0888832,16.3999105 37.9937352,13.8334463 35.1163332,11.9003132 C32.2389312,9.96677108 29.0665473,9 25.5995909,9 C20.8888832,9 16.86633,10.6671994 13.5331586,14.0003708 C10.1995781,17.333133 8.53319696,21.3556862 8.53319696,26.066803 C8.53319696,26.3556479 8.55569903,26.8335102 8.59988493,27.4999808 C5.9777792,28.7220482 3.88917727,30.5553538 2.33326088,32.9994886 C0.777753628,35.4444416 0,38.1103241 0,41 C0,45.110925 1.46140766,48.6273861 4.38340472,51.5493831 C7.30540178,54.4721984 10.8222719,55.933197 14.933197,55.933197 L51.2004091,55.933197 C54.7332353,55.933197 57.7497411,54.6824906 60.2499265,52.1831234 C62.7497027,49.6833472 64,46.6668414 64,43.133197 C63.9995909,40.1555584 63.071687,37.5056319 61.2154702,35.1825992 L61.2154702,35.1825992 Z M42.3333632,36.4660359 L30.6331011,48.1667072 C30.4334463,48.366362 30.1777408,48.4665985 29.8663939,48.4665985 C29.5554561,48.4665985 29.2997507,48.366362 29.0996868,48.1667072 L17.3666944,36.4333056 C17.1666304,36.2332417 17.066803,35.9779454 17.066803,35.6665985 C17.066803,35.3777536 17.1719491,35.127776 17.3830595,34.9166656 C17.594579,34.7055552 17.8441475,34.6 18.1329924,34.6 L25.5995909,34.6 L25.5995909,22.8670076 C25.5995909,22.5781628 25.7051461,22.3281851 25.9162565,22.1166656 C26.1273669,21.9059643 26.3773445,21.8004091 26.6661893,21.8004091 L33.0665985,21.8004091 C33.3558525,21.8004091 33.6050118,21.9055552 33.8169405,22.1166656 C34.0276418,22.3281851 34.133197,22.5781628 34.133197,22.8670076 L34.133197,34.6 L41.5997954,34.6 C41.9107332,34.6 42.1664387,34.7002365 42.3660935,34.8998913 C42.5661574,35.0995461 42.6655757,35.3552516 42.6655757,35.6665985 C42.6655757,35.9341686 42.5551109,36.2001023 42.3333632,36.4660359 L42.3333632,36.4660359 Z" id="Shape"></path>
        </g>
    </g>
</svg>