<?xml version="1.0" encoding="UTF-8"?>
<svg width="32px" height="32px" viewBox="0 0 32 32" version="1.1" xmlns="http://www.w3.org/2000/svg" xmlns:xlink="http://www.w3.org/1999/xlink">
    <!-- Generator: Sketch 52.5 (67469) - http://www.bohemiancoding.com/sketch -->
    <title>icon-scare-y_</title>
    <desc>Created with Sketch.</desc>
    <g id="icon-scare-y_" stroke="none" stroke-width="1" fill="none" fill-rule="evenodd" stroke-linecap="round" stroke-linejoin="round">
        <g id="Page-1" transform="translate(4.000000, 4.000000)" stroke="#F3A500" stroke-width="2">
            <path d="M0,18.9980273 C0,21.7605405 2.23630996,24 5.00197269,24 L18.9980273,24 C21.7605405,24 24,21.76369 24,18.9980273 L24,5.00197269 C24,2.23945945 21.76369,0 18.9980273,0 L5.00197269,0 C2.23945945,0 0,2.23630996 0,5.00197269 L0,18.9980273 Z" id="Fill-1"></path>
            <g id="Group-38" transform="translate(4.500000, 5.500000)">
                <path d="M7.61999989,12.9833075 C3.73857675,11.9348388 0.625257872,8.84115776 0.390470814,4.99280686 C0.123281018,0.590996893 5.5818145,-1.11076043 7.61999989,3.35156796" id="Stroke-5"></path>
                <path d="M7.61999989,12.9833075 C11.5014027,11.9348388 14.6147053,8.84115776 14.8494911,4.99280686 C15.1172107,0.590996893 9.65923697,-1.11076043 7.61999989,3.35156796" id="Stroke-7"></path>
            </g>
        </g>
    </g>
</svg>