<?xml version="1.0" encoding="UTF-8"?>
<svg width="64px" height="64px" viewBox="0 0 64 64" version="1.1" xmlns="http://www.w3.org/2000/svg" xmlns:xlink="http://www.w3.org/1999/xlink">
    <!-- Generator: Sketch 43.2 (39069) - http://www.bohemiancoding.com/sketch -->
    <title>icon-nav-appliances-color</title>
    <desc>Created with Sketch.</desc>
    <defs></defs>
    <g id="menu" stroke="none" stroke-width="1" fill="none" fill-rule="evenodd">
        <g id="icon-nav-appliances-color" fill="#FF8B9B">
            <path d="M52.6,18.4834037 L52.6,12.1 C52.6,8.793 49.44,6 45.7,6 L18,6 C14.14,6 11,8.736 11,12.1 L11,18.209118 L52.6,18.4834037 Z M52.6,23.4836279 L11,23.2093422 L11,52 C11,55.364 14.095,58.1 17.9,58.1 L45.7,58.1 C49.504,58.1 52.6,55.364 52.6,52 L52.6,23.4836279 Z M45.7,64.1 L17.9,64.1 C10.787,64.1 5,58.672 5,52 L5,12.1 C5,5.428 10.832,0 18,0 L45.7,0 C52.813,0 58.6,5.428 58.6,12.1 L58.6,52 C58.6,58.672 52.813,64.1 45.7,64.1 Z M43.0999,30.1001 C45.8999,32.9001 47.4999,36.8001 47.5999,40.8001 C47.5999,44.8001 45.9999,48.7001 43.0999,51.5001 L42.9999,51.6001 C37.0999,57.5001 27.3999,57.4001 21.4999,51.5001 C15.5999,45.6001 15.6999,35.9001 21.5999,30.0001 C27.4999,24.1001 37.1999,24.1001 43.0999,30.1001 Z M41.9999,44.7001 C42.4999,43.5001 42.7999,42.2001 42.6999,40.9001 C42.6999,39.5001 42.4999,38.2001 41.9999,37.0001 C41.8999,37.1001 41.7999,37.2001 41.6999,37.4001 C40.4999,39.5001 40.4999,42.1001 41.6999,44.2001 C41.7999,44.4001 41.8999,44.5001 41.9999,44.7001 Z M39.2999,45.7001 C37.4999,42.7001 37.4999,39.0001 39.4999,36.0001 C39.8999,35.4001 40.2999,34.8001 40.6999,34.3001 C40.4999,34.0001 40.1999,33.8001 39.9999,33.5001 L39.8999,33.5001 C35.7999,29.5001 29.2999,29.5001 25.1999,33.5001 C23.2999,35.5001 22.1999,38.1001 22.1999,40.9001 C22.1999,43.6001 23.2999,46.2001 25.1999,48.2001 C27.0999,50.2001 29.6999,51.3001 32.4999,51.3001 C35.1999,51.3001 37.7999,50.2001 39.7999,48.3001 L39.7999,48.2001 C39.9999,48.0001 40.2999,47.7001 40.4999,47.4001 C39.9999,46.9001 39.5999,46.3001 39.2999,45.7001 Z M37.8999,9.7001 C39.5569,9.7001 40.8999,11.0431 40.8999,12.7001 C40.8999,14.3571 39.5569,15.7001 37.8999,15.7001 C36.2429,15.7001 34.8999,14.3571 34.8999,12.7001 C34.8999,11.0431 36.2429,9.7001 37.8999,9.7001 Z M46.7999,9.7001 C48.4569,9.7001 49.7999,11.0431 49.7999,12.7001 C49.7999,14.3571 48.4569,15.7001 46.7999,15.7001 C45.1429,15.7001 43.7999,14.3571 43.7999,12.7001 C43.7999,11.0431 45.1429,9.7001 46.7999,9.7001 Z M28.6997,15.2002 L16.1997,15.2002 C14.8187,15.2002 13.6997,14.0812 13.6997,12.7002 C13.6997,11.3192 14.8187,10.2002 16.1997,10.2002 L28.6997,10.2002 C30.0807,10.2002 31.1997,11.3192 31.1997,12.7002 C31.1997,14.0812 30.0807,15.2002 28.6997,15.2002 Z" id="Combined-Shape"></path>
        </g>
    </g>
</svg>