<?xml version="1.0" encoding="UTF-8"?>
<svg width="88px" height="44px" viewBox="0 0 88 44" version="1.1" xmlns="http://www.w3.org/2000/svg" xmlns:xlink="http://www.w3.org/1999/xlink">
    <!-- Generator: Sketch 41.2 (35397) - http://www.bohemiancoding.com/sketch -->
    <title>icon-card-wafer-gray</title>
    <desc>Created with Sketch.</desc>
    <defs></defs>
    <g id="Page-1" stroke="none" stroke-width="1" fill="none" fill-rule="evenodd">
        <g id="Desktop-HD" transform="translate(-1188.000000, -183.000000)" fill="#E8E8E8">
            <g id="0_Default" transform="translate(976.000000, 163.000000)">
                <g id="logo" transform="translate(212.000000, 20.000000)">
                    <path d="M38,9.00021236 C38,6.79095608 39.7942683,5 42.0071897,5 L83.9928103,5 C86.2059201,5 88,6.79203193 88,9.00021236 L88,34.9997876 C88,37.2090439 86.2057317,39 83.9928103,39 L42.0071897,39 C39.7940799,39 38,37.2079681 38,34.9997876 L38,9.00021236 Z M72.8888889,27.6666667 L72.8888889,16.3333333 L88,16.3333333 L88,15.3888889 L72.8888889,15.3888889 L72.8888889,5 L71.9444444,5 L71.9444444,39 L72.8888889,39 L72.8888889,28.6111111 L88,28.6111111 L88,27.6666667 L72.8888889,27.6666667 Z M53.1111111,27.6666667 L53.1111111,16.3333333 L38,16.3333333 L38,15.3888889 L53.1111111,15.3888889 L53.1111111,5 L54.0555556,5 L54.0555556,39 L53.1111111,39 L53.1111111,28.6111111 L38,28.6111111 L38,27.6666667 L53.1111111,27.6666667 Z" id="Combined-Shape"></path>
                </g>
            </g>
        </g>
    </g>
</svg>