<?xml version="1.0" encoding="UTF-8"?>
<svg width="64px" height="64px" viewBox="0 0 64 64" version="1.1" xmlns="http://www.w3.org/2000/svg" xmlns:xlink="http://www.w3.org/1999/xlink">
    <!-- Generator: Sketch 42 (36781) - http://www.bohemiancoding.com/sketch -->
    <title>icon-ticket-pink</title>
    <desc>Created with Sketch.</desc>
    <defs></defs>
    <g id="member" stroke="none" stroke-width="1" fill="none" fill-rule="evenodd">
        <g id="icon-ticket-pink" fill="#E64894">
            <path d="M63.05375,22.4592 C64.40575,24.0812 64.29775,26.4312 62.80175,27.9262 L27.68275,63.0322 C26.91575,63.6702 25.97575,63.9892 25.03675,63.9892 C24.09675,63.9892 23.15675,63.6702 22.38975,63.0322 L22.21575,62.8722 L17.03475,57.6922 C16.32375,56.9822 15.89975,55.9442 15.89975,54.9182 C15.89975,53.4862 16.51675,52.5682 17.03475,52.0502 L17.13875,51.9472 C18.43975,50.5922 18.41275,48.3322 17.03475,46.9542 L16.94075,46.8602 C16.29575,46.2142 15.35975,45.8292 14.43875,45.8292 C13.58975,45.8292 12.63275,46.2602 11.93775,46.9542 C11.22675,47.6652 10.19075,48.0902 9.16475,48.0902 C8.04675,48.0902 6.99575,47.6532 6.20275,46.8602 L0.95775,41.5052 C-0.31925,39.9722 -0.31925,37.7452 0.95775,36.2122 L1.11675,36.0382 L35.96775,1.1862 C37.54875,-0.3958 40.02875,-0.3958 41.60875,1.1862 L46.78975,6.3672 C48.36975,7.9492 48.36975,10.4262 46.79075,12.0082 C46.08475,12.7132 45.70175,13.6432 45.71175,14.6272 C45.72175,15.5662 46.09075,16.4332 46.75375,17.0692 C47.47375,17.7342 48.44675,18.1362 49.38475,18.1362 C50.37975,18.1362 51.32575,17.7602 51.98075,17.1052 C52.74175,16.3432 53.74375,15.9222 54.80075,15.9222 C55.85775,15.9222 56.86075,16.3432 57.62275,17.1062 L63.05375,22.4592 Z M25.03575,58.3672 L58.33475,25.0682 L54.74875,21.5452 C53.23375,22.6812 51.33475,23.3162 49.38475,23.3162 C47.15875,23.3162 44.90475,22.4142 43.20075,20.8402 C41.48875,19.1942 40.55475,17.0192 40.53175,14.6782 C40.51175,12.6912 41.14675,10.8002 42.33875,9.2432 L38.78875,5.6922 L5.61475,38.8662 L9.17875,42.4972 C10.71875,41.3112 12.58175,40.6482 14.43875,40.6482 C16.73675,40.6482 18.98375,41.5772 20.60375,43.1972 L20.69775,43.2912 C23.81575,46.4082 24.08975,51.3832 21.48475,54.8152 L25.03575,58.3672 Z M35.68755,16.0825 L47.97755,28.4615 C48.93655,29.4205 48.97355,31.0345 48.06155,32.1335 L47.97355,32.2285 L32.19055,48.0115 C31.69255,48.5095 31.02155,48.7605 30.33655,48.7605 C29.69655,48.7605 29.04455,48.5405 28.51355,48.0985 L28.41655,48.0075 L16.12955,35.6335 C15.61455,35.1775 15.31455,34.5515 15.28455,33.8615 C15.25055,33.1165 15.54655,32.3745 16.09555,31.8255 L31.87755,16.0445 C32.42555,15.4945 33.17055,15.1955 33.91255,15.2335 C34.60355,15.2645 35.23255,15.5655 35.68755,16.0825 Z M30.30555,45.9005 L45.86355,30.3435 L33.76355,18.1555 L18.20455,33.7125 L30.30555,45.9005 Z" id="Combined-Shape"></path>
        </g>
    </g>
</svg>