<?xml version="1.0" encoding="UTF-8" standalone="no"?>
<svg width="64px" height="64px" viewBox="0 0 64 64" version="1.1" xmlns="http://www.w3.org/2000/svg" xmlns:xlink="http://www.w3.org/1999/xlink">
    <!-- Generator: Sketch 39.1 (31720) - http://www.bohemiancoding.com/sketch -->
    <title>icon-gift</title>
    <desc>Created with Sketch.</desc>
    <defs></defs>
    <g id="cart/order/product" stroke="none" stroke-width="1" fill="none" fill-rule="evenodd">
        <g id="icon-gift" fill="#6F7274">
            <path d="M59.5,18.8316 L45.788,18.8316 C46.52,18.2596 47.24,17.6366 47.931,16.9296 C51.1,13.6866 52.921,9.7386 52.802,6.3696 C52.734,4.4186 52.017,2.7816 50.729,1.6366 C47.146,-1.5484 40.544,0.0406 35.369,5.3336 C33.986,6.7496 32.876,8.3126 32.06,9.9046 C31.237,8.3196 30.122,6.7576 28.73,5.3336 C23.559,0.0406 16.955,-1.5504 13.371,1.6366 C12.083,2.7816 11.366,4.4186 11.298,6.3696 C11.179,9.7386 13,13.6866 16.17,16.9296 C16.86,17.6366 17.581,18.2596 18.312,18.8316 L4.5,18.8316 C3.1,18.8316 2,19.9316 2,21.2316 L2,32.2316 C2,33.6316 3.1,34.7316 4.5,34.7316 L4.8,34.7316 L4.8,61.4316 C4.8,62.7316 5.9,63.8316 7.2,63.8316 L56.8,63.8316 C58.1,63.8316 59.2,62.7316 59.3,61.4316 L59.3,34.7316 L59.6,34.7316 C61,34.7316 62.1,33.6316 62.1,32.3316 L62.1,21.3316 C62,19.9316 60.9,18.8316 59.5,18.8316 L59.5,18.8316 Z M6.9,29.9316 L6.9,23.7316 L57,23.7316 L57.1,29.9316 L6.9,29.9316 Z M39.7,59.0316 L54.3,59.0316 L54.3,34.7316 L39.7,34.7316 L39.7,59.0316 Z M27.2,59.0316 L36.8,59.0316 L36.8,34.7316 L27.2,34.7316 L27.2,59.0316 Z M9.6,59.0316 L24.3,59.0316 L24.3,34.7316 L9.6,34.7316 L9.6,59.0316 Z M15.295,6.5096 C15.324,5.6666 15.572,5.0326 16.029,4.6266 C16.486,4.2196 17.167,4.0136 17.994,4.0136 C20.102,4.0136 23.157,5.3536 25.87,8.1296 C28.23,10.5446 29.662,13.4316 29.607,15.6626 C29.585,16.5316 29.332,17.2006 28.856,17.6496 C27.218,19.0736 22.795,17.9846 19.03,14.1336 C16.683,11.7316 15.217,8.7386 15.295,6.5096 L15.295,6.5096 Z M38.231,8.1296 C42.007,4.2656 46.448,3.1826 48.071,4.6256 C48.529,5.0326 48.776,5.6666 48.805,6.5096 C48.883,8.7386 47.417,11.7316 45.07,14.1336 C41.317,17.9746 36.906,19.0686 35.258,17.6626 C34.793,17.1976 34.551,16.5086 34.537,15.6136 C34.502,13.3646 35.917,10.4966 38.231,8.1296 L38.231,8.1296 Z" id="Page-1"></path>
        </g>
    </g>
</svg>