<?xml version="1.0" encoding="UTF-8"?>
<svg width="22px" height="27px" viewBox="0 0 22 27" version="1.1" xmlns="http://www.w3.org/2000/svg" xmlns:xlink="http://www.w3.org/1999/xlink">
    <!-- Generator: Sketch 45.2 (43514) - http://www.bohemiancoding.com/sketch -->
    <title>Group 6 Copy</title>
    <desc>Created with Sketch.</desc>
    <defs></defs>
    <g id="電子票券" stroke="none" stroke-width="1" fill="none" fill-rule="evenodd">
        <g id="Group-6-Copy" transform="translate(1.000000, 1.000000)">
            <path d="M-2.61259584,8.25392259 L-2.61259584,3.52648787 L-2.61259584,3.52648787 C-2.61259584,3.21398107 -2.35925902,2.96064425 -2.04675222,2.96064425 L-2.04675222,2.96064425 L21.1867989,2.96064425 L21.1867989,2.96064425 C21.4993057,2.96064425 21.7526425,3.21398107 21.7526425,3.52648787 L21.7526425,8.13396389 C19.9887162,8.72017025 18.7103482,10.4511018 18.7103482,12.4952038 C18.7103482,14.5393059 19.9887162,16.2702374 21.7526425,16.8564438 L21.7526425,21.4639198 L21.7526425,21.4639198 C21.7526425,21.7764266 21.4993057,22.0297634 21.1867989,22.0297634 L-2.04675222,22.0297634 L-2.04675222,22.0297634 C-2.35925902,22.0297634 -2.61259584,21.7764266 -2.61259584,21.4639198 L-2.61259584,16.7364851 C-1.01549704,16.0577482 0.1110579,14.4145279 0.1110579,12.4952038 C0.1110579,10.5758798 -1.01549704,8.9326595 -2.61259584,8.25392259 Z" id="Combined-Shape-Copy-8" stroke="#DCDDDE" stroke-width="1.85185185" stroke-linecap="round" stroke-linejoin="round" transform="translate(9.570023, 12.495204) rotate(-270.000000) translate(-9.570023, -12.495204) "></path>
            <g id="index-掃描條碼3-copy-7" transform="translate(3.347620, 6.013722)">
                <path d="M4.02010929,0 L0.771536126,0 C0.345160899,0 0.0203035823,0.380246914 0.0406071645,0.802743484 L0.0406071645,4.11934156 C0.0406071645,4.56296296 0.365464481,4.92208505 0.771536126,4.92208505 L4.02010929,4.92208505 C4.44648452,4.92208505 4.77134183,4.54183813 4.75103825,4.11934156 L4.75103825,0.823868313 C4.75103825,0.380246914 4.42618094,0.0211248285 4.02010929,0 Z" id="Shape" stroke="#DCDDDE" stroke-width="0.929600235" stroke-linecap="round" stroke-linejoin="round"></path>
                <path d="M0.0406071645,6.33744856 L2.15217972,6.33744856" id="Shape" stroke="#DCDDDE" stroke-width="0.929600235" stroke-linecap="round" stroke-linejoin="round"></path>
                <path d="M3.59373406,6.33744856 L5.96925319,6.33744856" id="Shape" stroke="#DCDDDE" stroke-width="0.929600235" stroke-linecap="round" stroke-linejoin="round"></path>
                <path d="M11.4512204,0 L8.20264724,0 C7.77627201,0 7.45141469,0.380246914 7.47171828,0.802743484 L7.47171828,4.11934156 C7.47171828,4.56296296 7.79657559,4.92208505 8.20264724,4.92208505 L11.4512204,4.92208505 C11.8775956,4.92208505 12.2024529,4.54183813 12.1821494,4.11934156 L12.1821494,0.823868313 C12.2024529,0.380246914 11.8775956,0.0211248285 11.4512204,0 Z" id="Shape" stroke="#DCDDDE" stroke-width="0.929600235" stroke-linecap="round" stroke-linejoin="round"></path>
                <path d="M4.02010929,7.73168724 L0.771536126,7.73168724 C0.345160899,7.73168724 0.0203035823,8.11193416 0.0406071645,8.53443073 L0.0406071645,11.8510288 C0.0406071645,12.2946502 0.365464481,12.6537723 0.771536126,12.6537723 L4.02010929,12.6537723 C4.44648452,12.6537723 4.77134183,12.2735254 4.75103825,11.8510288 L4.75103825,8.55555556 C4.75103825,8.11193416 4.42618094,7.75281207 4.02010929,7.73168724 Z" id="Shape" stroke="#DCDDDE" stroke-width="0.929600235" stroke-linecap="round" stroke-linejoin="round"></path>
                <path d="M5.97142857,8.97805213 L5.97142857,3.80246914" id="Shape" stroke="#DCDDDE" stroke-width="0.929600235" stroke-linecap="round" stroke-linejoin="round"></path>
                <path d="M5.97142857,0.0422496571 L5.97142857,2.218107" id="Shape" stroke="#DCDDDE" stroke-width="0.929600235" stroke-linecap="round" stroke-linejoin="round"></path>
                <path d="M5.97142857,10.4567901 L5.97142857,12.6537723" id="Shape" stroke="#DCDDDE" stroke-width="0.929600235" stroke-linecap="round" stroke-linejoin="round"></path>
                <path d="M12.1821494,8.15418381 L12.1821494,10.3300412 C12.2024529,11.5975309 11.2481846,12.6326475 10.0299696,12.6748971 L7.51232544,12.6748971" id="Shape" stroke="#DCDDDE" stroke-width="0.929600235" stroke-linecap="round" stroke-linejoin="round"></path>
                <path d="M10.0502732,6.33744856 L12.1618458,6.33744856" id="Shape" stroke="#DCDDDE" stroke-width="0.929600235" stroke-linecap="round" stroke-linejoin="round"></path>
                <path d="M7.47171828,10.963786 L7.47171828,9.37942387 C7.45141469,8.57668038 8.06052216,7.9218107 8.81175471,7.90068587 L10.4766485,7.90068587" id="Shape" stroke="#DCDDDE" stroke-width="0.929600235" stroke-linecap="round" stroke-linejoin="round"></path>
                <path d="M8.9775957,9.72701839 L10.3347386,11.1159073" id="Path-2" stroke="#DCDDDE" stroke-width="0.925925926" stroke-linecap="round" stroke-linejoin="round"></path>
                <rect id="Rectangle" fill="#DCDDDE" x="1.4910608" y="1.5351166" width="1.80952381" height="1.85185185"></rect>
                <rect id="Rectangle-Copy" fill="#DCDDDE" x="8.92217191" y="1.5351166" width="1.80952381" height="1.85185185"></rect>
                <rect id="Rectangle-Copy-2" fill="#DCDDDE" x="1.4910608" y="9.26680384" width="1.80952381" height="1.85185185"></rect>
            </g>
        </g>
    </g>
</svg>