<?xml version="1.0" encoding="UTF-8" standalone="no"?>
<svg width="96px" height="96px" viewBox="0 0 96 96" version="1.1" xmlns="http://www.w3.org/2000/svg" xmlns:xlink="http://www.w3.org/1999/xlink">
    <!-- Generator: Sketch 39.1 (31720) - http://www.bohemiancoding.com/sketch -->
    <title>icon-avatar</title>
    <desc>Created with Sketch.</desc>
    <defs></defs>
    <g id="common" stroke="none" stroke-width="1" fill="none" fill-rule="evenodd">
        <g id="icon-avatar" fill="#DCDDDE">
            <path d="M96,48.005647 C96,21.5537255 74.4462746,0 47.9943531,0 C21.5424317,0 0,21.5537255 0,48.005647 C0,62.5752157 6.61019606,75.6820389 16.893804,84.4917643 C17.0185097,84.6164709 17.1432154,84.7411766 17.3813331,84.8545886 C25.7035294,91.8389023 36.3614117,96 48.1190589,96 C59.6272937,96 70.2851769,91.8389023 78.6073723,85.104 C79.0949023,84.9792943 79.4690194,84.6164709 79.7071371,84.2423529 C89.6393726,75.3079217 96,62.4505098 96,48.005647 L96,48.005647 L96,48.005647 Z M4.41050983,48.005647 C4.41050983,24.0028235 24.0028234,4.41050983 48.0056469,4.41050983 C72.0084703,4.41050983 91.6007846,24.0028235 91.6007846,48.005647 C91.6007846,59.7632941 86.9521569,70.4097257 79.3556074,78.2558434 C78.1311369,72.4960003 74.4575683,62.6999216 63.1874511,56.3392941 C65.7612549,53.1532549 67.2238431,48.9921568 67.2238431,44.5816471 C67.2238431,34.0484706 58.6522354,25.4768627 48.1190589,25.4768627 C37.5858823,25.4768627 29.0142746,34.0484706 29.0142746,44.5816471 C29.0142746,48.9921568 30.6015686,53.028549 33.0506666,56.3392941 C21.678588,62.6999216 18.0050194,72.4961571 16.9050977,78.2558434 C9.18384317,70.5345883 4.41050983,59.7632941 4.41050983,48.005647 L4.41050983,48.005647 L4.41050983,48.005647 Z M33.3113726,44.694902 C33.3113726,36.6108236 39.9215683,30.0006274 48.0056469,30.0006274 C56.0897254,30.0006274 62.6999211,36.6108236 62.6999211,44.694902 C62.6999211,52.7789804 56.0897254,59.3891764 48.0056469,59.3891764 C39.9215683,59.3891764 33.3113726,52.7789804 33.3113726,44.694902 L33.3113726,44.694902 L33.3113726,44.694902 Z M20.816784,82.0428231 C21.0661963,78.4939611 23.0163137,66.4869017 36.2479997,59.752 C39.5587449,62.3258039 43.5951369,63.7883921 48.0056469,63.7883921 C52.4161569,63.7883921 56.5772546,62.201098 59.8879997,59.6272941 C72.9948231,66.362196 75.069804,78.1198431 75.4439211,81.9181174 C67.9720783,87.9160783 58.4254114,91.58949 48.1416471,91.58949 C37.7220394,91.6007846 28.2886277,88.0519217 20.816784,82.0428231 L20.816784,82.0428231 L20.816784,82.0428231 Z" id="Shape"></path>
        </g>
    </g>
</svg>