<?xml version="1.0" encoding="UTF-8"?>
<svg width="32px" height="32px" viewBox="0 0 32 32" version="1.1" xmlns="http://www.w3.org/2000/svg" xmlns:xlink="http://www.w3.org/1999/xlink">
    <!-- Generator: Sketch 52.5 (67469) - http://www.bohemiancoding.com/sketch -->
    <title>icon-eticket-b_</title>
    <desc>Created with Sketch.</desc>
    <g id="icon-eticket-b_" stroke="none" stroke-width="1" fill="none" fill-rule="evenodd">
        <g id="Group-6" transform="translate(6.000000, 3.000000)">
            <path d="M-3,8.55167577 L-3,4 C-3,3.44771525 -2.55228475,3 -2,3 L22,3 C22.5522847,3 23,3.44771525 23,4 L23,8.42586115 C21.1177248,9.04068384 19.7535859,10.8561128 19.7535859,13 C19.7535859,15.1438872 21.1177248,16.9593162 23,17.5741388 L23,22 C23,22.5522847 22.5522847,23 22,23 L-2,23 C-2.55228475,23 -3,22.5522847 -3,22 L-3,17.4483242 C-1.29574543,16.736454 -0.093605403,15.013018 -0.093605403,13 C-0.093605403,10.986982 -1.29574543,9.26354599 -3,8.55167577 Z" id="Combined-Shape-Copy-8" stroke="#0290D5" stroke-width="2" stroke-linecap="round" stroke-linejoin="round" transform="translate(10.000000, 13.000000) rotate(-270.000000) translate(-10.000000, -13.000000) "></path>
            <g id="index-掃描條碼3-copy-7" transform="translate(3.500000, 6.000000)">
                <path d="M4.23169399,0 L0.812143291,0 C0.363327262,0 0.0213721919,0.39545679 0.0427443837,0.834853224 L0.0427443837,4.28411523 C0.0427443837,4.74548148 0.384699454,5.11896845 0.812143291,5.11896845 L4.23169399,5.11896845 C4.68051002,5.11896845 5.02246509,4.72351166 5.0010929,4.28411523 L5.0010929,0.856823045 C5.0010929,0.39545679 4.65913783,0.0219698217 4.23169399,0 Z" id="Shape" stroke="#0290D5" stroke-width="0.922839506" stroke-linecap="round" stroke-linejoin="round"></path>
                <path d="M0.0427443837,6.5909465 L2.26545234,6.5909465" id="Shape" stroke="#0290D5" stroke-width="0.922839506" stroke-linecap="round" stroke-linejoin="round"></path>
                <path d="M3.78287796,6.5909465 L6.28342441,6.5909465" id="Shape" stroke="#0290D5" stroke-width="0.922839506" stroke-linecap="round" stroke-linejoin="round"></path>
                <path d="M12.0539162,0 L8.63436551,0 C8.18554948,0 7.84359441,0.39545679 7.86496661,0.834853224 L7.86496661,4.28411523 C7.86496661,4.74548148 8.20692168,5.11896845 8.63436551,5.11896845 L12.0539162,5.11896845 C12.5027322,5.11896845 12.8446873,4.72351166 12.8233151,4.28411523 L12.8233151,0.856823045 C12.8446873,0.39545679 12.5027322,0.0219698217 12.0539162,0 Z" id="Shape" stroke="#0290D5" stroke-width="0.922839506" stroke-linecap="round" stroke-linejoin="round"></path>
                <path d="M4.23169399,8.04095473 L0.812143291,8.04095473 C0.363327262,8.04095473 0.0213721919,8.43641152 0.0427443837,8.87580796 L0.0427443837,12.32507 C0.0427443837,12.7864362 0.384699454,13.1599232 0.812143291,13.1599232 L4.23169399,13.1599232 C4.68051002,13.1599232 5.02246509,12.7644664 5.0010929,12.32507 L5.0010929,8.89777778 C5.0010929,8.43641152 4.65913783,8.06292455 4.23169399,8.04095473 Z" id="Shape" stroke="#0290D5" stroke-width="0.922839506" stroke-linecap="round" stroke-linejoin="round"></path>
                <path d="M6.28571429,9.33717421 L6.28571429,3.9545679" id="Shape" stroke="#0290D5" stroke-width="0.922839506" stroke-linecap="round" stroke-linejoin="round"></path>
                <path d="M6.28571429,0.0439396433 L6.28571429,2.30683128" id="Shape" stroke="#0290D5" stroke-width="0.922839506" stroke-linecap="round" stroke-linejoin="round"></path>
                <path d="M6.28571429,10.8750617 L6.28571429,13.1599232" id="Shape" stroke="#0290D5" stroke-width="0.922839506" stroke-linecap="round" stroke-linejoin="round"></path>
                <path d="M12.8233151,8.48035117 L12.8233151,10.7432428 C12.8446873,12.0614321 11.8401943,13.1379534 10.5578628,13.181893 L7.90771099,13.181893" id="Shape" stroke="#0290D5" stroke-width="0.922839506" stroke-linecap="round" stroke-linejoin="round"></path>
                <path d="M10.579235,6.5909465 L12.8019429,6.5909465" id="Shape" stroke="#0290D5" stroke-width="0.922839506" stroke-linecap="round" stroke-linejoin="round"></path>
                <path d="M7.86496661,11.4023374 L7.86496661,9.75460082 C7.84359441,8.9197476 8.48476017,8.23868313 9.27553127,8.21671331 L11.028051,8.21671331" id="Shape" stroke="#0290D5" stroke-width="0.922839506" stroke-linecap="round" stroke-linejoin="round"></path>
                <path d="M9.45010074,10.1160991 L10.8786722,11.5605436" id="Path-2" stroke="#0290D5" stroke-width="0.919191919" stroke-linecap="round" stroke-linejoin="round"></path>
                <rect id="Rectangle" fill="#0190D4" x="1.56953769" y="1.59652126" width="1.9047619" height="1.92592593"></rect>
                <rect id="Rectangle-Copy" fill="#0190D4" x="9.39175991" y="1.59652126" width="1.9047619" height="1.92592593"></rect>
                <rect id="Rectangle-Copy-2" fill="#0190D4" x="1.56953769" y="9.63747599" width="1.9047619" height="1.92592593"></rect>
            </g>
        </g>
    </g>
</svg>