<?xml version="1.0" encoding="UTF-8" standalone="no"?>
<svg width="64px" height="64px" viewBox="0 0 64 64" version="1.1" xmlns="http://www.w3.org/2000/svg" xmlns:xlink="http://www.w3.org/1999/xlink">
    <!-- Generator: Sketch 39.1 (31720) - http://www.bohemiancoding.com/sketch -->
    <title>icon-nav-forcer</title>
    <desc>Created with Sketch.</desc>
    <defs></defs>
    <g id="menu" stroke="none" stroke-width="1" fill="none" fill-rule="evenodd">
        <g id="icon-nav-forcer" fill="#6F7274">
            <path d="M61.556,4 L2.456,4 C1.099,4 0,5.099 0,6.456 C0,7.812 1.099,8.912 2.456,8.912 L4.622,8.912 L4.622,58.187 C4.639,58.991 5.287,59.638 6.091,59.655 L57.905,59.655 C58.709,59.639 59.357,58.99 59.374,58.186 L59.374,8.912 L61.556,8.912 C62.912,8.912 64.011,7.813 64.011,6.456 C64.011,5.1 62.912,4 61.556,4 Z M9.595,22.035 L54.422,22.035 L54.422,8.912 L9.595,8.912 L9.595,22.035 Z M9.595,38.625 L54.422,38.625 L54.422,25.99 L9.595,25.99 L9.595,38.625 Z M9.595,54.702 L54.422,54.702 L54.422,42.597 L9.595,42.597 L9.595,54.702 Z M32.1715,18.535 C34.0125,18.535 35.5045,17.043 35.5045,15.202 C35.5045,13.361 34.0125,11.869 32.1715,11.869 C30.3305,11.869 28.8385,13.361 28.8385,15.202 C28.8385,17.043 30.3305,18.535 32.1715,18.535 Z M32.1715,35.868 C34.0125,35.868 35.5045,34.376 35.5045,32.535 C35.5045,30.694 34.0125,29.202 32.1715,29.202 C30.3305,29.202 28.8385,30.694 28.8385,32.535 C28.8385,34.376 30.3305,35.868 32.1715,35.868 Z M32.1715,52.368 C34.0125,52.368 35.5045,50.876 35.5045,49.035 C35.5045,47.194 34.0125,45.702 32.1715,45.702 C30.3305,45.702 28.8385,47.194 28.8385,49.035 C28.8385,50.876 30.3305,52.368 32.1715,52.368 Z" id="Combined-Shape"></path>
        </g>
    </g>
</svg>