<?xml version="1.0" encoding="UTF-8"?>
<svg width="64px" height="64px" viewBox="0 0 64 64" version="1.1" xmlns="http://www.w3.org/2000/svg" xmlns:xlink="http://www.w3.org/1999/xlink">
    <!-- Generator: Sketch 41.2 (35397) - http://www.bohemiancoding.com/sketch -->
    <title>icon-purview-cart-white</title>
    <desc>Created with Sketch.</desc>
    <defs></defs>
    <g id="member" stroke="none" stroke-width="1" fill="none" fill-rule="evenodd">
        <g id="icon-purview-cart-white" fill="#FFFFFF">
            <path d="M23.5098924,59.4626201 C25.8387964,59.4626201 27.7267462,57.5746704 27.7267462,55.2457664 C27.7267462,52.9168624 25.8387964,51.0289127 23.5098924,51.0289127 C21.1809884,51.0289127 19.2930387,52.9168624 19.2930387,55.2457664 C19.2930387,57.5746704 21.1809884,59.4626201 23.5098924,59.4626201 Z M48.0739983,59.4626201 C50.4029023,59.4626201 52.290852,57.5746704 52.290852,55.2457664 C52.290852,52.9168624 50.4029023,51.0289127 48.0739983,51.0289127 C45.7450943,51.0289127 43.8571446,52.9168624 43.8571446,55.2457664 C43.8571446,57.5746704 45.7450943,59.4626201 48.0739983,59.4626201 Z M3.17196962,13.9168682 L8.76956305,13.9168682 L15.8225308,43.9946036 C16.463501,46.6851772 18.8414174,48.6028517 21.6067107,48.6592648 C21.4387829,48.780546 29.4246828,48.7898753 29.2660844,48.6592648 L52.0949363,48.6592648 C53.8467667,48.6592648 55.2669059,47.2391256 55.2669059,45.4872952 C55.2669059,43.7354647 53.8467667,42.3153255 52.0949363,42.3153255 L21.9985422,42.3153255 L21.1775618,38.9007935 L53.0558565,38.9007935 C55.1642054,38.8942909 57.0481015,37.5826236 57.7858229,35.6075427 L63.6819547,19.7850119 C64.2597233,18.2353931 64.0416521,16.5010295 63.0982478,15.1426762 C62.1548435,13.784323 60.6058126,12.9743383 58.9519882,12.9746066 L50.4623048,12.9746066 C50.9741736,14.3345821 51.2883494,15.7609405 51.3952371,17.210119 L58.9240003,17.210119 C59.1904835,17.2123217 59.4393186,17.3437329 59.5913942,17.5625734 C59.7434698,17.7814139 59.7798635,18.0604539 59.6890047,18.310979 L53.8208609,34.0868632 C53.7008693,34.4056584 53.396483,34.617244 53.0558565,34.6186346 L20.1793243,34.6186346 L14.9455745,12.2842367 C14.305888,9.51999186 11.8400814,7.56515304 9.00279611,7.57292893 L3.17196962,7.57292893 C1.42013917,7.57292893 0,8.9930681 0,10.7448985 C0,12.496729 1.42013917,13.9168682 3.17196962,13.9168682 Z M48.064669,12.4055179 C44.8108249,5.82382539 36.8376205,3.1259695 30.2558353,6.37962613 C23.6740501,9.63328277 20.9759671,17.6064103 24.2294363,24.1882882 C27.4829055,30.7701661 35.4559562,33.4684761 42.0379267,30.2151944 C45.1989405,28.6527947 47.6097772,25.8986167 48.7400255,22.5586108 C49.8702737,19.2186048 49.6273387,15.5663982 48.064669,12.4055179 L48.064669,12.4055179 Z M40.6758457,15.2043146 C40.4585169,16.1711035 39.9389607,17.0435658 39.1924834,17.6952437 C38.3287181,18.3655123 37.3893794,18.9322467 36.3936867,19.3838511 L39.4257165,25.6251678 L36.6269197,27.0059075 L29.3966949,12.3308834 L32.3634194,10.8661797 C33.5196897,10.21954 34.7843555,9.78955362 36.0951484,9.59739189 C36.9356285,9.5387683 37.7727472,9.75131797 38.4834549,10.2037978 C39.2649383,10.7142977 39.8859543,11.4355819 40.2746848,12.2842367 C40.7451108,13.1909118 40.8900172,14.2316029 40.685175,15.2323026 L40.6758457,15.2043146 Z M36.2444175,12.6947269 C35.5655354,12.7314166 34.9058521,12.9331644 34.3225771,13.2824742 L33.538914,13.6743058 L35.0316056,16.6876769 L35.9645378,16.2491988 C36.4665854,16.0325664 36.9322872,15.7399295 37.3452776,15.3815718 C37.5624306,15.1609369 37.7030455,14.876437 37.7464384,14.5699207 C37.7816671,14.2482267 37.7199396,13.923345 37.5691813,13.6369885 C37.3523609,13.0888923 36.8333117,12.7197094 36.2444175,12.6947269 L36.2444175,12.6947269 Z" id="Combined-Shape"></path>
        </g>
    </g>
</svg>