<?xml version="1.0" encoding="UTF-8" standalone="no"?>
<svg width="64px" height="64px" viewBox="0 0 64 64" version="1.1" xmlns="http://www.w3.org/2000/svg" xmlns:xlink="http://www.w3.org/1999/xlink">
    <!-- Generator: Sketch 39.1 (31720) - http://www.bohemiancoding.com/sketch -->
    <title>icon-cog</title>
    <desc>Created with Sketch.</desc>
    <defs></defs>
    <g id="header" stroke="none" stroke-width="1" fill="none" fill-rule="evenodd">
        <g id="icon-cog" fill="#6F7274">
            <path d="M58.9,34.7063 L55.1,34.7063 C53.9,34.7063 52.9,35.5063 52.7,36.7063 C52.5,37.8063 52.1,38.9063 51.7,39.9063 C51.3,41.0063 50.7,42.0063 50.1,43.0063 C49.4,44.1063 49.6,45.4063 50.5,46.2063 L53.1,48.7063 L48.8,53.0063 L46.2,50.4063 C45.4,49.5063 44.2,49.4063 43.2,50.0063 C42.2,50.6063 41.2,51.1063 40.1,51.6063 L40,51.7063 C39,52.1063 37.9,52.4063 36.8,52.7063 C35.7,53.0063 34.9,54.0063 34.9,55.1063 L34.9,58.9063 L28.9,58.9063 L28.9,55.1063 C28.9,53.9063 28.1,52.9063 26.9,52.7063 C25.8,52.5063 24.7,52.1063 23.7,51.7063 C22.6,51.2063 21.6,50.7063 20.6,50.1063 C19.6,49.5063 18.3,49.7063 17.5,50.6063 L15,53.2063 L10.7,48.9063 L13.4,46.2063 C14.2,45.4063 14.4,44.2063 13.8,43.2063 C13.2,42.2063 12.7,41.2063 12.2,40.1063 C11.7,39.0063 11.4,37.9063 11.1,36.8063 C10.8,35.7063 9.8,34.9063 8.7,34.9063 L4.9,34.9063 L4.9,28.9063 L8.8,28.9063 C10,28.9063 11,28.1063 11.2,26.9063 C11.4,25.8063 11.8,24.7063 12.2,23.7063 C12.6,22.6063 13.2,21.6063 13.8,20.6063 C14.4,19.6063 14.2,18.3063 13.3,17.5063 L10.7,14.9063 L15,10.6063 L17.7,13.5063 C18.5,14.3063 19.7,14.4063 20.7,13.8063 C22.7,12.5063 24.8,11.6063 27.1,11.1063 C28.2,10.8063 29,9.8063 29,8.7063 L29,4.9063 L35,4.9063 L35,8.7063 C35,9.9063 35.8,10.9063 37,11.1063 C38.1,11.3063 39.2,11.7063 40.2,12.1063 C41.3,12.5063 42.4,13.0063 43.3,13.7063 C44.3,14.3063 45.6,14.1063 46.4,13.2063 L49,10.6063 L53,14.9063 L50.4,17.5063 C49.6,18.3063 49.4,19.6063 50.1,20.6063 C50.7,21.5063 51.3,22.6063 51.7,23.6063 C52.1,24.6063 52.4,25.7063 52.7,26.8063 C53,27.9063 53.9,28.7063 55.1,28.7063 L58.9,28.7063 L58.9,34.7063 Z M61.6,24.0063 L57.3,24.0063 C57,23.2063 56.8,22.5063 56.5,21.8063 C56.2,21.1063 55.8,20.4063 55.5,19.7063 L58.6,16.6063 C59.5,15.6063 59.5,14.1063 58.6,13.1063 L50.9,5.4063 C49.9,4.5063 48.4,4.5063 47.4,5.4063 L44.3,8.5063 C43.6,8.1063 42.9,7.8063 42.2,7.5063 C41.5,7.2063 40.7,7.0063 40,6.7063 L40,2.3063 C40,1.0063 38.9,-0.0937 37.7,0.0063 L26.7,0.0063 C25.3,0.0063 24.2,1.0063 24.2,2.4063 L24.2,6.7063 C22.8,7.2063 21.4,7.8063 20,8.5063 L16.9,5.4063 C15.9,4.5063 14.4,4.5063 13.4,5.4063 L5.7,13.1063 L5.6,13.1063 C4.6,14.1063 4.6,15.6063 5.6,16.6063 L8.7,19.7063 C8.3,20.4063 8,21.1063 7.7,21.8063 C7.4,22.5063 7.1,23.2063 6.9,24.0063 L2.5,24.0063 C1.1,24.0063 0,25.0063 0,26.4063 L0,37.1063 L0,37.3063 C0,38.7063 1.1,39.8063 2.5,39.8063 L6.9,39.8063 C7.2,40.6063 7.4,41.3063 7.7,42.0063 C8,42.7063 8.4,43.4063 8.7,44.1063 L5.6,47.2063 C4.6,48.2063 4.6,49.7063 5.6,50.7063 L13.3,58.4063 L13.4,58.5063 C14.4,59.4063 15.9,59.4063 16.8,58.4063 L19.9,55.3063 C20.6,55.7063 21.3,56.0063 22,56.3063 C22.7,56.6063 23.4,56.9063 24.1,57.1063 L24.1,61.5063 C24.1,62.8063 25.3,63.9063 26.6,63.9063 L37.3,63.9063 L37.6,64.0063 C38.9,64.0063 40,62.9063 40,61.5063 L40,57.1063 C40.7,56.9063 41.4,56.7063 42,56.4063 L42.1,56.4063 C42.8,56.1063 43.5,55.8063 44.2,55.4063 L47.3,58.5063 L47.4,58.6063 C48.4,59.5063 49.9,59.5063 50.8,58.5063 L58.6,50.8063 L58.6,50.7063 C59.5,49.8063 59.5,48.3063 58.6,47.3063 L55.5,44.2063 C55.9,43.5063 56.2,42.8063 56.5,42.1063 C56.8,41.4063 57.1,40.6063 57.3,39.9063 L61.6,39.9063 C63,39.9063 64.1,38.9063 64.1,37.5063 L64.1,26.5063 C64.1,25.1063 63,24.0063 61.6,24.0063 L61.6,24.0063 Z M32,16.7063 C23.7,16.8063 16.9,23.5063 16.8,31.9063 C16.9,40.3063 23.6,47.1063 32,47.1063 C40.4,47.1063 47.2,40.3063 47.2,31.9063 C47.2,23.5063 40.4,16.7063 32,16.7063 M32,44.1063 C25.3,44.1063 19.8,38.6063 19.8,31.9063 C19.8,25.2063 25.2,19.7063 32,19.7063 C38.8,19.7063 44.2,25.2063 44.2,31.9063 C44.2,38.6063 38.8,44.1063 32,44.1063" id="Combined-Shape"></path>
        </g>
    </g>
</svg>