<?xml version="1.0" encoding="UTF-8" standalone="no"?>
<svg width="64px" height="64px" viewBox="0 0 64 64" version="1.1" xmlns="http://www.w3.org/2000/svg" xmlns:xlink="http://www.w3.org/1999/xlink">
    <!-- Generator: Sketch 39.1 (31720) - http://www.bohemiancoding.com/sketch -->
    <title>icon-refresh-blue</title>
    <desc>Created with Sketch.</desc>
    <defs></defs>
    <g id="form-/-home" stroke="none" stroke-width="1" fill="none" fill-rule="evenodd">
        <g id="icon-refresh-blue" fill="#0090D4">
            <path d="M53.15,10.8125 C47.7125,5.375 40.25,2 31.9625,2 C15.3875,2 2,15.425 2,32 C2,48.575 15.3875,62 31.9625,62 C45.95,62 57.6125,52.4375 60.95,39.5 L53.15,39.5 C50.075,48.2375 41.75,54.5 31.9625,54.5 C19.55,54.5 9.4625,44.4125 9.4625,32 C9.4625,19.5875 19.55,9.5 31.9625,9.5 C38.1875,9.5 43.7375,12.0875 47.7875,16.175 L35.7125,28.25 L61.9625,28.25 L61.9625,2 L53.15,10.8125 L53.15,10.8125 Z" id="Shape"></path>
        </g>
    </g>
</svg>