<?xml version="1.0" encoding="UTF-8" standalone="no"?>
<svg width="64px" height="64px" viewBox="0 0 64 64" version="1.1" xmlns="http://www.w3.org/2000/svg" xmlns:xlink="http://www.w3.org/1999/xlink">
    <!-- Generator: Sketch 39.1 (31720) - http://www.bohemiancoding.com/sketch -->
    <title>icon-gotop-blue</title>
    <desc>Created with Sketch.</desc>
    <defs></defs>
    <g id="header" stroke="none" stroke-width="1" fill="none" fill-rule="evenodd">
        <g id="icon-gotop-blue" fill="#0090D4">
            <path d="M34.2525918,26.3374918 C34.2401667,26.3245435 34.2276028,26.3116789 34.2149,26.2989 C33.0449,25.1229 31.1469,25.1169 29.9719,26.2859 L15.7209,40.4509 C14.5459,41.6189 14.5399,43.5179 15.7079,44.6939 C16.2939,45.2839 17.0649,45.5789 17.8359,45.5789 C18.6009,45.5789 19.3659,45.2879 19.9509,44.7069 L32.0806236,32.6503752 L44.2091,44.778 C44.7951,45.364 45.5621,45.657 46.3301,45.657 C47.0981,45.657 47.8651,45.364 48.4511,44.778 C49.6231,43.606 49.6231,41.707 48.4511,40.536 L34.2525918,26.3374918 Z M32,0 C49.673,0 64,14.327 64,32 C64,49.673 49.673,64 32,64 C14.327,64 0,49.673 0,32 C0,14.327 14.327,0 32,0 Z M46.3867,21.6931 L17.7787,21.6931 C16.1217,21.6931 14.7787,20.3501 14.7787,18.6931 C14.7787,17.0361 16.1217,15.6931 17.7787,15.6931 L46.3867,15.6931 C48.0437,15.6931 49.3867,17.0361 49.3867,18.6931 C49.3867,20.3501 48.0437,21.6931 46.3867,21.6931 Z" id="Combined-Shape"></path>
        </g>
    </g>
</svg>