<?xml version="1.0" encoding="UTF-8" standalone="no"?>
<svg width="24px" height="24px" viewBox="0 0 24 24" version="1.1" xmlns="http://www.w3.org/2000/svg" xmlns:xlink="http://www.w3.org/1999/xlink">
    <!-- Generator: Sketch 3.8.3 (29802) - http://www.bohemiancoding.com/sketch -->
    <title>icon-jcb</title>
    <desc>Created with Sketch.</desc>
    <defs></defs>
    <g id="Page-1" stroke="none" stroke-width="1" fill="none" fill-rule="evenodd">
        <g id="icon-jcb">
            <path d="M23.4528474,12.8784595 L23.4526937,12.8786125 L23.4528708,13.406524 L23.4528708,13.406524 C23.5343469,15.8432768 23.6153801,18.3613284 23.4936089,20.8387306 C23.41231,21.8136089 22.8030111,22.7478376 21.909786,23.3163985 C21.2192768,23.7632768 20.3662583,23.8038376 19.4725904,23.8442214 L16.2437491,23.8038376 L16.2235572,3.13115867 C16.3859779,1.75031734 17.4015055,0.572457565 18.7011365,0.206878229 C20.2852251,0.00389667897 21.7472768,0.0851070111 23.4121328,0.0444575646 L23.4934317,1.10054613 L23.4934317,12.8380517 L23.4528474,12.8784595 C23.2902262,12.4317877 22.8029896,12.0662377 22.3564871,11.9444723 C22.4376089,11.7412251 22.8030111,11.7006642 22.9654317,11.4163838 C23.2498007,11.1321033 23.2902731,10.6447528 23.1278524,10.2791734 C22.6000295,9.22326199 21.3409594,9.71061255 20.2037491,9.58866421 L16.5894022,9.58866421 C16.5078376,11.1727528 16.5486642,12.7159262 16.5486642,14.3408413 L16.7518229,14.4221402 L22.4376089,14.4221402 C22.9249594,14.3408413 23.3310996,13.8938745 23.4528708,13.406524 Z M18.5792768,10.0759262 C18.4573284,10.5228044 18.4573284,11.1320148 18.5388044,11.6193653 C19.3916458,11.5788044 20.4882952,11.9036458 21.0569446,11.2538745 C21.2601919,11.0102435 21.138155,10.6041033 21.0161181,10.4009446 C20.3663469,9.8322952 19.3914686,10.1979631 18.5792768,10.0759262 Z M20.7727528,12.3096974 C20.0009446,12.1880148 19.229048,12.2285756 18.4979779,12.2694022 C18.4572399,12.8784354 18.4979779,13.365786 18.5791882,13.9343469 C19.3914686,13.9343469 20.2853137,14.0562066 21.0160295,13.6906273 C21.2193653,13.4876458 21.341048,13.162893 21.2601033,12.8784354 C21.2193653,12.6347159 21.0160295,12.4317343 20.7727528,12.3096974 Z" id="Combined-Shape" fill="#009540"></path>
            <path d="M0.0593357934,12.6347159 L0.0593357934,2.88735055 C0.262228782,1.79061255 1.15589668,0.775439114 2.21180812,0.369121771 C3.79571956,-0.118140221 5.62335055,0.166140221 7.24791144,0.125490775 C7.32912177,1.70931365 7.24791144,3.69954244 7.28864945,5.08038376 L7.36985978,17.792679 C7.16661255,19.7422583 7.89768266,22.3820812 5.46092989,23.4786421 C3.91757934,24.2506273 1.84614022,23.7630996 0.0997195572,23.9255203 L0.0592472325,23.6412399 L0.0592472325,13.0407675 L0.0593357934,12.6347159 Z M0.0593357934,13.0407675 C0.70901845,13.8938745 1.60259779,14.5437343 2.69915867,14.5845609 C4.03935055,14.706155 5.78585978,14.8281033 6.67935055,13.5689446 C7.28864945,12.9191734 6.92307011,12.0256827 7.04501845,11.1726642 L7.00419188,9.62931365 C6.23247232,9.46698155 5.54214022,9.62931365 4.64873801,9.58866421 C4.2020369,11.2538745 5.37971956,13.1219779 3.47078967,13.9751734 C3.024,14.0967675 2.37422878,14.0154686 1.92752768,13.7314539 C1.19654613,13.5689446 1.60268635,12.3909963 0.627896679,12.7159262 L0.0594243542,12.6347159 L0.0593357934,13.0407675 Z" id="Combined-Shape" fill="#0069B3"></path>
            <path d="M15.3708044,1.46577122 L15.4111882,21.2448708 C15.1270849,22.1792768 14.3961033,23.1942731 13.3809299,23.5601181 C11.8371365,24.0882952 9.92838376,23.8442214 8.22261255,23.8442214 L8.14140221,3.00938745 C8.22261255,2.03468635 8.87247232,1.18175646 9.72549077,0.653667897 C10.3348782,0.247527675 11.0655941,0.125756458 11.8373137,0.0851070111 L15.2895055,0.0851070111 L15.3708044,1.46577122 Z M15.0458745,9.62931365 C15.1270849,9.87303321 15.0458745,10.0759262 15.0863469,10.3603838 C13.8682804,10.0355424 12.3653137,9.66978598 11.2690185,10.5634539 C10.862524,11.0508044 10.618893,11.538155 10.659631,12.1880148 C10.7813137,12.9191734 11.2281919,13.609417 11.918524,13.8938745 C12.9744354,14.2187159 14.071262,13.9343469 15.045786,13.6906273 C15.0862583,13.8938745 15.1269963,14.1779779 15.045786,14.3408413 L10.375262,14.3408413 C9.56298155,14.1779779 8.91312177,13.7314539 8.54745387,12.9191734 C8.22252399,12.1474539 8.38529889,11.0913653 8.95350554,10.4415941 C9.44085609,9.87303321 10.1314539,9.54810332 10.9029963,9.58857565 L15.0458745,9.62931365 Z" id="Combined-Shape" fill="#E20613"></path>
        </g>
    </g>
</svg>