<?xml version="1.0" encoding="UTF-8" standalone="no"?>
<svg width="64px" height="64px" viewBox="0 0 64 64" version="1.1" xmlns="http://www.w3.org/2000/svg" xmlns:xlink="http://www.w3.org/1999/xlink">
    <!-- Generator: Sketch 39.1 (31720) - http://www.bohemiancoding.com/sketch -->
    <title>icon-help-circle-blue</title>
    <desc>Created with Sketch.</desc>
    <defs></defs>
    <g id="form-/-home" stroke="none" stroke-width="1" fill="none" fill-rule="evenodd">
        <g id="icon-help-circle-blue" fill="#0090D4">
            <path d="M31.5981918,2.00271605 C15.0351329,2.22338118 1.78205092,15.8354557 2.00271605,32.4051017 C2.22338118,48.9648671 15.8354557,62.2179491 32.4018082,62.0005775 C48.9648671,61.7766188 62.2179491,48.1645443 61.9972839,31.5981918 C61.7766188,15.0351329 48.1678378,1.78205092 31.5981918,2.00271605 L31.5981918,2.00271605 Z M31.5125606,50.2625098 L31.3445916,50.2592163 C28.7954153,50.1834656 26.9971592,48.3028717 27.0696164,45.789924 C27.1387801,43.3197919 28.9798518,41.5281228 31.4499839,41.5281228 L31.5948983,41.5281228 C34.2198254,41.607167 35.9983205,43.4647063 35.9225697,46.0534048 C35.8501125,48.5301239 34.0386823,50.2625098 31.5125606,50.2625098 L31.5125606,50.2625098 Z M42.2461079,28.9600908 C41.6433956,29.8131097 40.3259919,30.8703263 38.6627696,32.167969 L36.8315783,33.4326766 C35.8237645,34.2132383 35.2210522,34.9476909 34.9905066,35.672263 C34.8093635,36.2420402 34.7237323,36.3935416 34.7072648,37.5495634 L34.7039712,37.8459793 L27.7151442,37.8459793 L27.7349053,37.2531476 C27.8205365,34.8225376 27.8798197,33.389861 28.8876336,32.2074911 C30.4685181,30.3532453 33.9563446,28.1037783 34.1045525,28.0115601 C34.6018725,27.6361 35.0267352,27.2046503 35.3396186,26.750146 C36.0740712,25.7390386 36.3968351,24.9420093 36.3968351,24.158154 C36.3968351,23.0712959 36.0740712,22.0667755 35.4384239,21.1742345 C34.8225376,20.311335 33.6632223,19.8732983 31.9802389,19.8732983 C30.3104297,19.8732983 29.1675819,20.4035533 28.4825319,21.4871179 C27.7777209,22.6036176 27.4253154,23.7794004 27.4253154,24.9782379 L27.4253154,25.2779472 L20.2191167,25.2779472 L20.2322908,24.9650638 C20.4200208,20.5517612 21.9943183,17.3702311 24.9123677,15.5159853 C26.750146,14.3369089 29.032548,13.7374902 31.6969971,13.7374902 C35.1848236,13.7374902 38.1259276,14.5839221 40.4445582,16.2570249 C42.7895369,17.9498887 43.9817873,20.485891 43.9817873,23.7925745 C43.9817873,25.6435268 43.3955427,27.3824998 42.2461079,28.9600908 L42.2461079,28.9600908 Z" id="Shape"></path>
        </g>
    </g>
</svg>