<?xml version="1.0" encoding="UTF-8" standalone="no"?>
<svg width="64px" height="64px" viewBox="0 0 64 64" version="1.1" xmlns="http://www.w3.org/2000/svg" xmlns:xlink="http://www.w3.org/1999/xlink">
    <!-- Generator: Sketch 39.1 (31720) - http://www.bohemiancoding.com/sketch -->
    <title>icon-star</title>
    <desc>Created with Sketch.</desc>
    <defs></defs>
    <g id="form" stroke="none" stroke-width="1" fill="none" fill-rule="evenodd">
        <g id="icon-star" fill="#B3D7F7">
            <path d="M30.6265064,4.15954869 C31.3837627,2.61348377 32.6458565,2.61348377 33.4346652,4.15954869 L40.4077335,18.2634471 C41.3951516,19.9084561 43.0357559,21.0557318 44.9197189,21.4186816 L60.4119205,23.8166599 C62.1157471,24.0690786 62.5259276,25.2680678 61.2638338,26.4670569 L49.9996465,37.4472731 C48.6843328,38.8815629 48.0518155,40.8136159 48.2642675,42.7480671 L50.9462169,58.2402687 C51.230188,59.9440954 50.2205129,60.7013516 48.674448,59.8809907 L34.8229684,52.5608465 C33.0486083,51.7549107 31.0125633,51.7549107 29.2382032,52.5608465 L15.2920666,59.8809907 C13.7460016,60.7013516 12.7363266,59.8809907 13.0202977,58.2402687 L15.6706947,42.7480671 C15.8831468,40.8136159 15.2506294,38.8815629 13.9353157,37.4472731 L2.73423311,26.4670569 C1.47213929,25.2365154 1.88231978,24.1637357 3.61769878,23.8166599 L19.1730051,21.544891 C21.0569681,21.1819412 22.6975723,20.0346655 23.6849904,18.3896565 L30.6265064,4.15954869 Z" id="Shape"></path>
        </g>
    </g>
</svg>