<?xml version="1.0" encoding="UTF-8"?>
<svg width="32px" height="32px" viewBox="0 0 32 32" version="1.1" xmlns="http://www.w3.org/2000/svg" xmlns:xlink="http://www.w3.org/1999/xlink">
    <!-- Generator: Sketch 52.5 (67469) - http://www.bohemiancoding.com/sketch -->
    <title>icon-gift-m_</title>
    <desc>Created with Sketch.</desc>
    <g id="icon-gift-m_" stroke="none" stroke-width="1" fill="none" fill-rule="evenodd">
        <g id="Group-25" transform="translate(4.000000, 3.000000)" stroke="#E54894" stroke-width="2">
            <path d="M0.5,9 L23.5,9 C23.7761424,9 24,9.22385763 24,9.5 L24,13.5 C24,13.7761424 23.7761424,14 23.5,14 L0.5,14 C0.223857625,14 3.38176876e-17,13.7761424 0,13.5 L0,9.5 C-3.38176876e-17,9.22385763 0.223857625,9 0.5,9 Z" id="Rectangle-32"></path>
            <g id="Group-24" transform="translate(4.000000, 0.520000)" stroke-linecap="round" stroke-linejoin="round">
                <path d="M7.11053781,7.5457259 C6.0118521,8.54301162 3.7030521,7.87444019 1.95028067,6.04924019 C0.198623528,4.22404019 -0.330662187,1.93864019 0.768023528,0.942468759 C1.86670924,-0.0548169553 4.17550924,0.613754473 5.92716638,2.43895447 C7.67882353,4.26415447 8.20922353,6.54844019 7.11053781,7.5457259 L7.11053781,7.5457259 Z" id="Stroke-5"></path>
                <path d="M8.62496353,7.5457259 C9.72364924,8.54301162 12.0324492,7.87444019 13.7841064,6.04924019 C15.5368778,4.22404019 16.0661635,1.93864019 14.9674778,0.942468759 C13.8699064,-0.0548169553 11.5599921,0.613754473 9.80833496,2.43895447 C8.05556353,4.26415447 7.52627781,6.54844019 8.62496353,7.5457259 L8.62496353,7.5457259 Z" id="Stroke-6"></path>
            </g>
            <path d="M22,13.52 L22,25.0647744 C22,25.4556404 21.7681733,25.7725 21.4822006,25.7725 L2.51779935,25.7725 C2.23182667,25.7725 2,25.4556404 2,25.0647744 L2,13.52" id="Rectangle-32-Copy"></path>
            <path d="M9,14.8525 L9,24.8525" id="Line-6" stroke-linecap="square"></path>
            <path d="M15,14.8525 L15,24.8525" id="Line-6-Copy" stroke-linecap="square"></path>
        </g>
    </g>
</svg>