<?xml version="1.0" encoding="UTF-8" standalone="no"?>
<svg width="64px" height="64px" viewBox="0 0 64 64" version="1.1" xmlns="http://www.w3.org/2000/svg" xmlns:xlink="http://www.w3.org/1999/xlink">
    <!-- Generator: Sketch 39.1 (31720) - http://www.bohemiancoding.com/sketch -->
    <title>icon-nav-camera-blue</title>
    <desc>Created with Sketch.</desc>
    <defs></defs>
    <g id="menu" stroke="none" stroke-width="1" fill="none" fill-rule="evenodd">
        <g id="icon-nav-camera-blue" fill="#0090D4">
            <path d="M51.8036,7.8257 L51.7936,7.8257 L37.0056,7.8257 C36.1966,5.0487 33.6316,3.0097 30.5876,2.9997 L16.9946,2.9997 C13.9156,3.0107 11.3206,5.1107 10.5536,7.9447 C4.5846,8.7677 -0.0194,13.9117 -0.0004,20.0927 L-0.0004,49.7237 C-0.0204,56.4697 5.4506,61.9737 12.2066,61.9967 L51.8036,61.9967 C58.5476,61.9737 64.0196,56.4697 63.9996,49.7327 L63.9996,20.0987 C64.0196,13.3537 58.5476,7.8477 51.8036,7.8257 Z M57.9996,49.7417 C58.0096,53.1797 55.2216,55.9857 51.7936,55.9967 L12.2156,55.9967 C8.7776,55.9857 5.9896,53.1797 5.9996,49.7327 L5.9996,20.0827 C5.9896,16.6457 8.7776,13.8397 12.2066,13.8287 L13.3236,13.8287 C14.9796,13.8287 16.3236,12.4857 16.3236,10.8287 L16.3236,9.6957 C16.3226,9.3137 16.6326,9.0017 17.0046,8.9997 L30.5786,8.9997 C30.9616,9.0007 31.2716,9.3137 31.2706,9.7047 L31.2706,10.8257 C31.2706,12.4827 32.6146,13.8257 34.2706,13.8257 L51.7896,13.8257 C55.2246,13.8407 58.0096,16.6457 57.9996,20.0907 L57.9996,49.7417 Z M32.46,18.9434 C23.699,18.9434 16.571,26.1074 16.571,34.9124 C16.571,43.7184 23.699,50.8814 32.46,50.8814 C41.221,50.8814 48.349,43.7184 48.349,34.9124 C48.349,26.1074 41.221,18.9434 32.46,18.9434 Z M32.46,44.8814 C27.007,44.8814 22.571,40.4094 22.571,34.9124 C22.571,29.4154 27.007,24.9434 32.46,24.9434 C37.913,24.9434 42.349,29.4154 42.349,34.9124 C42.349,40.4094 37.913,44.8814 32.46,44.8814 Z M30.6191,28.4282 C28.5851,28.4282 26.9361,30.0872 26.9361,32.1332 C26.9361,34.1792 28.5851,35.8382 30.6191,35.8382 C32.6531,35.8382 34.3021,34.1792 34.3021,32.1332 C34.3021,30.0872 32.6531,28.4282 30.6191,28.4282 Z" id="Combined-Shape"></path>
        </g>
    </g>
</svg>