<?xml version="1.0" encoding="UTF-8" standalone="no"?>
<svg width="64px" height="64px" viewBox="0 0 64 64" version="1.1" xmlns="http://www.w3.org/2000/svg" xmlns:xlink="http://www.w3.org/1999/xlink">
    <!-- Generator: Sketch 39.1 (31720) - http://www.bohemiancoding.com/sketch -->
    <title>icon-call-green</title>
    <desc>Created with Sketch.</desc>
    <defs></defs>
    <g id="cart/order/product" stroke="none" stroke-width="1" fill="none" fill-rule="evenodd">
        <g id="icon-call-green" fill="#4CB648">
            <path d="M20.1542885,17.5 L20.1542885,17.5 L10.7542885,5.4 C10.6542885,5.3 10.5542885,5.2 10.4542885,5.1 L10.3542885,5.1 C10.2542885,5 10.1542885,4.9 9.95428851,4.9 L9.55428851,4.9 L9.45428851,5 C9.35428851,5.1 9.15428851,5.2 9.05428851,5.3 C8.45428851,5.9 7.95428851,6.6 7.45428851,7.4 C6.85428851,8.4 6.35428851,9.4 6.05428851,10.5 C4.35428851,16.2 4.45428851,22.4 6.55428851,28 C8.95428851,34.8 12.8542885,41 17.9542885,46 C22.9542885,51.1 29.1542885,55 35.9542885,57.4 C41.5542885,59.4 47.7542885,59.6 53.4542885,57.9 C54.5542885,57.5 55.5542885,57.1 56.4542885,56.5 L56.5542885,56.5 C57.2542885,56 58.0542885,55.5 58.6542885,54.9 C58.7542885,54.8 58.8542885,54.7 58.9542885,54.5 C58.9542885,54.3 59.0542885,54.2 59.0542885,54 C59.0542885,53.8 58.9542885,53.7 58.9542885,53.5 C58.9542885,53.4 58.8542885,53.3 58.7542885,53.2 L58.6542885,53.2 L46.4542885,43.8 C46.3542885,43.7 46.2542885,43.7 46.1542885,43.6 L46.0542885,43.6 L45.6542885,43.6 C45.5542885,43.6 45.3542885,43.7 45.2542885,43.7 C45.0542885,43.8 44.9542885,43.9 44.9542885,44 L41.2542885,49.1 C41.0542885,49.4 40.7542885,49.7 40.4542885,49.9 C40.4542885,49.9 36.1542885,53 30.8542885,49.3 C27.7542885,47.1 24.8542885,44.7 22.1542885,42 C19.4542885,39.3 16.9542885,36.4 14.8542885,33.3 C11.1542885,28 14.2542885,23.7 14.2542885,23.7 C14.4542885,23.4 14.6542885,23.2 14.9542885,23 L19.9542885,19.3 L20.1542885,19.2 C20.2542885,19.1 20.3542885,19 20.3542885,19 L20.4542885,18.9 C20.5542885,18.8 20.5542885,18.6 20.5542885,18.5 L20.5542885,18 C20.5542885,17.9 20.4542885,17.8 20.3542885,17.7 L20.1542885,17.5 Z M14.6542885,2.3 L24.0542885,14.4 L24.1542885,14.6 C24.5542885,15.2 24.9542885,15.8 25.0542885,16.5 C25.2542885,17.3 25.2542885,18.1 25.1542885,18.9 C25.0542885,19.7 24.7542885,20.5 24.3542885,21.2 L24.2542885,21.3 C23.9542885,22 23.4542885,22.6 22.8542885,23 L22.6542885,23.1 L18.0542885,26.5 C17.5542885,27.8 17.7542885,29.3 18.6542885,30.4 C20.6542885,33.3 22.9542885,36 25.3542885,38.5 C27.8542885,41 30.5542885,43.3 33.4542885,45.3 C34.5542885,46.2 36.0542885,46.4 37.4542885,45.9 L40.8542885,41.2 C41.3542885,40.5 41.9542885,40 42.6542885,39.6 C43.3542885,39.2 44.0542885,38.9 44.8542885,38.8 L44.9542885,38.8 C45.7542885,38.7 46.4542885,38.7 47.2542885,38.9 L47.3542885,39 C48.0542885,39.2 48.7542885,39.6 49.3542885,40 L61.5542885,49.5 L61.7542885,49.6 C62.3542885,50.1 62.8542885,50.7 63.2542885,51.4 C63.6542885,52.2 63.8542885,53 63.9542885,53.9 C63.9542885,54.8 63.8542885,55.6 63.5542885,56.4 C63.2542885,57.2 62.7542885,57.9 62.0542885,58.5 C61.1542885,59.3 60.1542885,60.1 59.1542885,60.7 L58.9542885,60.7 C57.6542885,61.4 56.3542885,62.1 54.9542885,62.5 C48.2542885,64.7 41.1542885,64.3 34.3542885,62 C26.8542885,59.4 20.0542885,55.1 14.5542885,49.4 C8.85428851,43.8 4.55428851,37 1.95428851,29.5 C-0.345711495,22.7 -0.745711495,15.5 1.45428851,8.9 C1.95428851,7.5 2.55428851,6.1 3.35428851,4.8 C3.95428851,3.8 4.65428851,2.8 5.55428851,1.9 C6.15428851,1.3 6.85428851,0.8 7.65428851,0.4 L7.85428851,0.3 C8.55428851,0.1 9.35428851,0 10.1542885,0 C11.0542885,0 11.8542885,0.3 12.6542885,0.6 L12.7542885,0.7 L14.6542885,2.3 Z" id="Fill-1"></path>
        </g>
    </g>
</svg>