<?xml version="1.0" encoding="UTF-8"?>
<svg width="32px" height="32px" viewBox="0 0 32 32" version="1.1" xmlns="http://www.w3.org/2000/svg" xmlns:xlink="http://www.w3.org/1999/xlink">
    <!-- Generator: Sketch 52.5 (67469) - http://www.bohemiancoding.com/sketch -->
    <title>icon-thumb-m_</title>
    <desc>Created with Sketch.</desc>
    <g id="icon-thumb-m_" stroke="none" stroke-width="1" fill="none" fill-rule="evenodd">
        <g id="Group-27" transform="translate(3.000000, 2.000000)">
            <path d="M24.2,6.3 C24.2,5.95 24.3166667,4.2 26.3,4.2 C26.6888889,4.2 27,3.88888889 27,3.5 C27,3.11111111 26.6888889,2.8 26.3,2.8 C25.95,2.8 24.2,2.68333333 24.2,0.7 C24.2,0.311111111 23.8888889,0 23.5,0 C23.1111111,0 22.8,0.311111111 22.8,0.7 C22.8,2.68333333 21.05,2.8 20.7,2.8 C20.3111111,2.8 20,3.11111111 20,3.5 C20,3.88888889 20.3111111,4.2 20.7,4.2 C22.6833333,4.2 22.8,5.95 22.8,6.3 L22.8,6.33888889 C22.8,6.72777778 23.1111111,7 23.5,7 C23.8888889,7 24.2,6.68888889 24.2,6.3 Z" id="Shape" fill="#E64995"></path>
            <path d="M21.4666667,10 L13,10 L13,7.03308721 C13,5.24737863 12.2576916,3.26601279 10.456025,3.07604379 L9.43143477,3.01375125 C8.58810144,2.89976985 8,3.50767064 8,4.34353423 L8,10 L1.53333333,10 C0.69,10 0,10.7264926 0,11.5623562 L0,24.480248 C0,25.3161116 0.69,26 1.53333333,26 L21.4666667,26 C22.31,26 23,25.3161116 23,24.480248 L23,11.5623562 C23,10.7264926 22.31,10 21.4666667,10 Z" id="Shape" stroke="#E54894" stroke-width="2" stroke-linecap="round" stroke-linejoin="round"></path>
            <path d="M5,10.9438262 L5,25.9438262" id="Line-7" stroke="#E54894" stroke-width="2" stroke-linecap="square"></path>
            <g id="Group-26" transform="translate(13.043861, 13.020447)" stroke="#E54894" stroke-linecap="round" stroke-linejoin="round" stroke-width="1.5">
                <path d="M1.25,1.79853803 L9.5,1.79853803" id="Line-8"></path>
                <path d="M3.49951079,5.5171987 L9.5,5.5171987" id="Line-8-Copy"></path>
                <path d="M5.5,9.23585936 L9.5,9.23585936" id="Line-8-Copy-2"></path>
            </g>
        </g>
    </g>
</svg>