<?xml version="1.0" encoding="UTF-8"?>
<svg width="23px" height="29px" viewBox="0 0 23 29" version="1.1" xmlns="http://www.w3.org/2000/svg" xmlns:xlink="http://www.w3.org/1999/xlink">
    <!-- Generator: Sketch 45.2 (43514) - http://www.bohemiancoding.com/sketch -->
    <title>Group 6</title>
    <desc>Created with Sketch.</desc>
    <defs></defs>
    <g id="電子票券" stroke="none" stroke-width="1" fill="none" fill-rule="evenodd">
        <g id="MC0_會員中心" transform="translate(-31.000000, -461.000000)">
            <g id="Group-6" transform="translate(32.000000, 462.000000)">
                <path d="M-2.88760592,8.9142364 L-2.88760592,3.81385272 C-2.88760592,3.47344819 -2.62107025,3.19749579 -2.27453696,3.19749579 L23.4293254,3.19749579 C23.7679141,3.19749579 24.0423944,3.47305477 24.0423944,3.81385272 L24.0423944,8.78468101 C22.0927916,9.41778387 20.6798585,11.2871899 20.6798585,13.4948201 C20.6798585,15.7024503 22.0927916,17.5718564 24.0423944,18.2049593 L24.0423944,23.1757876 C24.0423944,23.5161921 23.7758587,23.7921445 23.4293254,23.7921445 L-2.27453696,23.7921445 C-2.6131256,23.7921445 -2.88760592,23.5165855 -2.88760592,23.1757876 L-2.88760592,18.0754039 C-1.12239146,17.342368 0.122748205,15.5676901 0.122748205,13.4948201 C0.122748205,11.4219502 -1.12239146,9.64727226 -2.88760592,8.9142364 Z" id="Combined-Shape-Copy-8" stroke="#A6A6A6" stroke-width="2" stroke-linecap="round" stroke-linejoin="round" transform="translate(10.577394, 13.494820) rotate(-270.000000) translate(-10.577394, -13.494820) "></path>
                <g id="index-掃描條碼3-copy-7" transform="translate(3.700001, 6.494820)">
                    <path d="M4.44327869,0 L0.852750455,0 C0.381493625,0 0.0224408015,0.410666667 0.0448816029,0.866962963 L0.0448816029,4.44888889 C0.0448816029,4.928 0.403934426,5.31585185 0.852750455,5.31585185 L4.44327869,5.31585185 C4.91453552,5.31585185 5.27358834,4.90518519 5.25114754,4.44888889 L5.25114754,0.889777778 C5.25114754,0.410666667 4.89209472,0.0228148148 4.44327869,0 Z" id="Shape" stroke="#A6A6A6" stroke-width="1.00396825" stroke-linecap="round" stroke-linejoin="round"></path>
                    <path d="M0.0448816029,6.84444444 L2.37872495,6.84444444" id="Shape" stroke="#A6A6A6" stroke-width="1.00396825" stroke-linecap="round" stroke-linejoin="round"></path>
                    <path d="M3.97202186,6.84444444 L6.59759563,6.84444444" id="Shape" stroke="#A6A6A6" stroke-width="1.00396825" stroke-linecap="round" stroke-linejoin="round"></path>
                    <path d="M12.656612,0 L9.06608379,0 C8.59482696,0 8.23577413,0.410666667 8.25821494,0.866962963 L8.25821494,4.44888889 C8.25821494,4.928 8.61726776,5.31585185 9.06608379,5.31585185 L12.656612,5.31585185 C13.1278689,5.31585185 13.4869217,4.90518519 13.4644809,4.44888889 L13.4644809,0.889777778 C13.4869217,0.410666667 13.1278689,0.0228148148 12.656612,0 Z" id="Shape" stroke="#A6A6A6" stroke-width="1.00396825" stroke-linecap="round" stroke-linejoin="round"></path>
                    <path d="M4.44327869,8.35022222 L0.852750455,8.35022222 C0.381493625,8.35022222 0.0224408015,8.76088889 0.0448816029,9.21718519 L0.0448816029,12.7991111 C0.0448816029,13.2782222 0.403934426,13.6660741 0.852750455,13.6660741 L4.44327869,13.6660741 C4.91453552,13.6660741 5.27358834,13.2554074 5.25114754,12.7991111 L5.25114754,9.24 C5.25114754,8.76088889 4.89209472,8.37303704 4.44327869,8.35022222 Z" id="Shape" stroke="#A6A6A6" stroke-width="1.00396825" stroke-linecap="round" stroke-linejoin="round"></path>
                    <path d="M6.6,9.6962963 L6.6,4.10666667" id="Shape" stroke="#A6A6A6" stroke-width="1.00396825" stroke-linecap="round" stroke-linejoin="round"></path>
                    <path d="M6.6,0.0456296296 L6.6,2.39555556" id="Shape" stroke="#A6A6A6" stroke-width="1.00396825" stroke-linecap="round" stroke-linejoin="round"></path>
                    <path d="M6.6,11.2933333 L6.6,13.6660741" id="Shape" stroke="#A6A6A6" stroke-width="1.00396825" stroke-linecap="round" stroke-linejoin="round"></path>
                    <path d="M13.4644809,8.80651852 L13.4644809,11.1564444 C13.4869217,12.5253333 12.432204,13.6432593 11.0857559,13.6888889 L8.30309654,13.6888889" id="Shape" stroke="#A6A6A6" stroke-width="1.00396825" stroke-linecap="round" stroke-linejoin="round"></path>
                    <path d="M11.1081967,6.84444444 L13.4420401,6.84444444" id="Shape" stroke="#A6A6A6" stroke-width="1.00396825" stroke-linecap="round" stroke-linejoin="round"></path>
                    <path d="M8.25821494,11.8408889 L8.25821494,10.1297778 C8.23577413,9.26281481 8.90899818,8.55555556 9.73930783,8.53274074 L11.5794536,8.53274074" id="Shape" stroke="#A6A6A6" stroke-width="1.00396825" stroke-linecap="round" stroke-linejoin="round"></path>
                    <path d="M9.92260577,10.5051799 L11.4226058,12.0051799" id="Path-2" stroke="#A6A6A6" stroke-linecap="round" stroke-linejoin="round"></path>
                    <rect id="Rectangle" fill="#A6A6A6" x="1.64801457" y="1.65792593" width="2" height="2"></rect>
                    <rect id="Rectangle-Copy" fill="#A6A6A6" x="9.86134791" y="1.65792593" width="2" height="2"></rect>
                    <rect id="Rectangle-Copy-2" fill="#A6A6A6" x="1.64801457" y="10.0081481" width="2" height="2"></rect>
                </g>
            </g>
        </g>
    </g>
</svg>