<?xml version="1.0" encoding="UTF-8" standalone="no"?>
<svg width="64px" height="64px" viewBox="0 0 64 64" version="1.1" xmlns="http://www.w3.org/2000/svg" xmlns:xlink="http://www.w3.org/1999/xlink">
    <!-- Generator: Sketch 39.1 (31720) - http://www.bohemiancoding.com/sketch -->
    <title>icon-repair-c</title>
    <desc>Created with Sketch.</desc>
    <defs></defs>
    <g id="Page-7" stroke="none" stroke-width="1" fill="none" fill-rule="evenodd">
        <g id="icon-repair-c" fill="#6F7274">
            <path d="M57.0885,54.9803 L57.0885,53.3863 C57.1325,52.0293 56.0645,50.8813 54.6885,50.8263 L51.7085,50.8263 C51.5565,50.3263 51.3865,49.8463 51.2045,49.3393 C51.0545,48.9653 50.8975,48.6123 50.7385,48.2563 C50.6845,48.1333 50.6305,48.0113 50.5755,47.8883 L52.7325,45.5803 C53.6215,44.5653 53.6215,43.0363 52.7225,42.0103 L46.7155,35.5653 C46.2925,35.1143 45.7185,34.8543 45.0995,34.8353 C44.4855,34.8033 43.8915,35.0393 43.4405,35.4623 C43.3985,35.5023 43.3565,35.5433 43.3205,35.5823 L41.2155,37.8483 C40.8325,37.6473 40.4075,37.4433 39.9075,37.2163 C39.4525,37.0113 38.9985,36.8383 38.5335,36.6613 L38.5335,33.4243 C38.5615,32.7713 38.3325,32.1463 37.8915,31.6643 C37.4485,31.1833 36.8455,30.9023 36.1495,30.8733 L27.6865,30.8733 C27.0285,30.8893 26.4165,31.1613 25.9635,31.6373 C25.5095,32.1143 25.2695,32.7383 25.2865,33.4033 L25.2865,36.6563 C24.3735,36.9893 23.4825,37.3893 22.6285,37.8493 L20.5145,35.5853 C19.6395,34.6403 18.1595,34.5823 17.2115,35.4593 L11.2205,41.9023 C11.1505,41.9483 11.0915,42.0123 11.0495,42.0883 C10.1915,43.1043 10.2105,44.5953 11.1135,45.5983 L13.2635,47.8893 C13.0495,48.3463 12.8245,48.8463 12.6365,49.3643 L12.5885,49.4993 C12.4325,49.9293 12.2725,50.3713 12.1345,50.8343 L9.1305,50.8343 C7.7825,50.8853 6.7145,52.0253 6.7505,53.3613 L6.7505,54.6643 C6.2535,53.7313 5.9785,52.6603 6.0035,51.5183 L6.0025,24.9073 L58.0025,24.9073 L58.0035,51.5853 C58.0305,52.8263 57.6885,53.9903 57.0885,54.9803 L57.0885,54.9803 Z M51.9405,58.0003 L44.1335,58.0003 C44.1345,57.9733 44.1375,57.9453 44.1375,57.9193 C44.1375,50.6833 38.6595,44.7983 31.9275,44.7983 C25.1875,44.7983 19.7035,50.6833 19.7035,57.9193 C19.7035,57.9463 19.7055,57.9733 19.7065,58.0003 L12.1345,58.0013 C11.9315,57.9963 11.7315,57.9803 11.5345,57.9563 L11.5345,55.9133 L13.9555,55.9133 C15.1495,55.8813 16.1325,54.9983 16.2855,53.8623 C16.4925,52.9893 16.7545,52.1223 17.0595,51.2913 C17.3965,50.4233 17.8055,49.5733 18.2795,48.7623 C18.8685,47.7323 18.6915,46.4303 17.8625,45.6113 L16.1845,43.8043 L18.8115,40.9783 L20.4875,42.8053 C21.2485,43.6563 22.5355,43.8153 23.4855,43.1733 C24.9375,42.1763 26.5405,41.4563 28.2625,41.0263 C29.3585,40.7213 30.1055,39.7143 30.0785,38.5893 L30.0785,35.9583 L33.7345,35.9583 L33.7345,38.5823 C33.7195,39.7573 34.5395,40.8003 35.6725,41.0593 C36.4815,41.2683 37.2785,41.5473 38.0395,41.8843 C38.8485,42.2533 39.6325,42.6883 40.3715,43.1793 C41.3685,43.8333 42.6875,43.6303 43.4145,42.7233 L45.0255,40.9773 L47.6415,43.8023 L45.9005,45.6633 C45.1065,46.5533 44.9935,47.8363 45.6095,48.8353 C46.0535,49.6253 46.4465,50.4523 46.7745,51.2843 C47.0905,52.1433 47.3565,53.0323 47.5585,53.8963 C47.7545,55.0293 48.7305,55.8803 49.8965,55.9193 L52.2875,55.9193 L52.2875,57.9743 C52.1715,57.9833 52.0575,57.9973 51.9405,58.0003 L51.9405,58.0003 Z M22.9815,58.0003 C22.9805,57.9733 22.9785,57.9463 22.9785,57.9193 C22.9785,52.5933 26.9925,48.2603 31.9275,48.2603 C36.8475,48.2603 40.8495,52.5933 40.8495,57.9193 C40.8495,57.9463 40.8465,57.9733 40.8455,58.0003 L22.9815,58.0003 Z M12.0655,6.0003 L51.9015,6.0003 C55.3455,6.0963 58.0795,8.9673 58.0025,12.4823 L58.0025,18.9073 L6.0025,18.9073 L6.0025,12.4163 C5.9255,8.9583 8.6775,6.0793 12.0655,6.0003 L12.0655,6.0003 Z M64.0015,12.5483 C64.1505,5.7853 58.7725,0.1563 52.0095,0.0013 C51.9855,0.0003 51.9635,0.0003 51.9405,0.0003 L11.9955,0.0013 C5.2345,0.1583 -0.1455,5.7863 0.0035,12.4823 L0.0035,51.4523 C-0.1455,58.2143 5.2345,63.8413 12.0655,64.0003 L52.0095,63.9993 C58.7725,63.8423 64.1505,58.2143 64.0025,51.5183 L64.0015,12.5483 Z M30.3921,16.3111 C32.4261,16.3111 34.0751,14.6691 34.0751,12.6431 C34.0751,10.6171 32.4261,8.9751 30.3921,8.9751 C28.3581,8.9751 26.7091,10.6171 26.7091,12.6431 C26.7091,14.6691 28.3581,16.3111 30.3921,16.3111 Z M40.8812,16.32 C42.9042,16.532 44.7162,15.064 44.9282,13.041 C44.9292,13.033 44.9302,13.026 44.9302,13.018 C45.1382,11.004 43.6732,9.202 41.6582,8.995 C41.6552,8.995 41.6522,8.994 41.6492,8.994 C39.6262,8.782 37.8142,10.25 37.6022,12.273 C37.3902,14.296 38.8582,16.108 40.8812,16.32 Z M50.8502,16.32 C52.8732,16.532 54.6852,15.064 54.8972,13.041 C54.8982,13.033 54.8992,13.026 54.8992,13.018 C55.1072,11.004 53.6422,9.202 51.6272,8.995 C51.6242,8.995 51.6212,8.994 51.6182,8.994 C49.5952,8.782 47.7832,10.25 47.5712,12.273 C47.3592,14.296 48.8272,16.108 50.8502,16.32 Z" id="Combined-Shape"></path>
        </g>
    </g>
</svg>