<?xml version="1.0" encoding="UTF-8" standalone="no"?>
<svg width="64px" height="64px" viewBox="0 0 64 64" version="1.1" xmlns="http://www.w3.org/2000/svg" xmlns:xlink="http://www.w3.org/1999/xlink">
    <!-- Generator: Sketch 39.1 (31720) - http://www.bohemiancoding.com/sketch -->
    <title>icon-grid-list</title>
    <desc>Created with Sketch.</desc>
    <defs></defs>
    <g id="base" stroke="none" stroke-width="1" fill="none" fill-rule="evenodd">
        <g id="icon-grid-list" fill="#B3B9C5">
            <path d="M24,2 L62,2 L62,16 L24,16 L24,2 Z M24,25 L62,25 L62,39 L24,39 L24,25 Z M24,48 L62,48 L62,62 L24,62 L24,48 Z M2,2 L16,2 L16,16 L2,16 L2,2 Z M2,25 L16,25 L16,39 L2,39 L2,25 Z M2,48 L16,48 L16,62 L2,62 L2,48 Z" id="Combined-Shape"></path>
        </g>
    </g>
</svg>