<?xml version="1.0" encoding="UTF-8" standalone="no"?>
<svg width="64px" height="64px" viewBox="0 0 64 64" version="1.1" xmlns="http://www.w3.org/2000/svg" xmlns:xlink="http://www.w3.org/1999/xlink">
    <!-- Generator: Sketch 39.1 (31720) - http://www.bohemiancoding.com/sketch -->
    <title>icon-exclamation-triangle</title>
    <desc>Created with Sketch.</desc>
    <defs></defs>
    <g id="form-/-home" stroke="none" stroke-width="1" fill="none" fill-rule="evenodd">
        <g id="icon-exclamation-triangle" fill="#6F7274">
            <path d="M61.430245,53.3304075 L35.7462013,6.24087319 C35.3669071,5.54960548 34.8431199,5.00324127 34.1731978,4.60219105 C33.5049176,4.20073035 32.7799896,4 31.9996452,4 C31.2193008,4 30.4943728,4.20114084 29.8256821,4.60219105 C29.1569914,5.00324127 28.6327938,5.54960548 28.2539101,6.24087319 L2.56904541,53.3304075 C1.78870104,54.73552 1.81086758,56.140222 2.63595553,57.5449239 C3.01524969,58.1910376 3.53370048,58.704152 4.19130788,59.0826251 C4.84932579,59.4619193 5.55701316,59.6519769 6.31519099,59.6519769 L57.6845099,59.6519769 C58.4435087,59.6519769 59.1507856,59.4619193 59.8088035,59.0826251 C60.4668214,58.704152 60.9844512,58.1910376 61.3641558,57.5449239 C62.1892438,56.1398115 62.2114103,54.73552 61.430245,53.3304075 L61.430245,53.3304075 Z M36.2814822,49.9857226 C36.2814822,50.2976962 36.1751649,50.5595898 35.9641723,50.7714034 C35.7523586,50.983217 35.5015483,51.0887133 35.2113308,51.0887133 L28.790012,51.0887133 C28.500205,51.0887133 28.2493947,50.983217 28.0375811,50.7714034 C27.8257674,50.5591793 27.7198606,50.2976962 27.7198606,49.9857226 L27.7198606,43.631314 C27.7198606,43.3193404 27.8257674,43.0578573 28.0375811,42.8456332 C28.2493947,42.6338196 28.4997945,42.5283233 28.790012,42.5283233 L35.2109203,42.5283233 C35.5011378,42.5283233 35.7519481,42.6338196 35.9637618,42.8456332 C36.1751649,43.0578573 36.2810717,43.3193404 36.2810717,43.631314 L36.2810717,49.9857226 L36.2814822,49.9857226 Z M36.2149826,37.4780461 C36.191995,37.700943 36.075005,37.8848432 35.8636018,38.0297467 C35.6513777,38.1750607 35.3898946,38.2468967 35.0775106,38.2468967 L28.8901719,38.2468967 C28.5781984,38.2468967 28.3105579,38.1746502 28.087661,38.0297467 C27.8643536,37.8844327 27.7531104,37.700943 27.7531104,37.4772251 L27.1845797,22.1942155 C27.1845797,21.8818314 27.2962334,21.6478513 27.5191303,21.4918645 C27.8089373,21.2468011 28.0765778,21.1240641 28.3220517,21.1240641 L35.6797016,21.1240641 C35.9251756,21.1240641 36.192816,21.2463906 36.482623,21.4918645 C36.7055199,21.6478513 36.8163526,21.8596649 36.8163526,22.1273054 L36.2149826,37.4780461 L36.2149826,37.4780461 Z" id="Shape"></path>
        </g>
    </g>
</svg>