<?xml version="1.0" encoding="UTF-8"?>
<svg width="32px" height="32px" viewBox="0 0 32 32" version="1.1" xmlns="http://www.w3.org/2000/svg" xmlns:xlink="http://www.w3.org/1999/xlink">
    <!-- Generator: Sketch 52.5 (67469) - http://www.bohemiancoding.com/sketch -->
    <title>icon-doc-b_</title>
    <desc>Created with Sketch.</desc>
    <g id="icon-doc-b_" stroke="none" stroke-width="1" fill="none" fill-rule="evenodd" stroke-linecap="round" stroke-linejoin="round">
        <g id="Group-9" transform="translate(4.000000, 4.000000)" stroke="#0290D5" stroke-width="2">
            <path d="M19,6 L5,6" id="Stroke-2"></path>
            <path d="M11.4205714,18 L5,18" id="Stroke-3"></path>
            <path d="M18.9560095,12 L5,12" id="Stroke-4"></path>
            <path d="M10.8992887,23.9999995 L4.53874953,23.9999995 C2.03294646,24.0011628 0.00112317484,21.8991853 0,19.3051567 L0,4.69484326 C0.00112317484,2.10081467 2.03294646,-0.00116275895 4.53762636,4.82573426e-07 L19.4623736,4.82573426e-07 C21.9670535,-0.00116275895 23.9988768,2.10081467 24,4.69484326 L24,17.6498641 C24,18.8701044 19.188319,23.9999995 17.8618495,23.9999995 L17,23.9999995" id="Stroke-5"></path>
            <path d="M17,24 L17,20.838884 C17.0009775,18.7181626 18.5591398,16.9989213 20.4809384,17.0000005 L20.4819159,17.0000005 L23,17.0000005" id="Stroke-7"></path>
        </g>
    </g>
</svg>