<?xml version="1.0" encoding="UTF-8"?>
<svg width="64px" height="64px" viewBox="0 0 64 64" version="1.1" xmlns="http://www.w3.org/2000/svg" xmlns:xlink="http://www.w3.org/1999/xlink">
    <!-- Generator: Sketch 43.2 (39069) - http://www.bohemiancoding.com/sketch -->
    <title>icon-nav-forcer-color</title>
    <desc>Created with Sketch.</desc>
    <defs></defs>
    <g id="menu" stroke="none" stroke-width="1" fill="none" fill-rule="evenodd">
        <g id="icon-nav-forcer-color" fill="#09B4B4">
            <path d="M61.556,4 C62.912,4 64.011,5.1 64.011,6.456 C64.011,7.813 62.912,8.912 61.556,8.912 L59.374,8.912 L59.374,58.186 C59.357,58.99 58.709,59.639 57.905,59.655 L6.091,59.655 C5.287,59.638 4.639,58.991 4.622,58.187 L4.622,8.912 L2.456,8.912 C1.099,8.912 0,7.812 0,6.456 C0,5.099 1.099,4 2.456,4 L61.556,4 Z M9.595,22.035 L54.422,22.035 L54.422,8.912 L9.595,8.912 L9.595,22.035 Z M9.595,38.625 L54.422,38.625 L54.422,25.99 L9.595,25.99 L9.595,38.625 Z M9.595,54.702 L54.422,54.702 L54.422,42.597 L9.595,42.597 L9.595,54.702 Z M32.1715,18.535 C30.3305,18.535 28.8385,17.043 28.8385,15.202 C28.8385,13.361 30.3305,11.869 32.1715,11.869 C34.0125,11.869 35.5045,13.361 35.5045,15.202 C35.5045,17.043 34.0125,18.535 32.1715,18.535 Z M32.1715,35.868 C30.3305,35.868 28.8385,34.376 28.8385,32.535 C28.8385,30.694 30.3305,29.202 32.1715,29.202 C34.0125,29.202 35.5045,30.694 35.5045,32.535 C35.5045,34.376 34.0125,35.868 32.1715,35.868 Z M32.1715,52.368 C30.3305,52.368 28.8385,50.876 28.8385,49.035 C28.8385,47.194 30.3305,45.702 32.1715,45.702 C34.0125,45.702 35.5045,47.194 35.5045,49.035 C35.5045,50.876 34.0125,52.368 32.1715,52.368 Z" id="Combined-Shape"></path>
        </g>
    </g>
</svg>