<svg id="圖層_1" data-name="圖層 1" xmlns="http://www.w3.org/2000/svg" width="64" height="64" viewBox="0 0 64 64">
  <defs>
    <style>
      .cls-1 {
        fill: #6f7274;
      }
    </style>
  </defs>
  <title>icon-mail-verify-success</title>
  <path class="cls-1" d="M51.92,1.5H12.09A12,12,0,0,0,0,13.38V43.65A12,12,0,0,0,12,55.5H35a15.84,15.84,0,0,0,29-8.84h0V13.35A12,12,0,0,0,51.92,1.5ZM12,7.5H52a5.86,5.86,0,0,1,.94.08L31.58,29,10.35,7.73A6,6,0,0,1,12,7.5Zm0,42H12a6,6,0,0,1-6-5.88V13.41a6.11,6.11,0,0,1,.18-1.36L29.46,35.32a3,3,0,0,0,4.25,0L57.63,11.41a5.89,5.89,0,0,1,.37,2V34.27A15.82,15.82,0,0,0,32.33,46.66a16.57,16.57,0,0,0,.26,2.84Zm36.13,8A10.84,10.84,0,1,1,56.7,40L48,48.73l-4.95-5a1.46,1.46,0,0,0-1-.42h0a1.46,1.46,0,0,0-1,.42,1.44,1.44,0,0,0,0,2l5.77,5.78.06.06.13.15a1.46,1.46,0,0,0,1,.42h0a1.44,1.44,0,0,0,1-.43l9.21-9.21a10.83,10.83,0,0,1-10,14.92Z"/>
</svg>
