<?xml version="1.0" encoding="UTF-8"?>
<svg width="64px" height="64px" viewBox="0 0 64 64" version="1.1" xmlns="http://www.w3.org/2000/svg" xmlns:xlink="http://www.w3.org/1999/xlink">
    <!-- Generator: Sketch 43.2 (39069) - http://www.bohemiancoding.com/sketch -->
    <title>icon-nav-drug-color</title>
    <desc>Created with Sketch.</desc>
    <defs></defs>
    <g id="menu" stroke="none" stroke-width="1" fill="none" fill-rule="evenodd">
        <g id="icon-nav-drug-color" fill="#45B035">
            <path d="M53.423,18.984 C55.038,21.235 55.906,23.935 55.905,26.705 L55.905,50.674 C55.884,58.017 49.941,63.968 42.598,64 L22.307,64 C14.97,63.954 9.036,58.011 9,50.674 L9,26.701 C8.999,23.933 9.867,21.234 11.48,18.984 C12.733,17.261 14.369,15.852 16.259,14.869 L16.259,10.531 L16.259,10.527 C16.261,9.087 17.43,7.92 18.87,7.922 L19.255,7.922 L19.255,1.562 L19.255,1.548 C19.254,0.694 19.945,0.001 20.799,0 L44.104,0 L44.141,0 C44.988,0.016 45.661,0.715 45.645,1.562 L45.645,7.922 L46.053,7.922 L46.073,7.922 C47.509,7.927 48.669,9.095 48.664,10.531 L48.664,14.865 C50.556,15.839 52.187,17.252 53.423,18.984 Z M42.594,58.761 C44.733,58.773 46.787,57.925 48.294,56.408 C49.444,55.255 50.21,53.793 50.515,52.217 L14.411,52.217 C14.718,53.787 15.474,55.247 16.607,56.408 C18.121,57.916 20.17,58.762 22.307,58.761 L42.594,58.761 Z M14.256,48.217 L14.256,28.717 L50.669,28.717 L50.666,48.217 L14.256,48.217 Z M19.713,19.061 C20.768,18.703 21.478,17.712 21.477,16.597 L21.477,13.142 L43.445,13.142 L43.445,16.597 C43.438,17.767 44.212,18.797 45.338,19.115 C46.882,19.682 48.221,20.701 49.179,22.038 C49.761,22.848 50.16,23.761 50.402,24.717 L14.531,24.717 C15.195,22.122 17.099,19.963 19.713,19.061 Z M22.361,7.924 L22.361,3.124 L42.561,3.124 L42.561,7.924 L22.361,7.924 Z M40.0872,36.6204 C40.5682,37.1034 40.8342,37.7454 40.8332,38.4274 C40.8322,39.1094 40.5662,39.7504 40.0842,40.2314 C39.6022,40.7134 38.9612,40.9774 38.2802,40.9774 L38.2772,40.9774 L34.9972,40.9774 L34.9932,44.3714 C34.9832,44.9914 34.7082,45.6184 34.2242,46.0834 C33.7512,46.5374 33.1352,46.7844 32.4822,46.7844 C32.4602,46.7844 32.4372,46.7834 32.4162,46.7844 C31.0592,46.7844 29.9152,45.6634 29.8892,44.2784 L29.8892,40.9774 L26.6422,40.9774 C25.9602,40.9774 25.3192,40.7124 24.8372,40.2284 C24.3552,39.7464 24.0902,39.1054 24.0902,38.4234 C24.0912,37.7404 24.3582,37.0994 24.8402,36.6184 C25.3222,36.1374 25.9622,35.8724 26.6432,35.8724 L26.6462,35.8724 L29.8892,35.8724 L29.8892,32.6074 C29.8892,31.1944 31.0382,30.0454 32.4512,30.0454 C33.9272,30.0804 35.0302,31.2414 34.9972,32.6314 L34.9972,35.8724 L38.2782,35.8724 C38.9632,35.8724 39.6052,36.1384 40.0872,36.6204 Z" id="Combined-Shape"></path>
        </g>
    </g>
</svg>