<?xml version="1.0" encoding="UTF-8"?>
<svg width="64px" height="57px" viewBox="0 0 64 57" version="1.1" xmlns="http://www.w3.org/2000/svg" xmlns:xlink="http://www.w3.org/1999/xlink">
    <!-- Generator: Sketch 48.2 (47327) - http://www.bohemiancoding.com/sketch -->
    <title>icon-mail-verify-failed</title>
    <desc>Created with Sketch.</desc>
    <defs></defs>
    <g id="Artboard" stroke="none" stroke-width="1" fill="none" fill-rule="evenodd" transform="translate(0.000000, -4.000000)">
        <g id="icon-mail-verify-failed" transform="translate(0.000000, 4.000000)" fill="#F61A13" fill-rule="nonzero">
            <path d="M51.13,21.19 L51.13,9.51 C51.0695737,4.22208593 46.7481541,-0.0233624701 41.46,0.01 L9.67,0.01 C4.39290229,0.00381331831 0.0874017787,4.23362251 0,9.51 L0,33.72 C0.0760876351,38.9273381 4.30220497,43.1179045 9.51,43.15 L28.3,43.15 C30.5321549,51.5998728 38.4693645,57.2590413 47.1853387,56.615099 C55.9013128,55.9711566 62.9206773,49.2069858 63.8868096,40.5208212 C64.8529419,31.8346567 59.4914563,23.6934064 51.13,21.15 L51.13,21.19 Z M9.67,4.8 L41.62,4.8 C41.8627666,4.78688175 42.1060342,4.81391148 42.34,4.88 L25.25,21.98 L8.31,4.96 C8.75622713,4.85772167 9.2122196,4.80407549 9.67,4.8 Z M27.7,38.36 L9.59,38.36 C6.97159482,38.3658315 4.83372481,36.2680466 4.79,33.65 L4.79,9.51 C4.81817862,9.12019683 4.88859112,8.7346046 5,8.36 L23.57,27.01 C24.0155622,27.4586032 24.6178652,27.716733 25.25,27.73 C25.8824325,27.7320029 26.487284,27.4712285 26.92,27.01 L46,7.91 C46.1906866,8.42303262 46.2986981,8.96309045 46.32,9.51 L46.32,20.43 C46.15,20.43 45.99,20.43 45.82,20.43 C35.8930107,20.4456791 27.8203149,28.4337275 27.7,38.36 Z M47.88,49.13 C47.3452622,49.651693 46.627062,49.9425641 45.88,49.94 C45.1314664,49.9502951 44.4104151,49.6582693 43.88,49.13 C43.358307,48.5952622 43.0674359,47.877062 43.07,47.13 C43.0630733,46.3821025 43.3545925,45.6623021 43.88,45.13 C44.9979518,44.058225 46.7620482,44.058225 47.88,45.13 C48.960335,46.2211651 48.960335,47.9788349 47.88,49.07 L47.88,49.13 Z M49.13,31.51 L48.13,40.79 C48.0744604,41.3799504 47.7853734,41.9232137 47.3270929,42.2988534 C46.8688125,42.6744931 46.2793765,42.8513306 45.69,42.79 C44.6369949,42.6744514 43.8055486,41.8430051 43.69,40.79 L42.69,31.51 C42.5092326,30.3209174 42.9999425,29.1292208 43.9655928,28.4122035 C44.9312431,27.6951862 46.2139313,27.5700944 47.2999206,28.0870292 C48.3859098,28.6039639 49.09762,29.6783967 49.15,30.88 C49.1633283,31.090159 49.1566314,31.3011095 49.13,31.51 Z" id="Shape"></path>
        </g>
    </g>
</svg>