<?xml version="1.0" encoding="UTF-8"?>
<svg width="64px" height="64px" viewBox="0 0 64 64" version="1.1" xmlns="http://www.w3.org/2000/svg" xmlns:xlink="http://www.w3.org/1999/xlink">
    <!-- Generator: Sketch 41.2 (35397) - http://www.bohemiancoding.com/sketch -->
    <title>icon-thumbs-up-light</title>
    <desc>Created with Sketch.</desc>
    <defs></defs>
    <g id="member" stroke="none" stroke-width="1" fill="none" fill-rule="evenodd">
        <g id="icon-thumbs-up-light" fill="#A3A5A6">
            <path d="M56,50 L56,45 L47.4955452,45 C46.6695784,45 46,44.3342028 46,43.5 C46,42.6715729 46.6795545,42 47.4955452,42 L56,42 L56,37 L44.4930964,37 C43.668482,37 43,36.3342028 43,35.5 C43,34.6715729 43.6638858,34 44.4930964,34 L56,34 L56,29.0017433 C56,27.8892617 55.1086374,27 54.0090859,27 L31,27 L31,13.4912964 C31,11.5612566 29.4513596,9.77876565 27.5410148,9.50585926 L24.9880824,9.14115463 C24.4378814,9.06255448 24,9.44881738 24,10.0024617 L24,27 L16,27 L16,59 L54.0090859,59 C55.1109357,59 56,58.103789 56,56.9982567 L56,53 L49.497101,53 C48.670275,53 48,52.3342028 48,51.5 C48,50.6715729 48.671656,50 49.497101,50 L56,50 Z M12,27 L7.99091407,27 C6.88906428,27 6,27.896211 6,29.0017433 L6,56.9982567 C6,58.1107383 6.89136259,59 7.99091407,59 L12,59 L12,27 Z M19,22 L5.0065556,22 C2.79568082,22 1,23.7944925 1,26.0081112 L1,59.9918888 C1,62.2087482 2.79379604,64 5.0065556,64 L56.9934444,64 C59.2043192,64 61,62.2055075 61,59.9918888 L61,26.0081112 C61,23.7912518 59.206204,22 56.9934444,22 L36,22 L36,13.5057744 C36,8.80699156 32.2167186,4.55490807 27.5498044,4.00585935 L22.9642898,3.46638703 C20.787167,3.21025494 19,4.78640758 19,6.99005301 L19,22 Z M55.8,16.209 C55.809,15.3 56.124,10.8 61.2,10.8 C62.217,10.773 63,9.981 63,9 C63,8.01 62.199,7.209 61.209,7.2 C60.3,7.191 55.8,6.876 55.8,1.8 C55.8,0.801 54.999,0 54,0 C53.001,0 52.2,0.801 52.2,1.8 C52.2,6.876 47.7,7.191 46.791,7.2 C45.801,7.209 45,8.01 45,9 C45,9.999 45.801,10.8 46.8,10.8 C51.885,10.8 52.191,15.309 52.2,16.2 L52.2,16.254 C52.227,17.226 53.019,18 54,18 C54.99,18 55.791,17.199 55.8,16.209 Z" id="Combined-Shape"></path>
        </g>
    </g>
</svg>