<?xml version="1.0" encoding="UTF-8"?>
<svg width="88px" height="44px" viewBox="0 0 88 44" version="1.1" xmlns="http://www.w3.org/2000/svg" xmlns:xlink="http://www.w3.org/1999/xlink">
    <!-- Generator: Sketch 41.2 (35397) - http://www.bohemiancoding.com/sketch -->
    <title>icon-card-master</title>
    <desc>Created with Sketch.</desc>
    <defs></defs>
    <g id="Page-1" stroke="none" stroke-width="1" fill="none" fill-rule="evenodd">
        <g id="Desktop-HD" transform="translate(-828.000000, -423.000000)">
            <g id="2_Master" transform="translate(616.000000, 403.000000)">
                <g id="logo" transform="translate(212.000000, 20.000000)">
                    <polygon id="Fill-2" fill="#F2AD3D" points="68.3477386 42.4501628 69.3769206 42.3735314 70.3858943 42.2409999 71.3876507 42.0588616 72.3619815 41.8282271 73.3233213 41.548356 74.263731 41.2199888 75.1839323 40.8494188 76.0832035 40.4299824 76.9557709 39.975377 77.8009127 39.4719053 78.6254852 38.9336347 79.4161367 38.3535316 80.1793625 37.7382595 80.9155235 37.0878184 81.6174026 36.395915 82.2922169 35.6755061 82.9258928 34.9202985 83.5256475 34.1373259 84.0914811 33.3265883 84.6161763 32.4803115 85.1069504 31.6133036 85.5497296 30.7185306 85.9589485 29.7956225 86.3201727 28.8516129 86.6402584 27.8868722 86.913071 26.9010301 87.1378888 25.9011204 87.3150727 24.8734457 87.4446226 23.8387372 87.5196821 22.7829274 87.5467469 21.7134201 87.5196821 20.6505764 87.4446226 19.6018003 87.3150727 18.5670919 87.1378888 17.5531146 86.913071 16.5532049 86.6402584 15.5747667 86.3201727 14.6096558 85.9589485 13.6726801 85.5497296 12.7568058 85.1069504 11.8620328 84.6161763 11.0020586 84.0914811 10.156152 83.5256475 9.34504425 82.9258928 8.56873523 82.2922169 7.81389781 81.6174026 7.09385917 80.9155235 6.40824911 80.1793625 5.75817823 79.4161367 5.14290614 78.6254852 4.56280303 77.8009127 4.0241623 76.9557709 3.52772434 76.0832035 3.07348917 75.1839323 2.65405278 74.263731 2.28348276 73.3233213 1.95474532 72.3619815 1.67524446 71.3876507 1.44423978 70.3858943 1.26247167 69.3769206 1.12956994 68.3477386 1.05293857 67.3052046 1.02480339 66.2691662 1.05293857 65.240345 1.12956994 64.2313713 1.26247167 63.2364713 1.44423978 62.2617796 1.67524446 61.3008007 1.95474532 60.3672475 2.28348276 59.4470461 2.65405278 58.5542704 3.07348917 57.6889203 3.52772434 56.8437785 4.0241623 56.0257015 4.56280303 55.2350501 5.14290614 54.4718243 5.75817823 53.7425196 6.40824911 53.0406406 7.09385917 52.3726827 7.81389781 51.7390068 8.56873523 51.139252 9.34504425 50.5802748 10.156152 50.0555797 11.0020586 49.571662 11.8620328 49.1220264 12.7568058 48.7196638 13.6726801 48.3584397 14.6096558 48.0452104 15.5747667 47.7723978 16.5532049 47.54758 17.5531146 47.3703961 18.5670919 47.2408462 19.6018003 47.1657866 20.6505764 47.1387219 21.7134201 47.1657866 22.7829274 47.2408462 23.8387372 47.3703961 24.8734457 47.54758 25.9011204 47.7723978 26.9010301 48.0452104 27.8868722 48.3584397 28.8516129 48.7196638 29.7956225 49.1220264 30.7185306 49.571662 31.6133036 50.0555797 32.4803115 50.5802748 33.3265883 51.139252 34.1373259 51.7390068 34.9202985 52.3726827 35.6755061 53.0406406 36.395915 53.7425196 37.0878184 54.4718243 37.7382595 55.2350501 38.3535316 56.0257015 38.9336347 56.8437785 39.4719053 57.6889203 39.975377 58.5542704 40.4299824 59.4470461 40.8494188 60.3672475 41.2199888 61.3008007 41.548356 62.2617796 41.8282271 63.2364713 42.0588616 64.2313713 42.2409999 65.240345 42.3735314 66.2691662 42.4501628 67.3052046 42.478298"></polygon>
                    <polyline id="Fill-3" fill="#D82331" points="40.2754634 42.478298 41.3115019 42.4501628 42.3406839 42.3735314 43.3492967 42.2409999 44.3441968 42.0588616 45.3188884 41.8282271 46.2798673 41.548356 47.2134206 41.2199888 48.1336219 40.8494188 49.0263976 40.4299824 49.8921086 39.975377 50.7372504 39.4719053 51.5549665 38.9336347 52.3456179 38.3535316 53.1088437 37.7382595 53.8381484 37.0878184 54.5400275 36.395915 55.2079854 35.6755061 55.8416613 34.9202985 56.441416 34.1373259 57.0003932 33.3265883 57.5250884 32.4803115 58.009006 31.6133036 58.4590025 30.7185306 58.8610042 29.7956225 59.2222283 28.8516129 59.5358185 27.8868722 59.8082703 26.9010301 60.0330881 25.9011204 60.2102719 24.8734457 60.3398219 23.8387372 60.4148814 22.7829274 60.442307 21.7134201 60.4148814 20.6505764 60.3398219 19.6018003 60.2102719 18.5670919 60.0330881 17.5531146 59.8082703 16.5532049 59.5358185 15.5747667 59.2222283 14.6096558 58.8610042 13.6726801 58.4590025 12.7568058 58.009006 11.8620328 57.5250884 11.0020586 57.0003932 10.156152 56.441416 9.34504425 55.8416613 8.56873523 55.2079854 7.81389781 54.5400275 7.09385917 53.8381484 6.40824911 53.1088437 5.75817823 52.3456179 5.14290614 51.5549665 4.56280303 50.7372504 4.0241623 49.8921086 3.52772434 49.0263976 3.07348917 48.1336219 2.65405278 47.2134206 2.28348276 46.2798673 1.95474532 45.3188884 1.67524446 44.3441968 1.44423978 43.3492967 1.26247167 42.3406839 1.12956994 41.3115019 1.05293857 40.2754634 1.02480339 39.2329295 1.05293857 38.2037474 1.12956994 37.1951346 1.26247167 36.1930173 1.44423978 35.2186865 1.67524446 34.2577076 1.95474532 33.3172979 2.28348276 32.3970966 2.65405278 31.4974645 3.07348917 30.6248971 3.52772434 29.7801162 4.0241623 28.9551828 4.56280303 28.1645314 5.14290614 27.4013056 5.75817823 26.6651445 6.40824911 25.9632655 7.09385917 25.2884512 7.81389781 24.6547753 8.56873523 24.0550205 9.34504425 23.4895478 10.156152 22.9644917 11.0020586 22.4737177 11.8620328 22.0309385 12.7568058 21.6220804 13.6726801 21.2608562 14.6096558 20.9404097 15.5747667 20.6679579 16.5532049 20.4427792 17.5531146 20.2655954 18.5670919 20.1360455 19.6018003 20.0613468 20.6505764 20.0339211 21.7134201 20.0613468 22.7829274 20.1360455 23.8387372 20.2655954 24.8734457 20.4427792 25.9011204 20.6679579 26.9010301 20.9404097 27.8868722 21.2608562 28.8516129 21.6220804 29.7956225 22.0309385 30.7185306 22.4737177 31.6133036 22.9644917 32.4803115 23.4895478 33.3265883 24.0550205 34.1373259 24.6547753 34.9202985 25.2884512 35.6755061 25.9632655 36.395915 26.6651445 37.0878184 27.4013056 37.7382595 28.1645314 38.3535316 28.9551828 38.9336347 29.7801162 39.4719053 30.6248971 39.975377 31.4974645 40.4299824 32.3970966 40.8494188 33.3172979 41.2199888 34.2577076 41.548356 35.2186865 41.8282271 36.1930173 42.0588616 37.1951346 42.2409999 38.2037474 42.3735314 39.2329295 42.4501628 40.2754634 42.478298"></polyline>
                    <polyline id="Fill-4" fill="#F2AD3D" points="51.4254166 8.9264983 62.1596553 8.9264983 62.1596553 7.84869659 52.3524743 7.84869659 51.4254166 8.9264983"></polyline>
                    <polyline id="Fill-5" fill="#F2AD3D" points="49.817049 11.429435 62.1596553 11.429435 62.1596553 10.3519877 50.4644377 10.3519877 49.817049 11.429435"></polyline>
                    <polyline id="Fill-6" fill="#F2AD3D" points="48.6175395 13.9253064 62.1596553 13.9253064 62.1596553 12.8475047 49.0946008 12.8475047 48.6175395 13.9253064"></polyline>
                    <polyline id="Fill-7" fill="#F2AD3D" points="47.792967 16.4282431 62.1596553 16.4282431 62.1596553 15.3507959 48.1336219 15.3507959 47.792967 16.4282431"></polyline>
                    <polyline id="Fill-8" fill="#F2AD3D" points="48.2700282 28.5241361 62.1935765 28.5241361 62.1935765 27.4463344 47.9293733 27.4463344 48.2700282 28.5241361"></polyline>
                    <polyline id="Fill-9" fill="#F2AD3D" points="49.2992102 31.0270571 62.1935765 31.0270571 62.1935765 29.9492554 48.787867 29.9492554 49.2992102 31.0270571"></polyline>
                    <polyline id="Fill-10" fill="#F2AD3D" points="50.7441068 33.5233145 62.1935765 33.5233145 62.1935765 32.4455128 50.0555797 32.4455128 50.7441068 33.5233145"></polyline>
                    <polyline id="Fill-11" fill="#F2AD3D" points="52.7339068 36.0259357 62.1935765 36.0259357 62.1935765 34.9413999 51.7729279 34.9413999 52.7339068 36.0259357"></polyline>
                    <polyline id="Fill-12" fill="#F2AD3D" points="47.3090493 18.9244847 62.1596553 18.9244847 62.1596553 17.846683 47.5201544 17.846683 47.3090493 18.9244847"></polyline>
                    <polyline id="Fill-13" fill="#F2AD3D" points="56.3598609 26.0278946 62.023249 26.0278946 62.023249 24.9504473 56.5641095 24.9504473 56.3598609 26.0278946"></polyline>
                    <polyline id="Fill-14" fill="#F2AD3D" points="56.8094965 23.5316919 62.023249 23.5316919 62.023249 22.4471561 57.014106 22.4471561 56.8094965 23.5316919"></polyline>
                    <polyline id="Fill-15" fill="#F2AD3D" points="46.9341124 22.4471561 48.4064345 22.4471561 48.4064345 23.5316919 47.0023156 23.5316919 46.9341124 22.4471561"></polyline>
                    <polyline id="Fill-16" fill="#FFFFFF" points="44.1875821 21.0840804 44.0923142 21.0770466 43.9966854 21.062979 43.9082739 21.0489114 43.8195016 21.035214 43.7379465 21.0211464 43.6491741 21.0070788 43.5604017 20.9930113 43.4651338 20.9793139 43.3698659 20.9652463 43.2608852 20.9582125 43.1381917 20.9511787 43.0086418 20.9441449 42.8653791 20.9441449 42.7087644 20.9511787 42.5315806 20.9652463 42.3338275 20.9793139 42.1974212 21.000045 42.0678713 21.0211464 41.9520342 21.062979 41.8499099 21.1048116 41.7542811 21.153678 41.6658696 21.2099483 41.5976664 21.2799161 41.5363197 21.3424799 41.4955421 21.4194814 41.4612601 21.496483 41.4479082 21.5805184 41.4479082 21.6641835 41.4681165 21.7552527 41.4955421 21.8459516 41.5500325 21.9370208 41.6182356 22.0277197 41.7542811 22.1606215 41.918113 22.2657582 42.1090097 22.3564572 42.3132583 22.4334587 42.5315806 22.5034265 42.7563984 22.5800579 42.9812162 22.6640932 43.1991776 22.7551624 43.4037871 22.8736263 43.5946837 23.0205956 43.7650112 23.19533 43.9082739 23.412267 44.0172546 23.6777003 44.0854578 23.9923702 44.1125225 24.369974 44.0854578 24.8105118 44.037463 25.1392492 43.9559079 25.4257838 43.8469272 25.6915873 43.7105209 25.9222218 43.5539062 26.1250913 43.3763615 26.2998256 43.1858257 26.4534585 42.9743598 26.5863603 42.7563984 26.6911268 42.5315806 26.782196 42.2995455 26.8521637 42.0613757 26.9080639 41.8293407 26.9498965 41.6045228 26.9709979 41.379705 26.9850655 41.1682392 26.9917291 40.8752182 26.9917291 40.6027664 26.9850655 40.3642358 26.9850655 40.139418 26.9776615 39.9348085 26.9709979 39.7507682 26.9569303 39.5872972 26.9428627 39.4303217 26.9221315 39.2874198 26.9080639 39.1578699 26.8799287 39.02832 26.8591975 38.9124829 26.8240286 38.7966458 26.7962636 38.6876651 26.7540608 38.5783235 26.7122282 38.4628473 26.6703956 38.7692202 25.1251816 38.8309278 25.1392492 38.9056265 25.1599804 39.0008944 25.1881156 39.1170924 25.2158806 39.2397859 25.2440157 39.3758313 25.2721509 39.5259504 25.3069497 39.6894215 25.3350849 39.859749 25.3628499 40.0369328 25.3909851 40.2209731 25.4117163 40.4118697 25.4328176 40.6096228 25.4398514 40.807015 25.4468852 41.0047681 25.4468852 41.2025212 25.4398514 41.4002742 25.3976487 41.5568889 25.3417485 41.6795824 25.2651171 41.7748503 25.1670142 41.8430535 25.0692814 41.8975438 24.9574811 41.9318258 24.8456807 41.9588906 24.740544 41.9726034 24.5376745 41.9112566 24.3629402 41.7954195 24.2233748 41.625092 24.1045407 41.4204826 23.999404 41.181952 23.8946374 40.9159957 23.7969047 40.6504004 23.6847341 40.3779486 23.5592364 40.1188488 23.412267 39.8803182 23.2304989 39.6623567 23.0135618 39.4916684 22.7481286 39.3689749 22.4334587 39.3076282 22.0558549 39.3144846 21.6082833 39.3487666 21.3358163 39.3964005 21.0770466 39.4646037 20.8393783 39.5461588 20.6154074 39.6555003 20.4058743 39.7781939 20.2241062 39.9210957 20.0493719 40.091784 19.8953688 40.2891762 19.7624671 40.5071376 19.6506667 40.7525247 19.5459002 41.0253373 19.4688986 41.3320711 19.4059646 41.6658696 19.3570983 42.0339501 19.3289631 42.4359518 19.3219293 42.6881952 19.3219293 42.9198694 19.3289631 43.1313353 19.3359969 43.3218711 19.3430307 43.4925594 19.3570983 43.6491741 19.3711659 43.7855804 19.3848633 43.9082739 19.3989308 44.024111 19.4129984 44.1193789 19.4340998 44.2081513 19.4481674 44.2897064 19.4618648 44.3579096 19.4759324 44.4192563 19.4829662 44.4806031 19.4970338 44.5350934 19.5040676 44.1875821 21.0840804"></polyline>
                    <polyline id="Fill-18" fill="#FFFFFF" points="45.8028061 17.7770855 47.6908427 17.7770855 47.4111736 19.4688986 48.5493364 19.4688986 48.3039494 21.0489114 47.1044399 21.0141126 46.4501948 24.9152783 46.4433384 25.0552138 46.4776204 25.174048 46.5458235 25.2651171 46.634235 25.3417485 46.7569285 25.3909851 46.8933349 25.4328176 47.0430931 25.4605826 47.2065642 25.4746502 47.3566833 25.4676164 47.4930896 25.4535488 47.6157831 25.4328176 47.7247638 25.4046825 47.8131753 25.3769175 47.8745221 25.3558161 47.9156605 25.3417485 47.9293733 25.3350849 47.6908427 26.6352266 47.6428479 26.6703956 47.54758 26.7262958 47.499946 26.7540608 47.4519512 26.7751622 47.3978217 26.7962636 47.3361141 26.817365 47.2751282 26.8380961 47.2065642 26.8591975 47.1387219 26.8732651 47.0568059 26.8869625 46.9752508 26.9010301 46.8864785 26.9150977 46.7843542 26.9291653 46.6753734 26.9428627 46.5591755 26.9569303 46.0413367 26.9569303 45.7688849 26.9358289 45.5299934 26.9080639 45.312032 26.8662313 45.1279918 26.817365 44.9713771 26.7540608 44.8418272 26.6844632 44.7259901 26.6004279 44.6372177 26.5093587 44.5693754 26.411626 44.5213806 26.2927918 44.4874595 26.1739577 44.4668903 26.0410559 44.4600339 25.8940866 44.4600339 25.7404537 44.4806031 25.579787 44.5011723 25.4046825 45.8028061 17.7770855"></polyline>
                    <polyline id="Fill-20" fill="#FFFFFF" points="50.0555797 23.6847341 50.0350104 23.8039385 50.0285149 23.9294362 50.0418668 24.0623379 50.0692925 24.1952397 50.1169264 24.3281414 50.1714168 24.4540093 50.2464763 24.5869111 50.3280314 24.7057452 50.4236602 24.8245793 50.5257845 24.9293459 50.6351261 25.0341124 50.7574587 25.1181478 50.8801522 25.1951494 51.0165585 25.2580833 51.1529648 25.3069497 51.2893712 25.3350849 51.4661942 25.3628499 51.6368825 25.3839513 51.8140663 25.4046825 51.9912502 25.4187501 52.1684341 25.4257838 52.3524743 25.4257838 52.5296582 25.4187501 52.7136985 25.4046825 52.8977387 25.3769175 53.0814181 25.3417485 53.2723148 25.2999159 53.4563551 25.2369819 53.6472517 25.1599804 53.8450048 25.0763152 54.0359015 24.9645149 54.2332937 24.8456807 53.9608419 26.5652589 53.7425196 26.6774294 53.6335389 26.719262 53.5314146 26.7610946 53.4292903 26.7962636 53.3199488 26.8310623 53.2113289 26.8591975 53.0951309 26.8799287 52.9724374 26.9010301 52.836392 26.9150977 52.6931293 26.9291653 52.5361537 26.9428627 52.3593307 26.9498965 52.1752905 26.9498965 51.9638246 26.9569303 51.7390068 26.9569303 51.4048474 26.9498965 51.0641925 26.9150977 50.7235376 26.8662313 50.3825218 26.782196 50.0487233 26.6774294 49.7282767 26.5445277 49.4219038 26.3697934 49.1353783 26.1669239 48.869783 25.9292556 48.6381087 25.6423507 48.4403557 25.3210173 48.2768846 24.9504473 48.1610475 24.5376745 48.085988 24.0693717 48.0654187 23.5522026 48.0997008 22.9787631 48.1267655 22.7551624 48.1679039 22.4963927 48.2223943 22.2235554 48.297093 21.929987 48.3995781 21.6293847 48.5222716 21.3287825 48.6788863 21.0211464 48.869783 20.727578 49.0877444 20.4477069 49.3537006 20.1819035 49.653578 19.9442352 49.9942329 19.7347021 50.3893782 19.5599678 50.8325183 19.4340998 51.3232923 19.3500645 51.8754131 19.3219293 52.1410085 19.3289631 52.4206775 19.3570983 52.6999857 19.4059646 52.9792938 19.4759324 53.2521065 19.580699 53.5177018 19.7065669 53.7630888 19.8742674 53.9879067 20.0701031 54.1925161 20.3077714 54.3628436 20.5876425 54.4992499 20.9093461 54.5945178 21.2799161 54.6490082 21.6993525 54.6558646 22.1746891 54.6082306 22.7059258 54.5061063 23.2934329 54.4718243 23.7199031 49.5034589 23.7199031 49.817049 22.3423896 52.80211 22.3423896 52.8158228 22.1676553 52.8089664 21.9999548 52.7952536 21.8459516 52.7681888 21.7063863 52.720194 21.5734846 52.6725601 21.4546504 52.6047178 21.3495137 52.5361537 21.2517809 52.4545986 21.1677456 52.3661871 21.0977778 52.263702 21.035214 52.1615777 20.9793139 52.052597 20.9371111 51.9436163 20.9093461 51.8274183 20.8882447 51.7050856 20.8741771 51.5755357 20.8812109 51.4528422 20.9023123 51.3370051 20.9300773 51.2208071 20.9722801 51.1053309 21.0281802 51.0028457 21.0911142 50.9007214 21.1677456 50.8119491 21.2517809 50.7235376 21.3495137 50.6416216 21.4546504 50.566562 21.5664508 50.5055761 21.6852849 50.4442294 21.8111528 50.3962346 21.9510884 50.355457 22.0906537 50.3280314 22.237623 50.0555797 23.6847341"></polyline>
                    <polyline id="Fill-22" fill="#FFFFFF" points="66.3103046 19.888335 66.2215322 19.8394686 66.1331207 19.797636 66.037492 19.7487697 65.9353677 19.6995331 65.8332433 19.6577005 65.7174062 19.6158679 65.6012083 19.5736652 65.4788756 19.5318326 65.3493257 19.4970338 65.2197758 19.4688986 65.0765131 19.4411336 64.9336112 19.4200322 64.7766357 19.4059646 64.620021 19.391897 64.1155342 19.391897 63.9383503 19.4059646 63.7543101 19.427066 63.5637743 19.4618648 63.3728776 19.517765 63.1819809 19.5947665 62.9910843 19.6928695 62.8001876 19.8183672 62.6161473 19.9723704 62.4389635 20.1541385 62.268636 20.3777392 62.105165 20.6365088 61.9550458 20.9441449 61.812144 21.2936135 61.6825941 21.6852849 61.5736134 22.1328565 61.5324749 22.3842222 61.5054102 22.6289242 61.4916974 22.8736263 61.4985538 23.1116648 61.519123 23.3493331 61.566757 23.5729338 61.6281037 23.7828371 61.7031633 23.9923702 61.8052876 24.1811721 61.9279811 24.3629402 62.0708829 24.5239771 62.2347149 24.6705762 62.4183943 24.7964442 62.6298601 24.9015809 62.8615344 24.9922799 63.1206342 25.0552138 63.2090457 25.0763152 63.3115308 25.0974166 63.4342244 25.111114 63.5702698 25.1251816 63.7203889 25.1392492 64.047331 25.1392492 64.2180194 25.1251816 64.3952032 25.1040802 64.5723871 25.0692814 64.7427146 25.020415 64.913042 24.9645149 65.0833695 24.8875133 65.240345 24.7964442 65.3832469 24.6846438 65.5196532 24.5587759 65.2129194 26.4256935 65.171781 26.4604923 65.1310034 26.5023249 65.0765131 26.5515615 65.0151663 26.5933941 64.9401068 26.6492942 64.8448389 26.6981606 64.7358582 26.747027 64.6131646 26.7892298 64.45655 26.8380961 64.2790053 26.8732651 64.0747567 26.9010301 63.836226 26.9291653 63.5702698 26.9428627 63.263536 26.9498965 62.9160247 26.9428627 62.5345922 26.9221315 62.2210021 26.8869625 61.9074119 26.817365 61.5938217 26.7122282 61.2805924 26.5722927 60.980715 26.4045922 60.6941896 26.1950591 60.4217378 25.950357 60.1694944 25.6704859 59.9446766 25.3558161 59.7537799 25.0063475 59.5903089 24.6146761 59.4676153 24.1882059 59.3856994 23.7199031 59.3586346 23.2234651 59.3719866 22.6781608 59.4470461 22.0976875 59.5015365 21.8111528 59.5628832 21.5312818 59.6310864 21.2588147 59.6992896 21.000045 59.7743491 20.755343 59.8627606 20.5106409 59.951533 20.2800064 60.0468009 20.0630693 60.1492861 19.8465024 60.2514104 19.6436329 60.3672475 19.4481674 60.489941 19.2660291 60.6126345 19.0912948 60.7486799 18.9235943 60.8850863 18.7695912 61.028349 18.622992 61.1849636 18.4830565 61.3415783 18.3501548 61.5054102 18.2313206 61.6757377 18.1195203 61.8597779 18.0147537 62.0438182 17.9236846 62.2347149 17.8400194 62.4321071 17.7630179 62.6435729 17.6930501 62.854678 17.6371499 63.0730002 17.5882835 63.3046744 17.5460808 63.5363487 17.511282 63.7817357 17.4831468 64.0271227 17.4690792 64.2858617 17.4624156 64.5041839 17.4690792 64.7152889 17.4831468 64.9198984 17.5042482 65.124147 17.5323834 65.3150437 17.5601484 65.499084 17.6019809 65.6762678 17.6371499 65.8400997 17.6789825 65.9967144 17.7211853 66.1331207 17.7630179 66.2623098 17.8048504 66.3716513 17.846683 66.4669192 17.881852 66.5488352 17.9099872 66.610182 17.9377522 66.6509595 17.9518198 66.3103046 19.888335"></polyline>
                    <polyline id="Fill-24" fill="#FFFFFF" points="83.0893638 26.9569303 81.2016881 26.9569303 81.3380944 26.1809915 81.3380944 26.1110237 81.2287528 26.250589 81.1132766 26.3768272 80.9970786 26.4886275 80.874746 26.5863603 80.7516916 26.6774294 80.629359 26.7540608 80.5066654 26.817365 80.3771155 26.8799287 80.2475656 26.9291653 80.1180157 26.9639641 79.9884658 26.9987629 79.8524203 27.0198643 79.716014 27.0409656 79.5864641 27.054663 79.4500578 27.062067 79.3136515 27.062067 78.9596446 27.0339318 78.6323416 26.9569303 78.3324643 26.8380961 78.0596516 26.6774294 77.8142646 26.4745599 77.5963032 26.2368916 77.4054065 25.978122 77.2419355 25.6845535 77.1055292 25.3698837 76.9965485 25.0411462 76.9214889 24.6987114 76.8669986 24.342209 76.8467902 23.9857066 76.8536466 23.6218001 76.8875678 23.2652977 76.9489145 22.9087953 77.0510388 22.4963927 77.1737323 22.1047213 77.316995 21.7482189 77.4873225 21.4128178 77.6645064 21.0977778 77.8691158 20.8182769 78.0802208 20.5665411 78.3050387 20.3359066 78.5439301 20.1330371 78.7958127 19.9583028 79.0549125 19.8046698 79.3136515 19.6858357 79.5864641 19.5877328 79.8589159 19.5247988 80.1317285 19.4829662 80.4110367 19.4688986 80.6087898 19.4759324 80.7996864 19.4970338 80.9768703 19.5318326 81.1403413 19.580699 81.2973169 19.6365991 81.4333623 19.6995331 81.5697686 19.7765347 81.6924621 19.8535362 81.8014428 19.9372014 81.9035671 20.0282705 81.9923395 20.1193397 82.0738946 20.2100386 82.1420978 20.3007376 82.2034445 20.3918068 82.2579349 20.4758421 82.2990733 20.5595073 82.7761345 17.8118842 84.6298891 17.8118842 83.0893638 26.9569303"></polyline>
                    <polyline id="Stroke-25" points="83.0893638 26.9569303 81.2016881 26.9569303 81.3380944 26.1809915 81.3380944 26.1110237 81.2287528 26.250589 81.1132766 26.3768272 80.9970786 26.4886275 80.874746 26.5863603 80.7516916 26.6774294 80.629359 26.7540608 80.5066654 26.817365 80.3771155 26.8799287 80.2475656 26.9291653 80.1180157 26.9639641 79.9884658 26.9987629 79.8524203 27.0198643 79.716014 27.0409656 79.5864641 27.054663 79.4500578 27.062067 79.3136515 27.062067 78.9596446 27.0339318 78.6323416 26.9569303 78.3324643 26.8380961 78.0596516 26.6774294 77.8142646 26.4745599 77.5963032 26.2368916 77.4054065 25.978122 77.2419355 25.6845535 77.1055292 25.3698837 76.9965485 25.0411462 76.9214889 24.6987114 76.8669986 24.342209 76.8467902 23.9857066 76.8536466 23.6218001 76.8875678 23.2652977 76.9489145 22.9087953 77.0510388 22.4963927 77.1737323 22.1047213 77.316995 21.7482189 77.4873225 21.4128178 77.6645064 21.0977778 77.8691158 20.8182769 78.0802208 20.5665411 78.3050387 20.3359066 78.5439301 20.1330371 78.7958127 19.9583028 79.0549125 19.8046698 79.3136515 19.6858357 79.5864641 19.5877328 79.8589159 19.5247988 80.1317285 19.4829662 80.4110367 19.4688986 80.6087898 19.4759324 80.7996864 19.4970338 80.9768703 19.5318326 81.1403413 19.580699 81.2973169 19.6365991 81.4333623 19.6995331 81.5697686 19.7765347 81.6924621 19.8535362 81.8014428 19.9372014 81.9035671 20.0282705 81.9923395 20.1193397 82.0738946 20.2100386 82.1420978 20.3007376 82.2034445 20.3918068 82.2579349 20.4758421 82.2990733 20.5595073 82.7761345 17.8118842 84.6298891 17.8118842 83.0893638 26.9569303"></polyline>
                    <polyline id="Fill-26" fill="#F2AD3D" points="80.0021786 25.2651171 80.1930753 25.2510495 80.3702591 25.209217 80.5337302 25.1599804 80.6907057 25.083349 80.8336076 24.9993137 80.9700139 24.8945471 81.0995638 24.775713 81.2154009 24.649845 81.3175252 24.5099095 81.4127931 24.3559064 81.5015655 24.1952397 81.576625 24.0275391 81.6448282 23.8528048 81.6993185 23.6710367 81.7469525 23.4822348 81.7808736 23.2934329 81.8151556 23.0975972 81.835364 22.8947277 81.835364 22.7059258 81.8285076 22.5104603 81.8082992 22.328322 81.7808736 22.1535877 81.7332397 21.9858872 81.6787493 21.8252204 81.6105462 21.6852849 81.5289911 21.5523832 81.4402187 21.4405828 81.3380944 21.3424799 81.2222573 21.2588147 81.0995638 21.2029145 80.9700139 21.1677456 80.8267512 21.153678 80.6427109 21.1677456 80.4727443 21.1958808 80.3157688 21.2517809 80.1587933 21.3217487 80.0227478 21.4128178 79.8863415 21.5246182 79.7705044 21.6434523 79.6546673 21.7759839 79.5521821 21.929987 79.4569142 22.0906537 79.3685027 22.2587244 79.2934431 22.4404925 79.22524 22.6289242 79.1707496 22.8177261 79.1162593 23.0205956 79.0754817 23.2234651 79.0411997 23.5311012 79.0549125 23.8665022 79.1025465 24.2093073 79.1913188 24.5376745 79.3273643 24.8245793 79.5045482 25.0552138 79.7297268 25.209217 80.0021786 25.2651171"></polyline>
                    <polyline id="Fill-27" fill="#FFFFFF" points="38.1492571 25.4046825 37.8764444 26.9569303 36.1590962 26.9569303 36.2067301 26.6703956 36.2410121 26.411626 36.2680769 26.2157903 36.2955025 26.1110237 36.1998737 26.222824 36.090893 26.3346244 35.961704 26.4397611 35.8184412 26.5374939 35.6546093 26.6352266 35.4842819 26.719262 35.307098 26.8032974 35.1230577 26.8732651 34.9256655 26.9358289 34.7279125 26.9850655 34.5301594 27.026898 34.3259108 27.054663 34.1281577 27.0687306 33.9304046 27.0757644 33.739508 27.054663 33.5558286 27.026898 33.3172979 26.9639641 33.0989757 26.8939963 32.908079 26.8032974 32.7377515 26.6981606 32.5879933 26.5863603 32.451587 26.4604923 32.3426063 26.3275906 32.2469775 26.1880253 32.1654224 26.0410559 32.0972192 25.8870528 32.0427289 25.7334199 32.0015905 25.579787 31.9745257 25.4187501 31.9539565 25.2580833 31.9402437 25.1040802 31.9402437 24.9504473 31.9608129 24.67761 32.0015905 24.4188403 32.0697936 24.1741383 32.158566 23.93647 32.2675467 23.7128693 32.3902402 23.5099998 32.5335029 23.3141641 32.696974 23.1394298 32.8673015 22.9787631 33.0581981 22.8317937 33.2555903 22.6992622 33.4601998 22.5870917 33.6781612 22.4893589 33.9033399 22.4123573 34.1350141 22.3494234 34.3735447 22.3075908 34.3872575 22.3075908 34.4211787 22.300557 34.4691735 22.2935232 34.5438722 22.2864894 34.6257881 22.2724218 34.7210561 22.2657582 34.8231804 22.2516906 34.9390175 22.237623 35.0552154 22.2235554 35.1706917 22.2094878 35.2937461 22.2024541 35.4027268 22.1887567 35.5117075 22.1817229 35.6138318 22.1746891 35.7094605 22.1676553 35.9411348 22.1676553 36.1046058 22.1746891 36.2543641 22.1817229 36.4044832 22.1817229 36.5271767 22.1887567 36.6224446 22.1957905 36.6906478 22.2024541 36.711217 22.2024541 36.7249298 22.1535877 36.7657073 22.0277197 36.7996285 21.8811206 36.8133413 21.7482189 36.7862765 21.594586 36.7249298 21.4546504 36.6430138 21.3287825 36.5340331 21.2240159 36.4044832 21.1329468 36.2612205 21.0700128 36.0977494 21.0281802 35.9205655 21.0141126 35.7296689 21.0070788 35.5254203 21.000045 35.3139544 21.000045 35.095993 21.0070788 34.8711752 21.0211464 34.6528529 21.0418776 34.4348915 21.062979 34.2234256 21.0911142 34.019177 21.1188792 33.8214239 21.153678 33.6442401 21.188847 33.480769 21.2240159 33.3306499 21.2658485 33.2079564 21.3076811 33.1126885 21.3565475 33.0376289 21.3987503 33.5215466 19.7136007 33.6713048 19.6506667 33.8214239 19.5947665 33.984895 19.5459002 34.312198 19.4759324 34.4893818 19.4481674 34.6665657 19.4200322 34.850606 19.4059646 35.0415026 19.391897 35.2388948 19.3848633 35.4435043 19.3778295 36.0977494 19.3778295 36.33628 19.3848633 36.5748106 19.391897 36.7657073 19.4059646 36.9703168 19.4411336 37.1814218 19.49 37.3993832 19.552934 37.6108491 19.6365991 37.8150977 19.7347021 38.0197072 19.8535362 38.2106038 19.986438 38.3809313 20.1400709 38.5306895 20.3077714 38.6670959 20.4965733 38.7692202 20.7064766 38.8374233 20.9300773 38.8785617 21.1677456 38.8785617 21.433549 38.8374233 21.7134201 38.1492571 25.4046825"></polyline>
                    <polyline id="Fill-29" fill="#D82331" points="36.5066075 23.5799676 36.4997511 23.5451688 36.4726863 23.5099998 36.4315479 23.4888984 36.3637056 23.475201 36.2886461 23.4611334 36.1998737 23.4540996 35.9956251 23.4540996 35.8866444 23.4611334 35.7704464 23.475201 35.6614657 23.4888984 35.552485 23.502966 35.4503607 23.5170336 35.3547319 23.538135 35.2731768 23.5592364 35.1981173 23.5799676 35.1504833 23.5940352 35.095993 23.6151365 35.0209334 23.6429015 34.9458739 23.6777003 34.8574624 23.7199031 34.76869 23.7687695 34.6734221 23.8176358 34.5846497 23.873536 34.4893818 23.9435038 34.4009703 24.0134715 34.3190544 24.0975069 34.2439948 24.1811721 34.1757917 24.2722412 34.1281577 24.369974 34.0873802 24.4817743 34.066811 24.5935747 34.0599545 24.8316131 34.0938757 25.020415 34.1620789 25.1599804 34.2508512 25.2651171 34.3529755 25.3350849 34.4691735 25.3769175 34.5777933 25.3976487 34.6871349 25.4046825 34.8913835 25.3976487 35.0754238 25.3769175 35.2526076 25.3487823 35.4092223 25.3069497 35.5456286 25.2580833 35.6751785 25.1951494 35.7910156 25.1322154 35.8935008 25.0552138 35.9819123 24.9852461 36.0638283 24.9015809 36.1320314 24.8245793 36.1865218 24.740544 36.2341557 24.6568788 36.2749333 24.5728435 36.3092153 24.4958419 36.3294236 24.4188403 36.383914 24.216341 36.4315479 23.9857066 36.4726863 23.7617357 36.5066075 23.5799676"></polyline>
                    <polyline id="Fill-30" fill="#FFFFFF" points="23.8096335 26.9569303 21.9558789 26.9569303 23.5028997 17.7770855 26.7264913 17.7770855 27.033225 23.2234651 29.2619166 17.7770855 32.6287708 17.7770855 31.047468 26.9569303 29.1937134 26.9569303 30.3661582 20.0982383 30.2910986 20.0982383 27.5171427 26.9569303 25.4248575 26.9569303 25.4111447 26.6703956 25.3635107 25.9081542 25.302164 24.8245793 25.1661185 22.328322 25.1047718 21.2306795 25.0567769 20.4336393 25.0430641 20.0982383 24.9409398 20.0982383 23.8096335 26.9569303"></polyline>
                    <polyline id="Fill-32" fill="#FFFFFF" points="71.9736927 25.4046825 71.6943845 26.9569303 69.9838926 26.9569303 69.9972446 26.6703956 70.004101 26.4186598 70.004101 26.2298578 70.0178138 26.1458225 69.9290414 26.250589 69.8269171 26.3557258 69.7042236 26.4534585 69.5678173 26.5515615 69.4249154 26.6422604 69.2610835 26.7262958 69.090756 26.8103312 68.9204286 26.8799287 68.7363883 26.9358289 68.5458525 26.9917291 68.354595 27.026898 68.1640592 27.054663 67.9663061 27.0687306 67.7754094 27.0757644 67.5913692 27.054663 67.4073289 27.026898 67.1619419 26.9639641 66.9439805 26.8939963 66.7530838 26.8032974 66.5758999 26.6981606 66.4261417 26.5863603 66.2965918 26.4604923 66.1876111 26.3275906 66.0919823 26.1880253 66.0104272 26.0410559 65.9490805 25.8870528 65.8945901 25.7334199 65.8603081 25.579787 65.8332433 25.4187501 65.8126741 25.2580833 65.7989613 25.1040802 65.7989613 24.9504473 65.8126741 24.67761 65.8534517 24.4188403 65.9147984 24.1741383 66.0035708 23.93647 66.1056951 23.7128693 66.235245 23.5099998 66.3781469 23.3141641 66.5351224 23.1394298 66.7123063 22.9787631 66.8963465 22.8317937 67.0937387 22.6992622 67.3052046 22.5870917 67.5163096 22.4893589 67.7414883 22.4123573 67.9663061 22.3494234 68.1979803 22.3075908 68.2116931 22.3075908 68.2456143 22.300557 68.2932482 22.2935232 68.3614514 22.2864894 68.4502237 22.2724218 68.5458525 22.2657582 68.6479768 22.2516906 68.7569575 22.237623 68.8727946 22.2235554 68.9954881 22.2094878 69.1113252 22.2024541 69.2271624 22.1887567 69.3361431 22.1817229 69.4317718 22.1746891 69.5270397 22.1676553 69.7655704 22.1676553 69.9290414 22.1746891 70.0860169 22.1817229 70.2357752 22.1817229 70.3653251 22.1887567 70.4743058 22.1957905 70.5360134 22.2024541 70.5630782 22.2024541 70.5764301 22.1535877 70.5969993 22.0277197 70.6175685 21.8811206 70.6309205 21.7482189 70.6038557 21.594586 70.5493654 21.4546504 70.460593 21.3287825 70.3584687 21.2240159 70.2357752 21.1329468 70.0928733 21.0700128 69.9427542 21.0281802 69.7792832 21.0141126 69.5883865 21.0070788 69.383777 21.000045 69.172672 21.000045 68.9543497 21.0070788 68.7295319 21.0211464 68.5115705 21.0418776 68.2932482 21.062979 68.0821432 21.0911142 67.8775337 21.1188792 67.6801415 21.153678 67.5029577 21.188847 67.3394866 21.2240159 67.1893675 21.2658485 67.066674 21.3076811 66.9714061 21.3565475 66.8963465 21.3987503 67.3734078 19.7136007 67.523166 19.6506667 67.6801415 19.5947665 67.8367562 19.5459002 68.0002273 19.5107312 68.1709156 19.4759324 68.341243 19.4481674 68.5184269 19.4200322 68.7024672 19.4059646 68.8933638 19.391897 69.090756 19.3848633 69.2885091 19.3778295 69.9290414 19.3778295 70.1607156 19.3848633 70.3923898 19.391897 70.5832865 19.4059646 70.787896 19.4411336 70.999001 19.49 71.2173233 19.552934 71.4284283 19.6365991 71.6398942 19.7347021 71.8441428 19.8535362 72.0350394 19.986438 72.2053669 20.1400709 72.3619815 20.3077714 72.4983879 20.4965733 72.600873 20.7064766 72.6755717 20.9300773 72.7235665 21.1677456 72.7235665 21.433549 72.6892845 21.7134201 71.9736927 25.4046825"></polyline>
                    <polyline id="Fill-33" fill="#FFFFFF" points="71.6943845 26.9767414 71.7351621 26.9356646 72.0144702 25.4114621 71.9329151 25.3976487 71.6532461 26.9218512 71.6943845 26.8807744 71.6943845 26.9767414 71.7283057 26.9698346 71.7351621 26.9356646 71.6943845 26.9767414"></polyline>
                    <polyline id="Fill-34" fill="#FFFFFF" points="69.9427542 26.9545189 69.9838926 27.0009738 71.6943845 27.0009738 71.6943845 26.9080639 69.9838926 26.9080639 70.0243093 26.9545189 69.9427542 26.9545189 69.9358978 27.0009738 69.9838926 27.0009738 69.9427542 26.9545189"></polyline>
                    <polyline id="Fill-35" fill="#FFFFFF" points="70.0517349 26.1715754 69.9903882 26.1180575 69.9633234 26.2250934 69.956467 26.4058493 69.956467 26.6468573 69.9427542 26.921181 70.0243093 26.921181 70.0380221 26.6468573 70.0517349 26.4058493 70.0448785 26.2250934 70.0448785 26.1715754 69.9838926 26.1180575 70.0517349 26.1715754"></polyline>
                    <polyline id="Fill-36" fill="#FFFFFF" points="67.4004725 27.0282169 67.4004725 27.0282169 67.5913692 27.0551531 67.7754094 27.0753552 67.9663061 27.0686212 68.1640592 27.0551531 68.3614514 27.0282169 68.5523481 26.9949011 68.7432447 26.9410288 68.9341414 26.8878652 69.1044688 26.8208792 69.2816527 26.7404251 69.4451238 26.6603254 69.5883865 26.5664032 69.7316492 26.4728354 69.8539819 26.3789132 69.9633234 26.2718773 70.0517349 26.1715754 69.9838926 26.1180575 69.8951203 26.2183593 69.7994915 26.3119271 69.6771588 26.4058493 69.5476089 26.4994171 69.4043462 26.5798713 69.0770432 26.7404251 68.9067158 26.8074111 68.7295319 26.8609291 68.5386352 26.914447 68.3477386 26.9481172 68.1640592 26.974699 67.9663061 26.9881671 67.7754094 26.9949011 67.5913692 26.974699 67.4141853 26.9481172 67.4004725 27.0282169"></polyline>
                    <polyline id="Fill-37" fill="#FFFFFF" points="65.7513274 24.9504473 65.7513274 24.9504473 65.7581838 25.1040802 65.7718966 25.2580833 65.7921049 25.4257838 65.8195305 25.5864506 65.8534517 25.7404537 65.907942 25.9011204 65.9692888 26.0621573 66.0580612 26.2087565 66.1533291 26.3557258 66.2623098 26.4886275 66.3987161 26.6215293 66.5556916 26.7333296 66.7328755 26.8451299 66.9302677 26.9358289 67.1554464 27.0057967 67.4004725 27.0687306 67.4141853 26.9850655 67.1687983 26.9221315 66.9576933 26.8521637 66.773653 26.7610946 66.5964692 26.6633618 66.4532064 26.5515615 66.3305129 26.4327273 66.2215322 26.2998256 66.1262643 26.1669239 66.0512048 26.0199546 65.989858 25.8733554 65.9353677 25.7263861 65.9014465 25.5727532 65.8740209 25.4117163 65.8534517 25.2580833 65.8400997 25.1040802 65.8465953 24.9504473 65.7513274 24.9504473"></polyline>
                    <polyline id="Fill-38" fill="#FFFFFF" points="68.1979803 22.2657582 68.1979803 22.2657582 67.9594497 22.3075908 67.7277755 22.3705248 67.5029577 22.4471561 67.2846354 22.5452591 67.0735304 22.6570594 66.8689209 22.796995 66.6848807 22.9439643 66.5076968 23.1116648 66.3442257 23.2863991 66.200963 23.4822348 66.0649176 23.6917679 65.9624324 23.9224024 65.8740209 24.1604409 65.8126741 24.4121768 65.7718966 24.67761 65.7513274 24.9504473 65.8465953 24.9504473 65.8534517 24.67761 65.8945901 24.4258741 65.9559369 24.1882059 66.0443484 23.9505376 66.1464727 23.7336005 66.2691662 23.538135 66.4124289 23.3422993 66.5621871 23.167565 66.7397319 23.0135618 66.9234113 22.8669627 67.1143079 22.7410948 67.3257738 22.6289242 67.5300224 22.5311915 67.7552011 22.4541899 67.9731625 22.391256 68.1979803 22.3494234 68.1979803 22.2657582"></polyline>
                    <polyline id="Fill-39" fill="#FFFFFF" points="69.6020993 22.1187889 69.5270397 22.1187889 69.4317718 22.1321623 69.3361431 22.138849 69.2271624 22.1451838 69.1113252 22.1585572 68.9954881 22.1652439 68.8727946 22.1786173 68.7569575 22.1919907 68.6479768 22.2050121 68.5458525 22.2183855 68.4502237 22.2250722 68.3614514 22.2384456 68.2932482 22.2451323 68.2387579 22.251819 68.2116931 22.2585057 68.1979803 22.2585057 68.1979803 22.3380423 68.2116931 22.3380423 68.2524707 22.3313556 68.2932482 22.3246689 68.3614514 22.3179822 68.4502237 22.3049607 68.5458525 22.298274 68.6479768 22.2849006 68.7569575 22.2715272 68.8727946 22.2585057 68.9954881 22.2451323 69.1113252 22.2384456 69.2271624 22.2250722 69.3361431 22.2183855 69.4317718 22.2116988 69.6020993 22.2116988 69.6020993 22.1187889"></polyline>
                    <polyline id="Fill-40" fill="#FFFFFF" points="70.5219398 22.1919907 70.5630782 22.1585572 70.5360135 22.1585572 70.4743059 22.1518705 70.3653251 22.1451838 70.2357752 22.1321623 69.9290414 22.1321623 69.7655704 22.1187889 69.6020993 22.1187889 69.6020993 22.2116988 69.9290414 22.2116988 70.086017 22.2250722 70.3653251 22.2250722 70.4743059 22.2317589 70.5360135 22.2384456 70.5630782 22.2384456 70.6038558 22.2050121 70.5630782 22.2384456 70.5969994 22.2451323 70.6038558 22.2050121 70.5219398 22.1919907"></polyline>
                    <polyline id="Fill-41" fill="#FFFFFF" points="70.5901429 21.7482189 70.5832865 21.7482189 70.5764301 21.8745623 70.5562218 22.0075924 70.5360134 22.1268972 70.5219398 22.1737041 70.6038557 22.1867256 70.6175685 22.1402706 70.6377769 22.0206139 70.6583461 21.8745623 70.6789153 21.7482189 70.5901429 21.7482189"></polyline>
                    <polyline id="Fill-42" fill="#FFFFFF" points="69.7792832 21.05208 69.7792832 21.0588141 69.9358978 21.0655481 70.0791605 21.105598 70.215206 21.1658499 70.331404 21.2463041 70.4266719 21.3398719 70.5085879 21.4536418 70.5630782 21.5741458 70.590143 21.7148519 70.6720589 21.7148519 70.6446333 21.5610321 70.590143 21.4135919 70.494875 21.2863539 70.3858943 21.179318 70.2563444 21.0857502 70.1062253 21.0254983 69.9496106 20.985094 69.7792832 20.9652463 69.7792832 21.05208"></polyline>
                    <polyline id="Fill-43" fill="#FFFFFF" points="66.8552081 21.3699772 66.9234113 21.4097455 66.9916144 21.3766639 67.0803868 21.329857 67.1962239 21.2900888 67.3459822 21.2503205 67.5094532 21.216887 67.6869979 21.1838054 67.8843901 21.1507239 68.0821432 21.1239771 68.2932482 21.0972303 68.5115705 21.0775221 68.7295319 21.057462 68.9543497 21.0440886 69.5883865 21.0440886 69.7792832 21.0507753 69.7792832 20.9712388 69.5883865 20.9645521 69.383777 20.9511787 69.172672 20.9511787 68.9543497 20.9645521 68.7295319 20.9779255 68.5115705 20.9976336 68.2932482 21.0176937 68.0821432 21.0440886 67.8710382 21.0708354 67.6732851 21.103917 67.4961013 21.1373505 67.3326302 21.170432 67.1825111 21.2105522 67.0529612 21.2503205 66.9508369 21.2967755 66.8689209 21.3432304 66.9371241 21.3833506 66.8552081 21.3699772"></polyline>
                    <polyline id="Fill-44" fill="#FFFFFF" points="67.359695 19.6717681 67.3326302 19.7059382 66.8552081 21.3606412 66.9371241 21.3744546 67.4141853 19.7197516 67.3871206 19.7539216 67.359695 19.6717681 67.3394866 19.6786748 67.3326302 19.7059382 67.359695 19.6717681"></polyline>
                    <polyline id="Fill-45" fill="#FFFFFF" points="70.3923898 19.3490232 70.3923898 19.3490232 70.1607156 19.3356498 69.9290414 19.3289631 69.2885091 19.3289631 69.090756 19.3423365 68.8933638 19.3490232 68.7024672 19.3623966 68.5184269 19.375418 68.3343866 19.4021648 68.1640592 19.4289116 67.9937317 19.4619932 67.8298998 19.4954267 67.6664287 19.5418817 67.5094532 19.5950233 67.359695 19.6548517 67.3871206 19.7343882 67.5368788 19.6749118 67.6934935 19.6214182 67.8436126 19.5749632 68.0070837 19.5418817 68.177772 19.5084482 68.3477386 19.4820533 68.5184269 19.4553065 68.7024672 19.442285 68.8933638 19.4289116 69.090756 19.4222249 69.9290414 19.4222249 70.1607156 19.4289116 70.3923898 19.4289116 70.3923898 19.3490232"></polyline>
                    <polyline id="Fill-46" fill="#FFFFFF" points="72.7300621 21.7200837 72.7300621 21.7200837 72.7643441 21.433549 72.7643441 21.1677456 72.7167101 20.9230435 72.6416506 20.692409 72.5326699 20.4758421 72.3962636 20.2800064 72.2327925 20.1052721 72.062465 19.951269 71.864712 19.8183672 71.6601025 19.6928695 71.4421411 19.5947665 71.2306752 19.5107312 71.0058574 19.4481674 70.7947524 19.3989308 70.5832865 19.3641321 70.3923898 19.3500645 70.3923898 19.4340998 70.5832865 19.4481674 70.7810396 19.4829662 70.9921446 19.5318326 71.2036105 19.5947665 71.4150763 19.6788019 71.6193249 19.7765347 71.8239344 19.888335 72.0079747 20.0212367 72.1783021 20.1752399 72.3280604 20.3359066 72.4644667 20.5176747 72.5597346 20.7205442 72.6347942 20.9371111 72.6824281 21.1677456 72.6824281 21.433549 72.648507 21.7063863 72.7300621 21.7200837"></polyline>
                    <polyline id="Fill-47" fill="#FFFFFF" points="72.0144702 25.4117163 72.0144702 25.4117163 72.7300621 21.7200837 72.648507 21.7063863 71.9329151 25.3976487 72.0144702 25.4117163"></polyline>
                    <polygon id="Fill-48" fill="#F2AD3D" points="70.3108347 23.538135 70.2834091 23.502966 70.2357752 23.4822348 70.167572 23.4611334 70.0928733 23.4540996 70.004101 23.4470658 69.9019767 23.4470658 69.7994915 23.4540996 69.6908717 23.4681672 69.5815301 23.4822348 69.4725494 23.4959322 69.3700642 23.5099998 69.2679399 23.5311012 69.1795284 23.5451688 69.090756 23.5659 69.0225529 23.5799676 68.9749189 23.5870014 68.9204286 23.6081028 68.8525863 23.6288339 68.7771659 23.6569691 68.6887544 23.6988017 68.6068384 23.7406343 68.5115705 23.7898709 68.3343866 23.9157388 68.2456143 23.9923702 68.1709156 24.0693717 68.095856 24.1604409 68.0345093 24.2581736 67.9868753 24.3629402 67.9457369 24.4751107 67.9255286 24.5935747 67.9186722 24.8316131 67.9525933 25.020415 68.0070837 25.1599804 68.0889996 25.2651171 68.1911239 25.3350849 68.306961 25.3769175 68.4227981 25.3976487 68.5386352 25.4046825 68.7432447 25.3976487 68.9341414 25.3769175 69.1113252 25.3417485 69.2679399 25.2928821 69.418059 25.2369819 69.5476089 25.174048 69.6703024 25.1040802 69.7792832 25.020415 69.8745511 24.9434135 69.956467 24.8523443 70.0311657 24.7686792 70.0928733 24.67761 70.1405073 24.5935747 70.1744284 24.5099095 70.201854 24.4258741 70.2220624 24.3492428 70.249488 24.1534071 70.2834091 23.9505376 70.3108347 23.7547019 70.3245475 23.5799676"></polygon>
                    <polyline id="Fill-49" fill="#FFFFFF" points="84.3639329 25.9589936 84.3776457 25.8048194 84.432136 25.6240635 84.5277648 25.4635096 84.6436019 25.323158 84.7865038 25.2090336 84.9499748 25.1289339 85.1275196 25.075416 85.3180554 25.0552138 85.508952 25.075416 85.6861359 25.1289339 85.849607 25.2090336 85.9928697 25.323158 86.1087068 25.4635096 86.2043355 25.6240635 86.2588259 25.8048194 86.2721778 25.9589936 86.0679292 25.9589936 86.0610728 25.8384897 86.0202953 25.6910495 85.9520921 25.5574319 85.8633198 25.4433075 85.7543391 25.3497397 85.6247891 25.2827537 85.4750309 25.2359698 85.3180554 25.2225017 85.1614407 25.2359698 85.0113216 25.2827537 84.8821325 25.3497397 84.772791 25.4433075 84.6843795 25.5574319 84.6161763 25.6910495 84.5753988 25.8384897 84.561686 25.9589936 84.3639329 25.9589936"></polyline>
                    <polyline id="Fill-50" fill="#FFFFFF" points="84.9774004 25.9785254 84.9774004 25.579787 85.3523374 25.579787 85.4338925 25.5861217 85.5089521 25.5994951 85.5634424 25.6195552 85.6110764 25.6459501 85.6453584 25.6860703 85.6724231 25.7258386 85.6861359 25.7722935 85.6929923 25.8187485 85.6861359 25.8785769 85.6724231 25.9253838 85.6522148 25.965152 85.638502 25.9785254 85.3523374 25.9785254 85.3794021 25.9718387 85.4270361 25.965152 85.4681745 25.9517786 85.5020957 25.9387572 85.5295213 25.9186971 85.5432341 25.898637 85.556586 25.8655554 85.556586 25.8187485 85.5497296 25.7856669 85.5363777 25.7592721 85.5158085 25.7458987 85.4952393 25.7325253 85.4613181 25.7258386 85.4270361 25.7191519 85.1477279 25.7191519 85.1477279 25.9785254 84.9774004 25.9785254"></polyline>
                    <polyline id="Fill-51" fill="#FFFFFF" points="84.3639329 25.9992234 84.3570765 26.0392732 84.3776457 26.2334973 84.432136 26.4142532 84.5277648 26.574807 84.6436019 26.7087791 84.7865038 26.822549 84.9499748 26.9093828 85.1275196 26.9629007 85.3180554 26.9831029 85.508952 26.9629007 85.6861359 26.9093828 85.849607 26.822549 85.9928697 26.7087791 86.1087068 26.574807 86.2043355 26.4142532 86.2588259 26.2334973 86.2790342 26.0392732 86.2721778 25.9992234 86.0679292 25.9992234 86.0747856 26.0392732 86.0610728 26.199827 86.0202953 26.3472672 85.9520921 26.4745052 85.8633198 26.5879207 85.7543391 26.6818429 85.6247891 26.755563 85.4750309 26.8023469 85.3180554 26.815815 85.1614407 26.8023469 85.0113216 26.755563 84.8821325 26.6818429 84.772791 26.5879207 84.6843795 26.4745052 84.6161763 26.3472672 84.5753988 26.199827 84.561686 26.0392732 84.561686 25.9992234 84.3639329 25.9992234"></polyline>
                    <polyline id="Fill-52" fill="#FFFFFF" points="84.9774004 25.9992234 84.9774004 26.4046485 85.1477279 26.4046485 85.1477279 26.0720732 85.3180554 26.0720732 85.5226649 26.4046485 85.6590712 26.4046485 85.4544617 26.0720732 85.5020957 26.0720732 85.5497296 26.0590517 85.590868 26.0456783 85.6247892 26.0189315 85.638502 25.9992234 85.3523374 25.9992234 85.3180554 26.0059101 85.1477279 26.0059101 85.1477279 25.9992234 84.9774004 25.9992234"></polyline>
                    <polyline id="Fill-54" fill="#FFFFFF" points="72.4850359 26.9569303 74.4066328 26.9569303 75.0951599 22.9787631 75.1222247 22.8247599 75.2041406 22.5171239 75.258631 22.363491 75.3268341 22.2094878 75.4087501 22.0628887 75.4971616 21.9229532 75.6065032 21.7900515 75.7288358 21.6712173 75.8652421 21.559417 76.0222176 21.4546504 76.1994015 21.3706151 76.3967937 21.3006473 76.615116 21.2447471 76.8536466 21.2029145 77.119242 21.188847 77.2895694 21.188847 77.5963032 19.391897 77.4054065 19.4059646 77.2213663 19.427066 77.0510388 19.4618648 76.8875678 19.5107312 76.7378095 19.5666314 76.5945468 19.6365991 76.4581405 19.7136007 76.3285906 19.797636 76.2062579 19.8953688 76.0900599 19.9934717 75.8720985 20.2170724 75.7699742 20.3359066 75.6678499 20.4688083 75.5653648 20.5946763 75.4700969 20.7342416 75.6747063 19.4688986 73.7592441 19.4688986 72.4850359 26.9569303"></polyline>
                    <polyline id="Fill-56" fill="#FFFFFF" points="54.4379031 26.9569303 56.393782 26.9569303 57.0480271 22.9787631 57.0754528 22.8247599 57.1093739 22.6781608 57.1436559 22.5311915 57.1912899 22.391256 57.2457802 22.2516906 57.3139834 22.1187889 57.3958993 21.992921 57.4911672 21.8740868 57.6001479 21.7689501 57.7228415 21.6641835 57.8729606 21.5805184 58.0364316 21.5035168 58.2269674 21.4405828 58.4384333 21.3846827 58.6701075 21.3495137 58.9360638 21.3287825 58.9562721 21.3287825 58.9836977 21.3358163 59.0176189 21.3424799 59.0519009 21.3424799 59.085822 21.3495137 59.1132476 21.3565475 59.133456 21.3635813 59.1403124 21.3635813 59.1471688 21.3358163 59.167738 21.2517809 59.1948027 21.125913 59.2290847 20.9722801 59.2767187 20.790512 59.3243526 20.5946763 59.3856994 20.3988405 59.4470461 20.2030048 59.5015365 20.0701031 59.6379428 19.8046698 59.706146 19.6858357 59.7674927 19.580699 59.8151267 19.4970338 59.8490478 19.4481674 59.8627606 19.427066 59.8559042 19.427066 59.8288395 19.4200322 59.7945575 19.4129984 59.7469235 19.4059646 59.6992896 19.4059646 59.6447992 19.3989308 59.5971653 19.391897 59.5495313 19.391897 59.3380654 19.4059646 59.1471688 19.427066 58.9699849 19.4618648 58.8065138 19.5040676 58.6495383 19.5599678 58.5066365 19.6295653 58.3770866 19.6995331 58.254393 19.7835685 58.1385559 19.8742674 58.0295752 19.9794042 57.9274509 20.0841707 57.8249658 20.2030048 57.7228415 20.321839 57.6275736 20.4547407 57.4229641 20.7342416 57.6683511 19.4688986 55.7124722 19.4688986 54.4379031 26.9569303"></polyline>
                    <polyline id="Fill-58" fill="#F2AD3D" points="84.3776457 34.278993 84.3776457 34.2524112 84.432136 34.0783893 84.5277648 33.9245695 84.6436019 33.7905974 84.7865038 33.6832071 84.9499748 33.6031074 85.1275196 33.5563235 85.3180554 33.5361214 85.508952 33.5563235 85.6861359 33.6031074 85.849607 33.6832071 85.9928697 33.7905974 86.1087068 33.9245695 86.2043355 34.0783893 86.2588259 34.2524112 86.2588259 34.278993 86.0610728 34.278993 86.0202953 34.1386413 85.9520921 34.0114033 85.8633198 33.8976333 85.7543391 33.8040655 85.6247891 33.7303455 85.4750309 33.6832071 85.3180554 33.6700935 85.1614407 33.6832071 85.0113216 33.7303455 84.8821325 33.8040655 84.772791 33.8976333 84.6843795 34.0114033 84.6161763 34.1386413 84.5753988 34.278993 84.3776457 34.278993"></polyline>
                    <polyline id="Fill-60" fill="#F2AD3D" points="84.3570765 34.4584638 84.3776457 34.3120602 84.5753988 34.3120602 84.5753988 34.3187469 84.561686 34.4584638 84.3570765 34.4584638"></polyline>
                    <polyline id="Fill-61" fill="#F2AD3D" points="84.9774004 34.4584638 84.9774004 34.3120602 85.1477279 34.3120602 85.1477279 34.4450904 85.3180554 34.4450904 85.3794021 34.431717 85.4270361 34.4253822 85.4681745 34.4120088 85.5020957 34.3986354 85.5295213 34.3785753 85.5432341 34.3588671 85.556586 34.3254336 85.556586 34.3120602 85.6929923 34.3120602 85.6861359 34.3588671 85.6724231 34.3986354 85.6522148 34.431717 85.6247892 34.4584638 84.9774004 34.4584638"></polyline>
                    <polyline id="Fill-62" fill="#F2AD3D" points="86.0747856 34.4584638 86.0610728 34.3187469 86.0610728 34.3120602 86.2588259 34.3120602 86.2790343 34.4584638 86.0747856 34.4584638"></polyline>
                    <polyline id="Fill-63" fill="#F2AD3D" points="84.3570765 34.4660633 84.3570765 34.4862655 84.3776457 34.6801351 84.432136 34.8608911 84.5277648 35.0217993 84.6436019 35.162151 84.7865038 35.2759209 84.9499748 35.3563751 85.1275196 35.409893 85.3180554 35.4300951 85.508952 35.409893 85.6861359 35.3563751 85.849607 35.2759209 85.9928697 35.162151 86.1087068 35.0217993 86.2043355 34.8608911 86.2588259 34.6801351 86.2790342 34.4862655 86.2790342 34.4660633 86.0747856 34.4660633 86.0747856 34.4862655 86.0610728 34.6468193 86.0202953 34.793905 85.9520921 34.9211431 85.8633198 35.034913 85.7543391 35.1288352 85.6247891 35.2022009 85.4750309 35.2489847 85.3180554 35.2624528 85.1614407 35.2489847 85.0113216 35.2022009 84.8821325 35.1288352 84.772791 35.034913 84.6843795 34.9211431 84.6161763 34.793905 84.5753988 34.6468193 84.561686 34.4862655 84.561686 34.4660633 84.3570765 34.4660633"></polyline>
                    <polyline id="Fill-64" fill="#F2AD3D" points="84.9774004 34.4660633 84.9774004 34.8514284 85.1477279 34.8514284 85.1477279 34.519205 85.3180554 34.519205 85.5226649 34.8514284 85.6590712 34.8514284 85.4544617 34.519205 85.5020957 34.519205 85.5497296 34.5058316 85.590868 34.4924582 85.6247892 34.4660633 84.9774004 34.4660633"></polyline>
                </g>
            </g>
        </g>
    </g>
</svg>