<?xml version="1.0" encoding="UTF-8" standalone="no"?>
<svg width="64px" height="64px" viewBox="0 0 64 64" version="1.1" xmlns="http://www.w3.org/2000/svg" xmlns:xlink="http://www.w3.org/1999/xlink">
    <!-- Generator: Sketch 39.1 (31720) - http://www.bohemiancoding.com/sketch -->
    <title>icon-close</title>
    <desc>Created with Sketch.</desc>
    <defs></defs>
    <g id="header" stroke="none" stroke-width="1" fill="none" fill-rule="evenodd">
        <g id="icon-close" fill="#6F7274">
            <path d="M36.577176,32.3331982 L57.7889059,11.1214683 C58.9624742,9.9479 58.9619523,8.04892698 57.7903795,6.8773541 C56.6211905,5.70816514 54.7186519,5.70644095 53.5462652,6.87882764 L32.3345353,28.0905575 L11.1228054,6.87882764 C9.95041875,5.70644095 8.04788018,5.70816514 6.87869122,6.8773541 C5.70711834,8.04892698 5.70659643,9.9479 6.88016475,11.1214683 L28.0918947,32.3331982 L6.88016475,53.5449281 C5.70659643,54.7184964 5.70711834,56.6174695 6.87869122,57.7890423 C8.04788018,58.9582313 9.95041875,58.9599555 11.1228054,57.7875688 L32.3345353,36.5758389 L53.5462652,57.7875688 C54.7186519,58.9599555 56.6211905,58.9582313 57.7903795,57.7890423 C58.9619523,56.6174695 58.9624742,54.7184964 57.7889059,53.5449281 L36.577176,32.3331982 Z" id="Combined-Shape"></path>
        </g>
    </g>
</svg>