<?xml version="1.0" encoding="UTF-8" standalone="no"?>
<svg width="64px" height="64px" viewBox="0 0 64 64" version="1.1" xmlns="http://www.w3.org/2000/svg" xmlns:xlink="http://www.w3.org/1999/xlink">
    <!-- Generator: Sketch 39.1 (31720) - http://www.bohemiancoding.com/sketch -->
    <title>icon-money-white</title>
    <desc>Created with Sketch.</desc>
    <defs></defs>
    <g id="member" stroke="none" stroke-width="1" fill="none" fill-rule="evenodd">
        <g id="icon-money-white" fill="#FFFFFF">
            <path d="M53.8682,53.8698 C48.8682,58.7698 41.4682,60.2698 34.9682,57.6698 C29.4682,55.3698 25.4682,50.3698 24.4682,44.4698 C27.8682,44.0698 31.1682,42.9698 34.0682,41.1698 C34.2682,41.3698 34.4682,41.6698 34.6682,41.8698 C35.4682,42.6698 36.5682,43.1698 37.7682,43.1698 L45.3682,43.1698 C45.7682,43.1698 46.1682,43.3698 46.4682,43.6698 C46.7682,43.9698 46.9682,44.3698 46.9682,44.7698 L46.9682,49.6698 C46.9682,50.0698 46.7682,50.4698 46.5682,50.7698 C46.2682,51.0698 45.8682,51.2698 45.4682,51.2698 L37.9682,51.2698 C37.5682,51.2698 37.1682,51.0698 36.8682,50.7698 C36.5682,50.4698 36.3682,50.0698 36.3682,49.6698 C36.3682,48.8698 35.7682,48.1698 34.9682,48.1698 L34.8682,48.1698 C34.0682,48.1698 33.3682,48.8698 33.3682,49.6698 C33.3682,50.8698 33.8682,52.0698 34.6682,52.8698 C35.4682,53.7698 36.6682,54.1698 37.8682,54.1698 L40.0682,54.1698 L40.0682,55.4698 C40.0682,56.2698 40.7682,56.9698 41.5682,56.9698 C42.3682,56.9698 43.0682,56.2698 43.0682,55.4698 L43.0682,54.1698 L45.2682,54.1698 C47.7682,54.1698 49.7682,52.1698 49.8682,49.6698 L49.8682,44.7698 C49.8682,43.5698 49.3682,42.3698 48.5682,41.5698 C47.7682,40.7698 46.6682,40.2698 45.4682,40.2698 L45.2682,40.2698 L37.9682,40.2698 C37.5682,40.2698 37.1682,40.0698 36.8682,39.7698 C36.7682,39.6698 36.6682,39.5698 36.5682,39.4698 C38.9682,37.4698 40.8682,35.0698 42.2682,32.2698 L45.3682,32.2698 C46.2682,32.2698 46.8682,32.9698 46.9682,33.7698 C46.9682,34.5698 47.6682,35.2698 48.4682,35.2698 C49.2682,35.2698 49.9682,34.6698 49.9682,33.8698 C49.9682,32.6698 49.4682,31.4698 48.6682,30.6698 C47.8682,29.7698 46.6682,29.3698 45.4682,29.3698 L43.5682,29.3698 C44.0682,27.8698 44.3682,26.3698 44.5682,24.7698 C53.9682,26.2698 60.3682,35.1698 58.8682,44.5698 C58.1682,47.9698 56.4682,51.2698 53.8682,53.8698 M4.9682,22.2698 C4.9682,12.6698 12.7682,4.9698 22.2682,4.9698 C31.7682,4.9698 39.5682,12.7698 39.5682,22.2698 C39.5682,31.8698 31.7682,39.5698 22.2682,39.5698 C12.6682,39.4698 4.9682,31.7698 4.9682,22.2698 M50.3682,21.1698 C48.4682,20.3698 46.4682,19.7698 44.3682,19.5698 C42.8682,7.2698 31.7682,-1.3302 19.5682,0.1698 C7.3682,1.6698 -1.3318,12.7698 0.1682,25.0698 C1.4682,35.1698 9.3682,43.1698 19.5682,44.4698 C20.9682,55.5698 30.3682,63.9698 41.6682,63.9698 C53.9682,63.9698 63.9682,53.9698 63.9682,41.6698 C63.9682,32.6698 58.6682,24.6698 50.3682,21.1698 M17.4682,13.2698 C17.7682,12.9698 18.1682,12.7698 18.5682,12.7698 L25.9682,12.7698 C26.3682,12.7698 26.7682,12.9698 27.0682,13.2698 C27.3682,13.5698 27.5682,13.8698 27.5682,14.2698 C27.5682,15.0698 28.2682,15.7698 29.0682,15.7698 C29.8682,15.7698 30.5682,15.0698 30.5682,14.2698 C30.5682,13.0698 30.0682,11.8698 29.1682,11.0698 C28.3682,10.1698 27.1682,9.7698 25.9682,9.7698 L23.7682,9.7698 L23.7682,8.4698 C23.7682,7.6698 23.0682,6.9698 22.2682,6.9698 C21.4682,6.9698 20.7682,7.6698 20.7682,8.4698 L20.7682,9.7698 L18.5682,9.7698 C17.3682,9.7698 16.1682,10.2698 15.3682,11.0698 C14.4682,11.8698 14.0682,13.0698 14.0682,14.2698 L14.0682,19.1698 C14.0682,20.3698 14.5682,21.5698 15.3682,22.3698 C16.1682,23.1698 17.2682,23.6698 18.4682,23.7698 L25.9682,23.7698 C26.3682,23.7698 26.7682,23.9698 27.0682,24.2698 C27.3682,24.5698 27.5682,24.9698 27.5682,25.3698 L27.5682,30.2698 C27.5682,30.6698 27.3682,31.0698 27.0682,31.3698 C26.7682,31.6698 26.3682,31.8698 25.9682,31.8698 L18.4682,31.8698 C18.0682,31.8698 17.6682,31.6698 17.3682,31.3698 C17.0682,31.0698 16.8682,30.6698 16.8682,30.2698 C16.8682,29.4698 16.1682,28.7698 15.3682,28.7698 C14.5682,28.7698 13.9682,29.3698 13.9682,30.2698 C13.9682,31.4698 14.4682,32.6698 15.2682,33.4698 C16.1682,34.2698 17.2682,34.7698 18.4682,34.7698 L20.6682,34.7698 L20.6682,36.0698 C20.6682,36.8698 21.2682,37.5698 22.1682,37.5698 C22.9682,37.5698 23.6682,36.8698 23.6682,36.0698 L23.6682,34.7698 L25.9682,34.7698 C27.1682,34.7698 28.2682,34.2698 29.1682,33.4698 C30.0682,32.6698 30.5682,31.4698 30.5682,30.2698 L30.5682,25.3698 C30.5682,24.1698 30.0682,22.9698 29.1682,22.1698 C28.3682,21.3698 27.2682,20.8698 26.0682,20.7698 L18.4682,20.7698 C18.0682,20.7698 17.6682,20.5698 17.3682,20.2698 C17.1682,19.9698 16.9682,19.5698 16.9682,19.1698 L16.9682,14.2698 C16.9682,13.8698 17.1682,13.4698 17.4682,13.2698" id="Combined-Shape"></path>
        </g>
    </g>
</svg>