<?xml version="1.0" encoding="UTF-8" standalone="no"?>
<svg width="64px" height="64px" viewBox="0 0 64 64" version="1.1" xmlns="http://www.w3.org/2000/svg" xmlns:xlink="http://www.w3.org/1999/xlink">
    <!-- Generator: Sketch 39.1 (31720) - http://www.bohemiancoding.com/sketch -->
    <title>icon-add-heart-outline-blue</title>
    <desc>Created with Sketch.</desc>
    <defs></defs>
    <g id="cart/order/product" stroke="none" stroke-width="1" fill="none" fill-rule="evenodd">
        <g id="icon-add-heart-outline-blue" fill="#0090D4">
            <path d="M58.0365,24.1862 C57.1775,37.7712 46.7545,49.6822 32.0305,54.0072 C22.1215,51.0962 14.1645,44.7512 9.7565,36.7752 L26.1305,36.7752 L20.8305,42.3752 C19.7305,43.5752 19.7305,45.3752 20.8305,46.5752 L20.9305,46.6752 C21.9305,47.6752 23.7305,47.6752 24.7305,46.5752 L34.7305,35.9752 L34.7305,35.8752 C35.8305,34.7752 35.8305,32.8752 34.7305,31.7752 L23.7305,20.1752 C23.6305,20.0752 23.6305,20.0752 23.5305,19.9752 C22.5305,19.0752 20.8305,19.0752 19.8305,20.1752 C18.7305,21.2752 18.7305,23.1752 19.8305,24.2752 L26.0305,30.9752 L7.2805,30.9752 C6.6035,28.7872 6.1725,26.5222 6.0255,24.2082 C5.5805,16.2292 10.2585,11.4782 15.0925,10.3102 C19.5345,9.2362 25.5435,10.9282 29.0895,18.8952 C29.6225,20.0922 30.8415,20.7552 32.0785,20.6522 C33.3155,20.7562 34.5375,20.0932 35.0715,18.8952 C38.6355,10.8882 44.6495,9.1942 49.1045,10.2842 C53.9015,11.4572 58.5235,16.2132 58.0365,24.1862 M50.5295,4.4562 C44.9925,3.1012 37.3545,4.5202 32.0795,12.0492 C26.8235,4.5662 19.2105,3.1422 13.6815,4.4782 C5.1025,6.5522 -0.5085,14.8032 0.0365,24.5652 C1.0695,40.8842 13.5245,55.1112 31.0285,59.9662 C31.2965,60.0402 31.5665,60.0772 31.8315,60.0772 C31.8995,60.0772 31.9645,60.0652 32.0305,60.0602 C32.0975,60.0652 32.1625,60.0772 32.2295,60.0772 C32.4945,60.0772 32.7645,60.0402 33.0325,59.9662 C50.5375,55.1112 62.9915,40.8842 64.0245,24.5592 C64.6205,14.8112 59.0715,6.5452 50.5295,4.4562" id="Fill-1"></path>
        </g>
    </g>
</svg>