<?xml version="1.0" encoding="UTF-8" standalone="no"?>
<svg width="64px" height="64px" viewBox="0 0 64 64" version="1.1" xmlns="http://www.w3.org/2000/svg" xmlns:xlink="http://www.w3.org/1999/xlink">
    <!-- Generator: Sketch 39.1 (31720) - http://www.bohemiancoding.com/sketch -->
    <title>icon-attention-circle-blue</title>
    <desc>Created with Sketch.</desc>
    <defs></defs>
    <g id="form-/-home" stroke="none" stroke-width="1" fill="none" fill-rule="evenodd">
        <g id="icon-attention-circle-blue" fill="#0090D4">
            <path d="M32,2 C15.39875,2 2,15.39875 2,32 C2,48.55625 15.39875,62 32,62 C48.55625,62 62,48.55625 62,32 C62,15.408125 48.55625,2 32,2 L32,2 Z M35.564375,49.07 C34.6775,49.95125 33.494375,50.440625 32.24375,50.440625 C30.993125,50.440625 29.804375,49.9325 28.923125,49.07 C28.05875,48.205625 27.55625,46.99625 27.55625,45.753125 C27.55625,44.526875 28.064375,43.293125 28.923125,42.4325 C30.681875,40.675625 33.809375,40.675625 35.55875,42.4325 C36.423125,43.296875 36.925625,44.5025 36.925625,45.753125 C36.95375,46.979375 36.441875,48.2075 35.564375,49.07 L35.564375,49.07 Z M37.713125,19.424375 L36.01625,35.050625 C35.82125,37.120625 33.970625,38.635625 31.908125,38.448125 C30.078125,38.25875 28.68875,36.835625 28.51625,35.050625 L26.8175,19.424375 C26.54375,16.416875 28.731875,13.750625 31.739375,13.446875 C34.746875,13.16375 37.424375,15.36125 37.716875,18.36875 C37.743125,18.715625 37.739375,19.08875 37.713125,19.424375 L37.713125,19.424375 Z" id="Shape"></path>
        </g>
    </g>
</svg>