<?xml version="1.0" encoding="UTF-8" standalone="no"?>
<svg width="64px" height="64px" viewBox="0 0 64 64" version="1.1" xmlns="http://www.w3.org/2000/svg" xmlns:xlink="http://www.w3.org/1999/xlink">
    <!-- Generator: Sketch 39.1 (31720) - http://www.bohemiancoding.com/sketch -->
    <title>icon-cart-add</title>
    <desc>Created with Sketch.</desc>
    <defs></defs>
    <g id="cart/order/product" stroke="none" stroke-width="1" fill="none" fill-rule="evenodd">
        <g id="icon-cart-add" fill="#6F7274">
            <path d="M59.47,30.044 C57.25,27.132 53.224,25.25 49.213,25.25 L21.713,25.25 C20.056,25.25 18.713,26.593 18.713,28.25 C18.713,29.907 20.056,31.25 21.713,31.25 L49.213,31.25 C51.352,31.25 53.607,32.25 54.699,33.682 C55.276,34.439 55.457,35.204 55.264,36.078 L52.682,42.009 C50.507,46.795 49.189,49.05 46.513,49.05 L22.613,49.05 C20.274,49.05 19.395,47.948 17.547,42.56 C17.214,40.09 15,24.022 12.966,17.822 C9.637,7.588 3.67,7.707 3,7.758 L3.427,13.742 C3.427,13.742 3.34,13.764 3.183,13.745 C3.206,13.748 5.441,14.085 7.262,19.686 C9.252,25.748 11.616,43.466 11.639,43.645 C11.665,43.839 11.71,44.03 11.773,44.216 C12.516,46.404 13.348,48.83 14.696,50.833 C13.293,52.146 12.413,53.997 12.413,56.05 C12.413,60.02 15.688,63.25 19.713,63.25 C23.738,63.25 27.013,60.02 27.013,56.05 C27.013,55.71 26.981,55.378 26.934,55.05 L42.092,55.05 C42.045,55.378 42.013,55.71 42.013,56.05 C42.013,60.02 45.287,63.25 49.313,63.25 C53.338,63.25 56.613,60.02 56.613,56.05 C56.613,54.087 55.81,52.307 54.514,51.006 C56.071,49.034 57.174,46.627 58.164,44.447 L60.864,38.247 C60.92,38.116 60.968,37.981 61.005,37.844 C61.759,35.101 61.213,32.331 59.47,30.044 Z M34.6097,23.4 L34.8097,23.4 L34.9097,23.5 L35.5467,23.5 L36.2467,23.9 L36.8167,23.9 L36.8897,23.826 L37.2157,23.8 L48.5897,12.427 C49.3877,11.628 49.3927,10.391 48.5897,9.473 C47.7927,8.676 46.5537,8.67 45.6367,9.472 L37.7627,17.252 L37.7627,2.05 C37.7627,0.92 36.8427,0 35.7137,0 C34.5837,0 33.6637,0.92 33.6637,2.05 L33.6637,16.831 L26.1897,9.073 C25.3887,8.273 24.0367,8.273 23.2357,9.073 C22.4377,9.872 22.4327,11.109 23.2357,12.027 L34.6097,23.4 Z M25.2132,44.2501 L44.7132,44.2501 C46.3702,44.2501 47.7132,42.9071 47.7132,41.2501 C47.7132,39.5931 46.3702,38.2501 44.7132,38.2501 L25.2132,38.2501 C23.5562,38.2501 22.2132,39.5931 22.2132,41.2501 C22.2132,42.9071 23.5562,44.2501 25.2132,44.2501 Z" id="Combined-Shape"></path>
        </g>
    </g>
</svg>