<?xml version="1.0" encoding="utf-8"?>
<!-- Generator: Adobe Illustrator 22.1.0, SVG Export Plug-In . SVG Version: 6.00 Build 0)  -->
<svg version="1.1" id="圖層_1" xmlns="http://www.w3.org/2000/svg" xmlns:xlink="http://www.w3.org/1999/xlink" x="0px" y="0px"
	 viewBox="0 0 28 28" style="enable-background:new 0 0 28 28;" xml:space="preserve">
<style type="text/css">
	.st0{fill:#E64894;}
	.st1{opacity:0.1;}
</style>
<title>icon-heart</title>
<desc>Created with Sketch.</desc>
<g id="Page-1">
	<g id="index_x28_S-CARE_x29_-orange" transform="translate(-2333.000000, -145.000000)">
		<g id="icon-heart" transform="translate(2333.000000, 145.000000)">
			<g>
				<path class="st0" d="M26,0H2C0.9,0,0,0.9,0,2v24c0,1.1,0.9,2,2,2h24c1.1,0,2-0.9,2-2V2C28,0.9,27.1,0,26,0z M11.6,12.2
					c0,0.1,0,0.2,0,0.2c0.1,0.1,0.1,0.1,0.2,0.1l4.4,0c0.8,0.1,1.6,0.4,2.2,1c0.6,0.6,1,1.5,1,2.3v2.8c0,0.9-0.4,1.8-1,2.3
					c-0.7,0.6-1.4,0.9-2.3,0.9h-0.7V22c0,0.8-0.7,1.5-1.5,1.5c-0.9,0-1.5-0.7-1.5-1.5v-0.1h-0.6c-0.8,0-1.6-0.3-2.3-0.9
					c-0.6-0.6-0.9-1.5-0.9-2.3c0-0.9,0.6-1.5,1.5-1.5c0.8,0,1.5,0.7,1.5,1.5c0,0,0,0.1,0.1,0.2c0.1,0.1,0.1,0.1,0.2,0.1h4.3
					c0,0,0.1,0,0.2-0.1c0.1-0.1,0.1-0.1,0.1-0.2v-2.8c0,0,0-0.1-0.1-0.2c-0.1-0.1-0.1-0.1-0.2-0.1l-4.3,0c-0.8-0.1-1.6-0.4-2.2-1
					c-0.6-0.6-0.9-1.5-0.9-2.3V9.4C8.7,8.4,9,7.6,9.6,7c0.6-0.6,1.4-0.9,2.3-0.9h0.6V6c0-0.8,0.7-1.5,1.5-1.5s1.5,0.7,1.5,1.5v0.1
					h0.6c0.9,0,1.8,0.3,2.3,0.9c0.6,0.6,1,1.5,1,2.3c0,0.8-0.7,1.5-1.5,1.5c-0.8,0-1.5-0.7-1.5-1.5c0,0,0,0-0.1-0.1
					c-0.1-0.1-0.1-0.1-0.2-0.1h-4.2c0,0-0.1,0-0.2,0.1l-0.1,0.1C11.6,9.3,11.6,10.3,11.6,12.2z"/>
			</g>
			<g>
				<g id="path-1_1_">
					<g class="st1">
						<path d="M26,1c0.6,0,1,0.4,1,1v24c0,0.6-0.4,1-1,1H2c-0.6,0-1-0.4-1-1V2c0-0.6,0.4-1,1-1H26 M26,0H2C0.9,0,0,0.9,0,2v24
							c0,1.1,0.9,2,2,2h24c1.1,0,2-0.9,2-2V2C28,0.9,27.1,0,26,0L26,0z"/>
					</g>
				</g>
			</g>
		</g>
	</g>
</g>
</svg>
