<?xml version="1.0" encoding="UTF-8"?>
<svg width="64px" height="62px" viewBox="0 0 64 62" version="1.1" xmlns="http://www.w3.org/2000/svg" xmlns:xlink="http://www.w3.org/1999/xlink">
    <!-- Generator: Sketch 43.2 (39069) - http://www.bohemiancoding.com/sketch -->
    <title>icon-doc</title>
    <desc>Created with Sketch.</desc>
    <defs></defs>
    <g id="Page-1" stroke="none" stroke-width="1" fill="none" fill-rule="evenodd">
        <g id="icon-doc" fill-rule="nonzero" fill="#DCDDDE">
            <path d="M45.9736,56 L45.7636,56 L45.7636,50.726 C45.7656,47.054 48.7536,44.068 52.4266,44.068 L52.4306,44.068 L57.9346,44.068 C56.7236,46.847 48.4216,55.162 45.9736,56 L45.9736,56 Z M50.0396,0 L50.0336,0 L13.9686,0 L13.9616,0 C6.2656,0 0.0036,6.258 -0.0004,13.955 L-0.0004,48.045 C0.0016,51.775 1.4556,55.28 4.0946,57.916 C6.7306,60.55 10.2346,62 13.9586,62 L13.9676,62 L29.3396,62 C30.9966,62 32.3396,60.657 32.3396,59 C32.3396,57.343 30.9966,56 29.3396,56 L13.9656,56 L13.9606,56 C11.8356,56 9.8376,55.173 8.3346,53.672 C6.8296,52.169 6.0006,50.169 5.9996,48.044 L5.9996,13.957 C6.0016,9.568 9.5736,6 13.9636,6 L13.9676,6 L50.0346,6 L50.0376,6 C54.4256,6 57.9966,9.569 57.9996,13.955 L57.9996,38.068 L52.4306,38.068 L52.4226,38.068 C49.0436,38.068 45.8676,39.384 43.4766,41.771 C41.0836,44.161 39.7656,47.34 39.7636,50.724 L39.7636,58.673 C39.7636,59.385 40.0216,60.03 40.4366,60.545 C40.9616,61.414 41.9066,62 42.9956,62 L46.1656,62 C48.5606,62 52.1786,59.566 56.9196,54.768 C61.6186,50.012 63.9996,46.45 63.9996,44.183 L63.9996,13.953 C63.9946,6.257 57.7336,0 50.0396,0 Z M14.2329,20.1924 L49.7679,20.1924 C51.4249,20.1924 52.7679,18.8494 52.7679,17.1924 C52.7679,15.5354 51.4249,14.1924 49.7679,14.1924 L14.2329,14.1924 C12.5759,14.1924 11.2329,15.5354 11.2329,17.1924 C11.2329,18.8494 12.5759,20.1924 14.2329,20.1924 Z M14.2329,47.2266 L29.4829,47.2276 C31.1399,47.2276 32.4829,45.8846 32.4829,44.2276 C32.4829,42.5716 31.1399,41.2276 29.4829,41.2276 L14.2329,41.2266 C12.5759,41.2266 11.2329,42.5696 11.2329,44.2266 C11.2329,45.8826 12.5759,47.2266 14.2329,47.2266 Z M14.2329,33.71 L49.7679,33.71 C51.4249,33.71 52.7679,32.367 52.7679,30.71 C52.7679,29.054 51.4249,27.71 49.7679,27.71 L14.2329,27.71 C12.5759,27.71 11.2329,29.054 11.2329,30.71 C11.2329,32.367 12.5759,33.71 14.2329,33.71 Z" id="Combined-Shape"></path>
        </g>
    </g>
</svg>