<?xml version="1.0" encoding="utf-8"?>
<!-- Generator: Adobe Illustrator 22.0.1, SVG Export Plug-In . SVG Version: 6.00 Build 0)  -->
<svg version="1.1" id="圖層_1" xmlns="http://www.w3.org/2000/svg" xmlns:xlink="http://www.w3.org/1999/xlink" x="0px" y="0px"
	 viewBox="0 0 64 64" style="enable-background:new 0 0 64 64;" xml:space="preserve">
<style type="text/css">
	.st0{fill:#6F7274;}
</style>
<title>icon-mail</title>
<desc>Created with Sketch.</desc>
<g id="member">
	<g id="icon-mail">
		<path id="Page-1" class="st0" d="M58,47.1c0,3.3-2.7,5.9-6,5.9h-0.1H12H12c-3.3,0-5.9-2.6-6-5.9V16.9c0-0.5,0.1-0.9,0.2-1.4
			l23.3,23.3c0.6,0.6,1.4,0.9,2.1,0.9c0.8,0,1.5-0.3,2.1-0.9l23.9-23.9c0.2,0.6,0.4,1.3,0.4,2V47.1z M12.1,11h39.9c0,0,0.1,0,0.1,0
			c0.3,0,0.6,0,0.9,0.1L31.6,32.5L10.4,11.2C10.9,11.1,11.4,11,12.1,11C12,11,12,11,12.1,11L12.1,11z M51.9,5H12.1
			C5.5,5,0.1,10.3,0,16.9v30.3C0.1,53.7,5.4,59,11.9,59c0,0,0.1,0,0.1,0h39.8H52c6.5,0,11.9-5.3,12-11.9V16.9
			C63.9,10.3,58.5,4.9,51.9,5L51.9,5z"/>
	</g>
</g>
</svg>
