<svg xmlns="http://www.w3.org/2000/svg" width="64" height="56.71" viewBox="0 0 64 56.71">
  <defs>
    <style>
      .cls-1 {
        fill: #5eb63e;
      }
    </style>
  </defs>
  <title>icon-mail-verify-success</title>
  <g id="圖層_2" data-name="圖層 2">
    <g id="圖層_1-2" data-name="圖層 1">
      <path class="cls-1" d="M51.13,21.19V9.51A9.62,9.62,0,0,0,41.46,0H9.67A9.67,9.67,0,0,0,0,9.51V33.72a9.56,9.56,0,0,0,9.51,9.42H28.3A18.14,18.14,0,1,0,51.13,21.19ZM9.67,4.79H41.62a2.21,2.21,0,0,1,.72.08L25.25,22,8.31,5A6.34,6.34,0,0,1,9.67,4.79ZM4.79,33.64V9.51A5.4,5.4,0,0,1,5,8.39L23.57,27a2.44,2.44,0,0,0,1.68.72A2.28,2.28,0,0,0,26.92,27L46,7.91a5.17,5.17,0,0,1,.32,1.6V20.42l-.5,0a18.15,18.15,0,0,0-18.14,18H9.59A4.8,4.8,0,0,1,4.79,33.64ZM44,47.66a2.33,2.33,0,0,1-1.63.67h0a2.25,2.25,0,0,1-1.62-.68,1.8,1.8,0,0,1-.19-.2l-.08-.08-7.76-7.76A2.31,2.31,0,0,1,36,36.35l6.41,6.41L55.7,29.45a2.36,2.36,0,0,1,1.63-.67A2.31,2.31,0,0,1,59,32.71Z"/>
    </g>
  </g>
</svg>
