<?xml version="1.0" encoding="UTF-8" standalone="no"?>
<svg width="64px" height="64px" viewBox="0 0 64 64" version="1.1" xmlns="http://www.w3.org/2000/svg" xmlns:xlink="http://www.w3.org/1999/xlink">
    <!-- Generator: Sketch 39.1 (31720) - http://www.bohemiancoding.com/sketch -->
    <title>icon-nav-search-light</title>
    <desc>Created with Sketch.</desc>
    <defs></defs>
    <g id="header" stroke="none" stroke-width="1" fill="none" fill-rule="evenodd">
        <g id="icon-nav-search-light" fill="#B5B7B8">
            <path d="M46.5004,27.5623 L46.5004,27.5623 C45.6244,27.5553 44.9074,28.2593 44.9004,29.1363 L44.9004,29.1793 C44.8944,31.2433 44.4804,33.2863 43.6814,35.1893 L43.6814,35.3013 C42.0444,39.0833 39.0044,42.0833 35.2004,43.6693 C33.2984,44.4603 31.2604,44.8733 29.2004,44.8863 C28.3254,44.8683 27.6024,45.5623 27.5834,46.4373 L27.5834,46.4663 C27.5904,47.3563 28.3104,48.0753 29.2004,48.0803 C34.2064,48.0793 39.0094,46.0983 42.5594,42.5693 C44.2904,40.8183 45.6724,38.7533 46.6294,36.4843 L46.6294,36.4223 C47.5944,34.1293 48.0924,31.6663 48.0934,29.1783 C48.1024,28.2943 47.3944,27.5703 46.5104,27.5613 L46.4934,27.5613 L46.5004,27.5623 Z M46.0614,46.0273 L46.0614,46.0273 L46.0004,46.0693 C41.5664,50.5573 35.5094,53.0663 29.2004,53.0283 C26.0704,53.0213 22.9714,52.4153 20.0694,51.2413 C17.1854,50.0143 14.5634,48.2453 12.3454,46.0303 C10.1304,43.8023 8.3684,41.1663 7.1544,38.2693 L7.1154,38.1693 C4.7704,32.3533 4.7844,25.8533 7.1544,20.0473 C8.3544,17.1663 10.1204,14.5553 12.3484,12.3693 C16.7964,7.8633 22.8684,5.3343 29.2004,5.3493 C32.3244,5.3573 35.4184,5.9643 38.3134,7.1383 C41.2164,8.3503 43.8484,10.1283 46.0574,12.3683 L46.1894,12.4803 C48.3394,14.6573 50.0514,17.2273 51.2324,20.0503 L51.2884,20.2013 C52.4374,23.0553 53.0314,26.1023 53.0394,29.1793 C53.0464,32.2993 52.4324,35.3893 51.2324,38.2693 C50.0514,41.1793 48.2914,43.8193 46.0574,46.0273 L46.0614,46.0273 Z M63.2004,59.4133 L51.6344,47.8353 C56.0154,42.6083 58.4084,36.0003 58.3894,29.1793 C58.3814,25.4053 57.6514,21.6683 56.2384,18.1693 L56.1824,18.0163 C54.7284,14.5323 52.6154,11.3623 49.9594,8.6803 L49.8274,8.5473 C47.1244,5.8323 43.9104,3.6803 40.3714,2.2143 C25.4694,-3.9247 8.4084,3.1383 2.2074,18.0143 C-0.7226,25.1193 -0.7366,33.0923 2.1684,40.2083 L2.2074,40.3403 C3.6674,43.8973 5.8284,47.1253 8.5604,49.8303 C11.2674,52.5433 14.4884,54.6903 18.0354,56.1443 C25.1904,59.0863 33.2164,59.0863 40.3714,56.1443 C43.0854,55.0253 45.6124,53.4993 47.8654,51.6173 L59.4554,63.1983 C60.5004,64.2323 62.1864,64.2233 63.2204,63.1783 C64.2544,62.1333 64.2454,60.4473 63.2004,59.4133 L63.2004,59.4133 Z" id="Fill-1"></path>
        </g>
    </g>
</svg>