<?xml version="1.0" encoding="utf-8"?>
<!-- Generator: Adobe Illustrator 22.0.1, SVG Export Plug-In . SVG Version: 6.00 Build 0)  -->
<svg version="1.1" id="圖層_1" xmlns="http://www.w3.org/2000/svg" xmlns:xlink="http://www.w3.org/1999/xlink" x="0px" y="0px"
	 viewBox="0 0 64 64" style="enable-background:new 0 0 64 64;" xml:space="preserve">
<style type="text/css">
	.st0{fill:#5EB63E;}
</style>
<title>icon-check-circle</title>
<desc>Created with Sketch.</desc>
<g id="cart_x2F_order_x2F_product">
	<g id="icon-check-circle">
		<path id="Combined-Shape" class="st0" d="M29,42.4L54.4,17C49.6,9.8,41.4,5,32,5C17.1,5,5,17.1,5,32s12.1,27,27,27s27-12.1,27-27
			c0-3.8-0.8-7.5-2.2-10.8L30.7,47.3c-0.9,0.9-2.4,0.9-3.3,0c-0.1-0.1-0.2-0.2-0.3-0.3c-0.1-0.1-0.1-0.1-0.2-0.2L12.7,32.6
			c-0.9-0.9-0.9-2.4,0-3.3c0.9-0.9,2.4-0.9,3.3,0L29,42.4z M0,32C0,14.3,14.3,0,32,0s32,14.3,32,32S49.7,64,32,64S0,49.7,0,32z"/>
	</g>
</g>
</svg>
