<?xml version="1.0" encoding="UTF-8"?>
<svg width="88px" height="44px" viewBox="0 0 88 44" version="1.1" xmlns="http://www.w3.org/2000/svg" xmlns:xlink="http://www.w3.org/1999/xlink">
    <!-- Generator: Sketch 56.3 (81716) - https://sketch.com -->
    <title>Artboard</title>
    <desc>Created with Sketch.</desc>
    <g id="Artboard" stroke="none" stroke-width="1" fill="none" fill-rule="evenodd">
        <g id="icon-ccard-amex" transform="translate(0.000000, 7.000000)" fill="#FFFFFF" fill-rule="nonzero">
            <polygon id="Path" points="63.2053514 3.31080877 61.5938473 7.22341648 64.8333182 7.22341648"></polygon>
            <polygon id="Path" points="7.50876795 3.31080877 5.91555556 7.22341648 9.11478458 7.22341648"></polygon>
            <path d="M44.4855631,3.86504913 C44.2075284,3.70773999 43.7795012,3.68761905 43.373424,3.68761905 L40.4833258,3.68761905 L40.4833258,5.8661678 L43.3350113,5.8661678 C43.7868179,5.8661678 44.1672865,5.8588511 44.494709,5.66495842 C44.7965231,5.50582011 44.9776115,5.16010582 44.9776115,4.73207861 C44.9776115,4.31136811 44.7892063,4.00772487 44.4855631,3.86504913 Z" id="Path"></path>
            <path d="M54.538715,20.7483447 C54.2533636,20.5782313 53.832653,20.5709146 53.4192593,20.5709146 L50.5291609,20.5709146 L50.5291609,22.7750719 L53.3808466,22.7750719 C53.8381406,22.7750719 54.2277551,22.7604384 54.5442025,22.5756916 C54.8478458,22.3891157 55.0289343,22.0543764 55.0289343,21.6318367 C55.0234467,21.209297 54.8423583,20.9056539 54.538715,20.7483447 Z" id="Path"></path>
            <path d="M43.1155101,20.5672562 L40.0571277,20.5672562 L40.0571277,23.06774 L43.0862434,23.06774 C43.9880272,23.06774 44.5495842,22.6214211 44.5495842,21.7745125 C44.5477551,20.9111414 43.9642479,20.5672562 43.1155101,20.5672562 Z" id="Path"></path>
            <path d="M86.4505216,22.0415722 C86.4340589,22.0251096 86.4157672,22.0068179 86.3993047,21.9940137 C86.8437944,21.7050038 87.140121,21.2038095 87.140121,20.6331066 L87.140121,18.5423583 C87.140121,17.6442328 86.413938,16.919879 85.5176417,16.919879 L80.8166592,16.919879 C79.351489,16.919879 78.2466667,17.3515647 77.4418292,18.0027513 C77.2168405,17.3735147 76.6388208,16.919879 75.9309297,16.919879 L71.2299471,16.919879 C69.9367196,16.919879 68.9178685,17.2399849 68.1422978,17.7667876 C67.8606046,17.2637641 67.3539228,16.919879 66.7466364,16.919879 L58.9177626,16.919879 C58.2866969,16.919879 57.7544067,17.2875435 57.4855178,17.812517 C57.373938,17.7338624 57.2916251,17.6424036 57.1745578,17.5728949 C56.0386395,16.9656085 54.8313832,16.919879 53.5875435,16.919879 L48.1676946,16.919879 C47.5366289,16.919879 47.0025094,17.2912018 46.7354497,17.8198338 C45.9104913,17.2838851 44.7562812,16.919879 43.1155101,16.919879 L35.6195464,16.919879 C35.16774,16.919879 34.7378836,17.1027967 34.4287528,17.4357068 L32.6526229,19.3508541 L30.9478307,17.4576568 C30.6423583,17.1082842 30.2051852,16.9180498 29.7424036,16.9180498 L20.3075132,16.9180498 C19.4112169,16.9180498 18.6868632,17.6442328 18.6868632,18.5405291 L18.6868632,28.3577174 C18.6868632,29.2558427 19.4130461,29.9801965 20.3075132,29.9801965 L29.601557,29.9801965 C30.0533636,29.9801965 30.48322,29.7917914 30.7905216,29.4588814 L32.581285,27.5217838 L34.2805895,29.4332729 C34.5878911,29.7808163 35.0305517,29.9765382 35.4933333,29.9765382 L40.0534694,29.9765382 C40.9515948,29.9765382 41.6759486,29.2503552 41.6759486,28.3577174 L41.6759486,26.682192 L42.9801512,26.682192 C44.5660469,26.682192 45.7129403,26.3565986 46.5470445,25.860892 L46.5470445,28.3577174 C46.5470445,29.2521844 47.2732275,29.9765382 48.1695238,29.9765382 L50.5273319,29.9765382 C51.4254572,29.9765382 52.149811,29.2503552 52.149811,28.3577174 L52.149811,26.3895238 L53.0333031,26.3895238 C53.2491459,26.3895238 53.4009675,26.3968405 53.5107181,26.4041573 C53.5180348,26.5797581 53.5180348,26.7901133 53.5143764,26.9291308 L53.5143764,28.3577174 C53.5143764,29.2521844 54.2442177,29.9765382 55.1368557,29.9765382 L57.4910053,29.9765382 C57.7544067,29.9765382 57.9921996,29.9052003 58.2080423,29.7936205 C58.4275435,29.9015419 58.6635072,29.9765382 58.9232502,29.9765382 L66.7539531,29.9765382 C67.0082086,29.9765382 67.2441724,29.9052003 67.4581859,29.8009372 C67.6721996,29.9052003 67.9026758,29.9765382 68.1624187,29.9765382 L72.7317006,29.9765382 C74.1858957,29.9765382 75.3712018,29.6198488 76.2583523,28.9906123 C76.5016327,29.5686318 77.075994,29.9765382 77.7473016,29.9765382 L82.3165835,29.9765382 C85.6401965,29.9765382 87.6211943,28.2113832 87.6211943,25.2572638 C87.6211943,23.8890401 87.2517006,22.870189 86.4505216,22.0415722 Z M42.9819803,25.0597128 L40.0552985,25.0597128 L40.0552985,28.3540589 L35.4951625,28.3540589 L32.6050642,25.1054422 L29.601557,28.3540589 L20.3075132,28.3540589 L20.3075132,18.5350416 L29.7424036,18.5350416 L32.6325019,21.7543915 L35.6177174,18.5350416 L43.1136811,18.5350416 C44.9739531,18.5350416 47.0683598,19.0563567 47.0683598,21.7745125 C47.0683598,24.4981557 45.034316,25.0652003 42.9819803,25.0597128 Z M55.9563266,23.7957521 C56.4758126,23.9859863 56.9020106,24.3317006 57.0995616,24.6207105 C57.4343008,25.0999546 57.4782011,25.5462737 57.4891761,26.411474 L57.4891761,28.3577174 L55.1350265,28.3577174 L55.1350265,27.128511 C55.1350265,26.5395163 55.1917309,25.6633408 54.7527287,25.2060469 C54.4161602,24.8566742 53.8948451,24.7743613 53.0351323,24.7743613 L50.5291609,24.7743613 L50.5291609,28.3577174 L48.171353,28.3577174 L48.171353,18.5405291 L53.5912018,18.5405291 C54.7765079,18.5405291 55.639879,18.5899168 56.4136205,19.0014815 C57.1526077,19.4478004 57.6190476,20.0624036 57.6190476,21.1800303 C57.6190476,22.7494634 56.5709297,23.5488133 55.9563266,23.7957521 Z M66.7502948,20.5690854 L61.2554497,20.5690854 L61.2554497,22.3561905 L66.6149358,22.3561905 L66.6149358,24.3609675 L61.2554497,24.3609675 L61.2554497,26.3108692 L66.7502948,26.3218443 L66.7502948,28.3577174 L58.9214211,28.3577174 L58.9214211,18.5405291 L66.7502948,18.5405291 L66.7502948,20.5690854 Z M72.7335298,28.346922 L68.1642479,28.346922 L68.1642479,26.2377022 L72.7134089,26.2377022 C73.1560695,26.2377022 73.472517,26.1828269 73.670068,25.9944218 C73.8310356,25.8444293 73.9444444,25.6194406 73.9444444,25.352381 C73.9444444,25.0670295 73.8237188,24.8420409 73.659093,24.7048526 C73.4761753,24.5548602 73.2347241,24.4871806 72.8231595,24.4871806 C70.6318064,24.4158427 67.8825548,24.5548602 67.8825548,21.4507482 C67.8825548,20.0221618 68.7751927,18.5277249 71.2372638,18.5277249 L75.9382465,18.5277249 L75.9382465,20.616644 L71.634195,20.616644 C71.2043386,20.616644 70.928133,20.6349358 70.6939985,20.7959033 C70.4360847,20.9568708 70.3391383,21.1928345 70.3391383,21.5037944 C70.3391383,21.8751171 70.5568103,22.122056 70.8513076,22.2354649 C71.1019048,22.3214361 71.3653061,22.3470445 71.7658957,22.3470445 L73.026198,22.3836282 C74.2974755,22.4183824 75.1736508,22.6378836 75.7022826,23.1738322 C76.163235,23.6475888 76.4065154,24.2475586 76.4065154,25.2554346 C76.4065154,27.3717914 75.0913379,28.3577174 72.7335298,28.346922 Z M82.3202419,28.346922 L77.7509599,28.346922 L77.7509599,26.2377022 L82.3019502,26.2377022 C82.7446107,26.2377022 83.0610582,26.1828269 83.25678,25.9944218 C83.4177475,25.8444293 83.5311565,25.6194406 83.5311565,25.352381 C83.5311565,25.0670295 83.4104308,24.8420409 83.245805,24.7048526 C83.0647165,24.5548602 82.8232653,24.4871806 82.4098715,24.4871806 C80.2166893,24.4158427 77.4692668,24.5548602 77.4692668,21.4507482 C77.4692668,20.0221618 78.3619048,18.5277249 80.8239758,18.5277249 L85.5249584,18.5277249 L85.5249584,20.616644 L81.2227362,20.616644 C80.7910507,20.616644 80.5130159,20.6349358 80.2807105,20.7959033 C80.0227967,20.9568708 79.9276795,21.1928345 79.9276795,21.5037944 C79.9276795,21.8751171 80.1471806,22.122056 80.4380197,22.2354649 C80.6904459,22.3214361 80.9520181,22.3470445 81.3526077,22.3470445 L82.6129101,22.3836282 C83.8860166,22.4183824 84.7640212,22.6378836 85.292653,23.1738322 C85.7499471,23.6475888 85.9968858,24.2475586 85.9968858,25.2554346 C85.9968858,27.3717914 84.6780498,28.3577174 82.3202419,28.346922 Z" id="Shape"></path>
            <path d="M79.0862585,0.0219501133 L76.6845503,0.0219501133 C75.7864248,0.0219501133 75.062071,0.748133031 75.062071,1.64260015 L75.062071,2.65596371 L73.9481027,0.806666667 C73.6517763,0.321934996 73.1268028,0.0237792895 72.5615873,0.0237792895 L68.9855481,0.0237792895 C68.0892518,0.0237792895 67.364898,0.749962207 67.364898,1.64442932 L67.364898,3.02179894 L66.503356,1.00604686 C66.2491005,0.411564625 65.6637641,0.0237792895 65.0162359,0.0237792895 L61.5005594,0.0237792895 C61.1438699,0.0237792895 60.8036433,0.140846561 60.5329252,0.345714286 C60.2640363,0.142675736 59.9256387,0.0237792895 59.5616327,0.0237792895 L57.2952835,0.0237792895 C55.3673319,0.0237792895 53.9405745,0.490219199 52.8906274,1.4011489 C52.7699017,0.627407407 52.127861,0.0237792895 51.3193651,0.0237792895 L48.9231443,0.0237792895 C48.2829327,0.0237792895 47.7469841,0.402418745 47.4799245,0.93653817 C47.3793197,0.863371126 47.3024943,0.775570673 47.1890854,0.709720332 C46.0879214,0.0731670445 44.9300529,0.0237792895 43.5343915,0.0237792895 L38.138322,0.0237792895 C37.8346787,0.0237792895 37.5694483,0.129871504 37.3243386,0.274376417 C37.0847165,0.129871504 36.8158276,0.0237792895 36.5121844,0.0237792895 L28.675994,0.0237792895 C28.3449131,0.0237792895 28.0577324,0.146334089 27.8016477,0.314618292 C27.543734,0.146334089 27.2565533,0.0237792895 26.9273016,0.0237792895 L23.0165231,0.0237792895 C22.3689947,0.0237792895 21.7818292,0.413393802 21.5275736,1.01336357 L20.1337415,4.29856387 L18.5990628,0.965804988 C18.3320031,0.391443689 17.7558126,0.0237792895 17.126576,0.0237792895 L13.2962812,0.0237792895 C12.3999849,0.0237792895 11.6756311,0.749962207 11.6756311,1.64442932 L11.6756311,3.05472412 L10.7957974,1.00238851 C10.5397128,0.407906274 9.95437641,0.0219501133 9.3050189,0.0219501133 L5.82226758,0.0219501133 C5.17291005,0.0219501133 4.58757369,0.40973545 4.33148904,1.00421769 L0.13170068,10.8214059 C-0.0841421013,11.3244293 -0.031095994,11.8951323 0.267059713,12.3524263 C0.567044596,12.806062 1.07555556,13.0804384 1.62065004,13.0804384 L4.17052155,13.0804384 C4.82170824,13.0804384 5.41253213,12.6853364 5.66312925,12.0817082 L6.15883598,10.8890854 L8.87699168,10.8890854 L9.3653817,12.0743915 C9.61414966,12.681678 10.2068027,13.0786092 10.8653061,13.0786092 L15.6376266,13.0786092 C16.5339228,13.0786092 17.2582766,12.3524263 17.2582766,11.4579592 L17.2582766,11.4195465 L17.5655782,12.1164626 C17.8253213,12.7017989 18.4069993,13.0804384 19.0472109,13.0804384 L21.1086924,13.0840967 C21.7525623,13.0840967 22.330582,12.7054573 22.590325,12.1182918 L22.901285,11.4232048 L22.901285,11.4634467 C22.901285,12.3579138 23.6256387,13.0822676 24.521935,13.0822676 L26.9273016,13.0822676 C27.2565533,13.0822676 27.543734,12.9578836 27.8016477,12.7914286 C28.0577324,12.9578836 28.3449131,13.0822676 28.675994,13.0822676 L36.5121844,13.0822676 C36.8158276,13.0822676 37.0847165,12.9761753 37.3243386,12.8316705 C37.567619,12.9761753 37.8346787,13.0822676 38.138322,13.0822676 L40.4869841,13.0822676 C41.3832804,13.0822676 42.1076342,12.3560847 42.1076342,11.4616175 L42.1076342,9.5117158 L43.0039305,9.5117158 C43.206969,9.5117158 43.351474,9.51720332 43.4593954,9.52452003 C43.4703704,9.69097506 43.4667121,9.88852607 43.4667121,10.0202268 L43.4630536,10.2360695 L43.4721996,11.4744218 C43.4795163,12.3634014 44.2056992,13.0822676 45.0946787,13.0822676 L47.4616327,13.0822676 C47.7268632,13.0822676 47.9664853,12.9999546 48.1878156,12.8865457 C48.4128042,13.0017838 48.6542554,13.0822676 48.9213152,13.0822676 L51.3175359,13.0822676 C52.1040816,13.0822676 52.7260015,12.515223 52.8778232,11.7762358 C54.2076342,12.8938624 56.0807105,13.0822676 57.1233408,13.0822676 L59.8725926,13.0822676 C60.5274377,13.0822676 61.1200907,12.6798488 61.3670295,12.0670748 L61.8444444,10.8909146 L64.5479668,10.8909146 L65.0436734,12.0835374 C65.2942706,12.6853364 65.8832653,13.0804384 66.5399396,13.0804384 L71.3140892,13.0804384 C72.2103855,13.0804384 72.9347393,12.3542555 72.9347393,11.4597884 L72.9347393,9.91047619 L74.3743008,12.297551 C74.6687982,12.7822827 75.1937717,13.0804384 75.7644747,13.0804384 L79.0862585,13.0804384 C79.9825548,13.0804384 80.7069086,12.3542555 80.7069086,11.4597884 L80.7069086,1.64260015 C80.7069086,0.748133031 79.9788964,0.0219501133 79.0862585,0.0219501133 Z M26.9254724,11.4579592 L24.5201058,11.4579592 L24.5109599,3.76993197 L21.1086924,11.4579592 L19.0472109,11.4579592 L15.6394558,3.76261527 L15.6394558,11.4579592 L10.8634769,11.4579592 L9.96169312,9.26843538 L5.0777929,9.26843538 L4.16686318,11.4579592 L1.61699168,11.4579592 L5.81860922,1.64077097 L9.30136054,1.64077097 L13.2944519,10.936644 L13.2944519,1.64077097 L17.1247468,1.64077097 L20.1959334,8.30080121 L23.0146939,1.64077097 L26.9254724,1.64077097 C26.9254724,1.64077097 26.9254724,11.4579592 26.9254724,11.4579592 Z M36.5103552,3.68578987 L31.0191686,3.68578987 L31.0191686,5.45460317 L36.3804837,5.45460317 L36.3804837,7.4666969 L31.0191686,7.4666969 L31.0191686,9.42757369 L36.5103552,9.42757369 L36.5103552,11.4579592 L28.6741648,11.4579592 L28.6741648,1.64077097 L36.5103552,1.64077097 L36.5103552,3.68578987 Z M45.9068329,6.90331066 C46.4208314,7.10086168 46.8598338,7.44474678 47.0683598,7.73009827 C47.4012698,8.21848829 47.4579743,8.6538322 47.4579743,9.53000755 L47.4579743,11.45613 L45.0910204,11.45613 L45.0800454,10.2177778 C45.0800454,9.62878307 45.1367498,8.78004536 44.7105517,8.30628874 C44.3684959,7.96240363 43.8453514,7.88740741 43.0002721,7.88740741 L40.4851549,7.88740741 L40.4851549,11.4579592 L38.1364928,11.4579592 L38.1346636,11.4579592 L38.1346636,1.64260015 L43.5307332,1.64260015 C44.7306727,1.64260015 45.6141648,1.67369615 46.3714437,2.11269841 C47.1140892,2.55170068 47.5585789,3.19191232 47.5585789,4.28758882 C47.5585789,5.85153439 46.5141195,6.66185941 45.9068329,6.90331066 Z M51.3193651,11.4579592 L48.9231443,11.4579592 L48.9231443,1.64077097 L51.3193651,1.64077097 L51.3193651,11.4579592 Z M79.0862585,11.4579592 L75.7626455,11.4579592 L71.31226,4.09003779 L71.31226,11.4579592 L66.5381104,11.4579592 L65.6235223,9.26843538 L60.7469387,9.26843538 L59.8652759,11.4579592 L57.1178533,11.4579592 C55.9782766,11.4579592 54.538715,11.2055329 53.7229025,10.3732577 C52.8924565,9.53915344 52.4644293,8.4087226 52.4644293,6.62527588 C52.4644293,5.1692517 52.7223432,3.83761149 53.7210733,2.78400604 C54.4765231,2.00111867 55.6636583,1.64077097 57.2843084,1.64077097 L59.5506576,1.64077097 L59.5506576,3.7443235 L57.3282086,3.7443235 C56.4739834,3.7443235 55.9892518,3.87053666 55.5246409,4.32600151 C55.1240514,4.73939531 54.8515041,5.52045351 54.8515041,6.55027967 C54.8515041,7.60022676 55.0600303,8.35750567 55.4990325,8.85321239 C55.8630385,9.24282691 56.5215419,9.35989418 57.134316,9.35989418 L58.1860922,9.35989418 L61.5005594,1.64077097 L65.0162359,1.64077097 L68.9855481,10.9256689 L68.9855481,1.64077097 L72.5615873,1.64077097 L76.6845503,8.47823129 L76.6845503,1.64077097 L79.0862585,1.64077097 L79.0862585,11.4579592 Z M58.1458504,5.36680272 L57.1269993,7.7429025 C56.9020106,7.7429025 56.750189,7.71729403 56.6660469,7.69534392 C56.5873923,7.54900983 56.4794709,7.22524565 56.4794709,6.55210885 C56.4794709,5.87165533 56.6440967,5.51862434 56.6660469,5.48752835 C56.7337263,5.421678 56.7904308,5.36497354 57.3410128,5.36497354 L58.1458504,5.36680272 Z" id="Shape"></path>
            <polygon id="Path" points="34.1159637 23.4646712 37.7194406 27.4669086 37.7194406 19.5959637"></polygon>
            <polygon id="Path" points="28.5296599 20.5709146 22.6506878 20.5709146 22.6506878 22.3543613 27.7998186 22.3543613 27.7998186 24.3591383 22.6506878 24.3591383 22.6506878 26.3126984 28.4162509 26.3126984 31.095994 23.4280877"></polygon>
        </g>
    </g>
</svg>