<?xml version="1.0" encoding="UTF-8"?>
<svg width="64px" height="64px" viewBox="0 0 64 64" version="1.1" xmlns="http://www.w3.org/2000/svg" xmlns:xlink="http://www.w3.org/1999/xlink">
    <!-- Generator: Sketch 40.3 (33839) - http://www.bohemiancoding.com/sketch -->
    <title>icon-ticket-light</title>
    <desc>Created with Sketch.</desc>
    <defs></defs>
    <g id="member" stroke="none" stroke-width="1" fill="none" fill-rule="evenodd">
        <g id="icon-ticket-light" fill="#A3A5A6">
            <path d="M63.05375,22.4592 L57.62275,17.1062 C56.86075,16.3432 55.85775,15.9222 54.80075,15.9222 C53.74375,15.9222 52.74175,16.3432 51.98075,17.1052 C51.32575,17.7602 50.37975,18.1362 49.38475,18.1362 C48.44675,18.1362 47.47375,17.7342 46.75375,17.0692 C46.09075,16.4332 45.72175,15.5662 45.71175,14.6272 C45.70175,13.6432 46.08475,12.7132 46.79075,12.0082 C48.36975,10.4262 48.36975,7.9492 46.78975,6.3672 L41.60875,1.1862 C40.02875,-0.3958 37.54875,-0.3958 35.96775,1.1862 L1.11675,36.0382 L0.95775,36.2122 C-0.31925,37.7452 -0.31925,39.9722 0.95775,41.5052 L6.20275,46.8602 C6.99575,47.6532 8.04675,48.0902 9.16475,48.0902 C10.19075,48.0902 11.22675,47.6652 11.93775,46.9542 C12.63275,46.2602 13.58975,45.8292 14.43875,45.8292 C15.35975,45.8292 16.29575,46.2142 16.94075,46.8602 L17.03475,46.9542 C18.41275,48.3322 18.43975,50.5922 17.13875,51.9472 L17.03475,52.0502 C16.51675,52.5682 15.89975,53.4862 15.89975,54.9182 C15.89975,55.9442 16.32375,56.9822 17.03475,57.6922 L22.21575,62.8722 L22.38975,63.0322 C23.15675,63.6702 24.09675,63.9892 25.03675,63.9892 C25.97575,63.9892 26.91575,63.6702 27.68275,63.0322 L62.80175,27.9262 C64.29775,26.4312 64.40575,24.0812 63.05375,22.4592 Z M25.03575,58.3672 L21.48475,54.8152 C24.08975,51.3832 23.81575,46.4082 20.69775,43.2912 L20.60375,43.1972 C18.98375,41.5772 16.73675,40.6482 14.43875,40.6482 C12.58175,40.6482 10.71875,41.3112 9.17875,42.4972 L5.61475,38.8662 L38.78875,5.6922 L42.33875,9.2432 C41.14675,10.8002 40.51175,12.6912 40.53175,14.6782 C40.55475,17.0192 41.48875,19.1942 43.20075,20.8402 C44.90475,22.4142 47.15875,23.3162 49.38475,23.3162 C51.33475,23.3162 53.23375,22.6812 54.74875,21.5452 L58.33475,25.0682 L25.03575,58.3672 Z M35.68755,16.0825 C35.23255,15.5655 34.60355,15.2645 33.91255,15.2335 C33.17055,15.1955 32.42555,15.4945 31.87755,16.0445 L16.09555,31.8255 C15.54655,32.3745 15.25055,33.1165 15.28455,33.8615 C15.31455,34.5515 15.61455,35.1775 16.12955,35.6335 L28.41655,48.0075 L28.51355,48.0985 C29.04455,48.5405 29.69655,48.7605 30.33655,48.7605 C31.02155,48.7605 31.69255,48.5095 32.19055,48.0115 L47.97355,32.2285 L48.06155,32.1335 C48.97355,31.0345 48.93655,29.4205 47.97755,28.4615 L35.68755,16.0825 Z M30.30555,45.9005 L18.20455,33.7125 L33.76355,18.1555 L45.86355,30.3435 L30.30555,45.9005 Z" id="Combined-Shape"></path>
        </g>
    </g>
</svg>