<?xml version="1.0" encoding="UTF-8"?>
<svg width="62px" height="59px" viewBox="0 0 62 59" version="1.1" xmlns="http://www.w3.org/2000/svg" xmlns:xlink="http://www.w3.org/1999/xlink">
    <!-- Generator: Sketch 43.2 (39069) - http://www.bohemiancoding.com/sketch -->
    <title>icon-nav-cart-light</title>
    <desc>Created with Sketch.</desc>
    <defs></defs>
    <g id="Page-1" stroke="none" stroke-width="1" fill="none" fill-rule="evenodd">
        <g id="icon-nav-cart-light" fill-rule="nonzero" fill="#DCDDDE">
            <path d="M48.759,9.62199408 L19.639,9.62199408 C17.983,9.62199408 16.639,10.9649941 16.639,12.6219941 C16.639,14.2789941 17.983,15.6219941 19.639,15.6219941 L48.756,15.6219941 C52.208,15.6259941 55.03,18.3729941 55.155,21.7959941 L52.385,37.1679941 C51.506,40.4219941 49.672,44.2419941 45.915,44.2419941 L20.615,44.2419941 C17.931,44.2419941 17.044,42.8029941 15.096,37.1349941 C14.754,34.5419941 12.428,17.2859941 10.277,10.6819941 C6.782,-0.0500059244 0.678,-0.0320059244 0,0.0039940756 L0.327,5.99599408 C0.327,5.99599408 0.242,6.01499408 0.09,5.99499408 C0.114,5.99799408 2.569,6.38899408 4.572,12.5399941 C6.679,19.0079941 9.16,38.0169941 9.185,38.2079941 C9.211,38.4079941 9.257,38.6029941 9.321,38.7919941 C10.164,41.2579941 11.064,43.8669941 12.5,45.9759941 C11.019,47.3499941 10.084,49.3069941 10.084,51.4829941 C10.084,55.6269941 13.453,58.9989941 17.593,58.9989941 C21.734,58.9989941 25.102,55.6269941 25.102,51.4829941 C25.102,51.0589941 25.059,50.6459941 24.991,50.2419941 L41.522,50.2419941 C41.454,50.6459941 41.41,51.0589941 41.41,51.4829941 C41.41,55.6269941 44.779,58.9989941 48.919,58.9989941 C53.06,58.9989941 56.428,55.6269941 56.428,51.4829941 C56.428,49.4819941 55.638,47.6669941 54.361,46.3189941 C56.053,44.3869941 57.371,41.7839941 58.216,38.5899941 C58.237,38.5119941 58.254,38.4339941 58.268,38.3549941 L61.112,22.5719941 C61.144,22.3969941 61.159,22.2199941 61.159,22.0419941 C61.164,15.2019941 55.604,9.62999408 48.759,9.62199408 Z M49.8693,24.1287941 C49.8693,22.4717941 48.5263,21.1287941 46.8693,21.1287941 L20.5493,21.1287941 C18.8923,21.1287941 17.5493,22.4717941 17.5493,24.1287941 C17.5493,25.7857941 18.8923,27.1287941 20.5493,27.1287941 L46.8693,27.1287941 C48.5263,27.1287941 49.8693,25.7857941 49.8693,24.1287941 Z M44.0217,32.6429941 L23.3967,32.6429941 C21.7407,32.6429941 20.3967,33.9859941 20.3967,35.6429941 C20.3967,37.2999941 21.7407,38.6429941 23.3967,38.6429941 L44.0217,38.6429941 C45.6787,38.6429941 47.0217,37.2999941 47.0217,35.6429941 C47.0217,33.9859941 45.6787,32.6429941 44.0217,32.6429941 Z" id="Combined-Shape"></path>
        </g>
    </g>
</svg>