<?xml version="1.0" encoding="UTF-8"?>
<svg width="64px" height="64px" viewBox="0 0 64 64" version="1.1" xmlns="http://www.w3.org/2000/svg" xmlns:xlink="http://www.w3.org/1999/xlink">
    <!-- Generator: Sketch 43 (38999) - http://www.bohemiancoding.com/sketch -->
    <title>icon-nav-store-color</title>
    <desc>Created with Sketch.</desc>
    <defs></defs>
    <g id="menu" stroke="none" stroke-width="1" fill="none" fill-rule="evenodd">
        <g id="icon-nav-store-color" fill-rule="nonzero" fill="#0089C0">
            <path d="M33.8550725,32.3377111 L33.8550725,55.3921201 L54.7246377,55.3921201 L54.7246377,43.9814559 L46.8968442,52.0882889 C46.3535061,52.6509956 45.4725809,52.6509956 44.9292427,52.0882889 C44.3859046,51.5255823 44.3859046,50.6132545 44.9292427,50.0505478 L54.2046051,40.4445441 C54.3564864,40.2872486 54.5347464,40.1739225 54.7246377,40.1045658 L54.7246377,32.3377111 L33.8550725,32.3377111 Z M29.2173913,32.3377111 L9.27536232,32.3377111 L9.27536232,55.3921201 L29.2173913,55.3921201 L29.2173913,44.4617561 L21.853366,52.0882889 C21.3100278,52.6509956 20.4291026,52.6509956 19.8857645,52.0882889 C19.3424263,51.5255823 19.3424263,50.6132545 19.8857645,50.0505478 L29.1611268,40.4445441 C29.1795041,40.4255116 29.1982677,40.4071229 29.2173913,40.3893779 L29.2173913,32.3377111 Z M9.27536232,16.0075047 L54.7246377,16.0075047 L54.7246377,11.6929829 C54.7246377,10.0921452 53.4799155,8.80300188 51.9392118,8.80300188 L12.0607882,8.80300188 C10.5214748,8.80300188 9.27536232,10.0947793 9.27536232,11.6929829 L9.27536232,16.0075047 Z M4.63768116,31.5354782 C1.89409332,30.2165386 0,27.4108666 0,24.1726079 C0,20.9259238 1.89071734,18.1218253 4.63768116,16.8059622 L4.63768116,11.6929829 C4.63768116,7.44426576 7.95811568,4 12.0607882,4 L51.9392118,4 C56.0388806,4 59.3623188,7.437081 59.3623188,11.6929829 L59.3623188,16.8097376 C62.1059067,18.1286772 64,20.9343492 64,24.1726079 C64,27.419292 62.1092827,30.2233904 59.3623188,31.5392536 L59.3623188,55.3921201 L61.6811594,55.3921201 C62.9618197,55.3921201 64,56.4673087 64,57.793621 C64,59.1199334 62.9618197,60.195122 61.6811594,60.195122 L3.24637681,60.195122 C1.96571652,60.195122 0.927536232,59.1199334 0.927536232,57.793621 C0.927536232,56.4673087 1.96571652,55.3921201 3.24637681,55.3921201 L4.63768116,55.3921201 L4.63768116,31.5354782 Z M47.7118514,40.4445441 C48.2551896,39.8818374 49.1361148,39.8818374 49.6794529,40.4445441 C50.2227911,41.0072507 50.2227911,41.9195785 49.6794529,42.4822852 L44.1142355,48.2458874 C43.5708974,48.8085941 42.6899722,48.8085941 42.146634,48.2458874 C41.6032959,47.6831808 41.6032959,46.770853 42.146634,46.2081463 L47.7118514,40.4445441 Z M22.6683732,40.4445441 C23.2117113,39.8818374 24.0926365,39.8818374 24.6359747,40.4445441 C25.1793128,41.0072507 25.1793128,41.9195785 24.6359747,42.4822852 L19.0707573,48.2458874 C18.5274191,48.8085941 17.6464939,48.8085941 17.1031558,48.2458874 C16.5598176,47.6831808 16.5598176,46.770853 17.1031558,46.2081463 L22.6683732,40.4445441 Z M18.6962178,26.1509791 C18.7622048,25.5555894 18.6598005,25.0598074 18.3824683,24.6652449 C18.1048249,24.263913 17.6391808,23.9744382 16.9814896,23.7923076 C16.6851706,23.7088177 16.3891629,23.6449914 16.0928439,23.5924476 C15.7949686,23.5386143 15.5173252,23.4860704 15.2633375,23.4335266 C14.7961371,23.3265047 14.5051095,23.2188381 14.3883873,23.1147175 C14.2722875,23.0122086 14.2283999,22.8594123 14.2486318,22.6614864 C14.2772676,22.4371273 14.4391225,22.264345 14.7379316,22.1424948 C15.0358069,22.0232235 15.3953115,21.961976 15.8083528,21.961976 C16.3079242,21.961976 16.7962902,22.0477225 17.2610006,22.2221165 C17.7272672,22.3948988 18.1384409,22.6228038 18.4854952,22.9000291 L18.7376153,20.7740979 C18.4447202,20.6242029 18.2517393,20.492682 17.7154393,20.3666412 C17.1828744,20.2344757 16.6057995,20.1722612 16.0109827,20.1722612 C14.7379316,20.1722612 13.7020602,20.4436841 12.9086599,20.9758922 C12.1090344,21.5158368 11.6611321,22.1863351 11.5665092,22.9960908 C11.4955421,23.6256501 11.6085293,24.1514111 11.9126297,24.5740185 C12.2139289,24.99308 12.7200367,25.3076984 13.4303307,25.5075585 C13.6858747,25.5810555 13.9769023,25.6458488 14.2934531,25.6996821 C14.618408,25.7483577 14.8689718,25.797678 15.057595,25.8450642 C15.4513382,25.9308106 15.7075047,26.0204253 15.8422801,26.1106847 C15.9751878,26.2006217 16.0268569,26.3508392 16.0032012,26.5565016 C15.9792342,26.7898866 15.8348098,26.963636 15.5783321,27.0790391 C15.3218543,27.2002445 14.9383827,27.2589132 14.4313411,27.2589132 C14.0453794,27.2589132 13.6858747,27.2166846 13.3615424,27.1335171 C13.0306736,27.0509942 12.7368447,26.9565442 12.4831683,26.8388846 C12.1877831,26.7073638 11.9627425,26.5848689 11.8068015,26.4681764 C11.6486817,26.3569639 11.5139064,26.249942 11.392204,26.1603274 L11.392204,26.1622615 L11.1304348,28.3765179 C11.460681,28.5483331 11.6832315,28.7024188 12.2459886,28.8416761 C12.8140371,28.9838347 13.4564765,29.0495951 14.1751745,29.0495951 C15.4672125,29.0495951 16.5211369,28.7839746 17.3276101,28.2537006 C18.1359508,27.7240714 18.5903896,27.0213375 18.6962178,26.1509791 Z M23.4388778,21.8623684 L23.4388778,20.2083649 C22.400205,20.3266692 21.5236985,20.7196199 20.8059342,21.3856053 C19.9440569,22.1937493 19.4298563,23.2910456 19.2689352,24.6794286 C19.2393655,24.8934723 19.22318,25.1039701 19.22318,25.3115667 L19.22318,25.5420505 C19.2393655,26.5307132 19.5378633,27.3224171 20.1034217,27.9155503 C20.8168283,28.6714727 21.929892,29.0421809 23.4388778,29.0483057 L23.4388778,27.1477007 C22.8863923,27.0848415 22.4602781,26.9181839 22.1726744,26.6448269 C21.7941829,26.2957165 21.631083,25.7867179 21.6699904,25.1233114 L23.4388778,25.1233114 L23.4388778,23.5486073 L21.8536335,23.5486073 C21.9575941,22.95354 22.1804559,22.5231961 22.5138147,22.2508061 C22.7752727,22.0361177 23.0877771,21.9097545 23.4388778,21.8623684 Z M23.4388778,29.0483057 L23.470315,29.0483057 C24.0626417,29.0483057 24.6042331,28.9954395 25.1028707,28.8835823 C25.6055547,28.7749486 25.9703507,28.5908839 26.5492933,28.3452494 L26.8048373,26.1906287 C26.498558,26.4240137 25.9905826,26.6554646 25.483541,26.8656401 C24.9783669,27.073559 24.469769,27.1741338 23.9518333,27.1741338 C23.7713028,27.1741338 23.5969976,27.1628514 23.4388778,27.1477007 L23.4388778,29.0483057 Z M25.0088704,23.5486073 L23.4388778,23.5486073 L23.4388778,25.1233114 L27.2440243,25.1233114 L27.355144,24.1833242 C27.5054823,22.8861678 27.3153027,21.8975051 26.7786915,21.2086325 C26.2336762,20.5178257 25.3465868,20.1722612 24.1118207,20.1722612 C23.8799324,20.1722612 23.6583157,20.1864448 23.4388778,20.2083649 L23.4388778,21.8623684 C23.5285205,21.8510859 23.6200308,21.8449612 23.717455,21.8449612 C24.2182714,21.8449612 24.5746634,21.9887315 24.7779159,22.2753051 C24.9842809,22.5583328 25.0614732,22.9844861 25.0088704,23.5486073 Z M35.4737237,20.9392889 C35.3654054,20.8026104 35.2468156,20.6839838 35.1167092,20.5788961 C34.8399995,20.3535699 32.9176613,18.9519705 28.5419762,20.7655396 L28.3751411,22.3653874 L27.6271847,28.6816109 L30.0739951,28.6816109 L30.8119912,22.3898864 C31.1023963,22.2180712 31.3594965,22.0936421 31.5972988,22.0165993 C31.8326109,21.9392341 32.0588965,21.8999068 32.281447,21.8999068 C32.5877263,21.8999068 32.8255285,21.9392341 32.9870721,22.0233687 C33.1504833,22.1049246 33.2700069,22.2409584 33.3375502,22.4224442 C33.3970008,22.577497 33.4172327,22.8195856 33.4119412,23.15419 C33.4019809,23.485571 33.3621397,23.9903789 33.3222985,24.3236939 L32.8102768,28.6816109 L35.2545971,28.6816109 L35.8886325,23.2744284 C36.010335,22.2354783 35.8749371,21.4608593 35.4737237,20.9392889 Z M48.4977722,28.8623068 L48.4977722,26.9604124 C48.3987917,26.9758855 48.2998112,26.9849114 48.1995857,26.9849114 C47.9325251,26.9849114 47.7046832,26.9410711 47.5092122,26.8462988 C47.3118738,26.7579735 47.1528202,26.615815 47.0224025,26.4159549 C46.8963424,26.2080359 46.8151037,25.9346789 46.7771301,25.5910485 C46.7354213,25.2528981 46.7491167,24.849632 46.8042096,24.3886644 C46.8701966,23.8661269 46.9660645,23.434816 47.1005286,23.0911856 C47.2300125,22.7494893 47.3847085,22.4793558 47.5624376,22.2798181 C47.7613324,22.0673861 47.9586709,21.9252276 48.1541418,21.8588225 C48.2633939,21.8185281 48.3766923,21.7895161 48.4977722,21.7737207 L48.4977722,19.8744052 C47.3847085,19.9691775 46.4630693,20.3624506 45.7225831,21.0558362 C44.8644409,21.8588225 44.3514853,22.9606318 44.17718,24.3693231 C44.0050536,25.7735014 44.2506373,26.8688636 44.9083284,27.678297 C45.5660196,28.4838621 46.5822817,28.8861611 47.9483993,28.8861611 C48.1354662,28.8861611 48.3184868,28.8739116 48.4977722,28.8623068 Z M52.8158743,24.3693231 C52.9876895,22.9738483 52.7473972,21.867526 52.0912624,21.0593821 C51.4379288,20.2547841 50.4226005,19.8499062 49.0471451,19.8499062 C48.8566543,19.8499062 48.6745676,19.8566756 48.4977722,19.8744052 L48.4977722,21.7737207 C48.5973752,21.7579253 48.7041372,21.7518006 48.814323,21.7518006 C49.0580392,21.7518006 49.2796559,21.7940291 49.4776169,21.8781638 C49.679313,21.965522 49.8433467,22.1096146 49.9653604,22.3172112 C50.0889304,22.5190055 50.1701691,22.7862377 50.2184143,23.127934 C50.2554542,23.4683409 50.2498516,23.8854682 50.1863546,24.3886644 C50.1228577,24.9266748 50.033215,25.3499269 49.9112013,25.65423 C49.7926114,25.9575661 49.6394718,26.2222195 49.448981,26.4404538 C49.2796559,26.6377351 49.0876088,26.7760254 48.8700385,26.8620942 C48.748336,26.9049674 48.6238323,26.9410711 48.4977722,26.9604124 L48.4977722,28.8623068 C49.6158161,28.7678568 50.5399453,28.3732943 51.2832329,27.678297 C52.1360837,26.8688636 52.6465492,25.7735014 52.8158743,24.3693231 Z M39.7495454,19.8956806 C38.5788987,20.0391286 37.5402259,20.4494865 37.0462572,20.7215541 L37.3136291,22.4235884 C37.854598,22.1080029 38.9309331,21.7353605 39.7495454,21.697645 L39.7495454,19.8956806 Z M37.2280327,28.5260906 C37.7123524,28.760765 38.514468,28.9728746 39.7495454,28.8503797 L39.7495454,27.3295089 C39.6437172,27.3478831 39.5329088,27.3620667 39.4245905,27.3620667 C38.854052,27.3620667 38.258924,26.9562218 38.3859178,25.9927028 C38.4705804,25.3431575 39.0233771,24.884124 39.7495454,24.6410683 L39.7495454,23.0109192 C37.6641072,23.3281165 36.2668636,24.3660995 36.0499158,26.1935299 C35.9652532,26.9268875 36.1694394,27.6425156 36.6263682,28.1176668 C36.64411,28.1315281 36.6634081,28.1544153 36.6898652,28.1769801 C36.842071,28.3210728 37.0216677,28.4435677 37.2280327,28.5260906 Z M39.7495454,28.8503797 C40.6584229,28.760765 41.7864271,28.4961116 43.1986112,27.9297339 L43.3769628,26.2567115 L43.3691813,26.2612245 L43.6894673,23.5566662 C43.9269582,21.5345333 43.2795386,19.8499062 40.5550848,19.8499062 C40.2861566,19.8499062 40.0159835,19.8666687 39.7495454,19.8956806 L39.7495454,21.697645 C39.7949893,21.6924873 39.8441683,21.6924873 39.8864995,21.6924873 C41.1393187,21.6924873 41.2924584,22.3426773 41.2398555,22.7968755 L41.229584,22.904542 C40.7066681,22.904542 40.2123882,22.939034 39.7495454,23.0109192 L39.7495454,24.6410683 C40.1716132,24.5063239 40.6456613,24.4344388 41.1349611,24.4344388 L41.0020533,25.5091703 C40.9622121,25.8718197 40.8784833,26.4904189 40.9046291,26.4265926 C40.7328139,26.8282469 40.330978,27.1506019 39.902685,27.2840568 L39.7495454,27.3295089 L39.7495454,28.8503797 Z" id="Combined-Shape-Copy-4"></path>
        </g>
    </g>
</svg>