<?xml version="1.0" encoding="UTF-8" standalone="no"?>
<svg width="64px" height="64px" viewBox="0 0 64 64" version="1.1" xmlns="http://www.w3.org/2000/svg" xmlns:xlink="http://www.w3.org/1999/xlink">
    <!-- Generator: Sketch 39.1 (31720) - http://www.bohemiancoding.com/sketch -->
    <title>icon-eye-show-blue</title>
    <desc>Created with Sketch.</desc>
    <defs></defs>
    <g id="Page-6" stroke="none" stroke-width="1" fill="none" fill-rule="evenodd">
        <g id="icon-eye-show-blue" fill="#0090D4">
            <path d="M40.3926505,31.7964799 C40.3926505,36.2452749 36.6283239,39.8517299 31.9847867,39.8517299 C27.3412489,39.8517299 23.5769224,36.2452749 23.5769224,31.7964799 C23.5769224,27.3476845 27.3412489,23.7412299 31.9847867,23.7412299 C36.6283239,23.7412299 40.3926505,27.3476845 40.3926505,31.7964799 L40.3926505,31.7964799 Z M32.0000005,15.0242937 C27.1921265,15.0456218 22.2086632,16.2160764 17.4911327,18.4569183 C13.9884316,20.1892876 10.5748704,22.6334356 7.61170483,25.6501841 C6.15640488,27.1901514 4.30012511,29.4200233 4.00000011,31.7991152 C4.03544855,33.8599698 6.24605948,36.4037049 7.61170483,37.9480473 C10.390377,40.8463641 13.7150489,43.2221973 17.4911327,45.1430845 C21.8904796,47.278106 26.7598882,48.5073629 32.0000005,48.5757063 C36.8123908,48.5540623 41.79475,47.3701341 46.5070954,45.1430845 C50.0097974,43.4107157 53.4251287,40.9647948 56.388294,37.9480473 C57.843594,36.4080907 59.699854,34.1782187 60,31.7991152 C59.964552,29.7382606 57.7539427,27.1945157 56.388294,25.6501841 C53.6096253,22.7518672 50.2831908,20.3778177 46.5070954,18.4569183 C42.1100347,16.3234611 37.2286071,15.1026718 32.0000005,15.0242937 L32.0000005,15.0242937 Z M31.9964491,19.1891841 C39.2820053,19.1891841 45.1879384,24.8355815 45.1879384,31.8008876 C45.1879384,38.7661933 39.2820053,44.4125907 31.9964491,44.4125907 C24.7108935,44.4125907 18.8049608,38.7661933 18.8049608,31.8008876 C18.8049608,24.8355815 24.7108935,19.1891841 31.9964491,19.1891841 L31.9964491,19.1891841 Z" id="path6686"></path>
        </g>
    </g>
</svg>