<?xml version="1.0" encoding="UTF-8"?>
<svg width="53px" height="53px" viewBox="0 0 53 53" version="1.1" xmlns="http://www.w3.org/2000/svg" xmlns:xlink="http://www.w3.org/1999/xlink">
    <!-- Generator: Sketch 45.2 (43514) - http://www.bohemiancoding.com/sketch -->
    <title>icon-close</title>
    <desc>Created with Sketch.</desc>
    <defs></defs>
    <g id="Page-1" stroke="none" stroke-width="1" fill="none" fill-rule="evenodd">
        <g id="icon-close" fill-rule="nonzero" fill="#D4D5D6">
            <path d="M30.577176,26.3331982 L51.7889059,5.1214683 C52.9624742,3.9479 52.9619523,2.04892698 51.7903795,0.8773541 C50.6211905,-0.29183486 48.7186519,-0.29355905 47.5462652,0.87882764 L26.3345353,22.0905575 L5.1228054,0.87882764 C3.95041875,-0.29355905 2.04788018,-0.29183486 0.87869122,0.8773541 C-0.29288166,2.04892698 -0.29340357,3.9479 0.88016475,5.1214683 L22.0918947,26.3331982 L0.88016475,47.5449281 C-0.29340357,48.7184964 -0.29288166,50.6174695 0.87869122,51.7890423 C2.04788018,52.9582313 3.95041875,52.9599555 5.1228054,51.7875688 L26.3345353,30.5758389 L47.5462652,51.7875688 C48.7186519,52.9599555 50.6211905,52.9582313 51.7903795,51.7890423 C52.9619523,50.6174695 52.9624742,48.7184964 51.7889059,47.5449281 L30.577176,26.3331982 Z" id="Combined-Shape"></path>
        </g>
    </g>
</svg>