<?xml version="1.0" encoding="UTF-8"?>
<svg width="64px" height="64px" viewBox="0 0 64 64" version="1.1" xmlns="http://www.w3.org/2000/svg" xmlns:xlink="http://www.w3.org/1999/xlink">
    <!-- Generator: Sketch 48.2 (47327) - http://www.bohemiancoding.com/sketch -->
    <title>icon-facebook</title>
    <desc>Created with Sketch.</desc>
    <defs></defs>
    <g id="Page-1" stroke="none" stroke-width="1" fill="none" fill-rule="evenodd">
        <g id="icon-facebook">
            <rect id="Rectangle-2" fill="#FFFFFF" x="6" y="3" width="54" height="61"></rect>
            <path d="M64,60.4663325 C64,62.4170843 62.4187846,64 60.4679796,64 L44.1589714,64 L44.1589714,39.2155154 L52.4782218,39.2155154 L53.7247147,29.5558945 L44.1589714,29.5558945 L44.1589714,23.3898453 C44.1589714,20.5935934 44.936504,18.6881674 48.9462014,18.6881674 L54.0611806,18.6864241 L54.0611806,10.0466333 C53.1755605,9.92983221 50.1403939,9.66659403 46.6083735,9.66659403 C39.2340171,9.66659403 34.1852851,14.1677925 34.1852851,22.4345173 L34.1852851,29.5558945 L25.8451145,29.5558945 L25.8451145,39.2155154 L34.1852851,39.2155154 L34.1852851,64 L3.53202038,64 C1.58121544,64 0,62.4170843 0,60.4663325 L0,3.53366747 C0,1.58117237 1.58121544,0 3.53202038,0 L60.4679796,0 C62.4187846,0 64,1.58117237 64,3.53366747 L64,60.4663325" id="Facebook" fill="#43619C"></path>
        </g>
    </g>
</svg>