<?xml version="1.0" encoding="UTF-8"?>
<svg width="32px" height="32px" viewBox="0 0 32 32" version="1.1" xmlns="http://www.w3.org/2000/svg" xmlns:xlink="http://www.w3.org/1999/xlink">
    <!-- Generator: Sketch 52.5 (67469) - http://www.bohemiancoding.com/sketch -->
    <title>icon-bell-b_</title>
    <desc>Created with Sketch.</desc>
    <g id="icon-bell-b_" stroke="none" stroke-width="1" fill="none" fill-rule="evenodd">
        <g id="Group-2" transform="translate(5.000000, 3.000000)">
            <path d="M14.750278,4.1600277 C15.8874608,4.66039194 16.7722901,5.38249841 17.4047659,6.3263471 C19.3769048,9.26938566 18.836289,11.0949681 19.2417509,13.4073725 C19.4938217,14.8449671 20.3229824,16.2065989 20.7284442,17.0585374 C21.1339061,17.9104758 22,19.1054241 22,19.8356571 C22,20.5222264 19.9225002,22.7150007 11.8109237,22.9747763 C11.534589,23 10.465411,23 10.1890763,23 C2.07749981,22.7150007 0,20.5222264 0,19.8356571 C0,19.1054241 0.866093926,17.9104758 1.27155576,17.0585374 C1.67701759,16.2065989 2.5061783,14.8449671 2.75824914,13.4073725 C3.16371097,11.0949681 2.6230952,9.26938566 4.5952341,6.3263471 C5.22770991,5.38249841 6.11253922,4.66039194 7.24972203,4.1600277 C7.2283001,4.00169092 7.21724695,3.84018019 7.21724695,3.6761606 C7.21724695,1.64587316 8.91084318,0 11,0 C13.0891568,0 14.7827531,1.64587316 14.7827531,3.6761606 C14.7827531,3.84018019 14.7716999,4.00169092 14.750278,4.1600277 Z" id="Combined-Shape" stroke="#0090D4" stroke-width="2" stroke-linecap="round" stroke-linejoin="round"></path>
            <ellipse id="Oval-3" fill="#0090D4" cx="11.0511358" cy="3.02629078" rx="1.05113584" ry="1.02629078"></ellipse>
            <path d="M8,23 C8,24.7251065 9.34314575,26 11,26 C12.6568542,26 14,24.7251065 14,23" id="Oval-4" stroke="#0290D5" stroke-width="2" stroke-linejoin="round"></path>
        </g>
    </g>
</svg>