<?xml version="1.0" encoding="UTF-8" standalone="no"?>
<svg width="64px" height="64px" viewBox="0 0 64 64" version="1.1" xmlns="http://www.w3.org/2000/svg" xmlns:xlink="http://www.w3.org/1999/xlink">
    <!-- Generator: Sketch 39.1 (31720) - http://www.bohemiancoding.com/sketch -->
    <title>icon-print-light</title>
    <desc>Created with Sketch.</desc>
    <defs></defs>
    <g id="member" stroke="none" stroke-width="1" fill="none" fill-rule="evenodd">
        <g id="icon-print-light" fill="#A3A5A6">
            <path d="M61.8284279,28.7886995 C60.3791397,27.3394113 58.6418822,26.6152393 56.6161833,26.6152393 L54.1552259,26.6152393 L54.1552259,16.7690491 C54.1552259,15.7436896 53.8979418,14.6149443 53.385262,13.3847016 C52.8725822,12.1539868 52.2574609,11.179612 51.5394259,10.461577 L45.6927047,4.61532787 C44.9751418,3.89776499 44.000767,3.28217157 42.7700522,2.76901969 C41.5393375,2.2563399 40.4115363,2 39.3852326,2 L13.5388065,2 C12.5129748,2 11.6410415,2.35878144 10.9230065,3.0768164 C10.2054436,3.79437928 9.84619012,4.6663126 9.84619012,5.69214427 L9.84619012,26.6152393 L7.38476061,26.6152393 C5.35906172,26.6152393 3.62180422,27.3398834 2.17298812,28.7886995 C0.724172012,30.2370435 -6.70867226e-15,31.974301 -6.70867226e-15,33.9999999 L-6.70867226e-15,50.0007079 C-6.70867226e-15,50.3344691 0.121796857,50.6219663 0.365390572,50.8665042 C0.608984286,51.1096258 0.897425681,51.2309506 1.23071476,51.2309506 L9.84619012,51.2309506 L9.84619012,57.3849965 C9.84619012,58.4108282 10.2049716,59.2827615 10.9230065,60.0003243 C11.6410415,60.7178872 12.5129748,61.0771407 13.5388065,61.0771407 L50.4621375,61.0771407 C51.487497,61.0771407 52.3603745,60.7178872 53.0779374,60.0003243 C53.7955003,59.2822894 54.1547538,58.4108282 54.1547538,57.3849965 L54.1547538,51.2309506 L62.7702292,51.2309506 C63.1030462,51.2309506 63.3914876,51.1096258 63.6350813,50.8665042 C63.878675,50.6219663 63.9999998,50.3344691 63.9999998,50.0007079 L63.9999998,33.9999999 C64.0004719,31.974301 63.2767719,30.2370435 61.8284279,28.7886995 L61.8284279,28.7886995 Z M49.2314227,56.1542817 L14.7695212,56.1542817 L14.7695212,46.3085637 L49.2314227,46.3085637 L49.2314227,56.1542817 L49.2314227,56.1542817 Z M49.2314227,31.5385704 L14.7695212,31.5385704 L14.7695212,6.9233311 L39.3852326,6.9233311 L39.3852326,13.0769049 C39.3852326,14.1027365 39.7449582,14.9741978 40.462049,15.6922327 C41.1800839,16.4102677 42.0515452,16.7690491 43.0778489,16.7690491 L49.2314227,16.7690491 L49.2314227,31.5385704 L49.2314227,31.5385704 Z M58.3468317,35.7311203 C57.8601163,36.2178357 57.2827615,36.4619015 56.6161833,36.4619015 C55.9496052,36.4619015 55.3727224,36.2178357 54.8855349,35.7311203 C54.3988196,35.244405 54.1552259,34.666578 54.1552259,33.9999999 C54.1552259,33.3334217 54.3988196,32.7565389 54.8855349,32.2693515 C55.3727224,31.7821641 55.9496052,31.5385704 56.6161833,31.5385704 C57.2827615,31.5385704 57.8601163,31.7821641 58.3468317,32.2693515 C58.8340191,32.7565389 59.0780849,33.3334217 59.0780849,33.9999999 C59.0780849,34.666578 58.8344912,35.244405 58.3468317,35.7311203 L58.3468317,35.7311203 Z" id="Shape"></path>
        </g>
    </g>
</svg>