<?xml version="1.0" encoding="UTF-8" standalone="no"?>
<svg width="64px" height="64px" viewBox="0 0 64 64" version="1.1" xmlns="http://www.w3.org/2000/svg" xmlns:xlink="http://www.w3.org/1999/xlink">
    <!-- Generator: Sketch 39.1 (31720) - http://www.bohemiancoding.com/sketch -->
    <title>icon-search-post-blue</title>
    <desc>Created with Sketch.</desc>
    <defs></defs>
    <g id="header" stroke="none" stroke-width="1" fill="none" fill-rule="evenodd">
        <g id="icon-search-post-blue" fill="#0090D4">
            <path d="M46.8387,48.6156 C46.8067,48.6476 46.7737,48.6796 46.7407,48.7116 C42.0017,53.3166 34.4387,53.2506 29.7807,48.5636 C25.1757,43.9306 25.1987,36.4426 29.8317,31.8376 C29.8647,31.8056 29.8967,31.7736 29.9297,31.7416 C34.6697,27.1376 42.2307,27.2036 46.8897,31.8896 C51.4947,36.5226 51.4717,44.0106 46.8387,48.6156 M60.2577,55.3366 C60.2437,55.3266 60.2307,55.3156 60.2167,55.3046 L52.5907,49.4226 C56.9357,42.7956 56.0487,34.0316 50.4627,28.4106 C44.0297,21.9416 33.7027,21.7056 26.9627,27.7296 C26.8937,27.7246 26.8277,27.7086 26.7577,27.7086 L15.1877,27.7086 C13.5317,27.7086 12.1877,29.0526 12.1877,30.7086 C12.1877,32.3656 13.5317,33.7086 15.1877,33.7086 L22.6567,33.7086 C21.5417,36.3536 21.1497,39.2276 21.4547,42.0426 L15.1867,42.0426 C13.5307,42.0426 12.1867,43.3856 12.1867,45.0426 C12.1867,46.6996 13.5307,48.0426 15.1867,48.0426 L23.0907,48.0426 C23.1527,48.0426 23.2117,48.0276 23.2727,48.0246 C24.0027,49.4106 24.9307,50.7216 26.0777,51.9036 C26.1227,51.9496 26.1687,51.9966 26.2147,52.0426 C31.8567,57.7166 40.6797,58.7186 47.4507,54.4556 C47.4507,54.4556 52.0907,60.9776 54.2247,62.8196 C56.5817,64.8516 59.3547,64.1096 61.0097,62.0336 C62.6517,59.9766 62.3147,56.9786 60.2577,55.3366 M45.6348,37.9098 C44.8368,37.9108 44.1898,38.5578 44.1908,39.3558 L44.1948,39.3548 C44.1948,39.7918 44.1488,40.2278 44.0568,40.6548 C43.9878,41.0848 43.8598,41.5028 43.6768,41.8978 C43.5098,42.2748 43.3138,42.6378 43.0918,42.9848 C42.8328,43.3308 42.5758,43.6408 42.3008,43.9528 L42.2328,44.0218 C41.9498,44.2838 41.6488,44.5258 41.3328,44.7468 C40.9888,44.9828 40.6198,45.1798 40.2328,45.3338 C39.8428,45.5248 39.4238,45.6538 38.9938,45.7148 L38.9258,45.7498 C38.5288,45.8348 38.1258,45.8808 37.7198,45.8868 L37.7138,45.8868 C36.9158,45.8798 36.2638,46.5218 36.2568,47.3198 C36.2668,48.1248 36.9148,48.7758 37.7198,48.7878 C38.3158,48.7858 38.9098,48.7218 39.4928,48.5978 L39.5788,48.5798 C40.1958,48.4618 40.7958,48.2708 41.3678,48.0108 C41.9248,47.7938 42.4568,47.5158 42.9528,47.1818 L42.9528,47.1638 C43.4118,46.8418 43.8488,46.4898 44.2598,46.1098 L44.3278,46.0098 C44.7588,45.5928 45.1508,45.1358 45.4988,44.6468 C45.8278,44.1288 46.1148,43.5858 46.3578,43.0228 C46.5988,42.4418 46.7838,41.8388 46.9088,41.2228 L46.8918,41.2228 C47.0148,40.6078 47.0778,39.9828 47.0808,39.3558 L47.0808,39.3538 C47.0798,38.5558 46.4328,37.9088 45.6348,37.9098 M49.7676,20.1919 C51.4246,20.1919 52.7676,18.8489 52.7676,17.1919 C52.7676,15.5349 51.4246,14.1919 49.7676,14.1919 L14.2326,14.1919 C12.5766,14.1919 11.2326,15.5349 11.2326,17.1919 C11.2326,18.8489 12.5766,20.1919 14.2326,20.1919 L49.7676,20.1919 Z M50.041,-3.55271368e-15 L50.033,-3.55271368e-15 L13.967,-3.55271368e-15 L13.96,-3.55271368e-15 C10.234,-3.55271368e-15 6.729,1.451 4.093,4.084 C1.455,6.72 0.001,10.225 3.55271368e-15,13.956 L3.55271368e-15,48.044 C0.002,51.775 1.456,55.28 4.094,57.916 C6.731,60.549 10.234,62 13.958,62 L13.968,62 L29.34,62 C30.997,62 32.34,60.657 32.34,59 C32.34,57.342 30.997,56 29.34,56 L13.966,56 L13.96,56 C11.836,56 9.838,55.172 8.335,53.671 C6.83,52.167 6.001,50.168 6,48.042 L6,13.957 C6.001,11.831 6.83,9.832 8.334,8.329 C9.838,6.827 11.836,6 13.964,6 L13.968,6 L50.035,6 L50.039,6 C54.427,6 57.997,9.569 58,13.956 L58,44.181 C58,45.838 59.343,47.181 61,47.181 C62.657,47.181 64,45.838 64,44.181 L64,13.953 C63.995,6.257 57.733,-3.55271368e-15 50.041,-3.55271368e-15" id="Combined-Shape"></path>
        </g>
    </g>
</svg>