<?xml version="1.0" encoding="UTF-8"?>
<svg width="88px" height="44px" viewBox="0 0 88 44" version="1.1" xmlns="http://www.w3.org/2000/svg" xmlns:xlink="http://www.w3.org/1999/xlink">
    <!-- Generator: Sketch 41.2 (35397) - http://www.bohemiancoding.com/sketch -->
    <title>icon-card-visa</title>
    <desc>Created with Sketch.</desc>
    <defs></defs>
    <g id="Page-1" stroke="none" stroke-width="1" fill="none" fill-rule="evenodd">
        <g id="Desktop-HD" transform="translate(-468.000000, -423.000000)">
            <g id="1_visa" transform="translate(256.000000, 403.000000)">
                <g id="VISA-logo" transform="translate(212.000000, 20.000000)">
                    <polyline id="Fill-2" fill="#FFFFFF" points="40.85 32.661037 44.5570833 11.3931481 50.4858333 11.3931481 46.77625 32.661037 40.85 32.661037"></polyline>
                    <path d="M68.2791667,11.9166667 C67.1045833,11.4856296 65.2641667,11.0236296 62.9654167,11.0236296 C57.1075,11.0236296 52.9804167,13.9080741 52.9454167,18.042037 C52.9125,21.098 55.8916667,22.803 58.1404167,23.8202963 C60.4479167,24.8624444 61.2241667,25.5273333 61.2129167,26.4582593 C61.1983333,27.8837778 59.37,28.5352222 57.6658333,28.5352222 C55.2929167,28.5352222 54.0325,28.212963 52.0854167,27.4189259 L51.32125,27.0807778 L50.4891667,31.8417407 C51.8741667,32.4353333 54.435,32.9498889 57.0933333,32.9763704 C63.3258333,32.9763704 67.37125,30.1249259 67.4175,25.7102593 C67.44,23.2910741 65.86,21.4495926 62.44,19.932 C60.3675,18.9481111 59.0983333,18.2913704 59.1116667,17.2952593 C59.1116667,16.4111852 60.1858333,15.466 62.5070833,15.466 C64.4458333,15.4366667 65.85,15.8497778 66.9441667,16.2808148 L67.4754167,16.5260741 L68.2791667,11.9166667" id="Fill-3" fill="#FFFFFF"></path>
                    <path d="M83.4820833,11.4135185 L78.9008333,11.4135185 C77.4816667,11.4135185 76.4195833,11.792 75.79625,13.1771852 L66.99125,32.667963 L73.2170833,32.667963 C73.2170833,32.667963 74.235,30.0471111 74.4654167,29.4718519 C75.1458333,29.4718519 81.1933333,29.4808148 82.0579167,29.4808148 C82.2354167,30.2251481 82.7795833,32.667963 82.7795833,32.667963 L88.2808333,32.667963 L83.4820833,11.4135185 M76.1716667,25.1215556 C76.6616667,23.8960741 78.53375,19.1762593 78.53375,19.1762593 C78.4983333,19.2328889 79.0204167,17.9450741 79.3195833,17.1465556 L79.7204167,18.9802963 C79.7204167,18.9802963 80.8558333,24.057 81.0929167,25.1215556 L76.1716667,25.1215556" id="Fill-4" fill="#FFFFFF"></path>
                    <path d="M35.8775,11.4086296 L30.0729167,25.9119259 L29.4545833,22.9643333 C28.3741667,19.5665556 25.0075,15.8856296 21.2433333,14.0429259 L26.5508333,32.6427037 L32.82375,32.6357778 L42.1575,11.4086296 L35.8775,11.4086296" id="Fill-5" fill="#FFFFFF"></path>
                    <path d="M24.6883333,11.3955926 L15.1283333,11.3955926 L15.0525,11.838037 C22.4904167,13.5984444 27.4116667,17.8525926 29.4545833,22.9643333 L27.3758333,13.191037 C27.0166667,11.8441481 25.9758333,11.4424444 24.6883333,11.3955926" id="Fill-6" fill="#EE9F2D"></path>
                </g>
            </g>
        </g>
    </g>
</svg>