<?xml version="1.0" encoding="UTF-8"?>
<svg width="19px" height="19px" viewBox="0 0 19 19" version="1.1" xmlns="http://www.w3.org/2000/svg" xmlns:xlink="http://www.w3.org/1999/xlink">
    <!-- Generator: Sketch 51.1 (57501) - http://www.bohemiancoding.com/sketch -->
    <title>icon-filter-gb</title>
    <desc>Created with Sketch.</desc>
    <defs></defs>
    <g id="Page-1" stroke="none" stroke-width="1" fill="none" fill-rule="evenodd">
        <path d="M1.82776763,4.304977 C1.27548288,4.304977 0.827767627,3.85726175 0.827767627,3.304977 C0.827767627,2.75269225 1.27548288,2.304977 1.82776763,2.304977 L11.3000488,2.304977 C11.8523336,2.304977 12.3000488,2.75269225 12.3000488,3.304977 C12.3000488,3.85726175 11.8523336,4.304977 11.3000488,4.304977 L1.82776763,4.304977 Z" id="Line-2" fill="#B1B9C5" fill-rule="nonzero"></path>
        <path d="M16.4864944,4.304977 C15.9342096,4.304977 15.4864944,3.85726175 15.4864944,3.304977 C15.4864944,2.75269225 15.9342096,2.304977 16.4864944,2.304977 L17.7407227,2.304977 C18.2930074,2.304977 18.7407227,2.75269225 18.7407227,3.304977 C18.7407227,3.85726175 18.2930074,4.304977 17.7407227,4.304977 L16.4864944,4.304977 Z" id="Line-2-Copy-3" fill="#B1B9C5" fill-rule="nonzero"></path>
        <path d="M8.64072266,10.637132 C8.08843791,10.637132 7.64072266,10.1894167 7.64072266,9.63713198 C7.64072266,9.08484723 8.08843791,8.63713198 8.64072266,8.63713198 L17.7407227,8.63713198 C18.2930074,8.63713198 18.7407227,9.08484723 18.7407227,9.63713198 C18.7407227,10.1894167 18.2930074,10.637132 17.7407227,10.637132 L8.64072266,10.637132 Z" id="Line-2-Copy" fill="#B1B9C5" fill-rule="nonzero"></path>
        <path d="M1.82776763,10.637132 C1.27548288,10.637132 0.827767627,10.1894167 0.827767627,9.63713198 C0.827767627,9.08484723 1.27548288,8.63713198 1.82776763,8.63713198 L3.53874048,8.63713198 C4.09102523,8.63713198 4.53874048,9.08484723 4.53874048,9.63713198 C4.53874048,10.1894167 4.09102523,10.637132 3.53874048,10.637132 L1.82776763,10.637132 Z" id="Line-2-Copy-4" fill="#B1B9C5" fill-rule="nonzero"></path>
        <path d="M1.82776763,16.969287 C1.27548288,16.969287 0.827767627,16.5215717 0.827767627,15.969287 C0.827767627,15.4170022 1.27548288,14.969287 1.82776763,14.969287 L10.3826319,14.969287 C10.9349166,14.969287 11.3826319,15.4170022 11.3826319,15.969287 C11.3826319,16.5215717 10.9349166,16.969287 10.3826319,16.969287 L1.82776763,16.969287 Z" id="Line-2-Copy-2" fill="#B1B9C5" fill-rule="nonzero"></path>
        <path d="M15.4107227,16.969287 C14.8584379,16.969287 14.4107227,16.5215717 14.4107227,15.969287 C14.4107227,15.4170022 14.8584379,14.969287 15.4107227,14.969287 L17.7407227,14.969287 C18.2930074,14.969287 18.7407227,15.4170022 18.7407227,15.969287 C18.7407227,16.5215717 18.2930074,16.969287 17.7407227,16.969287 L15.4107227,16.969287 Z" id="Line-2-Copy-5" fill="#B1B9C5" fill-rule="nonzero"></path>
        <path d="M14.0103527,6.19492187 C12.4501483,6.19492187 11.1853527,4.93012629 11.1853527,3.36992187 C11.1853527,1.80971746 12.4501483,0.544921875 14.0103527,0.544921875 C15.5705571,0.544921875 16.8353527,1.80971746 16.8353527,3.36992187 C16.8353527,4.93012629 15.5705571,6.19492187 14.0103527,6.19492187 Z M14.0103527,4.54492187 C14.6592873,4.54492187 15.1853527,4.01885646 15.1853527,3.36992187 C15.1853527,2.72098729 14.6592873,2.19492187 14.0103527,2.19492187 C13.3614181,2.19492187 12.8353527,2.72098729 12.8353527,3.36992187 C12.8353527,4.01885646 13.3614181,4.54492187 14.0103527,4.54492187 Z" id="Oval-7" fill="#B1B9C5" fill-rule="nonzero"></path>
        <path d="M5.96648369,12.3699219 C4.40627927,12.3699219 3.14148369,11.1051263 3.14148369,9.54492188 C3.14148369,7.98471746 4.40627927,6.71992188 5.96648369,6.71992188 C7.52668811,6.71992188 8.79148369,7.98471746 8.79148369,9.54492188 C8.79148369,11.1051263 7.52668811,12.3699219 5.96648369,12.3699219 Z M5.96648369,10.7199219 C6.61541827,10.7199219 7.14148369,10.1938565 7.14148369,9.54492188 C7.14148369,8.89598729 6.61541827,8.36992188 5.96648369,8.36992188 C5.31754911,8.36992188 4.79148369,8.89598729 4.79148369,9.54492188 C4.79148369,10.1938565 5.31754911,10.7199219 5.96648369,10.7199219 Z" id="Oval-7-Copy" fill="#B1B9C5" fill-rule="nonzero"></path>
        <path d="M12.8103751,18.5449219 C11.2501707,18.5449219 9.98537509,17.2801263 9.98537509,15.7199219 C9.98537509,14.1597175 11.2501707,12.8949219 12.8103751,12.8949219 C14.3705795,12.8949219 15.6353751,14.1597175 15.6353751,15.7199219 C15.6353751,17.2801263 14.3705795,18.5449219 12.8103751,18.5449219 Z M12.8103751,16.8949219 C13.4593097,16.8949219 13.9853751,16.3688565 13.9853751,15.7199219 C13.9853751,15.0709873 13.4593097,14.5449219 12.8103751,14.5449219 C12.1614405,14.5449219 11.6353751,15.0709873 11.6353751,15.7199219 C11.6353751,16.3688565 12.1614405,16.8949219 12.8103751,16.8949219 Z" id="Oval-7-Copy-2" fill="#B1B9C5" fill-rule="nonzero"></path>
    </g>
</svg>