<?xml version="1.0" encoding="UTF-8"?>
<svg width="64px" height="64px" viewBox="0 0 64 64" version="1.1" xmlns="http://www.w3.org/2000/svg" xmlns:xlink="http://www.w3.org/1999/xlink">
    <!-- Generator: Sketch 43.2 (39069) - http://www.bohemiancoding.com/sketch -->
    <title>icon-nav-hot-color</title>
    <desc>Created with Sketch.</desc>
    <defs></defs>
    <g id="menu" stroke="none" stroke-width="1" fill="none" fill-rule="evenodd">
        <g id="icon-nav-hot-color" fill-rule="nonzero" fill="#D0021B">
            <path d="M30.862473,51.705744 C31.8405885,51.0566021 33.1146354,51.0566021 34.0927508,51.705744 L41.103002,56.358209 L43.470305,48.3065902 C43.8006063,47.1831764 44.7765829,46.3675932 45.9448413,46.2387225 L54.3178663,45.3150935 L50.9345336,37.6317628 C50.4624692,36.559735 50.6837052,35.310189 51.4954655,34.4636058 L57.3134328,28.3960592 L49.7625635,24.6761324 C48.7090176,24.1571042 48.0719941,23.0582719 48.1474246,21.8901018 L48.6880428,13.51771 L40.5027725,15.5017822 C39.3607108,15.7786128 38.1634983,15.34465 37.4673043,14.4014928 L32.4776119,7.64179104 L27.4879196,14.4014928 C26.7917256,15.34465 25.5945131,15.7786128 24.4524514,15.5017822 L16.2671811,13.51771 L16.8077993,21.8901018 C16.8832298,23.0582719 16.2462063,24.1571042 15.1926604,24.6761324 L7.64179104,28.3960592 L13.4597584,34.4636058 C14.2715187,35.310189 14.4927546,36.559735 14.0206902,37.6317628 L10.6373576,45.3150935 L19.0103826,46.2387225 C20.178641,46.3675932 21.1546176,47.1831764 21.4849189,48.3065902 L23.8522219,56.358209 L30.862473,51.705744 Z M23.4656812,63.5116293 C21.8601596,64.5965461 19.6775773,63.7910144 19.1354061,61.9134427 L16.2534384,51.9330128 L6.06007111,50.7881233 C4.14244049,50.5727406 2.9811127,48.5330627 3.75597988,46.7413728 L7.87486791,37.2174565 L0.79204206,29.6963946 C-0.540416917,28.2814923 -0.137092007,25.9620563 1.59224454,25.0945998 L10.7847149,20.4835433 L10.1265634,10.1054975 C10.0027484,8.15312416 11.7820058,6.63921979 13.6566359,7.10188921 L23.6214296,9.56125718 L29.6959088,1.18223041 C30.8386722,-0.394076802 33.1613278,-0.394076802 34.3040912,1.18223041 L40.3785704,9.56125718 L50.3433641,7.10188921 C52.2179942,6.63921979 53.9972516,8.15312416 53.8734366,10.1054975 L53.2152851,20.4835433 L62.4077555,25.0945998 C64.137092,25.9620563 64.5404169,28.2814923 63.2079579,29.6963946 L56.1251321,37.2174565 L60.2440201,46.7413728 C61.0188873,48.5330627 59.8575595,50.5727406 57.9399289,50.7881233 L47.7465616,51.9330128 L44.8645939,61.9134427 C44.3224227,63.7910144 42.1398404,64.5965461 40.5343188,63.5116293 L32,57.7446399 L23.4656812,63.5116293 Z M17.1940299,26.7462687 L17.1940299,41.0746269 L20.5957643,41.0746269 L20.5957643,35.0762317 L23.3129392,35.0762317 L23.3129392,41.0746269 L26.7462687,41.0746269 L26.7462687,26.7462687 L23.3129392,26.7462687 L23.3129392,32.2824587 L20.5957643,32.2824587 L20.5957643,26.7462687 L17.1940299,26.7462687 Z M32.9852186,26.7462687 C32.1205693,26.7462687 31.2930853,27.0355019 30.5027418,27.613977 C29.7123984,28.1924521 29.097696,29.0386658 28.6586163,30.1526436 C28.2195366,31.2666214 28,32.5243727 28,33.9259352 C28,35.9489453 28.4492056,37.6380672 29.3476302,38.9933518 C30.2460549,40.3486363 31.5159894,41.0262684 33.157472,41.0262684 C34.738159,41.0262684 36.024981,40.3734277 37.0179767,39.0677268 C38.0109723,37.7620258 38.5074627,36.0117517 38.5074627,33.8168519 C38.5074627,31.6285632 38.0143498,29.9030805 37.0281092,28.640352 C36.0418686,27.3776234 34.6942519,26.7462687 32.9852186,26.7462687 Z M33.3532338,29.5877611 C33.8507488,29.5877611 34.2769468,29.9544147 34.6318408,30.6877329 C34.9867348,31.4210511 35.1641791,32.4703225 35.1641791,33.8355786 C35.1641791,35.1535238 34.9883931,36.2078641 34.6368159,36.9986312 C34.2852387,37.7893984 33.8175817,38.184776 33.2338308,38.184776 C32.6434465,38.184776 32.1807645,37.8012259 31.8457711,37.0341142 C31.5107778,36.2670025 31.3432836,35.2109725 31.3432836,33.8659925 C31.3432836,32.5412887 31.5157528,31.4970862 31.8606965,30.7333539 C32.2056402,29.9696215 32.7031477,29.5877611 33.3532338,29.5877611 Z M39.1641791,26.7462687 L39.1641791,29.6530252 L42.1241805,29.6530252 L42.1241805,41.0746269 L45.6479916,41.0746269 L45.6479916,29.6530252 L48.7164179,29.6530252 L48.7164179,26.7462687 L39.1641791,26.7462687 Z" id="Combined-Shape"></path>
        </g>
    </g>
</svg>