<svg id="圖層_1" data-name="圖層 1" xmlns="http://www.w3.org/2000/svg" viewBox="0 0 64 64"><defs><style>.cls-1{fill:#fff;stroke:#fff;}</style></defs><title>工作區域 1</title><path class="cls-1" d="M54.41,12.83l-2.23-1.18a3.3,3.3,0,0,1-.34.75c-.46.75-.93,1.5-1.41,2.23l2.37,1.25c1.28.68,1.65,2.52.81,4.11l-20,38c-.84,1.59-2.56,2.33-3.84,1.66l-5.76-3a2.59,2.59,0,0,1-2.35.32c-2.37-.94-4.78-1.78-7.2-2.6-.43.16-.85.32-1.29.47l15,7.89c3,1.56,6.78.17,8.5-3.1l20-38C58.38,18.32,57.37,14.39,54.41,12.83Z"/><path class="cls-1" d="M21,5.45,6.12,45.71c-1.28,3.47.23,7.23,3.37,8.4l19.56,7.24c3.14,1.16,6.74-.71,8-4.18L52,16.91c1.28-3.47-.23-7.23-3.37-8.4L29.05,1.28C25.91.11,22.31,2,21,5.45Zm26.39,6.3c1.36.5,2,2.28,1.34,4L33.85,56c-.62,1.68-2.24,2.65-3.6,2.14L10.69,50.88c-1.36-.5-2-2.28-1.34-4L24.26,6.65C24.88,5,26.49,4,27.85,4.51Zm0,0"/><rect class="cls-1" x="20.69" y="39.24" width="3.45" height="2.97" transform="translate(-23.56 47.61) rotate(-69.7)"/><rect class="cls-1" x="31.81" y="43.36" width="3.45" height="2.97" transform="translate(-20.16 60.72) rotate(-69.68)"/><rect class="cls-1" x="15.12" y="37.18" width="3.45" height="2.97" transform="translate(-25.26 41.05) rotate(-69.7)"/><rect class="cls-1" x="26.25" y="41.3" width="3.45" height="2.97" transform="translate(-21.86 54.16) rotate(-69.69)"/><path class="cls-1" d="M26.79,23.8A4.89,4.89,0,0,0,23.39,33a4.89,4.89,0,0,0,3.4-9.18Zm-2.44,6.58a2.12,2.12,0,1,1,2.73-1.26,2.13,2.13,0,0,1-2.73,1.26Zm0,0"/><path class="cls-1" d="M33.92,18.19a4.89,4.89,0,1,0,6.3-2.87,4.9,4.9,0,0,0-6.3,2.87Zm6.58,2.45a2.12,2.12,0,1,1-1.26-2.73,2.13,2.13,0,0,1,1.26,2.73Zm0,0"/><path class="cls-1" d="M37.93,33.67,23.22,17.14l2.57-2.29L40.5,31.37Zm0,0"/></svg>