<?xml version="1.0" encoding="UTF-8"?>
<svg width="261px" height="261px" viewBox="0 0 261 261" version="1.1" xmlns="http://www.w3.org/2000/svg" xmlns:xlink="http://www.w3.org/1999/xlink">
    <!-- Generator: Sketch 57.1 (83088) - https://sketch.com -->
    <title>Group 16</title>
    <desc>Created with Sketch.</desc>
    <defs>
        <polygon id="path-1" points="0.0001 0 261 0 261 261 0.0001 261"></polygon>
    </defs>
    <g id="Page-1" stroke="none" stroke-width="1" fill="none" fill-rule="evenodd">
        <g id="Group-16">
            <g id="Group-3">
                <mask id="mask-2" fill="white">
                    <use xlink:href="#path-1"></use>
                </mask>
                <g id="Clip-2"></g>
                <path d="M261.0001,130.5 C261.0001,202.573 202.5731,261 130.5001,261 C58.4271,261 0.0001,202.573 0.0001,130.5 C0.0001,58.427 58.4271,0 130.5001,0 C202.5731,0 261.0001,58.427 261.0001,130.5" id="Fill-1" fill="#9CCE00" mask="url(#mask-2)"></path>
            </g>
            <path d="M40.6441,84.4326 C41.9461,84.7886 43.2851,85.0486 44.6221,85.2046 L103.7231,92.1206 L103.7491,92.1236 L103.7751,92.1276 C104.7771,92.2646 105.7641,92.4126 106.7091,92.5686 C115.2461,93.9746 122.2041,99.5456 125.8561,107.1406 C124.2921,97.3186 117.1921,90.5376 107.9151,88.8946 C107.0681,88.7446 64.9591,82.9516 64.9591,82.9516 C51.1481,81.4946 41.0851,72.3006 41.0851,72.3006 C41.0851,72.3006 38.3951,77.5416 37.8891,83.6796 L40.6441,84.4326 Z" id="Fill-4" fill="#FFFFFF"></path>
            <path d="M154.2901,92.5684 C155.2351,92.4124 156.2231,92.2644 157.2251,92.1274 L157.2501,92.1244 L157.2761,92.1204 L216.3781,85.2054 C217.7151,85.0484 219.0541,84.7884 220.3551,84.4324 L223.1101,83.6794 C222.6041,77.5414 219.9141,72.3004 219.9141,72.3004 C219.9141,72.3004 209.8521,81.4944 196.0401,82.9514 C196.0401,82.9514 153.9321,88.7444 153.0851,88.8944 C143.8081,90.5384 136.7081,97.3184 135.1441,107.1414 C138.7961,99.5464 145.7541,93.9744 154.2901,92.5684" id="Fill-6" fill="#FFFFFF"></path>
            <path d="M36.2877,92.1831 C37.6257,92.5321 39.0007,92.7861 40.3757,92.9391 L102.4717,99.8541 L102.5047,99.8581 L102.5377,99.8621 C103.5957,100.0001 104.6377,100.1491 105.6377,100.3061 C112.2477,101.3421 118.2817,104.7261 122.6287,109.8331 C123.5657,110.9341 124.4057,112.1041 125.1567,113.3241 C122.8797,104.0711 115.6017,96.7981 106.2667,95.2601 C105.3557,95.1101 104.4027,94.9671 103.4067,94.8301 L44.3047,87.9151 C42.8277,87.7421 41.3637,87.4571 39.9247,87.0641 L32.4407,85.0181 L32.4387,86.5271 L32.4387,91.1821 L36.2877,92.1831 Z" id="Fill-8" fill="#FFFFFF"></path>
            <path d="M138.3712,109.8335 C142.7182,104.7265 148.7522,101.3425 155.3622,100.3055 C156.3622,100.1485 157.4042,100.0005 158.4622,99.8625 L158.4952,99.8585 L158.5282,99.8545 L220.6242,92.9385 C221.9992,92.7855 223.3742,92.5315 224.7132,92.1835 L228.5612,91.1815 L228.5612,86.5265 L228.5592,85.0185 L221.0752,87.0645 C219.6372,87.4575 218.1732,87.7425 216.6952,87.9155 L157.5942,94.8305 C156.5972,94.9665 155.6442,95.1105 154.7332,95.2605 C145.3982,96.7985 138.1202,104.0715 135.8442,113.3235 C136.5942,112.1045 137.4342,110.9345 138.3712,109.8335" id="Fill-10" fill="#FFFFFF"></path>
            <path d="M27.506,95.166 L27.506,174.348 C27.506,182.247 33.425,188.893 41.272,189.803 L115.364,198.399 C118.214,198.799 122.166,199.876 125.712,201.825 L125.715,128.119 C125.716,116.071 116.977,105.766 105.074,103.899 C104.117,103.749 103.116,103.606 102.069,103.47 L39.973,96.554 C38.421,96.381 36.883,96.097 35.371,95.704 L27.508,93.657 L27.506,95.166 Z" id="Fill-12" fill="#FFFFFF"></path>
            <path d="M233.4942,95.166 L233.4942,174.348 C233.4942,182.247 227.5752,188.893 219.7282,189.803 L145.6362,198.399 C142.7862,198.799 138.8342,199.876 135.2882,201.825 L135.2842,128.119 C135.2832,116.071 144.0232,105.766 155.9262,103.899 C156.8832,103.749 157.8842,103.606 158.9312,103.47 L221.0262,96.554 C222.5792,96.381 224.1172,96.097 225.6292,95.704 L233.4912,93.657 L233.4942,95.166 Z" id="Fill-14" fill="#FFFFFF"></path>
        </g>
    </g>
</svg>