<?xml version="1.0" encoding="UTF-8"?>
<svg width="80px" height="80px" viewBox="0 0 80 80" version="1.1" xmlns="http://www.w3.org/2000/svg" xmlns:xlink="http://www.w3.org/1999/xlink">
    <!-- Generator: Sketch 42 (36781) - http://www.bohemiancoding.com/sketch -->
    <title>icon-img-gift-white</title>
    <desc>Created with Sketch.</desc>
    <defs></defs>
    <g id="Page-1" stroke="none" stroke-width="1" fill="none" fill-rule="evenodd">
        <g id="row" transform="translate(-32.000000, -16.000000)" fill-rule="nonzero" fill="#FFFFFF">
            <g id="icon" transform="translate(32.000000, 16.000000)">
                <path d="M63.0807122,19.7938144 L80,19.7938144 L80,38.7628866 L76.7010309,38.7628866 L76.7010309,80 L3.29896907,80 L3.29896907,38.7628866 L0,38.7628866 L0,19.7938144 L16.9192878,19.7938144 C12.712435,17.42414 9.89690722,13.4984796 9.89690722,8.65979381 C9.89690722,3.64542304 12.9664574,0 19.0828866,0 C24.8685979,0 27.9764159,2.98776421 32.1150757,10.0966426 C32.249021,10.3267173 32.7946313,11.2687095 32.9336162,11.507337 C35.8188826,16.4611401 37.4852772,18.1443299 40,18.1443299 C42.5147228,18.1443299 44.1811174,16.4611401 47.0663838,11.507337 C47.2053687,11.2687095 47.750979,10.3267173 47.8849243,10.0966426 C52.0235841,2.98776421 55.1314021,0 60.9171134,0 C67.0335426,0 70.1030928,3.64542304 70.1030928,8.65979381 C70.1030928,13.4984796 67.287565,17.42414 63.0807122,19.7938144 L63.0807122,19.7938144 Z M29.6907216,38.7628866 L7.42268041,38.7628866 L7.42268041,75.8762887 L29.6907216,75.8762887 L29.6907216,38.7628866 Z M72.5773196,38.7628866 L50.3092784,38.7628866 L50.3092784,75.8762887 L72.5773196,75.8762887 L72.5773196,38.7628866 Z M29.6907216,34.6391753 L29.6907216,23.9175258 L4.12371134,23.9175258 L4.12371134,34.6391753 L29.6907216,34.6391753 L29.6907216,34.6391753 Z M50.3092784,34.6391753 L75.8762887,34.6391753 L75.8762887,23.9175258 L50.3092784,23.9175258 L50.3092784,34.6391753 L50.3092784,34.6391753 Z M33.814433,75.8762887 L46.185567,75.8762887 L46.185567,23.9175258 L33.814433,23.9175258 L33.814433,75.8762887 Z M32.3613975,18.1443299 C31.4078369,16.9273552 30.438659,15.417153 29.3702483,13.5827658 C29.2279889,13.3385162 28.6821182,12.3960745 28.5513161,12.1713986 C25.1029775,6.24826874 22.8930516,4.12371134 19.0828866,4.12371134 C15.4160349,4.12371134 14.0206186,5.78091928 14.0206186,8.65979381 C14.0206186,14.0879767 19.770894,18.1443299 26.8041237,18.1443299 L32.3613975,18.1443299 Z M53.1958763,18.1443299 C60.229106,18.1443299 65.9793814,14.0879767 65.9793814,8.65979381 C65.9793814,5.78091928 64.5839651,4.12371134 60.9171134,4.12371134 C57.1069484,4.12371134 54.8970225,6.24826874 51.4486839,12.1713986 C51.3178818,12.3960745 50.7720111,13.3385162 50.6297517,13.5827658 C49.561341,15.417153 48.5921631,16.9273552 47.6386025,18.1443299 L53.1958763,18.1443299 Z" id="Combined-Shape"></path>
            </g>
        </g>
    </g>
</svg>