<?xml version="1.0" encoding="utf-8"?>
<!-- Generator: Adobe Illustrator 22.0.1, SVG Export Plug-In . SVG Version: 6.00 Build 0)  -->
<svg version="1.1" id="圖層_1" xmlns="http://www.w3.org/2000/svg" xmlns:xlink="http://www.w3.org/1999/xlink" x="0px" y="0px"
	 viewBox="0 0 200 200" style="enable-background:new 0 0 200 200;" xml:space="preserve">
<style type="text/css">
	.st0{fill:#81B6E0;}
</style>
<g>
	<path class="st0" d="M134.9,146.8l-19.6-2.6c-1.4-0.3-2.3-1.5-2.3-3v-9c6.8-4.6,12.3-12.5,15-22.2c2.7,0,5.6-3,6.8-7.3
		c1.4-4.9,0.3-9.7-2.6-10.6c-0.3-0.2-0.8-0.2-1.1-0.2c-0.5,0-0.8,0-1.2,0.2c0-0.3,0.8-5.5,0.8-8.1c0-18.1-13.8-32.7-30.8-32.7
		S69.1,65.9,69.1,84c0,2.6,0.8,7.9,0.8,8.1C69.5,92,69.2,92,68.7,92c-0.3,0-0.8,0-1.1,0.2c-2.9,0.9-4.1,5.8-2.6,10.6
		c1.4,4.3,4.3,7.3,6.8,7.3c2.9,9.7,8.2,17.6,15,22.2v9c0,1.5-0.9,2.7-2.3,3l-19.6,2.6c-9,1.8-15.5,10.3-15.5,20c0,0,0,1.2,0,2
		c14.1,10.4,31.6,16.5,50.4,16.5c18.9,0,36.3-6.1,50.4-16.5v-2C150.4,157.2,143.9,148.8,134.9,146.8z"/>
	<path class="st0" d="M100,14.6c-47.2,0-85.4,38.2-85.4,85.4c0,26.3,11.9,49.7,30.5,65.4c0.6-11.3,8.5-20.9,19.1-23.1
		c0,0,0.2,0,0.3,0l17.9-2.3v-5.3c-6.2-4.7-11.1-12-14-20.7c-3.3-1.5-6.2-5-7.6-9.7c-2.1-6.8-0.3-13.2,4.1-15.6
		c-0.2-1.5-0.3-3-0.3-4.3c0-20.5,15.9-37.2,35.4-37.2c19.6,0,35.4,16.7,35.4,37.2c0,1.2-0.2,2.7-0.3,4.3c4.4,2.4,6.1,8.8,4.1,15.6
		c-1.5,4.7-4.3,8.2-7.6,9.7c-2.9,8.7-7.7,15.8-14,20.7v5.3l17.9,2.3c0,0,0.2,0,0.3,0c10.6,2.3,18.4,11.9,19.1,23.1
		c18.6-15.7,30.5-39.1,30.5-65.4C185.4,52.8,147.2,14.6,100,14.6z"/>
</g>
</svg>
