<?xml version="1.0" encoding="UTF-8"?>
<svg width="64px" height="64px" viewBox="0 0 64 64" version="1.1" xmlns="http://www.w3.org/2000/svg" xmlns:xlink="http://www.w3.org/1999/xlink">
    <!-- Generator: Sketch 41.2 (35397) - http://www.bohemiancoding.com/sketch -->
    <title>icon-purview-phone-blue</title>
    <desc>Created with Sketch.</desc>
    <defs></defs>
    <g id="member" stroke="none" stroke-width="1" fill="none" fill-rule="evenodd">
        <g id="icon-purview-phone-blue" fill="#0090D4">
            <path d="M48.5466667,0 L16.12,0 C13.3466667,0 11,2.34666667 11,5.12 L11,58.88 C11,61.6533333 13.3466667,64 16.12,64 L48.5466667,64 C51.32,64 53.6666667,61.6533333 53.6666667,58.88 L53.6666667,5.12 C53.6666667,2.34666667 51.32,0 48.5466667,0 Z M32.3333333,61.8666667 C30.2,61.8666667 28.4933333,60.16 28.4933333,58.0266667 C28.4933333,55.8933333 30.2,54.1866667 32.3333333,54.1866667 C34.4666667,54.1866667 36.1733333,55.8933333 36.1733333,58.0266667 L36.1733333,58.0266667 C36.1733333,60.16 34.4666667,61.8666667 32.3333333,61.8666667 Z M48.5466667,52.48 L16.12,52.48 L16.12,4.69333333 L48.5466667,4.69333333 L48.5466667,52.48 Z" id="Shape"></path>
        </g>
    </g>
</svg>