<?xml version="1.0" encoding="UTF-8" standalone="no"?>
<svg width="64px" height="64px" viewBox="0 0 64 64" version="1.1" xmlns="http://www.w3.org/2000/svg" xmlns:xlink="http://www.w3.org/1999/xlink">
    <!-- Generator: Sketch 39.1 (31720) - http://www.bohemiancoding.com/sketch -->
    <title>icon-nav-drug</title>
    <desc>Created with Sketch.</desc>
    <defs></defs>
    <g id="menu" stroke="none" stroke-width="1" fill="none" fill-rule="evenodd">
        <g id="icon-nav-drug" fill="#6F7274">
            <path d="M53.423,18.984 C52.187,17.252 50.556,15.839 48.664,14.865 L48.664,10.531 C48.669,9.095 47.509,7.927 46.073,7.922 L46.053,7.922 L45.645,7.922 L45.645,1.562 C45.661,0.715 44.988,0.016 44.141,0 L44.104,0 L20.799,0 C19.945,0.001 19.254,0.694 19.255,1.548 L19.255,1.562 L19.255,7.922 L18.87,7.922 C17.43,7.92 16.261,9.087 16.259,10.527 L16.259,10.531 L16.259,14.869 C14.369,15.852 12.733,17.261 11.48,18.984 C9.867,21.234 8.999,23.933 9,26.701 L9,50.674 C9.036,58.011 14.97,63.954 22.307,64 L42.598,64 C49.941,63.968 55.884,58.017 55.905,50.674 L55.905,26.705 C55.906,23.935 55.038,21.235 53.423,18.984 Z M42.594,58.761 L22.307,58.761 C20.17,58.762 18.121,57.916 16.607,56.408 C15.474,55.247 14.718,53.787 14.411,52.217 L50.515,52.217 C50.21,53.793 49.444,55.255 48.294,56.408 C46.787,57.925 44.733,58.773 42.594,58.761 Z M14.256,48.217 L14.256,28.717 L50.669,28.717 L50.666,48.217 L14.256,48.217 Z M19.713,19.061 C20.768,18.703 21.478,17.712 21.477,16.597 L21.477,13.142 L43.445,13.142 L43.445,16.597 C43.438,17.767 44.212,18.797 45.338,19.115 C46.882,19.682 48.221,20.701 49.179,22.038 C49.761,22.848 50.16,23.761 50.402,24.717 L14.531,24.717 C15.195,22.122 17.099,19.963 19.713,19.061 Z M22.361,7.924 L42.561,7.924 L42.561,3.124 L22.361,3.124 L22.361,7.924 Z M40.0872,36.6204 C39.6052,36.1384 38.9632,35.8724 38.2782,35.8724 L34.9972,35.8724 L34.9972,32.6314 C35.0302,31.2414 33.9272,30.0804 32.4512,30.0454 C31.0382,30.0454 29.8892,31.1944 29.8892,32.6074 L29.8892,35.8724 L26.6462,35.8724 L26.6432,35.8724 C25.9622,35.8724 25.3222,36.1374 24.8402,36.6184 C24.3582,37.0994 24.0912,37.7404 24.0902,38.4234 C24.0902,39.1054 24.3552,39.7464 24.8372,40.2284 C25.3192,40.7124 25.9602,40.9774 26.6422,40.9774 L29.8892,40.9774 L29.8892,44.2784 C29.9152,45.6634 31.0592,46.7844 32.4162,46.7844 C32.4372,46.7834 32.4602,46.7844 32.4822,46.7844 C33.1352,46.7844 33.7512,46.5374 34.2242,46.0834 C34.7082,45.6184 34.9832,44.9914 34.9932,44.3714 L34.9972,40.9774 L38.2772,40.9774 L38.2802,40.9774 C38.9612,40.9774 39.6022,40.7134 40.0842,40.2314 C40.5662,39.7504 40.8322,39.1094 40.8332,38.4274 C40.8342,37.7454 40.5682,37.1034 40.0872,36.6204 Z" id="Combined-Shape"></path>
        </g>
    </g>
</svg>