<?xml version="1.0" encoding="UTF-8"?>
<svg width="32px" height="32px" viewBox="0 0 32 32" version="1.1" xmlns="http://www.w3.org/2000/svg" xmlns:xlink="http://www.w3.org/1999/xlink">
    <!-- Generator: Sketch 52.5 (67469) - http://www.bohemiancoding.com/sketch -->
    <title>icon-purse-m_</title>
    <desc>Created with Sketch.</desc>
    <g id="icon-purse-m_" stroke="none" stroke-width="1" fill="none" fill-rule="evenodd">
        <g id="icon-purse" transform="translate(6.000000, 2.500000)" stroke="#E64995">
            <g id="Group-21" transform="translate(0.000000, 0.374512)">
                <path d="M8.09407263,6.76014116 L5.57011083,2.03372807 L8.11766868,2.41574873 C8.56115305,0.888908429 9.18859682,0.125488281 10,0.125488281 C10.8114032,0.125488281 11.438847,0.888908429 11.8823313,2.41574873 L14.0406017,2.03372807 L11.9031769,6.75825081 C14.9388696,8.8440859 20,14.1356696 20,18.522258 C20,24.1211222 15.6090032,26.1254883 10,26.1254883 C4.39099676,26.1254883 1.56657579e-13,24.1211222 1.56319402e-13,18.522258 C1.56319402e-13,14.1369941 5.05807445,8.84728143 8.09407263,6.76014116 Z" id="Combined-Shape" stroke-width="1.9" stroke-linecap="round" stroke-linejoin="round"></path>
                <path d="M8.36528874,13.6272326 C8.4764987,13.5180498 8.62452034,13.4453882 8.77292951,13.4453882 L11.5155924,13.4453882 C11.663614,13.4453882 11.8120232,13.5180498 11.9232332,13.6272326 C12.0344431,13.7364153 12.1084539,13.845598 12.1084539,13.9909213 C12.1084539,14.2823288 12.3676856,14.5368349 12.6645039,14.5368349 C12.9609347,14.5368349 13.2201663,14.2823288 13.2201663,13.9909213 C13.2201663,13.5545709 13.0349455,13.11784 12.7013155,12.8268129 C12.4048848,12.4992648 11.9600448,12.353561 11.5155924,12.353561 L10.6999233,12.353561 L10.6999233,11.8806895 C10.6999233,11.5896624 10.4406917,11.3347759 10.1442609,11.3347759 C9.84783015,11.3347759 9.58821102,11.5896624 9.58821102,11.8806895 L9.58821102,12.353561 L8.77292951,12.353561 C8.32808956,12.353561 7.88363714,12.5357858 7.58681884,12.8268129 C7.25357641,13.11784 7.10516728,13.5545709 7.10516728,13.9909213 L7.10516728,15.7739854 C7.10516728,16.2107163 7.29038806,16.6470667 7.58681884,16.9380938 C7.88363714,17.2295013 8.29127792,17.4113457 8.73573034,17.4474863 L11.5155924,17.4474863 C11.663614,17.4474863 11.8120232,17.5205285 11.9232332,17.6297111 C12.0344431,17.7388939 12.1084539,17.8842172 12.1084539,18.029921 L12.1084539,19.8126046 C12.1084539,19.9583084 12.0344431,20.1036317 11.9232332,20.2128144 C11.8120232,20.3219972 11.663614,20.3950393 11.5155924,20.3950393 L8.73573034,20.3950393 C8.58770869,20.3950393 8.43929956,20.3219972 8.32808956,20.2128144 C8.21687961,20.1036317 8.14286874,19.9583084 8.14286874,19.8126046 C8.14286874,19.5215775 7.88363714,19.2670715 7.58720637,19.2670715 C7.29038806,19.2670715 7.06796811,19.4850565 7.06796811,19.8126046 C7.06796811,20.2493355 7.25357641,20.6860664 7.55000719,20.9770934 C7.88363714,21.2681205 8.29127792,21.4499649 8.73573034,21.4499649 L9.55139937,21.4499649 L9.55139937,21.9232168 C9.55139937,22.2142439 9.77343184,22.46875 10.1070618,22.46875 C10.4034926,22.46875 10.6631117,22.2142439 10.6631117,21.9232168 L10.6631117,21.4499649 L11.5155924,21.4499649 C11.9600448,21.4499649 12.3676856,21.2681205 12.7013155,20.9770934 C13.0349455,20.6860664 13.2201663,20.2493355 13.2201663,19.8126046 L13.2201663,18.029921 C13.2201663,17.5931901 13.0349455,17.1564592 12.7013155,16.8654321 C12.4048848,16.574405 11.997244,16.3925607 11.552404,16.3560396 L8.73573034,16.3560396 C8.58770869,16.3560396 8.43929956,16.2833779 8.32808956,16.1741952 C8.25407874,16.0650125 8.18006792,15.9193087 8.18006792,15.7739854 L8.18006792,13.9909213 C8.18006792,13.845598 8.25407874,13.6998942 8.36528874,13.6272326 Z" id="Combined-Shape-path" stroke-width="0.8" fill="#E64995"></path>
                <path d="M7,6.64074707 L13,6.64074707" id="Line-4" stroke-width="3" stroke-linecap="round" stroke-linejoin="round"></path>
            </g>
        </g>
    </g>
</svg>