<?xml version="1.0" encoding="utf-8"?>
<!-- Generator: Adobe Illustrator 22.0.1, SVG Export Plug-In . SVG Version: 6.00 Build 0)  -->
<svg version="1.1" id="圖層_1" xmlns="http://www.w3.org/2000/svg" xmlns:xlink="http://www.w3.org/1999/xlink" x="0px" y="0px"
	 viewBox="0 0 52 56" style="enable-background:new 0 0 52 56;" xml:space="preserve">
<style type="text/css">
	.st0{fill:#FFFFFF;}
</style>
<title>icon-normal-share-white</title>
<g id="圖層_2_1_">
	<g id="圖層_1-2">
		<g>
			<path class="st0" d="M47.1,26.1H34v5.3h11.9c0.5,0,0.8,0.4,0.8,0.8c0,0,0,0,0,0v14.6c0,0.5-0.4,0.8-0.8,0.8c0,0,0,0,0,0H6.2
				c-0.5,0-0.8-0.4-0.8-0.8l0,0V32.3c0-0.5,0.4-0.8,0.8-0.8h12v-5.3H5c-2.8,0-5,2.2-5,5V48c0,2.8,2.2,5,5,5h42.1c2.8,0,5-2.2,5-5
				V31.1C52.1,28.3,49.8,26.1,47.1,26.1z"/>
			<path class="st0" d="M40.8,17L28.1,4.4c-1.1-1.1-3-1.1-4.1,0L11.3,17.1c-0.5,0.6-0.8,1.3-0.7,2.1c0,0.8,0.4,1.5,1,2
				c1.1,1,2.8,1,3.9,0l7.7-7.7l0,25.5c0.1,1.5,1.4,2.7,2.9,2.7c0.1,0,0.1,0,0.2,0c1.5-0.1,2.6-1.3,2.7-2.8V13.5l7.7,7.7
				c1.2,1.1,3,1.1,4.1,0C41.9,20,41.9,18.2,40.8,17z"/>
		</g>
	</g>
</g>
</svg>
