<?xml version="1.0" encoding="UTF-8" standalone="no"?>
<svg width="64px" height="64px" viewBox="0 0 64 64" version="1.1" xmlns="http://www.w3.org/2000/svg" xmlns:xlink="http://www.w3.org/1999/xlink">
    <!-- Generator: Sketch 39.1 (31720) - http://www.bohemiancoding.com/sketch -->
    <title>icon-repair-d</title>
    <desc>Created with Sketch.</desc>
    <defs></defs>
    <g id="Page-7" stroke="none" stroke-width="1" fill="none" fill-rule="evenodd">
        <g id="icon-repair-d" fill="#6F7274">
            <path d="M51.94,58 L12.135,58.001 C11.828,57.994 11.529,57.957 11.235,57.907 C16.38,53.416 17.507,52.147 22.846,47.494 C25.994,48.558 29.469,47.891 32,45.738 C34.972,43.219 36.195,39.195 35.128,35.448 L29.358,40.32 C28.882,40.726 28.168,40.669 27.762,40.193 C27.757,40.187 27.751,40.181 27.746,40.174 L24.488,36.152 C24.09,35.649 24.165,34.921 24.656,34.509 L30.429,29.644 C27.015,27.868 22.865,28.343 19.941,30.844 C17.374,33.019 16.087,36.349 16.524,39.685 C11.599,43.706 10.088,44.997 6.003,48.348 L6.003,24.907 L58.003,24.907 L58.003,51.585 C58.08,55.043 55.329,57.921 51.94,58 L51.94,58 Z M12.065,6 L51.902,6 C55.345,6.096 58.08,8.968 58.002,12.482 L58.003,18.907 L6.003,18.907 L6.002,12.416 C5.926,8.958 8.677,6.08 12.065,6 L12.065,6 Z M64.002,12.548 C64.151,5.786 58.772,0.157 52.009,0.001 C51.986,0 51.963,0 51.94,0 L11.995,0.001 C5.234,0.158 -0.145,5.787 0.003,12.482 L0.003,51.452 C-0.145,58.214 5.234,63.842 12.065,64 L52.009,63.999 C58.772,63.843 64.151,58.215 64.003,51.519 L64.002,12.548 Z M30.3921,16.3111 C32.4261,16.3111 34.0751,14.6691 34.0751,12.6431 C34.0751,10.6171 32.4261,8.9751 30.3921,8.9751 C28.3581,8.9751 26.7091,10.6171 26.7091,12.6431 C26.7091,14.6691 28.3581,16.3111 30.3921,16.3111 Z M40.8812,16.32 C42.9042,16.532 44.7162,15.064 44.9282,13.041 C44.9292,13.033 44.9302,13.026 44.9302,13.018 C45.1382,11.004 43.6732,9.202 41.6582,8.995 C41.6552,8.995 41.6522,8.994 41.6492,8.994 C39.6262,8.782 37.8142,10.25 37.6022,12.273 C37.3902,14.296 38.8582,16.108 40.8812,16.32 Z M50.8502,16.32 C52.8732,16.532 54.6852,15.064 54.8972,13.041 C54.8982,13.033 54.8992,13.026 54.8992,13.018 C55.1072,11.004 53.6422,9.202 51.6272,8.995 C51.6242,8.995 51.6212,8.994 51.6182,8.994 C49.5952,8.782 47.7832,10.25 47.5712,12.273 C47.3592,14.296 48.8272,16.108 50.8502,16.32 Z M51.8961,30.748 L51.8661,30.748 L40.4281,30.75 C39.8111,30.745 39.2341,30.971 38.7921,31.399 C38.3511,31.827 38.1041,32.401 38.0961,33.107 C38.1211,33.717 38.3801,34.279 38.8291,34.692 C39.2541,35.084 39.8001,35.297 40.3391,35.297 C40.3691,35.297 40.3981,35.296 40.4271,35.295 L51.9041,35.296 C53.1631,35.263 54.1861,34.29 54.1951,33.014 C54.1761,31.758 53.1471,30.748 51.8961,30.748 Z M46.6627,47.5889 L46.6297,47.5889 L40.4457,47.5889 C39.8237,47.5919 39.2547,47.7929 38.8097,48.2129 C38.3657,48.6329 38.1117,49.1999 38.0947,49.8779 C38.1267,51.1269 39.1517,52.1199 40.3687,52.1199 C40.3887,52.1199 40.4077,52.1199 40.4277,52.1189 L46.6307,52.1189 C47.8897,52.1599 48.9267,51.1139 48.9527,49.8059 C48.9127,48.5739 47.8897,47.5889 46.6627,47.5889 Z M51.8482,39.0293 L51.8482,39.0303 L40.3992,39.0293 L40.3732,39.0293 C39.1282,39.0293 38.1082,40.0363 38.0942,41.3353 C38.1262,42.5843 39.1522,43.5773 40.3692,43.5773 C40.3882,43.5773 40.4082,43.5773 40.4272,43.5763 L51.8682,43.5763 L51.8932,43.5763 C53.1442,43.5763 54.1732,42.5643 54.1912,41.2323 C54.1512,39.9793 53.0832,39.0263 51.8482,39.0293 Z" id="Combined-Shape"></path>
        </g>
    </g>
</svg>