<?xml version="1.0" encoding="utf-8"?>
<!-- Generator: Adobe Illustrator 22.1.0, SVG Export Plug-In . SVG Version: 6.00 Build 0)  -->
<svg version="1.1" id="圖層_1" xmlns="http://www.w3.org/2000/svg" xmlns:xlink="http://www.w3.org/1999/xlink" x="0px" y="0px"
	 viewBox="0 0 64 64" style="enable-background:new 0 0 64 64;" xml:space="preserve">
<style type="text/css">
	.st0{fill:#FFFFFF;}
</style>
<title>icon-nav-drug</title>
<desc>Created with Sketch.</desc>
<g id="menu">
	<g id="icon-nav-drug">
		<path id="Combined-Shape" class="st0" d="M53.4,19c-1.2-1.7-2.9-3.1-4.8-4.1v-4.3c0-1.4-1.2-2.6-2.6-2.6h0h-0.4V1.6
			C45.7,0.7,45,0,44.1,0h0H20.8c-0.9,0-1.5,0.7-1.5,1.5v0v6.4h-0.4c-1.4,0-2.6,1.2-2.6,2.6v0v4.3c-1.9,1-3.5,2.4-4.8,4.1
			C9.9,21.2,9,23.9,9,26.7v24C9,58,15,64,22.3,64h20.3c7.3,0,13.3-6,13.3-13.3v-24C55.9,23.9,55,21.2,53.4,19z M42.6,58.8H22.3
			c-2.1,0-4.2-0.8-5.7-2.4c-1.1-1.2-1.9-2.6-2.2-4.2h36.1c-0.3,1.6-1.1,3-2.2,4.2C46.8,57.9,44.7,58.8,42.6,58.8z M14.3,48.2V28.7
			h36.4l0,19.5H14.3z M19.7,19.1c1.1-0.4,1.8-1.3,1.8-2.5v-3.5h22v3.5c0,1.2,0.8,2.2,1.9,2.5c1.5,0.6,2.9,1.6,3.8,2.9
			c0.6,0.8,1,1.7,1.2,2.7H14.5C15.2,22.1,17.1,20,19.7,19.1z M22.4,7.9h20.2V3.1H22.4V7.9z M40.1,36.6c-0.5-0.5-1.1-0.7-1.8-0.7H35
			v-3.2c0-1.4-1.1-2.6-2.5-2.6c-1.4,0-2.6,1.1-2.6,2.6v3.3h-3.2h0c-0.7,0-1.3,0.3-1.8,0.7s-0.7,1.1-0.8,1.8c0,0.7,0.3,1.3,0.7,1.8
			c0.5,0.5,1.1,0.7,1.8,0.7h3.2v3.3c0,1.4,1.2,2.5,2.5,2.5c0,0,0,0,0.1,0c0.7,0,1.3-0.2,1.7-0.7c0.5-0.5,0.8-1.1,0.8-1.7l0-3.4h3.3
			h0c0.7,0,1.3-0.3,1.8-0.7c0.5-0.5,0.7-1.1,0.7-1.8C40.8,37.7,40.6,37.1,40.1,36.6z"/>
	</g>
</g>
</svg>
