<?xml version="1.0" encoding="UTF-8"?>
<svg width="64px" height="64px" viewBox="0 0 64 64" version="1.1" xmlns="http://www.w3.org/2000/svg" xmlns:xlink="http://www.w3.org/1999/xlink">
    <!-- Generator: Sketch 42 (36781) - http://www.bohemiancoding.com/sketch -->
    <title>icon-phone-scan-light</title>
    <desc>Created with Sketch.</desc>
    <defs></defs>
    <g id="cart/order/product" stroke="none" stroke-width="1" fill="none" fill-rule="evenodd">
        <g id="icon-phone-scan-light" fill="#A3A5A6">
            <path d="M30.5745007,42 L8,42 L8,9 L35,9 L35,28.0330147 L38,31.0735138 L38,7 C38,5 36.5,4 35,4 L8,4 C6.5,4 5,5.5 5,7 L5,50 C5,51.5 6.5,53 8,53 L34.431782,53 C34.4312177,52.9492771 34.4309348,52.8985148 34.4309348,52.8477148 L34.4309348,47.6451973 L30.5745007,42 Z M27.8419591,38 L26.4896717,36.0204694 C24.3594966,33.7222516 24.4003543,30.0932886 26.6159593,27.8458914 C27.8190302,26.6265795 29.4224059,26.0562953 31,26.1341894 L31,13 L12,13 L12,38 L27.8419591,38 Z M42,21.0886629 L42,35.1275125 L45.0298096,38.1982236 C45.7559635,38.9341803 45.7559635,40.1237574 45.0298096,40.8597141 C44.3036557,41.5956708 43.1299237,41.5956708 42.4037698,40.8597141 L32.1893294,30.5073819 C31.3758886,29.6848421 30.0572972,29.6848421 29.2438563,30.5073819 C28.4322725,31.3299218 28.4322725,32.668196 29.2438563,33.4907358 L29.4574309,33.7504853 L37.8147003,45.9850597 L38.1452768,47.0560555 L38.1452768,52.8477148 C38.1452768,54.8221869 38.7432858,56.7138404 39.8761601,58.3212752 L41.7797604,61.0204106 C42.3759123,61.8655373 42.1827665,63.0419387 41.3488967,63.6461385 C41.0183203,63.8814187 40.6413146,63.9962355 40.2680232,63.9962355 C39.6885859,63.9962355 39.1184344,63.7214282 38.756286,63.2094583 L36.8526858,60.5084407 C36.0863671,59.4216571 35.4952075,58.2412782 35.0888432,57 L8,57 C4,57 1,54 1,50 L1,7 C1,3 4,-1.42108547e-14 8,-1.42108547e-14 L35,-1.42108547e-14 C39,-1.42108547e-14 42,3 42,7 L42,16.188238 C42.7257681,16.8080864 43.4162712,17.3887556 44.0715094,17.9377684 C49.4498765,22.4513852 53.0026446,25.4347391 53.0026446,31.7797777 L53.0026446,48.2926887 L62.7267919,60.9620611 C63.3563728,61.7827187 63.2096563,62.9647668 62.3999298,63.6028469 C62.0600675,63.8701253 61.6589186,64 61.2596268,64 C60.7061898,64 60.1583244,63.7496618 59.7924617,63.2734545 L49.6783086,50.0939945 L49.2883027,48.9382977 L49.2883027,31.7797777 C49.2883027,27.2941386 47.0019304,25.2886679 42,21.0886629 Z M22,45 C23.656,45 25,46.3439209 25,47.9998235 C25,49.6557261 23.656,50.9996471 22,50.9996471 C20.344,50.9996471 19,49.6557261 19,47.9998235 C19,46.3439209 20.344,45 22,45 Z" id="Combined-Shape"></path>
        </g>
    </g>
</svg>