<?xml version="1.0" encoding="UTF-8" standalone="no"?>
<svg width="64px" height="64px" viewBox="0 0 64 64" version="1.1" xmlns="http://www.w3.org/2000/svg" xmlns:xlink="http://www.w3.org/1999/xlink">
    <!-- Generator: Sketch 39.1 (31720) - http://www.bohemiancoding.com/sketch -->
    <title>icon-share-fb</title>
    <desc>Created with Sketch.</desc>
    <defs></defs>
    <g id="member" stroke="none" stroke-width="1" fill="none" fill-rule="evenodd">
        <g id="icon-share-fb" fill="#6F7274">
            <path d="M2,6.0065556 C2,3.79379604 3.79568082,2 6.0065556,2 L57.9934444,2 C60.206204,2 62,3.79568082 62,6.0065556 L62,57.9934444 C62,60.206204 60.2043192,62 57.9934444,62 L6.0065556,62 C3.79379604,62 2,60.2043192 2,57.9934444 L2,6.0065556 Z M53.0552097,32.8594306 L46.2190809,32.8594306 L46.2190809,57.6642507 L35.9845454,57.6642507 L35.9845454,32.8594306 L30.8672777,32.8594306 L30.8672777,24.3044406 L35.9845454,24.3044406 L35.9845454,19.1871729 C35.9845454,15.5149951 36.8442157,12.7418032 38.5625974,10.8666384 C40.2809791,8.99147362 43.1193773,8.05413094 47.0782717,8.05413094 L53.9144006,8.05413094 L53.9144006,16.6091209 L49.6179669,16.6091209 C48.1594521,16.6091209 47.2283424,16.8627548 46.8246378,17.3709815 C46.4209332,17.8787288 46.2190809,18.7705229 46.2190809,20.0468432 L46.2190809,24.3044406 L53.9537162,24.3044406 L53.0552097,32.8594306 Z" id="Combined-Shape"></path>
        </g>
    </g>
</svg>