<?xml version="1.0" encoding="UTF-8" standalone="no"?>
<svg width="20px" height="20px" viewBox="0 0 20 20" version="1.1" xmlns="http://www.w3.org/2000/svg" xmlns:xlink="http://www.w3.org/1999/xlink">
    <!-- Generator: Sketch 39.1 (31720) - http://www.bohemiancoding.com/sketch -->
    <title>icon-checkbox-on-20</title>
    <desc>Created with Sketch.</desc>
    <defs></defs>
    <g id="common" stroke="none" stroke-width="1" fill="none" fill-rule="evenodd">
        <g id="icon-checkbox-on-20" fill="#FFFFFF">
            <path d="M15.6320439,5.12907998 C15.4611041,4.95697334 15.1828164,4.95697334 15.0130434,5.12907998 L8.48991009,11.6218759 C8.31897028,11.7951493 8.04009918,11.7951493 7.87032619,11.6218759 L5.01218915,8.71123173 C4.92759436,8.6248867 4.81674602,8.5822976 4.70531426,8.58171419 C4.59271568,8.58113078 4.47836686,8.62371988 4.39260525,8.71123173 L3.12951754,9.84655214 C3.04550616,9.93289716 3,10.0408284 3,10.153427 C3,10.266609 3.04550616,10.3850417 3.13010095,10.4708033 L6.0121579,13.4952129 C6.1825143,13.6679029 6.46196881,13.9479409 6.6317418,14.1194641 L7.8709096,15.3685499 C8.041266,15.5394897 8.31955369,15.5394897 8.4904935,15.3685499 L16.8717951,7.00241699 C17.042735,6.83089377 17.042735,6.54910561 16.8717951,6.37758238 L15.6320439,5.12907998 L15.6320439,5.12907998 Z" id="Shape"></path>
        </g>
    </g>
</svg>