<?xml version="1.0" encoding="UTF-8"?>
<svg width="64px" height="64px" viewBox="0 0 64 64" version="1.1" xmlns="http://www.w3.org/2000/svg" xmlns:xlink="http://www.w3.org/1999/xlink">
    <!-- Generator: Sketch 43.2 (39069) - http://www.bohemiancoding.com/sketch -->
    <title>icon-nav-cart-silver</title>
    <desc>Created with Sketch.</desc>
    <defs></defs>
    <g id="cart/order/product" stroke="none" stroke-width="1" fill="none" fill-rule="evenodd">
        <g id="icon-nav-cart-silver" fill="#DCDDDE">
            <path d="M49.7593,12.6218 C56.6043,12.6298 62.1643,18.2018 62.1593,25.0418 C62.1593,25.2198 62.1443,25.3968 62.1123,25.5718 L59.2683,41.3548 C59.2543,41.4338 59.2373,41.5118 59.2163,41.5898 C58.3713,44.7838 57.0533,47.3868 55.3613,49.3188 C56.6383,50.6668 57.4283,52.4818 57.4283,54.4828 C57.4283,58.6268 54.0603,61.9988 49.9193,61.9988 C45.7793,61.9988 42.4103,58.6268 42.4103,54.4828 C42.4103,54.0588 42.4543,53.6458 42.5223,53.2418 L25.9913,53.2418 C26.0593,53.6458 26.1023,54.0588 26.1023,54.4828 C26.1023,58.6268 22.7343,61.9988 18.5933,61.9988 C14.4533,61.9988 11.0843,58.6268 11.0843,54.4828 C11.0843,52.3068 12.0193,50.3498 13.5003,48.9758 C12.0643,46.8668 11.1643,44.2578 10.3213,41.7918 C10.2573,41.6028 10.2113,41.4078 10.1853,41.2078 C10.1603,41.0168 7.6793,22.0078 5.5723,15.5398 C3.5693,9.3888 1.1143,8.9978 1.0903,8.9948 C1.2423,9.0148 1.3273,8.9958 1.3273,8.9958 L1.0003,3.0038 C1.6783,2.9678 7.7823,2.9498 11.2773,13.6818 C13.4283,20.2858 15.7543,37.5418 16.0963,40.1348 C18.0443,45.8028 18.9313,47.2418 21.6153,47.2418 L46.9153,47.2418 C50.6723,47.2418 52.5063,43.4218 53.3853,40.1678 L56.1553,24.7958 C56.0303,21.3728 53.2083,18.6258 49.7563,18.6218 L20.6393,18.6218 C18.9833,18.6218 17.6393,17.2788 17.6393,15.6218 C17.6393,13.9648 18.9833,12.6218 20.6393,12.6218 L49.7593,12.6218 Z M50.8696,27.1286 C50.8696,28.7856 49.5266,30.1286 47.8696,30.1286 L21.5496,30.1286 C19.8926,30.1286 18.5496,28.7856 18.5496,27.1286 C18.5496,25.4716 19.8926,24.1286 21.5496,24.1286 L47.8696,24.1286 C49.5266,24.1286 50.8696,25.4716 50.8696,27.1286 Z M45.022,35.6428 C46.679,35.6428 48.022,36.9858 48.022,38.6428 C48.022,40.2998 46.679,41.6428 45.022,41.6428 L24.397,41.6428 C22.741,41.6428 21.397,40.2998 21.397,38.6428 C21.397,36.9858 22.741,35.6428 24.397,35.6428 L45.022,35.6428 Z" id="Combined-Shape"></path>
        </g>
    </g>
</svg>