<?xml version="1.0" encoding="UTF-8" standalone="no"?>
<svg width="64px" height="64px" viewBox="0 0 64 64" version="1.1" xmlns="http://www.w3.org/2000/svg" xmlns:xlink="http://www.w3.org/1999/xlink">
    <!-- Generator: Sketch 39.1 (31720) - http://www.bohemiancoding.com/sketch -->
    <title>icon-nav-cart-blue</title>
    <desc>Created with Sketch.</desc>
    <defs></defs>
    <g id="header" stroke="none" stroke-width="1" fill="none" fill-rule="evenodd">
        <g id="icon-nav-cart-blue" fill="#0090D4">
            <path d="M49.7593,12.6218 L20.6393,12.6218 C18.9833,12.6218 17.6393,13.9648 17.6393,15.6218 C17.6393,17.2788 18.9833,18.6218 20.6393,18.6218 L49.7563,18.6218 C53.2083,18.6258 56.0303,21.3728 56.1553,24.7958 L53.3853,40.1678 C52.5063,43.4218 50.6723,47.2418 46.9153,47.2418 L21.6153,47.2418 C18.9313,47.2418 18.0443,45.8028 16.0963,40.1348 C15.7543,37.5418 13.4283,20.2858 11.2773,13.6818 C7.7823,2.9498 1.6783,2.9678 1.0003,3.0038 L1.3273,8.9958 C1.3273,8.9958 1.2423,9.0148 1.0903,8.9948 C1.1143,8.9978 3.5693,9.3888 5.5723,15.5398 C7.6793,22.0078 10.1603,41.0168 10.1853,41.2078 C10.2113,41.4078 10.2573,41.6028 10.3213,41.7918 C11.1643,44.2578 12.0643,46.8668 13.5003,48.9758 C12.0193,50.3498 11.0843,52.3068 11.0843,54.4828 C11.0843,58.6268 14.4533,61.9988 18.5933,61.9988 C22.7343,61.9988 26.1023,58.6268 26.1023,54.4828 C26.1023,54.0588 26.0593,53.6458 25.9913,53.2418 L42.5223,53.2418 C42.4543,53.6458 42.4103,54.0588 42.4103,54.4828 C42.4103,58.6268 45.7793,61.9988 49.9193,61.9988 C54.0603,61.9988 57.4283,58.6268 57.4283,54.4828 C57.4283,52.4818 56.6383,50.6668 55.3613,49.3188 C57.0533,47.3868 58.3713,44.7838 59.2163,41.5898 C59.2373,41.5118 59.2543,41.4338 59.2683,41.3548 L62.1123,25.5718 C62.1443,25.3968 62.1593,25.2198 62.1593,25.0418 C62.1643,18.2018 56.6043,12.6298 49.7593,12.6218 Z M50.8696,27.1286 C50.8696,25.4716 49.5266,24.1286 47.8696,24.1286 L21.5496,24.1286 C19.8926,24.1286 18.5496,25.4716 18.5496,27.1286 C18.5496,28.7856 19.8926,30.1286 21.5496,30.1286 L47.8696,30.1286 C49.5266,30.1286 50.8696,28.7856 50.8696,27.1286 Z M45.022,35.6428 L24.397,35.6428 C22.741,35.6428 21.397,36.9858 21.397,38.6428 C21.397,40.2998 22.741,41.6428 24.397,41.6428 L45.022,41.6428 C46.679,41.6428 48.022,40.2998 48.022,38.6428 C48.022,36.9858 46.679,35.6428 45.022,35.6428 Z" id="Combined-Shape"></path>
        </g>
    </g>
</svg>