<?xml version="1.0" encoding="UTF-8"?>
<svg width="64px" height="64px" viewBox="0 0 64 64" version="1.1" xmlns="http://www.w3.org/2000/svg" xmlns:xlink="http://www.w3.org/1999/xlink">
    <!-- Generator: Sketch 42 (36781) - http://www.bohemiancoding.com/sketch -->
    <title>icon-megaphone-orange</title>
    <desc>Created with Sketch.</desc>
    <defs></defs>
    <g id="member" stroke="none" stroke-width="1" fill="none" fill-rule="evenodd">
        <g id="icon-megaphone-orange" fill="#ED9E02">
            <path d="M56.226,35.8198 L56.226,22.3298 C57.143,22.6888 57.981,23.2228 58.693,23.9028 L58.766,23.9768 C59.511,24.7128 60.087,25.6028 60.452,26.5838 C61.836,30.3018 59.943,34.4368 56.226,35.8198 L56.226,35.8198 Z M51.013,51.7608 L34.413,40.7608 L34.413,18.7038 L34.413,18.7038 L34.413,17.4038 L51.013,6.4038 L51.013,51.7608 Z M22.85,36.9698 L22.84,36.9698 C21.433,36.9578 20.282,38.0898 20.271,39.4968 C20.269,39.8728 20.337,40.2458 20.471,40.5968 L25.72,55.4968 L23.32,56.3378 L20.907,57.1788 L14.407,38.6188 C14.062,37.6828 13.222,37.0188 12.232,36.8988 C8.181,36.4918 5.113,33.0568 5.164,28.9858 C5.219,24.6488 8.779,21.1768 13.116,21.2308 L31.281,21.2308 L31.281,36.9698 L22.85,36.9698 Z M60.94,21.7978 L60.867,21.7078 C59.567,20.4558 57.969,19.5538 56.225,19.0888 L56.225,1.5888 L56.205,1.5888 C56.212,1.0838 56.058,0.5908 55.765,0.1798 C55.76,0.1718 55.755,0.1638 55.749,0.1558 C54.962,-1.0322 53.36,-1.3582 52.171,-0.5702 L30.508,13.7988 C29.698,14.2488 29.197,15.1038 29.2,16.0308 L29.2,16.0498 L13.117,16.0498 C9.667,16.0478 6.355,17.4108 3.906,19.8408 L3.831,19.8758 L3.831,19.9138 C-1.086,24.7658 -1.297,32.6328 3.353,37.7408 C5.122,39.7138 7.448,41.1048 10.023,41.7308 L16.874,61.2798 C17.36,62.6258 18.84,63.3288 20.191,62.8548 L25.018,61.2058 L29.881,59.5058 C29.884,59.5048 29.888,59.5038 29.891,59.5018 C31.23,59.0338 31.935,57.5688 31.466,56.2298 L26.491,42.1148 L29.2,42.1148 L29.2,42.1348 C29.204,42.9938 29.641,43.7928 30.361,44.2608 L52.062,58.6268 L52.059,58.6268 C52.501,58.9848 53.057,59.1728 53.625,59.1568 C55.051,59.1508 56.208,58.0018 56.225,56.5758 L56.225,39.0598 C58.009,38.5998 59.637,37.6718 60.94,36.3698 C60.987,36.3238 61.033,36.2778 61.079,36.2308 C65.026,32.2068 64.964,25.7448 60.94,21.7978 L60.94,21.7978 Z" id="Fill-1"></path>
        </g>
    </g>
</svg>