<?xml version="1.0" encoding="utf-8"?>
<!-- Generator: Adobe Illustrator 23.0.4, SVG Export Plug-In . SVG Version: 6.00 Build 0)  -->
<svg version="1.1" id="圖層_1" xmlns="http://www.w3.org/2000/svg" xmlns:xlink="http://www.w3.org/1999/xlink" x="0px" y="0px"
	 viewBox="0 0 64 64" style="enable-background:new 0 0 64 64;" xml:space="preserve">
<style type="text/css">
	.st0{fill:#6F7274;}
	.st1{fill-rule:evenodd;clip-rule:evenodd;fill:#6F7274;}
</style>
<title>icon-nav-phone</title>
<desc>Created with Sketch.</desc>
<g>
	<path class="st0" d="M47.9,33.5c-0.5-1.6-1.8-2.7-3.5-2.9l-6-0.9l-2.7-5.4c-0.7-1.5-2.2-2.4-3.8-2.4c-1.6,0-3.1,0.9-3.8,2.4
		l-2.7,5.4l-6,0.9c-1.6,0.2-2.9,1.4-3.5,2.9c-0.5,1.6-0.1,3.2,1.1,4.4l4.3,4.2l-1,5.9c-0.2,1.2,0.1,2.5,0.9,3.5c0.8,1,2,1.5,3.3,1.5
		c0.7,0,1.4-0.2,2-0.5l5.3-2.8l5.3,2.8c0.6,0.3,1.3,0.5,2,0.5c1.3,0,2.5-0.6,3.3-1.5c0.8-1,1.2-2.2,0.9-3.5l-1-5.9l4.3-4.2
		C48,36.8,48.4,35.1,47.9,33.5z M26.6,39.9l-4.6-4.4l6.3-0.9l0.5-0.1l0.2-0.5l2.8-5.7l2.8,5.7l0.2,0.5l0.5,0.1l6.3,0.9l-4.6,4.4
		L37,40.3l0.1,0.5l1.1,6.3l-5.6-3L32,43.9l-0.5,0.3l-5.6,3l1.1-6.3l0.1-0.5L26.6,39.9z"/>
	<path class="st0" d="M44,17H20.7c-1.7,0-3-1.4-3-3v0c0-1.7,1.4-3,3-3H44c1.7,0,3,1.4,3,3v0C47,15.6,45.7,17,44,17z"/>
</g>
<path class="st1" d="M50.9,0H13.1C6,0,0.2,5.4,0.2,12.1v15.3v9.2v15.3C0.2,58.6,6,64,13.1,64h37.8c7.1,0,12.9-5.4,12.9-12.1V36.6
	v-9.2V12.1C63.8,5.4,58,0,50.9,0z M57.8,36.6v15.3c0,3.4-3.1,6.1-6.9,6.1H13.1c-3.8,0-6.9-2.7-6.9-6.1V36.6v-9.2V12.1
	C6.2,8.7,9.3,6,13.1,6h37.8c3.8,0,6.9,2.7,6.9,6.1v15.3V36.6z"/>
</svg>
