<?xml version="1.0" encoding="UTF-8"?>
<svg width="64px" height="64px" viewBox="0 0 64 64" version="1.1" xmlns="http://www.w3.org/2000/svg" xmlns:xlink="http://www.w3.org/1999/xlink">
    <!-- Generator: Sketch 48.2 (47327) - http://www.bohemiancoding.com/sketch -->
    <title>icon-google-plus</title>
    <desc>Created with Sketch.</desc>
    <defs></defs>
    <g id="Page-1" stroke="none" stroke-width="1" fill="none" fill-rule="evenodd">
        <g id="icon-google-plus">
            <rect id="Combined-Shape" fill="#DD4B39" x="0" y="0" width="64" height="64" rx="3.79999995"></rect>
            <g id="Group-2" transform="translate(6.000000, 14.000000)" fill="#FFFFFF">
                <path d="M5.20116679,32.5225732 C-1.78145105,25.270595 -1.78145105,12.5795501 5.49198936,5.32790372 C10.7290326,-0.111162942 18.2932956,-1.31966003 24.9850909,1.39970735 L27.6034527,2.91057764 L30.5129567,5.02586243 L25.8578782,9.8605146 L24.1123036,8.65201751 C20.0391898,5.93265014 14.2201818,6.53673272 10.4382101,10.4649291 C6.07395408,14.99754 5.78313151,23.155974 10.4382101,27.9906262 C14.8024661,32.8252783 22.6578712,32.8252783 26.730985,27.9906262 C27.8945949,26.7821291 29.0585243,24.9688856 29.3493469,23.155974 L29.3493469,22.5515595 L18.8755799,22.5515595 L18.8755799,16.5084103 L35.4591774,16.5084103 L35.75,18.0192806 L35.75,22.2495182 C35.4591774,26.1777146 34.0044254,30.105911 31.385744,32.8252783 C24.4034458,39.7745515 12.1837846,39.7745515 5.20116679,32.5225732 Z" id="Shape"></path>
                <polygon id="Shape" points="47.666843 11.9428571 47.666843 16.2857143 52 16.2857143 52 20.6285714 47.666843 20.6285714 47.666843 24.9714286 43.3334215 24.9714286 43.3334215 20.6285714 39 20.6285714 39 16.2857143 43.3334215 16.2857143 43.3334215 11.9428571"></polygon>
            </g>
            <g id="Group" transform="translate(41.000000, 26.000000)"></g>
        </g>
    </g>
</svg>