<?xml version="1.0" encoding="UTF-8"?>
<svg width="64px" height="64px" viewBox="0 0 64 64" version="1.1" xmlns="http://www.w3.org/2000/svg" xmlns:xlink="http://www.w3.org/1999/xlink">
    <!-- Generator: Sketch 41.2 (35397) - http://www.bohemiancoding.com/sketch -->
    <title>icon-lock-light</title>
    <desc>Created with Sketch.</desc>
    <defs></defs>
    <g id="cart/order/product" stroke="none" stroke-width="1" fill="none" fill-rule="evenodd">
        <g id="icon-lock-light" fill="#A3A5A6">
            <path d="M35,43.0003662 L35,48.9966488 C35,50.6553538 33.6534829,52 32,52 C30.3431458,52 29,50.6576211 29,48.9966488 L29,43.0003662 C27.7855533,42.0881599 27,40.6358178 27,39 C27,36.2385763 29.2385763,34 32,34 C34.7614237,34 37,36.2385763 37,39 C37,40.6358178 36.2144467,42.0881599 35,43.0003662 Z M15,22 L9.00212389,22 C5.68113741,22 3,24.6841686 3,27.9952583 L3,58.0047417 C3,61.3088196 5.6872424,64 9.00212389,64 L54.9978761,64 C58.3188626,64 61,61.3158314 61,58.0047417 L61,27.9952583 C61,24.6911804 58.3127576,22 54.9978761,22 L49,22 L49,14 C49,6.81871963 43.1799362,1 36.0005236,1 L27.9994764,1 C20.8254808,1 15,6.82029825 15,14 L15,22 Z M8,29.0017433 C8,27.896211 8.89493844,27 10.0013893,27 L53.9986107,27 C55.1039475,27 56,27.8892617 56,29.0017433 L56,56.9982567 C56,58.103789 55.1050616,59 53.9986107,59 L10.0013893,59 C8.8960525,59 8,58.1107383 8,56.9982567 L8,29.0017433 Z M20,14 C20,9.581722 23.5800761,6 27.9916525,6 L36.0083475,6 C40.4220153,6 44,9.59071231 44,14 L44,22 L20,22 L20,14 Z M50,32.5013075 C50,31.6721583 50.6657972,31 51.5,31 C52.3284271,31 53,31.6669463 53,32.5013075 L53,53.4986925 C53,54.3278417 52.3342028,55 51.5,55 C50.6715729,55 50,54.3330537 50,53.4986925 L50,32.5013075 Z" id="Combined-Shape"></path>
        </g>
    </g>
</svg>