<?xml version="1.0" encoding="UTF-8"?>
<svg width="64px" height="64px" viewBox="0 0 64 64" version="1.1" xmlns="http://www.w3.org/2000/svg" xmlns:xlink="http://www.w3.org/1999/xlink">
    <!-- Generator: Sketch 41 (35326) - http://www.bohemiancoding.com/sketch -->
    <title>icon-unlimited-blue</title>
    <desc>Created with Sketch.</desc>
    <defs></defs>
    <g id="member" stroke="none" stroke-width="1" fill="none" fill-rule="evenodd">
        <g id="icon-unlimited-blue" fill="#0090D4">
            <path d="M47.9635613,16.0912033 C42.7078644,16.0912033 38.0829194,18.6576813 35.1575947,22.5640807 L40.6280882,28.5315043 C41.9390291,25.806486 44.7032563,23.9048545 47.930319,23.9048545 C52.4197376,23.9048545 56.0610508,27.5436106 56.0610508,32.0296198 C56.0610508,36.5215955 52.4197376,40.1603516 47.930319,40.1603516 C44.8856629,40.1603516 42.2646334,38.4607312 40.8684558,35.9846041 L28.8671239,22.3015516 C28.8586003,22.3203037 28.8671239,22.3509889 28.8620097,22.3748552 C28.7034694,22.1685823 28.5756143,21.935886 28.4076979,21.7415462 L27.3933808,20.5772125 C24.4816941,17.7499101 20.5275621,16 16.1515083,16 C7.23148432,16 0,23.2289272 0,32.1515083 C0,41.0681228 7.23148432,48.3038689 16.1515083,48.3038689 C21.402091,48.3038689 26.0219218,45.7552907 28.9685556,41.8778717 L23.0812546,35.6683758 C21.7345142,38.3192382 19.0094959,40.1603516 15.8310182,40.1603516 C11.3271093,40.1603516 7.67556769,36.5096624 7.67556769,31.9989345 C7.67556769,27.4950256 11.3271093,23.8443364 15.8310182,23.8443364 C18.9583539,23.8443364 21.6424585,25.6181128 23.0105081,28.2016381 L35.1916894,41.6715989 L37.3635213,44.0786842 C40.1942332,46.591463 43.8790171,48.1564094 47.9635613,48.1564094 C56.8205101,48.1564094 64,40.9828861 64,32.127642 C64,23.2715456 56.8205101,16.0912033 47.9635613,16.0912033" id="Fill-1"></path>
        </g>
    </g>
</svg>