<?xml version="1.0" encoding="UTF-8"?>
<svg width="64px" height="64px" viewBox="0 0 64 64" version="1.1" xmlns="http://www.w3.org/2000/svg" xmlns:xlink="http://www.w3.org/1999/xlink">
    <!-- Generator: Sketch 41.2 (35397) - http://www.bohemiancoding.com/sketch -->
    <title>icon-arrow-first</title>
    <desc>Created with Sketch.</desc>
    <defs></defs>
    <g id="form-/-home" stroke="none" stroke-width="1" fill="none" fill-rule="evenodd">
        <g id="icon-arrow-first" fill="#6F7274">
            <path d="M52.0898577,59.0884318 L26.4183268,33.4178836 C25.6350065,32.6345933 25.6297513,31.3698839 26.4183268,30.5813386 L52.0898577,4.91079043 C53.305282,3.69640319 55.2736057,3.69640319 56.4890299,4.91079043 C57.7044542,6.12621472 57.7044542,8.0955754 56.4890299,9.31099969 L33.8004185,31.9996111 L56.4890299,54.6892596 C57.7044542,55.9036468 57.7044542,57.8740445 56.4890299,59.0884318 C55.8813178,59.6961439 55.0858993,60 54.2894438,60 C53.4929883,60 52.6975699,59.6961439 52.0898577,59.0884318 Z M7,6.99100514 C7,5.33911861 8.34651712,4 10,4 C11.6568542,4 13,5.34275388 13,6.99100514 L13,57.0089949 C13,58.6608814 11.6534829,60 10,60 C8.34314575,60 7,58.6572461 7,57.0089949 L7,6.99100514 Z" id="Combined-Shape"></path>
        </g>
    </g>
</svg>