<?xml version="1.0" encoding="UTF-8" standalone="no"?>
<svg width="32px" height="32px" viewBox="0 0 32 32" version="1.1" xmlns="http://www.w3.org/2000/svg" xmlns:xlink="http://www.w3.org/1999/xlink">
    <!-- Generator: Sketch 39 (31667) - http://www.bohemiancoding.com/sketch -->
    <title>icon-location-blue-32</title>
    <desc>Created with Sketch.</desc>
    <defs></defs>
    <g id="Page-1" stroke="none" stroke-width="1" fill="none" fill-rule="evenodd">
        <g id="icon-location-blue-32">
            <g id="Group" transform="translate(4.000000, 0.000000)">
                <path d="M24.01275,12.35 L24.01275,12 C24.01275,5.4 18.66275,0 12.01275,0 C5.36275,0 0.01275,5.35 0.01275,12 C-0.03725,12.85 0.06275,13.7 0.26275,14.5 C0.46275,15.5 0.81275,16.5 1.26275,17.4 C4.46275,24.35 12.21275,32 12.21275,32 C12.21275,32 20.26275,23.8 23.06275,16.7 C23.36275,15.95 23.61275,15.2 23.76275,14.4 C23.96275,13.75 24.01275,13.05 24.01275,12.35" id="Fill-1" fill="#0090D4"></path>
                <path d="M12.06275,2.25 C17.44775,2.25 21.81275,6.615 21.81275,12 C21.81275,17.385 17.44775,21.75 12.06275,21.75 C6.67775,21.75 2.31275,17.385 2.31275,12 C2.31275,6.615 6.67775,2.25 12.06275,2.25" id="Fill-4" fill="#006290"></path>
                <path d="M12.06275,4.25 C16.34275,4.25 19.81275,7.72 19.81275,12 C19.81275,16.28 16.34275,19.75 12.06275,19.75 C7.78275,19.75 4.31275,16.28 4.31275,12 C4.31275,7.72 7.78275,4.25 12.06275,4.25" id="Fill-6" fill="#FFFFFF"></path>
            </g>
        </g>
    </g>
</svg>