<?xml version="1.0" encoding="UTF-8" standalone="no"?>
<svg width="64px" height="64px" viewBox="0 0 64 64" version="1.1" xmlns="http://www.w3.org/2000/svg" xmlns:xlink="http://www.w3.org/1999/xlink">
    <!-- Generator: Sketch 39.1 (31720) - http://www.bohemiancoding.com/sketch -->
    <title>icon-bag</title>
    <desc>Created with Sketch.</desc>
    <defs></defs>
    <g id="cart/order/product" stroke="none" stroke-width="1" fill="none" fill-rule="evenodd">
        <g id="icon-bag" fill="#6F7274">
            <path d="M60.4,15.9465 L45.283,15.9465 L45.283,13.3745 C45.258,9.8565 43.834,6.4935 41.326,4.0275 L41.218,3.9375 C35.783,-1.3125 27.166,-1.3125 21.731,3.9375 C19.153,6.4025 17.686,9.8085 17.666,13.3745 L17.666,15.9465 L3.564,15.9465 C2.159,15.9485 1.016,17.0795 1,18.4845 L1,61.5005 C1.02,62.8975 2.166,64.0165 3.564,64.0005 L60.4,64.0005 C61.807,64.0255 62.969,62.9075 63,61.5005 L63,18.4845 C62.974,17.0695 61.815,15.9385 60.4,15.9465 L60.4,15.9465 Z M57.8,58.9805 L6.147,58.9805 L6.147,20.9685 L17.667,20.9685 L17.667,25.6855 C16.97,25.8895 16.331,26.2535 15.8,26.7495 L15.688,26.8195 C14.77,27.7325 14.245,28.9685 14.224,30.2625 C14.23,31.5085 14.73,32.7025 15.615,33.5795 L15.687,33.7005 C16.644,34.6135 17.92,35.1165 19.242,35.1005 C20.553,35.1165 21.817,34.6135 22.758,33.7005 C24.659,31.8835 24.727,28.8705 22.911,26.9695 C22.327,26.3585 21.592,25.9145 20.78,25.6815 L20.78,20.9685 L42.168,20.9685 L42.168,25.6855 C41.469,25.8855 40.828,26.2505 40.3,26.7495 L40.192,26.8195 C39.258,27.7215 38.729,28.9635 38.725,30.2625 C38.717,31.5045 39.206,32.6985 40.081,33.5795 L40.192,33.7005 C42.178,35.5665 45.273,35.5665 47.259,33.7005 C49.16,31.8725 49.219,28.8495 47.391,26.9485 C47.348,26.9035 47.304,26.8595 47.259,26.8165 C46.696,26.2915 46.02,25.9025 45.283,25.6815 L45.283,20.9685 L57.8,20.9685 L57.8,58.9805 Z M17.959,28.8955 C18.297,28.6065 18.725,28.4435 19.169,28.4355 L19.242,28.4355 L19.315,28.4155 C19.792,28.4375 20.245,28.6265 20.596,28.9495 C20.939,29.3005 21.13,29.7725 21.128,30.2625 C21.137,30.7545 20.945,31.2285 20.596,31.5755 C20.223,31.9095 19.743,32.0985 19.242,32.1075 C18.738,32.1125 18.252,31.9215 17.886,31.5755 L17.812,31.5055 C17.497,31.1695 17.326,30.7235 17.337,30.2625 C17.34,29.7695 17.538,29.2985 17.886,28.9495 L17.959,28.8955 Z M20.78,13.3745 C20.788,10.6145 21.918,7.9775 23.91,6.0675 C28.118,1.9485 34.847,1.9485 39.055,6.0675 L39.129,6.1375 C41.067,8.0475 42.161,10.6525 42.168,13.3735 L42.168,15.9455 L20.78,15.9455 L20.78,13.3745 Z M42.425,28.9005 C42.775,28.6075 43.215,28.4455 43.671,28.4405 L43.744,28.4405 L43.781,28.4205 C44.26,28.4315 44.717,28.6225 45.062,28.9545 C45.428,29.2945 45.64,29.7685 45.649,30.2675 C45.647,30.7685 45.434,31.2455 45.062,31.5805 C44.707,31.9205 44.235,32.1105 43.744,32.1125 C43.236,32.1135 42.746,31.9235 42.372,31.5805 L42.316,31.5105 C41.995,31.1765 41.818,30.7305 41.822,30.2675 C41.818,29.7735 42.016,29.2985 42.371,28.9545 L42.425,28.9005 Z M36.934,45.6145 L15.869,45.6145 C15.06,45.6135 14.4,46.2625 14.388,47.0715 L14.388,47.0775 C14.405,47.8775 15.068,48.5125 15.869,48.4955 L36.934,48.4955 L36.947,48.4955 C37.751,48.5135 38.417,47.8755 38.434,47.0715 C38.419,46.2565 37.749,45.6055 36.934,45.6145 Z M30.836,52.0105 L15.869,52.0105 L15.864,52.0105 C15.064,51.9955 14.403,52.6325 14.388,53.4335 L14.388,53.4355 C14.395,54.2465 15.058,54.8995 15.869,54.8925 L30.836,54.8925 L30.847,54.8925 C31.661,54.9005 32.328,54.2475 32.336,53.4335 L32.336,53.4195 C32.311,52.6165 31.639,51.9855 30.836,52.0105 Z M15.8634,38.6774 C15.0624,38.6624 14.4014,39.2994 14.3874,40.1004 L14.3874,40.1074 C14.3844,40.9284 15.0484,41.5954 15.8694,41.5974 L48.8894,41.5974 C49.7144,41.5974 50.3844,40.9304 50.3894,40.1054 C50.3664,39.2984 49.6954,38.6624 48.8894,38.6824 L48.8884,38.6774 L15.8684,38.6774 L15.8634,38.6774 Z" id="Combined-Shape"></path>
        </g>
    </g>
</svg>