<?xml version="1.0" encoding="UTF-8" standalone="no"?>
<svg width="64px" height="64px" viewBox="0 0 64 64" version="1.1" xmlns="http://www.w3.org/2000/svg" xmlns:xlink="http://www.w3.org/1999/xlink">
    <!-- Generator: Sketch 39.1 (31720) - http://www.bohemiancoding.com/sketch -->
    <title>icon-minus-square-white</title>
    <desc>Created with Sketch.</desc>
    <defs></defs>
    <g id="cart/order/product" stroke="none" stroke-width="1" fill="none" fill-rule="evenodd">
        <g id="icon-minus-square-white" fill="#FFFFFF">
            <path d="M58.5876474,5.41171331 C56.3131719,3.13723777 53.5624501,2 50.3335642,2 L13.6664358,2 C10.4369107,2 7.68491034,3.13723777 5.41107406,5.41171331 C3.13723777,7.68618886 2,10.4375499 2,13.6664358 L2,50.3316464 C2,53.5260124 3.13659851,56.2690632 5.41107406,58.5601594 C7.6855496,60.8531734 10.4375499,61.9980822 13.6664358,61.9980822 L50.3335642,61.9980822 C53.5624501,61.9980822 56.3131719,60.8531734 58.5876474,58.5601594 C60.8627622,56.2690632 62,53.5260124 62,50.3316464 L62,13.6664358 C62,10.4375499 60.862123,7.68618886 58.5876474,5.41171331 L58.5876474,5.41171331 Z M56,50.8567671 C56,52.285589 55.4989589,53.5000548 54.4995068,54.4995068 C53.5000548,55.4996164 52.2849315,55.9993425 50.8567671,55.9993425 L13.1425753,55.9993425 C11.7137534,55.9993425 10.4999452,55.4996164 9.49983562,54.4995068 C8.49972603,53.5000548 8,52.285589 8,50.8567671 L8,13.1425753 C8,11.714411 8.49972603,10.4999452 9.49983562,9.49983562 C10.4992877,8.50038356 11.7137534,8 13.1425753,8 L50.8580822,8 C52.2862466,8 53.5007123,8.49972603 54.5001644,9.49983562 C55.4996164,10.4999452 56,11.714411 56,13.1425753 L56,50.8567671 Z M46.9998402,28.6665956 L17.0001598,28.6665956 C16.5143247,28.6665956 16.1141499,28.8225743 15.8021927,29.1351708 C15.4902354,29.4477674 15.3336174,29.8473029 15.3336174,30.333138 L15.3336174,33.6662227 C15.3336174,34.1520579 15.4895961,34.5515933 15.8021927,34.8635506 C16.1147892,35.1755079 16.5143247,35.3321258 17.0001598,35.3321258 L46.9998402,35.3321258 C47.4856753,35.3321258 47.8852108,35.1755079 48.1971681,34.8635506 C48.5091254,34.5515933 48.665104,34.1520579 48.665104,33.6662227 L48.665104,30.333138 C48.665104,29.8473029 48.5091254,29.4471281 48.1971681,29.1351708 C47.8852108,28.8232135 47.4856753,28.6665956 46.9998402,28.6665956 Z" id="Combined-Shape"></path>
        </g>
    </g>
</svg>