<?xml version="1.0" encoding="UTF-8" standalone="no"?>
<svg width="64px" height="64px" viewBox="0 0 64 64" version="1.1" xmlns="http://www.w3.org/2000/svg" xmlns:xlink="http://www.w3.org/1999/xlink">
    <!-- Generator: Sketch 39.1 (31720) - http://www.bohemiancoding.com/sketch -->
    <title>icon-calendar</title>
    <desc>Created with Sketch.</desc>
    <defs></defs>
    <g id="member" stroke="none" stroke-width="1" fill="none" fill-rule="evenodd">
        <g id="icon-calendar" fill="#6F7274">
            <path d="M60.0713141,10.5002397 C59.1674361,9.59548499 58.0952316,9.14310763 56.8573307,9.14310763 L52.2862153,9.14310763 L52.2862153,5.71433268 C52.2862153,4.14328571 51.7264421,2.79798907 50.6073341,1.67888111 C49.4877878,0.559773154 48.1433679,0 46.5714442,0 L44.2863248,0 C42.7144012,0 41.3695429,0.559773154 40.2504349,1.67888111 C39.1308886,2.79798907 38.5715538,4.14328571 38.5715538,5.71433268 L38.5715538,9.14310763 L24.8577691,9.14310763 L24.8577691,5.71433268 C24.8577691,4.14328571 24.2979959,2.79798907 23.178888,1.67888111 C22.05978,0.559773154 20.7144834,0 19.142998,0 L16.8574403,0 C15.285955,0 13.9406583,0.559773154 12.8215504,1.67888111 C11.7024424,2.79798907 11.1426693,4.14328571 11.1426693,5.71433268 L11.1426693,9.14310763 L6.57155381,9.14310763 C5.33321461,9.14310763 4.26188682,9.59548499 3.35713209,10.5002397 C2.45237736,11.4049945 2,12.4767606 2,13.7146614 L2,59.4288845 C2,60.666347 2.45237736,61.7376748 3.35713209,62.6428679 C4.26188682,63.5476226 5.33321461,64 6.57155381,64 L56.856454,64 C58.0943549,64 59.1665594,63.5476226 60.0704374,62.6428679 C60.9751921,61.7381132 61.4275695,60.666347 61.4275695,59.4288845 L61.4275695,13.7146614 C61.4275695,12.4763222 60.9756305,11.4049945 60.0713141,10.5002397 L60.0713141,10.5002397 Z M16.857002,59.4284462 L6.57155381,59.4284462 L6.57155381,49.1425597 L16.857002,49.1425597 L16.857002,59.4284462 L16.857002,59.4284462 Z M16.857002,46.857002 L6.57155381,46.857002 L6.57155381,35.4292133 L16.857002,35.4292133 L16.857002,46.857002 L16.857002,46.857002 Z M16.857002,33.1427789 L6.57155381,33.1427789 L6.57155381,22.8573307 L16.857002,22.8573307 L16.857002,33.1427789 L16.857002,33.1427789 Z M16.0539445,16.803715 C15.8277558,16.5775263 15.7146614,16.3101327 15.7146614,16.0002192 L15.7146614,5.71477103 C15.7146614,5.40529582 15.8277558,5.13746387 16.0539445,4.91127519 C16.2801331,4.68508651 16.5475267,4.57199216 16.8574403,4.57199216 L19.142998,4.57199216 C19.4524733,4.57199216 19.7203052,4.68508651 19.9464939,4.91127519 C20.1726826,5.13746387 20.2857769,5.40529582 20.2857769,5.71477103 L20.2857769,16.0002192 C20.2857769,16.3101327 20.1722442,16.5775263 19.9464939,16.803715 C19.7203052,17.0299037 19.4529116,17.142998 19.142998,17.142998 L16.8574403,17.142998 C16.5479651,17.142998 16.2801331,17.0299037 16.0539445,16.803715 L16.0539445,16.803715 Z M30.5712251,59.4284462 L19.1425597,59.4284462 L19.1425597,49.1425597 L30.5712251,49.1425597 L30.5712251,59.4284462 L30.5712251,59.4284462 Z M30.5712251,46.857002 L19.1425597,46.857002 L19.1425597,35.4292133 L30.5712251,35.4292133 L30.5712251,46.857002 L30.5712251,46.857002 Z M30.5712251,33.1427789 L19.1425597,33.1427789 L19.1425597,22.8573307 L30.5712251,22.8573307 L30.5712251,33.1427789 L30.5712251,33.1427789 Z M44.2858865,59.4284462 L32.8572211,59.4284462 L32.8572211,49.1425597 L44.2858865,49.1425597 L44.2858865,59.4284462 L44.2858865,59.4284462 Z M44.2858865,46.857002 L32.8572211,46.857002 L32.8572211,35.4292133 L44.2858865,35.4292133 L44.2858865,46.857002 L44.2858865,46.857002 Z M44.2858865,33.1427789 L32.8572211,33.1427789 L32.8572211,22.8573307 L44.2858865,22.8573307 L44.2858865,33.1427789 L44.2858865,33.1427789 Z M43.4819523,16.803715 C43.256202,16.5775263 43.143546,16.3101327 43.143546,16.0002192 L43.143546,5.71477103 C43.143546,5.40529582 43.256202,5.13746387 43.4819523,4.91127519 C43.708141,4.68508651 43.9759729,4.57199216 44.2858865,4.57199216 L46.5710059,4.57199216 C46.8809194,4.57199216 47.1487514,4.68508651 47.3749401,4.91127519 C47.6011288,5.13746387 47.7137847,5.40529582 47.7137847,5.71477103 L47.7137847,16.0002192 C47.7137847,16.3101327 47.6006904,16.5775263 47.3749401,16.803715 C47.1491897,17.0299037 46.8809194,17.142998 46.5710059,17.142998 L44.2858865,17.142998 C43.9759729,17.142998 43.7077026,17.0299037 43.4819523,16.803715 L43.4819523,16.803715 Z M56.856454,59.4284462 L46.5705675,59.4284462 L46.5705675,49.1425597 L56.856454,49.1425597 L56.856454,59.4284462 L56.856454,59.4284462 Z M56.856454,46.857002 L46.5705675,46.857002 L46.5705675,35.4292133 L56.856454,35.4292133 L56.856454,46.857002 L56.856454,46.857002 Z M56.856454,33.1427789 L46.5705675,33.1427789 L46.5705675,22.8573307 L56.856454,22.8573307 L56.856454,33.1427789 L56.856454,33.1427789 Z" id="Shape"></path>
        </g>
    </g>
</svg>