<?xml version="1.0" encoding="utf-8"?>
<!-- Generator: Adobe Illustrator 22.1.0, SVG Export Plug-In . SVG Version: 6.00 Build 0)  -->
<svg version="1.1" id="圖層_1" xmlns="http://www.w3.org/2000/svg" xmlns:xlink="http://www.w3.org/1999/xlink" x="0px" y="0px"
	 viewBox="0 0 64 64" style="enable-background:new 0 0 64 64;" xml:space="preserve">
<style type="text/css">
	.st0{fill:#6F7274;}
</style>
<g>
	<path class="st0" d="M58.8,26.2c-0.8-0.5-1.8-0.6-2.7-0.1l-11,6.1L34,11.2c2.2-0.8,3.7-2.9,3.7-5.4C37.8,2.6,35.2,0,32,0
		s-5.8,2.6-5.8,5.8c0,2.2,1.2,4.1,3,5.1c0,0,0,0,0,0l-11,20.9L7.9,26.1C7,25.7,6,25.7,5.2,26.2c-0.8,0.5-1.3,1.4-1.2,2.4l2.5,32.9
		C6.6,62.9,7.8,64,9.1,64h45.7c1.4,0,2.5-1.1,2.6-2.4L60,28.6C60.1,27.7,59.6,26.8,58.8,26.2z M32,4.2c0.9,0,1.6,0.7,1.6,1.6
		S32.9,7.3,32,7.3s-1.6-0.7-1.6-1.6S31.1,4.2,32,4.2z M18,37.7c0.6,0.3,1.3,0.4,2,0.2c0.7-0.2,1.2-0.7,1.6-1.3l10-18.9l10.2,19.4
		c0.3,0.6,0.9,1.1,1.6,1.3c0.7,0.2,1.4,0.1,2-0.2l9.1-5l-1.2,16.2H10.8L9.6,33.1L18,37.7z M11.6,58.8l-0.3-4.2h41.5l-0.3,4.2H11.6z"
		/>
	<path class="st0" d="M25.1,41.5l3.4,1.9l1.9,3.4c0.3,0.6,1,0.9,1.6,0.9c0.7,0,1.3-0.4,1.6-0.9l1.9-3.4l3.4-1.9
		c0.6-0.3,0.9-1,0.9-1.6c0-0.7-0.4-1.3-0.9-1.6l-3.4-1.9l-1.9-3.4c-0.3-0.6-1-0.9-1.6-0.9c-0.7,0-1.3,0.4-1.6,0.9l-1.9,3.4l-3.4,1.9
		c-0.6,0.3-0.9,1-0.9,1.6C24.1,40.5,24.5,41.2,25.1,41.5z M30.8,39.3c0.3-0.2,0.5-0.4,0.7-0.7l0.6-1l0.6,1c0.2,0.3,0.4,0.5,0.7,0.7
		l1,0.6l-1,0.5c-0.3,0.2-0.5,0.4-0.7,0.7l-0.6,1l-0.6-1c-0.2-0.3-0.4-0.5-0.7-0.7l-1-0.6L30.8,39.3z"/>
</g>
</svg>
