<?xml version="1.0" encoding="UTF-8" standalone="no"?>
<svg width="64px" height="64px" viewBox="0 0 64 64" version="1.1" xmlns="http://www.w3.org/2000/svg" xmlns:xlink="http://www.w3.org/1999/xlink">
    <!-- Generator: Sketch 39.1 (31720) - http://www.bohemiancoding.com/sketch -->
    <title>icon-plus-circle</title>
    <desc>Created with Sketch.</desc>
    <defs>
        <circle id="path-1" cx="32" cy="32" r="30"></circle>
        <mask id="mask-2" maskContentUnits="userSpaceOnUse" maskUnits="objectBoundingBox" x="0" y="0" width="60" height="60" fill="white">
            <use xlink:href="#path-1"></use>
        </mask>
        <path d="M46.9998402,28.6665956 L35.3334044,28.6665956 L35.3334044,17.0001598 C35.3334044,16.5136854 35.1774257,16.1147892 34.8641899,15.8021927 C34.5528719,15.4895961 34.1533364,15.3336174 33.666862,15.3336174 L30.3337773,15.3336174 C29.8473029,15.3336174 29.4484067,15.4895961 29.1358101,15.8021927 C28.8232135,16.1147892 28.6672349,16.5143247 28.6672349,17.0001598 L28.6672349,28.6665956 L17.0007991,28.6665956 C16.5149639,28.6665956 16.1147892,28.8225743 15.8028319,29.1351708 C15.4908746,29.4477674 15.3342567,29.8473029 15.3342567,30.333138 L15.3342567,33.6662227 C15.3342567,34.1520579 15.4902354,34.5515933 15.8028319,34.8635506 C16.1154285,35.1755079 16.5149639,35.3321258 17.0007991,35.3321258 L28.6672349,35.3321258 L28.6672349,46.9985617 C28.6672349,47.4850361 28.8232135,47.8845715 29.1358101,48.1958896 C29.4484067,48.5084861 29.8479421,48.6644648 30.3337773,48.6644648 L33.666862,48.6644648 C34.1533364,48.6644648 34.5528719,48.5084861 34.8641899,48.1958896 C35.1774257,47.8845715 35.3334044,47.4850361 35.3334044,46.9985617 L35.3334044,35.3321258 L46.9998402,35.3321258 C47.4856753,35.3321258 47.8852108,35.1755079 48.1971681,34.8635506 C48.5091254,34.5515933 48.665104,34.1520579 48.665104,33.6662227 L48.665104,30.333138 C48.665104,29.8473029 48.5091254,29.4471281 48.1971681,29.1351708 C47.8852108,28.8232135 47.4856753,28.6665956 46.9998402,28.6665956 L46.9998402,28.6665956 Z" id="path-3"></path>
        <mask id="mask-4" maskContentUnits="userSpaceOnUse" maskUnits="objectBoundingBox" x="0" y="0" width="33.3308473" height="33.3308473" fill="white">
            <use xlink:href="#path-3"></use>
        </mask>
    </defs>
    <g id="cart/order/product" stroke="none" stroke-width="1" fill="none" fill-rule="evenodd">
        <g id="icon-plus-circle" stroke="#DCDDDE" stroke-width="12" fill="#FFFFFF">
            <use id="Oval-2" mask="url(#mask-2)" xlink:href="#path-1"></use>
            <use id="Shape" mask="url(#mask-4)" xlink:href="#path-3"></use>
        </g>
    </g>
</svg>