<?xml version="1.0" encoding="UTF-8"?>
<svg width="64px" height="64px" viewBox="0 0 64 64" version="1.1" xmlns="http://www.w3.org/2000/svg" xmlns:xlink="http://www.w3.org/1999/xlink">
    <!-- Generator: Sketch 43.2 (39069) - http://www.bohemiancoding.com/sketch -->
    <title>icon-nav-hot</title>
    <desc>Created with Sketch.</desc>
    <defs></defs>
    <g id="menu" stroke="none" stroke-width="1" fill="none" fill-rule="evenodd">
        <g id="icon-nav-hot" fill-rule="nonzero" fill="#6F7274">
            <path d="M30.862473,51.7701971 C31.8405885,51.1210552 33.1146354,51.1210552 34.0927508,51.7701971 L41.103002,56.4226621 L43.470305,48.3710433 C43.8006063,47.2476295 44.7765829,46.4320463 45.9448413,46.3031756 L54.3178663,45.3795467 L50.9345336,37.6962159 C50.4624692,36.6241881 50.6837052,35.3746421 51.4954655,34.5280589 L57.3134328,28.4605123 L49.7625635,24.7405855 C48.7090176,24.2215573 48.0719941,23.122725 48.1474246,21.9545549 L48.6880428,13.5821631 L40.5027725,15.5662353 C39.3607108,15.8430659 38.1634983,15.4091031 37.4673043,14.4659459 L32.4776119,7.70624417 L27.4879196,14.4659459 C26.7917256,15.4091031 25.5945131,15.8430659 24.4524514,15.5662353 L16.2671811,13.5821631 L16.8077993,21.9545549 C16.8832298,23.122725 16.2462063,24.2215573 15.1926604,24.7405855 L7.64179104,28.4605123 L13.4597584,34.5280589 C14.2715187,35.3746421 14.4927546,36.6241881 14.0206902,37.6962159 L10.6373576,45.3795467 L19.0103826,46.3031756 C20.178641,46.4320463 21.1546176,47.2476295 21.4849189,48.3710433 L23.8522219,56.4226621 L30.862473,51.7701971 Z M23.4656812,63.5760824 C21.8601596,64.6609992 19.6775773,63.8554675 19.1354061,61.9778958 L16.2534384,51.9974659 L6.06007111,50.8525764 C4.14244049,50.6371937 2.9811127,48.5975159 3.75597988,46.8058259 L7.87486791,37.2819096 L0.79204206,29.7608478 C-0.540416917,28.3459455 -0.137092007,26.0265094 1.59224454,25.1590529 L10.7847149,20.5479964 L10.1265634,10.1699506 C10.0027484,8.21757728 11.7820058,6.70367291 13.6566359,7.16634233 L23.6214296,9.62571031 L29.6959088,1.24668353 C30.8386722,-0.329623677 33.1613278,-0.329623677 34.3040912,1.24668353 L40.3785704,9.62571031 L50.3433641,7.16634233 C52.2179942,6.70367291 53.9972516,8.21757728 53.8734366,10.1699506 L53.2152851,20.5479964 L62.4077555,25.1590529 C64.137092,26.0265094 64.5404169,28.3459455 63.2079579,29.7608478 L56.1251321,37.2819096 L60.2440201,46.8058259 C61.0188873,48.5975159 59.8575595,50.6371937 57.9399289,50.8525764 L47.7465616,51.9974659 L44.8645939,61.9778958 C44.3224227,63.8554675 42.1398404,64.6609992 40.5343188,63.5760824 L32,57.809093 L23.4656812,63.5760824 Z M17.1940299,26.8107218 L17.1940299,41.13908 L20.5957643,41.13908 L20.5957643,35.1406849 L23.3129392,35.1406849 L23.3129392,41.13908 L26.7462687,41.13908 L26.7462687,26.8107218 L23.3129392,26.8107218 L23.3129392,32.3469118 L20.5957643,32.3469118 L20.5957643,26.8107218 L17.1940299,26.8107218 Z M32.9852186,26.8107218 C32.1205693,26.8107218 31.2930853,27.099955 30.5027418,27.6784301 C29.7123984,28.2569052 29.097696,29.1031189 28.6586163,30.2170967 C28.2195366,31.3310745 28,32.5888258 28,33.9903883 C28,36.0133984 28.4492056,37.7025204 29.3476302,39.0578049 C30.2460549,40.4130894 31.5159894,41.0907215 33.157472,41.0907215 C34.738159,41.0907215 36.024981,40.4378808 37.0179767,39.1321799 C38.0109723,37.8264789 38.5074627,36.0762048 38.5074627,33.881305 C38.5074627,31.6930163 38.0143498,29.9675336 37.0281092,28.7048051 C36.0418686,27.4420766 34.6942519,26.8107218 32.9852186,26.8107218 Z M33.3532338,29.6522142 C33.8507488,29.6522142 34.2769468,30.0188678 34.6318408,30.752186 C34.9867348,31.4855043 35.1641791,32.5347756 35.1641791,33.9000317 C35.1641791,35.2179769 34.9883931,36.2723172 34.6368159,37.0630844 C34.2852387,37.8538515 33.8175817,38.2492291 33.2338308,38.2492291 C32.6434465,38.2492291 32.1807645,37.865679 31.8457711,37.0985673 C31.5107778,36.3314556 31.3432836,35.2754256 31.3432836,33.9304457 C31.3432836,32.6057418 31.5157528,31.5615393 31.8606965,30.797807 C32.2056402,30.0340746 32.7031477,29.6522142 33.3532338,29.6522142 Z M39.1641791,26.8107218 L39.1641791,29.7174783 L42.1241805,29.7174783 L42.1241805,41.13908 L45.6479916,41.13908 L45.6479916,29.7174783 L48.7164179,29.7174783 L48.7164179,26.8107218 L39.1641791,26.8107218 Z" id="Combined-Shape-Copy"></path>
        </g>
    </g>
</svg>