<?xml version="1.0" encoding="UTF-8" standalone="no"?>
<svg width="80px" height="80px" viewBox="0 0 80 80" version="1.1" xmlns="http://www.w3.org/2000/svg" xmlns:xlink="http://www.w3.org/1999/xlink" style="background: #FFFFFF;">
    <!-- Generator: Sketch 3.8.3 (29802) - http://www.bohemiancoding.com/sketch -->
    <title>icon-login-monitor</title>
    <desc>Created with Sketch.</desc>
    <defs>
        <polygon id="path-1" points="0 16 64 80 0 80"></polygon>
        <filter x="-50%" y="-50%" width="200%" height="200%" filterUnits="objectBoundingBox" id="filter-2">
            <feOffset dx="0" dy="1" in="SourceAlpha" result="shadowOffsetOuter1"></feOffset>
            <feGaussianBlur stdDeviation="3" in="shadowOffsetOuter1" result="shadowBlurOuter1"></feGaussianBlur>
            <feColorMatrix values="0 0 0 0 0   0 0 0 0 0   0 0 0 0 0  0 0 0 0.24 0" type="matrix" in="shadowBlurOuter1"></feColorMatrix>
        </filter>
    </defs>
    <g id="Page-1" stroke="none" stroke-width="1" fill="none" fill-rule="evenodd">
        <g id="monitor">
            <rect id="Rectangle-332" fill="#FFFFFF" x="0" y="0" width="80" height="80"></rect>
            <g id="Monitor" transform="translate(8.000000, 8.000000)" fill="#000000">
                <path d="M9,0 C4.1,0.2 0,4.3 0,9 L0,42.3 C0,47 4.1,51 9,51 L28,51 L28,55 L17.6,55 C15.6,55 14,56.6 14,58.5 C14,60.4 15.6,62 17.6,62 L46.4,62 C48.4,62 50,60.4 50,58.5 C50,56.6 48.4,55 46.4,55 L36,55 L36,51 L55.2,51 C60,51 64,47 64,42.3 L64,9 C64,4.1 60.5,0.2 56,0 L9,0 Z M48,58.5 C48,59.3 47.0666667,60 45.8666667,60 L18.1333333,60 C16.9333333,60 16,59.3 16,58.5 C16,57.7 16.9333333,57 18.1333333,57 L45.8666667,57 C47.0666667,57 48,57.7 48,58.5 L48,58.5 Z M34,55 L30,55 L30,51 L34,51 L34,55 L34,55 Z M62,42.3 C62,45.9 58.9,49 55.2,49 L9,49 C5.3,49 2,45.9 2,42.3 L2,9 C2,5.3 5.2,2.1 9,2 L56,2 C59.4,2.1 62,5.2 62,9 L62,42.3 L62,42.3 Z" id="Shape"></path>
                <path d="M55,6 L9,6 C6.5,6 5,7.5 5,10 L5,41 C5,43.6 7.4,46 10,46 L55,46 C57.6,46 59,43.5 59,41 L59,10 C59,7.5 57.5,6 55,6 L55,6 Z M57,41 C57,42 56.6,44 55,44 L10,44 C8.6,44 7,42.4 7,41 L7,10 C7,8.6 7.6,8 9,8 L55,8 C56.4,8 57,8.6 57,10 L57,41 L57,41 Z" id="Shape"></path>
                <path d="M31.7,15.3 C31.3,14.9 30.7,14.9 30.3,15.3 C29.9,15.7 29.9,16.3 30.3,16.7 L40.3,26.7 C40.5,26.9 40.8,27 41,27 C41.2,27 41.5,26.9 41.7,26.7 C42.1,26.3 42.1,25.7 41.7,25.3 L31.7,15.3 L31.7,15.3 Z" id="Shape"></path>
                <path d="M26.7,18.3 C26.3,17.9 25.7,17.9 25.3,18.3 C24.9,18.7 24.9,19.3 25.3,19.7 L40.2,34.9 C40.4,35.1 40.7,35.2 40.9,35.2 C41.2,35.2 41.4,35.1 41.6,34.9 C42,34.5 42,33.9 41.6,33.5 L26.7,18.3 L26.7,18.3 Z" id="Shape"></path>
                <path d="M22.7,14.3 C22.3,13.9 21.7,13.9 21.3,14.3 C20.9,14.7 20.9,15.3 21.3,15.7 L22.3,16.7 C22.5,16.9 22.8,17 23,17 C23.2,17 23.5,16.9 23.7,16.7 C24.1,16.3 24.1,15.7 23.7,15.3 L22.7,14.3 L22.7,14.3 Z" id="Shape"></path>
            </g>
            <g id="Rectangle-332">
                <use fill="black" fill-opacity="1" filter="url(#filter-2)" xlink:href="#path-1"></use>
                <use fill="#FFFFFF" fill-rule="evenodd" xlink:href="#path-1"></use>
            </g>
        </g>
    </g>
</svg>