<?xml version="1.0" encoding="utf-8"?>
<!-- Generator: Adobe Illustrator 22.0.1, SVG Export Plug-In . SVG Version: 6.00 Build 0)  -->
<svg version="1.1" id="圖層_1" xmlns="http://www.w3.org/2000/svg" xmlns:xlink="http://www.w3.org/1999/xlink" x="0px" y="0px"
	 viewBox="0 0 64 64" style="enable-background:new 0 0 64 64;" xml:space="preserve">
<style type="text/css">
	.st0{fill:#FFFFFF;}
</style>
<title>icon-info-circle</title>
<desc>Created with Sketch.</desc>
<g id="header">
	<g id="icon-info-circle">
		<path id="Combined-Shape" class="st0" d="M32.2,0h-0.3C14.3,0-0.1,14.4,0,32.1S14.5,64,32.2,64C49.8,63.9,64.1,49.5,64,31.9
			C64,14.3,49.8,0.1,32.2,0 M6,31.9C6,17.6,17.7,6,32,6c10.4,0.1,19.8,6.3,23.9,15.9c1.4,3.2,2.1,6.7,2.1,10.2
			C57.9,46.4,46.2,58,31.9,58C17.6,57.9,6,46.3,6,31.9z M32,19.3c2,0,3.6-1.6,3.6-3.5c0-2-1.5-3.6-3.5-3.6s-3.6,1.6-3.6,3.5
			C28.5,17.7,30.1,19.3,32,19.3z M32.1,22.1c-2,0-3.6,1.6-3.6,3.6v22.4c0,2,1.6,3.6,3.6,3.6s3.6-1.6,3.6-3.6V25.7
			C35.7,23.7,34.1,22.1,32.1,22.1z"/>
	</g>
</g>
</svg>
