<?xml version="1.0" encoding="UTF-8"?>
<svg width="32px" height="32px" viewBox="0 0 32 32" version="1.1" xmlns="http://www.w3.org/2000/svg" xmlns:xlink="http://www.w3.org/1999/xlink">
    <!-- Generator: Sketch 52.5 (67469) - http://www.bohemiancoding.com/sketch -->
    <title>icon-point-m_</title>
    <desc>Created with Sketch.</desc>
    <g id="icon-point-m_" stroke="none" stroke-width="1" fill="none" fill-rule="evenodd">
        <g id="Group-19" transform="translate(4.000000, 4.000000)">
            <circle id="Oval-2" stroke="#E64794" stroke-width="2" cx="12" cy="12" r="12"></circle>
            <path d="M14.551875,10.2375 C14.551875,9.66249712 14.4006265,9.25250122 14.098125,9.0075 C13.7956235,8.76249878 13.3718777,8.64 12.826875,8.64 L10.774375,8.64 C10.7191465,8.64 10.674375,8.68477153 10.674375,8.74 L10.674375,11.795 C10.674375,11.8502285 10.7191465,11.895 10.774375,11.895 L12.826875,11.895 C13.3718777,11.895 13.7956235,11.7625013 14.098125,11.4975 C14.4006265,11.2324987 14.551875,10.8125029 14.551875,10.2375 Z M16.839375,10.2225 C16.839375,11.5275065 16.5093783,12.4499973 15.849375,12.99 C15.1893717,13.5300027 14.2468811,13.8 13.021875,13.8 L10.774375,13.8 C10.7191465,13.8 10.674375,13.8447715 10.674375,13.9 L10.674375,16.775 C10.674375,17.3272847 10.2266597,17.775 9.674375,17.775 L9.379375,17.775 C8.82709025,17.775 8.379375,17.3272847 8.379375,16.775 L8.379375,7.72 C8.379375,7.16771525 8.82709025,6.72 9.379375,6.72 L13.194375,6.72 C14.3043806,6.72 15.1893717,7.00499715 15.849375,7.575 C16.5093783,8.14500285 16.839375,9.02749402 16.839375,10.2225 Z" id="P" fill="#E64794"></path>
        </g>
    </g>
</svg>