<?xml version="1.0" encoding="UTF-8" standalone="no"?>
<svg width="64px" height="64px" viewBox="0 0 64 64" version="1.1" xmlns="http://www.w3.org/2000/svg" xmlns:xlink="http://www.w3.org/1999/xlink">
    <!-- Generator: Sketch 39.1 (31720) - http://www.bohemiancoding.com/sketch -->
    <title>icon-home</title>
    <desc>Created with Sketch.</desc>
    <defs></defs>
    <g id="menu" stroke="none" stroke-width="1" fill="none" fill-rule="evenodd">
        <g id="icon-home" fill="#6F7274">
            <path d="M62.9892316,30.45525 L33.9892316,4.75525 C32.8542316,3.74825 31.1462316,3.74825 30.0102316,4.75525 L1.01023156,30.45525 C0.0772315596,31.28225 -0.24676844,32.59925 0.19523156,33.76525 C0.63723156,34.93025 1.75323156,35.70025 3.00023156,35.70025 L7.20023156,35.70025 L7.20023156,48.90025 C7.20023156,55.07625 12.2242316,60.10125 18.4002316,60.10125 L36.8002316,60.10125 C37.1322316,60.10125 37.4462316,60.03425 37.7452316,59.93425 C41.2632316,59.48325 43.9002316,56.56025 43.9002316,52.90025 L43.9002316,41.00125 C43.9002316,37.01925 40.7812316,33.90025 36.8002316,33.90025 L27.2002316,33.90025 C23.2182316,33.90025 20.1002316,37.01925 20.1002316,41.00125 L20.1002316,48.70025 C20.1002316,50.35725 21.4432316,51.70025 23.1002316,51.70025 C24.7572316,51.70025 26.1002316,50.35725 26.1002316,48.70025 L26.1002316,41.00125 C26.1002316,40.35225 26.5522316,39.90025 27.2002316,39.90025 L36.8002316,39.90025 C37.4482316,39.90025 37.9002316,40.35225 37.9002316,41.00125 L37.9002316,52.90025 C37.9002316,53.54925 37.4482316,54.00125 36.8002316,54.00125 C36.5472316,54.00125 36.3052316,54.04225 36.0702316,54.10125 L18.4002316,54.10125 C15.5322316,54.10125 13.2002316,51.76725 13.2002316,48.90025 L13.2002316,32.70025 C13.2002316,31.26025 12.1862316,30.05825 10.8332316,29.76725 L32.0002316,11.00925 L53.1872316,29.78525 C51.8752316,30.10525 50.9002316,31.28925 50.9002316,32.70025 L50.9002316,48.80125 C50.9002316,50.61625 49.9692316,52.28225 48.4102316,53.25725 C47.0052316,54.13525 46.5782316,55.98525 47.4562316,57.39125 C48.3342316,58.79725 50.1842316,59.22325 51.5902316,58.34525 C54.9152316,56.26725 56.9002316,52.69925 56.9002316,48.80125 L56.9002316,35.70025 L61.0002316,35.70025 C62.2462316,35.70025 63.3632316,34.93025 63.8042316,33.76525 C64.2472316,32.59925 63.9232316,31.28225 62.9892316,30.45525" id="Fill-1"></path>
        </g>
    </g>
</svg>