<?xml version="1.0" encoding="UTF-8" standalone="no"?>
<svg width="64px" height="64px" viewBox="0 0 64 64" version="1.1" xmlns="http://www.w3.org/2000/svg" xmlns:xlink="http://www.w3.org/1999/xlink">
    <!-- Generator: Sketch 39.1 (31720) - http://www.bohemiancoding.com/sketch -->
    <title>icon-message-light</title>
    <desc>Created with Sketch.</desc>
    <defs></defs>
    <g id="cart/order/product" stroke="none" stroke-width="1" fill="none" fill-rule="evenodd">
        <g id="icon-message-light" fill="#A3A5A6">
            <path d="M57.999,62.8992 C57.474,62.8992 56.945,62.7622 56.472,62.4802 L44.729,55.5262 C40.631,57.0362 36.355,57.8002 32,57.8002 C14.355,57.8002 0,45.5082 0,30.4002 C0,15.2912 14.355,3.0002 32,3.0002 C49.645,3.0002 64,15.2912 64,30.4002 C63.899,37.1732 61.121,43.5642 56.302,48.2932 L60.759,58.7212 C61.269,59.9132 60.954,61.2992 59.979,62.1552 C59.417,62.6462 58.711,62.8992 57.999,62.8992 Z M45,49.2002 C45.531,49.2002 46.06,49.3412 46.528,49.6192 L51.637,52.6432 L49.941,48.6792 C49.418,47.4542 49.765,46.0312 50.793,45.1842 C55.288,41.4812 57.915,36.0772 58,30.3552 C58,18.6002 46.337,9.0002 32,9.0002 C17.664,9.0002 6,18.6002 6,30.4002 C6,42.2002 17.664,51.8002 32,51.8002 C36.068,51.8002 40.056,51.0022 43.852,49.4292 C44.221,49.2752 44.61,49.2002 45,49.2002 Z M19.7,26.9998 C21.743,26.9998 23.4,28.6568 23.4,30.6998 C23.4,32.7428 21.743,34.3998 19.7,34.3998 C17.657,34.3998 16,32.7428 16,30.6998 C16,28.6568 17.657,26.9998 19.7,26.9998 Z M31.5,26.9998 C33.543,26.9998 35.2,28.6568 35.2,30.6998 C35.2,32.7428 33.543,34.3998 31.5,34.3998 C29.457,34.3998 27.8,32.7428 27.8,30.6998 C27.8,28.6568 29.457,26.9998 31.5,26.9998 Z M43.4,26.9998 C45.443,26.9998 47.1,28.6568 47.1,30.6998 C47.1,32.7428 45.443,34.3998 43.4,34.3998 C41.357,34.3998 39.7,32.7428 39.7,30.6998 C39.7,28.6568 41.357,26.9998 43.4,26.9998 Z" id="Combined-Shape"></path>
        </g>
    </g>
</svg>