<?xml version="1.0" encoding="UTF-8" standalone="no"?>
<svg width="64px" height="64px" viewBox="0 0 64 64" version="1.1" xmlns="http://www.w3.org/2000/svg" xmlns:xlink="http://www.w3.org/1999/xlink">
    <!-- Generator: Sketch 39.1 (31720) - http://www.bohemiancoding.com/sketch -->
    <title>icon-location</title>
    <desc>Created with Sketch.</desc>
    <defs></defs>
    <g id="cart/order/product" stroke="none" stroke-width="1" fill="none" fill-rule="evenodd">
        <g id="icon-location" fill="#6F7274">
            <path d="M32.1255,40 C23.2885,40 16.1255,32.837 16.1255,24 C16.1255,15.163 23.2885,8 32.1255,8 C40.9625,8 48.1255,15.163 48.1255,24 C48.1255,32.837 40.9625,40 32.1255,40 M32.0255,0 C18.7255,0 8.0255,10.7 8.0255,24 C7.9255,25.7 8.1255,27.4 8.5255,29 C8.9255,31 9.6255,33 10.5255,34.8 C16.9255,48.7 32.4255,64 32.4255,64 C32.4255,64 48.5255,47.6 54.1255,33.4 C54.7255,31.9 55.2255,30.4 55.5255,28.8 C55.9255,27.5 56.0255,26.1 56.0255,24.7 L56.0255,24 C56.0255,10.8 45.3255,0 32.0255,0" id="Fill-1"></path>
        </g>
    </g>
</svg>