<?xml version="1.0" encoding="UTF-8"?>
<svg width="24px" height="24px" viewBox="0 0 24 24" version="1.1" xmlns="http://www.w3.org/2000/svg" xmlns:xlink="http://www.w3.org/1999/xlink">
    <!-- Generator: Sketch 56.2 (81672) - https://sketch.com -->
    <title>Group</title>
    <desc>Created with Sketch.</desc>
    <g id="Page-1" stroke="none" stroke-width="1" fill="none" fill-rule="evenodd">
        <g id="amex-american-express-seeklogo.com" transform="translate(-295.000000, -385.000000)">
            <g id="Group" transform="translate(295.000000, 385.000000)">
                <polygon id="Fill-1" fill="#016FD0" points="0 23.8675359 23.8675359 23.8675359 23.8675359 0 0 0"></polygon>
                <polyline id="Fill-2" fill="#FFFFFE" points="8.64609945 20.0907845 8.64609945 11.5386961 23.8674033 11.5523536 23.8674033 13.9146961 22.1081105 15.7947845 23.8674033 17.6921105 23.8674033 20.1045746 21.0584751 20.1045746 19.5657017 18.457326 18.0835359 20.1108066 8.64609945 20.0907845"></polyline>
                <polyline id="Fill-3" fill="#016FD0" points="9.66271823 19.1531934 9.66271823 12.4798674 15.3211492 12.4798674 15.3211492 14.0171934 11.4948066 14.0171934 11.4948066 15.0607293 15.2299227 15.0607293 15.2299227 16.5724641 11.4948066 16.5724641 11.4948066 17.5974365 15.3211492 17.5974365 15.3211492 19.1531934 9.66271823 19.1531934"></polyline>
                <polyline id="Fill-4" fill="#016FD0" points="15.2929061 19.1531934 18.4239116 15.8126851 15.2927735 12.48 17.7162431 12.48 19.6294807 14.5950497 21.5481547 12.48 23.8674033 12.48 23.8674033 12.5325083 20.8030939 15.8126851 23.8674033 19.0585193 23.8674033 19.1531934 21.5248177 19.1531934 19.5776354 17.0169282 17.6504751 19.1531934 15.2929061 19.1531934"></polyline>
                <polyline id="Fill-5" fill="#FFFFFE" points="9.3560221 3.9479337 13.025105 3.9479337 14.3138122 6.87420994 14.3138122 3.9479337 18.8435801 3.9479337 19.6247072 6.14028729 20.4084862 3.9479337 23.8674033 3.9479337 23.8674033 12.5000221 5.58762431 12.5000221 9.3560221 3.9479337"></polyline>
                <path d="M10.0506961,4.87703867 L7.08967956,11.5447956 L9.12053039,11.5447956 L9.67916022,10.209547 L12.7060773,10.209547 L13.2643094,11.5447956 L15.3456796,11.5447956 L12.3969945,4.87703867 L10.0506961,4.87703867 Z M10.3051492,8.71319337 L11.1931492,6.59058564 L12.0804862,8.71319337 L10.3051492,8.71319337 L10.3051492,8.71319337 Z" id="Fill-6" fill="#016FD0"></path>
                <polyline id="Fill-7" fill="#016FD0" points="15.3179669 11.5436022 15.3179669 4.8759779 18.1726409 4.88579006 19.641547 8.98488398 21.12 4.8759779 23.8674033 4.8759779 23.8674033 11.5436022 22.0994917 11.5592486 22.0994917 6.97922652 20.4306298 11.5436022 18.8169282 11.5436022 17.1134586 6.96358011 17.1134586 11.5436022 15.3179669 11.5436022"></polyline>
            </g>
        </g>
    </g>
</svg>