<?xml version="1.0" encoding="UTF-8"?>
<svg width="64px" height="64px" viewBox="0 0 64 64" version="1.1" xmlns="http://www.w3.org/2000/svg" xmlns:xlink="http://www.w3.org/1999/xlink">
    <!-- Generator: Sketch 43.2 (39069) - http://www.bohemiancoding.com/sketch -->
    <title>icon-nav-headset-color</title>
    <desc>Created with Sketch.</desc>
    <defs></defs>
    <g id="menu" stroke="none" stroke-width="1" fill="none" fill-rule="evenodd">
        <g id="icon-nav-headset-color" fill="#EEA35C">
            <path d="M56.4355966,49.46 C55.6625966,50.228 54.6935966,50.721 53.6595966,50.908 L53.6595966,40.314 C56.1785966,40.782 58.0675966,43.018 58.0005966,45.718 C57.9965966,47.133 57.4405966,48.463 56.4355966,49.46 M6.0025966,45.65 C5.9365966,43.019 7.8135966,40.795 10.2955966,40.318 L10.2955966,50.898 C9.2775966,50.699 8.3235966,50.21 7.5685966,49.46 C6.5635966,48.462 6.0085966,47.132 6.0025966,45.65 M53.6595966,34.264 L53.6595966,30.773 C53.6585966,17.665 43.9275966,7 31.9685966,7 C20.0185966,7.003 10.2955966,17.674 10.2955966,30.787 L10.2955966,34.266 C4.4135966,34.795 -0.146403399,39.815 0.00359660074,45.737 C0.0135966007,48.756 1.1985966,51.59 3.3395966,53.717 C5.4715966,55.835 8.2975966,57 11.3345966,57 L11.3755966,57 L16.5335966,56.923 C18.1895966,56.897 19.5125966,55.534 19.4875966,53.878 C19.4625966,52.221 18.0585966,50.915 16.4435966,50.923 L16.2955966,50.925 L16.2955966,40.134 L16.2955966,40.134 C17.9525966,40.109 19.2755966,38.746 19.2505966,37.09 C19.2275966,35.463 17.9115966,34.161 16.2955966,34.138 L16.2955966,30.787 C16.2955966,20.981 23.3275966,13.002 31.9695966,13 C40.6205966,13 47.6585966,20.974 47.6595966,30.774 L47.6595966,34.143 C46.0665966,34.193 44.7765966,35.48 44.7525966,37.09 C44.7285966,38.729 46.0255966,40.077 47.6595966,40.128 L47.6595966,50.924 L47.5615966,50.923 C45.9145966,50.936 44.5405966,52.221 44.5165966,53.878 C44.4925966,55.534 45.8155966,56.897 47.4715966,56.923 L52.6635966,57 L52.7025966,57 C55.7065966,57 58.5325966,55.835 60.6645966,53.717 C62.8055966,51.589 63.9905966,48.755 63.9995966,45.801 C64.1505966,39.81 59.5815966,34.785 53.6595966,34.264" id="Page-1"></path>
        </g>
    </g>
</svg>