<?xml version="1.0" encoding="UTF-8" standalone="no"?>
<svg width="64px" height="64px" viewBox="0 0 64 64" version="1.1" xmlns="http://www.w3.org/2000/svg" xmlns:xlink="http://www.w3.org/1999/xlink">
    <!-- Generator: Sketch 39.1 (31720) - http://www.bohemiancoding.com/sketch -->
    <title>icon-clock</title>
    <desc>Created with Sketch.</desc>
    <defs></defs>
    <g id="cart/order/product" stroke="none" stroke-width="1" fill="none" fill-rule="evenodd">
        <g id="icon-clock" fill="#6F7274">
            <path d="M50.3935196,50.3843965 C45.4806362,55.2948699 38.9481209,57.9998 32.0003908,57.9998 C25.0516791,57.9998 18.5201454,55.2948699 13.6062804,50.3843965 C3.46443988,40.2465501 3.46443988,23.7520688 13.6062804,13.6152035 C18.5201454,8.7047301 25.0516791,5.9998 32.0003908,5.9998 C38.9481209,5.9998 45.4806362,8.7047301 50.3935196,13.6152035 C60.5353601,23.7520688 60.5353601,40.2465501 50.3935196,50.3843965 M54.6377275,9.37311153 C48.5914198,3.32876303 40.5520359,-0.0002 32.0004082,-0.0002 C23.4487804,-0.0002 15.4083802,3.32876303 9.36207246,9.37311153 C-3.12082415,21.8498659 -3.12082415,42.15075 9.36207246,54.6264885 C15.4083802,60.670837 23.4487804,63.9998 32.0004082,63.9998 C40.5520359,63.9998 48.5914198,60.670837 54.6377275,54.6264885 C67.1206242,42.15075 67.1206242,21.8498659 54.6377275,9.37311153 M32.4851,14.2993 C31.1041,14.2993 29.9851,15.4183 29.9851,16.7993 L29.9851,32.3643 L22.3181,40.0313 C21.3411,41.0073 21.3411,42.5903 22.3171,43.5673 C22.8051,44.0553 23.4451,44.2993 24.0851,44.2993 C24.7251,44.2993 25.3651,44.0553 25.8531,43.5673 L34.2531,35.1673 C34.8331,34.5883 35.0601,33.7953 34.9511,33.0413 C34.9661,32.9283 34.9851,32.8163 34.9851,32.6993 L34.9851,16.7993 C34.9851,15.4183 33.8661,14.2993 32.4851,14.2993" id="Combined-Shape"></path>
        </g>
    </g>
</svg>