<?xml version="1.0" encoding="UTF-8" standalone="no"?>
<svg width="64px" height="64px" viewBox="0 0 64 64" version="1.1" xmlns="http://www.w3.org/2000/svg" xmlns:xlink="http://www.w3.org/1999/xlink">
    <!-- Generator: Sketch 39.1 (31720) - http://www.bohemiancoding.com/sketch -->
    <title>icon-attention-circle-outline</title>
    <desc>Created with Sketch.</desc>
    <defs></defs>
    <g id="form-/-home" stroke="none" stroke-width="1" fill="none" fill-rule="evenodd">
        <g id="icon-attention-circle-outline" fill="#6F7274">
            <path d="M32,2 C15.39875,2 2,15.39875 2,32 C2,48.55625 15.39875,62 32,62 C48.5525,62 62,48.55625 62,32 C62,15.408125 48.55625,2 32,2 L32,2 Z M32,56 C18.772,56 8,45.23 8,32 C8,18.776 18.772,8 32,8 C45.23,8 56,18.776 56,32 C56,45.232 45.234,56 32,56 Z M31.735625,13.44875 C28.728125,13.728125 26.525,16.41875 26.8175,19.42625 L28.506875,35.0525 C28.68125,36.81125 30.070625,38.260625 31.9025,38.45 C33.9725,38.645 35.815625,37.14875 36.006875,35.0525 L37.686875,19.42625 C37.72625,19.075625 37.72625,18.715625 37.686875,18.3725 C37.41875,15.3575 34.735625,13.1525 31.735625,13.44875 Z M28.94375,42.441875 C28.08125,43.308125 27.576875,44.52125 27.576875,45.7625 C27.576875,46.97375 28.085,48.215 28.94375,49.079375 C29.830625,49.968125 31.023125,50.45 32.264375,50.45 C33.505625,50.45 34.709375,49.941875 35.585,49.079375 C36.4475,48.215 36.951875,47.005625 36.951875,45.7625 C36.951875,44.53625 36.44375,43.3025 35.585,42.441875 C33.84125,40.7075 30.689375,40.7075 28.94375,42.441875 Z" id="Combined-Shape"></path>
        </g>
    </g>
</svg>