<?xml version="1.0" encoding="UTF-8"?>
<svg width="64px" height="64px" viewBox="0 0 64 64" version="1.1" xmlns="http://www.w3.org/2000/svg" xmlns:xlink="http://www.w3.org/1999/xlink">
    <!-- Generator: Sketch 41.2 (35397) - http://www.bohemiancoding.com/sketch -->
    <title>icon-purview-day-blue</title>
    <desc>Created with Sketch.</desc>
    <defs></defs>
    <g id="member" stroke="none" stroke-width="1" fill="none" fill-rule="evenodd">
        <g id="icon-purview-day-blue" fill="#0090D4">
            <path d="M56.2212389,4.05899705 L56.2212389,7.26843658 C56.2212389,10.4778761 53.5781711,13.120944 50.3687316,13.120944 L50.0855457,13.120944 C46.8761062,13.120944 44.2330383,10.4778761 44.2330383,7.26843658 L44.2330383,3.68141593 L37.8141593,3.68141593 L37.8141593,7.26843658 C37.8141593,10.4778761 35.1710914,13.120944 31.9616519,13.120944 L31.6784661,13.120944 C28.4690265,13.120944 25.8259587,10.4778761 25.8259587,7.26843658 L25.8259587,3.68141593 L19.3126844,3.68141593 L19.3126844,7.26843658 C19.3126844,10.4778761 16.7640118,13.120944 13.5545723,13.120944 L13.2713864,13.120944 C10.0619469,13.120944 7.41887906,10.4778761 7.41887906,7.26843658 L7.41887906,4.15339233 C3.64306785,5.38053097 1,8.87315634 1,13.0265487 L1,54.6548673 C1,59.8466077 5.15339233,64 10.3451327,64 L53.4837758,64 C58.6755162,64 62.8289086,59.8466077 62.8289086,54.6548673 L62.8289086,13.0265487 C62.7345133,8.77876106 59.9970501,5.19174041 56.2212389,4.05899705 L56.2212389,4.05899705 Z M58.1091445,53.8053097 C58.1091445,56.8259587 55.6548673,59.280236 52.7286136,59.280236 L10.9115044,59.280236 C7.89085546,59.280236 5.53097345,56.8259587 5.53097345,53.8053097 L5.53097345,24.1651917 C5.53097345,22.0884956 7.13569322,20.4837758 9.21238938,20.4837758 L54.4277286,20.4837758 C56.5044248,20.4837758 58.1091445,22.0884956 58.1091445,24.1651917 L58.1091445,53.8053097 Z M13.0825959,10.2890855 L13.3657817,10.2890855 C14.3097345,10.2890855 15.159292,9.91150442 15.6312684,9.25073746 C16.1032448,8.68436578 16.3864307,8.02359882 16.3864307,7.26843658 L16.3864307,3.11504425 C16.3864307,2.26548673 16.1032448,1.51032448 15.5368732,0.943952802 C14.9705015,0.377581121 14.2153392,0.0943952802 13.3657817,0.0943952802 L13.0825959,0.0943952802 C12.2330383,0.0943952802 11.4778761,0.377581121 10.9115044,0.943952802 C10.3451327,1.51032448 10.0619469,2.26548673 10.0619469,3.11504425 L10.0619469,7.26843658 C10.0619469,8.02359882 10.3451327,8.68436578 10.8171091,9.25073746 C11.3834808,9.81710914 12.2330383,10.2890855 13.0825959,10.2890855 Z M29.8849558,9.72271386 C29.8849558,9.81710914 29.8849558,9.72271386 29.8849558,9.72271386 C30.4513274,10.0058997 31.0176991,10.1946903 31.5840708,10.1946903 L31.8672566,10.1946903 C32.4336283,10.1946903 32.9056047,10.100295 33.2831858,9.81710914 C34.2271386,9.34513274 34.7935103,8.30678466 34.7935103,7.1740413 L34.7935103,3.02064897 C34.7935103,1.98230088 34.3215339,1.13274336 33.5663717,0.566371681 C33.0943953,0.18879056 32.4336283,0 31.7728614,0 L31.4896755,0 C30.7345133,0 29.979351,0.283185841 29.4129794,0.755162242 C28.8466077,1.32153392 28.3746313,2.07669617 28.3746313,3.02064897 L28.3746313,7.1740413 C28.4690265,8.30678466 29.0353982,9.25073746 29.8849558,9.72271386 Z M50.0855457,10.2890855 L50.3687316,10.2890855 C51.3126844,10.2890855 52.1622419,9.91150442 52.7286136,9.25073746 C53.20059,8.68436578 53.4837758,8.02359882 53.4837758,7.26843658 L53.4837758,3.11504425 C53.4837758,1.98230088 52.8230088,0.943952802 51.879056,0.471976401 C51.7846608,0.471976401 51.6902655,0.377581121 51.6902655,0.377581121 C51.6902655,0.377581121 51.6902655,0.377581121 51.5958702,0.377581121 L51.5014749,0.377581121 L51.4070796,0.377581121 C51.1238938,0.283185841 50.840708,0.283185841 50.4631268,0.283185841 L50.0855457,0.283185841 L49.6135693,0.283185841 C48.1032448,0.471976401 47.0648968,1.79351032 47.0648968,3.30383481 L47.0648968,7.45722714 C47.0648968,8.96755162 48.3864307,10.2890855 50.0855457,10.2890855 Z M46.9705015,39.740413 C46.7817109,30.9616519 39.5132743,23.8820059 30.7345133,24.0707965 C21.9557522,24.259587 14.8761062,31.5280236 15.0648968,40.3067847 C15.2536873,49.0855457 22.5221239,56.1651917 31.300885,55.9764012 C40.1740413,55.7876106 47.159292,48.519174 46.9705015,39.740413 Z M37.9085546,38.7020649 C37.2477876,39.6460177 36.2094395,40.3067847 34.9823009,40.6843658 C34.2271386,40.8731563 32.9056047,41.0619469 31.0176991,41.0619469 L31.2064897,49.3687316 L27.4306785,49.4631268 L27.0530973,29.8289086 L31.0176991,29.7345133 C33.1887906,29.7345133 34.699115,29.8289086 35.6430678,30.2064897 C36.5870206,30.5840708 37.3421829,31.2448378 37.9085546,32.0943953 C38.4749263,32.9439528 38.7581121,33.9823009 38.7581121,35.3038348 C38.9469027,36.6253687 38.5693215,37.8525074 37.9085546,38.7020649 Z M34.3215339,33.699115 C33.8495575,33.4159292 33.0943953,33.3215339 31.9616519,33.3215339 L30.9233038,33.3215339 L31.0176991,37.380531 L32.2448378,37.380531 C33.1887906,37.380531 33.8495575,37.2861357 34.2271386,37.0973451 C34.6047198,36.9085546 34.8879056,36.719764 35.0766962,36.4365782 C35.2654867,36.1533923 35.359882,35.7758112 35.359882,35.3038348 C35.2654867,34.5486726 34.9823009,34.0766962 34.3215339,33.699115 Z" id="Combined-Shape"></path>
        </g>
    </g>
</svg>