<?xml version="1.0" encoding="UTF-8" standalone="no"?>
<svg width="64px" height="64px" viewBox="0 0 64 64" version="1.1" xmlns="http://www.w3.org/2000/svg" xmlns:xlink="http://www.w3.org/1999/xlink">
    <!-- Generator: Sketch 39.1 (31720) - http://www.bohemiancoding.com/sketch -->
    <title>icon-share</title>
    <desc>Created with Sketch.</desc>
    <defs></defs>
    <g id="cart/order/product" stroke="none" stroke-width="1" fill="none" fill-rule="evenodd">
        <g id="icon-share" fill="#6F7274">
            <path d="M51.5,6.3 L51.5,6.3 C50.6,5.3 49.3,4.8 47.9,4.8 C46.5,4.8 45.2,5.3 44.3,6.3 C43.3,7.2 42.8,8.5 42.8,9.9 C42.8,11.2 43.3,12.5 44.3,13.5 C46.3,15.5 49.5,15.5 51.5,13.5 C52.5,12.6 53,11.3 53,9.9 C53,8.6 52.5,7.3 51.5,6.3 L51.5,6.3 Z M26.2,25.6 L26.2,25.6 C24.5,23.9 22.3,23 19.9,23 C17.5,23 15.3,23.9 13.6,25.6 C10.2,29.1 10.1,34.6 13.5,38.1 L13.6,38.2 C15.3,39.9 17.6,40.8 19.9,40.8 C22.2,40.8 24.5,39.9 26.1,38.3 L26.2,38.2 C27.9,36.5 28.8,34.3 28.8,31.9 C28.8,29.6 27.9,27.4 26.3,25.7 L26.2,25.6 Z M51.5,50.4 L51.5,50.4 C50.6,49.4 49.3,48.9 47.9,48.9 C46.5,48.9 45.2,49.4 44.3,50.4 C43.3,51.3 42.8,52.6 42.8,54 C42.8,56.8 45,59 47.8,59.1 L47.9,59.1 C49.2,59.1 50.5,58.6 51.5,57.6 C53.5,55.6 53.5,52.4 51.5,50.4 L51.5,50.4 Z M39.2,49 L29.8,41.6 L29.7,41.7 L29.6,41.9 C27,44.4 23.5,45.8 19.9,45.8 C16.2,45.8 12.7,44.3 10.1,41.7 L10,41.6 C7.5,39 6.1,35.6 6,32 C6,28.3 7.5,24.8 10.1,22.3 C15.5,16.9 24.3,16.9 29.7,22.3 L29.8,22.4 L39.2,15 C38.4,13.5 37.9,11.8 37.9,10.1 C37.9,4.6 42.4,0 47.9,0 C53.4,0 58,4.5 58,10 C58,12.7 57,15.3 55.1,17.1 C51.2,20.9 45.1,21 41.1,17.3 L31.7,24.7 C34.6,29.2 34.6,34.9 31.7,39.4 L41.1,46.8 C45.1,43 51.5,43.2 55.3,47.2 C57.1,49.1 58.1,51.5 58.1,54.1 C58.1,56.8 57,59.3 55.1,61.2 C51.1,64.9 44.8,64.9 40.8,61 C38.9,59.1 37.8,56.6 37.9,53.9 C37.9,52.2 38.3,50.5 39.2,49 L39.2,49 Z" id="Fill-1"></path>
        </g>
    </g>
</svg>