<?xml version="1.0" encoding="UTF-8"?>
<svg width="32px" height="32px" viewBox="0 0 32 32" version="1.1" xmlns="http://www.w3.org/2000/svg" xmlns:xlink="http://www.w3.org/1999/xlink">
    <!-- Generator: Sketch 52.5 (67469) - http://www.bohemiancoding.com/sketch -->
    <title>icon-coupon-m_</title>
    <desc>Created with Sketch.</desc>
    <g id="icon-coupon-m_" stroke="none" stroke-width="1" fill="none" fill-rule="evenodd">
        <path d="M3,19.8194024 C3.09846283,19.8283589 3.19815619,19.8329331 3.29889281,19.8329331 C5.1406042,19.8329331 6.63360627,18.3040415 6.63360627,16.4180582 C6.63360627,14.5320749 5.1406042,13.0031834 3.29889281,13.0031834 C3.19815619,13.0031834 3.09846283,13.0077575 3,13.016714 L3,9.87205701 C3,8.28586372 4.28934404,7 5.86930146,7 L26.1306985,7 C27.71537,7 29,8.29451561 29,9.87205701 L29,22.127943 C29,23.7141363 27.710656,25 26.1306985,25 L5.86930146,25 C4.28463002,25 3,23.7054844 3,22.127943 L3,19.8194024 Z" id="Combined-Shape" stroke="#E64995" stroke-width="2" stroke-linecap="round" stroke-linejoin="round" transform="translate(16.000000, 16.000000) rotate(-180.000000) translate(-16.000000, -16.000000) "></path>
        <path d="M21.6069162,25 L21.6069162,7" id="Line" stroke="#E64995" stroke-width="2" stroke-linecap="round" stroke-linejoin="round" stroke-dasharray="1.794871794871795,3.58974358974359"></path>
        <path d="M12.5,18.635053 L10.9144466,19.6982714 C10.2541352,20.1410539 9.87061173,19.8841913 10.0601744,19.1150112 L10.5462839,17.1425467 L9.07985362,15.8727501 C8.48346693,15.3563329 8.63483426,14.8971899 9.43457665,14.846164 L11.2925371,14.7276209 L11.9949233,12.8501004 C12.2738694,12.1044606 12.7271145,12.1070908 13.0050767,12.8501004 L13.7074629,14.7276209 L15.5654234,14.846164 C16.3577182,14.8967147 16.5090508,15.3628119 15.9201464,15.8727501 L14.4537161,17.1425467 L14.9398256,19.1150112 C15.1283355,19.8799194 14.7449187,20.1404195 14.0855534,19.6982714 L12.5,18.635053 Z" id="Star" fill="#E64995" transform="translate(12.500000, 16.000000) rotate(-360.000000) translate(-12.500000, -16.000000) "></path>
    </g>
</svg>