<?xml version="1.0" encoding="UTF-8" standalone="no"?>
<svg width="64px" height="64px" viewBox="0 0 64 64" version="1.1" xmlns="http://www.w3.org/2000/svg" xmlns:xlink="http://www.w3.org/1999/xlink">
    <!-- Generator: Sketch 39.1 (31720) - http://www.bohemiancoding.com/sketch -->
    <title>icon-tag-light</title>
    <desc>Created with Sketch.</desc>
    <defs></defs>
    <g id="member" stroke="none" stroke-width="1" fill="none" fill-rule="evenodd">
        <g id="icon-tag-light" fill="#A3A5A6">
            <path d="M60.5353879,33.8811977 L32.2182578,5.60392767 C31.2149524,4.60013611 29.868462,3.7489792 28.1787867,3.04948474 C26.4886253,2.34999028 24.9442932,2 23.5448182,2 L7.06951196,2 C5.69628621,2 4.50826366,2.50213883 3.5049582,3.5049582 C2.50165273,4.50826366 2,5.69628621 2,7.06951196 L2,23.5448182 C2,24.9442932 2.34950418,26.4881392 3.04948474,28.1783006 C3.74946529,29.868462 4.6006222,31.2013416 5.60392767,32.1783978 L33.9205717,60.5349018 C34.8976278,61.511958 36.0851643,62.0004861 37.4851254,62.0004861 C38.857379,62.0004861 40.0594983,61.511958 41.0890531,60.5349018 L60.5349018,41.0496792 C61.511958,40.0721369 62,38.8850865 62,37.4856115 C62,36.1128719 61.511958,34.9112386 60.5353879,33.8811977 L60.5353879,33.8811977 Z M18.2575345,18.2575345 C17.2668676,19.2477153 16.0725258,19.7430488 14.6730507,19.7430488 C13.2740618,19.7430488 12.0792339,19.2477153 11.0890531,18.2575345 C10.0988723,17.2673537 9.60402489,16.0730119 9.60402489,14.6735368 C9.60402489,13.2740618 10.0988723,12.0792339 11.0890531,11.0895392 C12.0792339,10.0993584 13.2740618,9.60402489 14.6730507,9.60402489 C16.0725258,9.60402489 17.2673537,10.0993584 18.2575345,11.0895392 C19.2472292,12.0792339 19.7425627,13.2740618 19.7425627,14.6735368 C19.7425627,16.0730119 19.2477153,17.2673537 18.2575345,18.2575345 L18.2575345,18.2575345 Z" id="Shape"></path>
        </g>
    </g>
</svg>