<?xml version="1.0" encoding="UTF-8" standalone="no"?>
<svg width="64px" height="64px" viewBox="0 0 64 64" version="1.1" xmlns="http://www.w3.org/2000/svg" xmlns:xlink="http://www.w3.org/1999/xlink">
    <!-- Generator: Sketch 39.1 (31720) - http://www.bohemiancoding.com/sketch -->
    <title>icon-info-circle</title>
    <desc>Created with Sketch.</desc>
    <defs></defs>
    <g id="header" stroke="none" stroke-width="1" fill="none" fill-rule="evenodd">
        <g id="icon-info-circle" fill="#6F7274">
            <path d="M32.2005,0 L31.9005,0 C14.3005,0 -0.0995,14.4 0.0005,32.1 C0.1005,49.8 14.5005,64 32.2005,64 C49.8005,63.9 64.1005,49.5 64.0005,31.9 C64.0005,14.3 49.8005,0.1 32.2005,0 M5.99998229,31.9478958 C5.99998229,17.5671343 17.6947614,6 31.9999823,6 C42.4417494,6.10420842 51.8393397,12.252505 55.9116289,21.9438878 C57.2690586,25.1743487 57.9999823,28.6132265 57.9999823,32.1563126 C57.8955646,46.4328657 46.2007855,58 31.8955646,58 C17.5903437,57.8957916 5.99998229,46.3286573 5.99998229,31.9478958 Z M32.0005,19.3 C34.0005,19.3 35.6005,17.7 35.6005,15.8 C35.6005,13.8 34.1005,12.2 32.1005,12.2 C30.1005,12.2 28.5005,13.8 28.5005,15.7 C28.5005,17.7 30.1005,19.3 32.0005,19.3 Z M32.1005,22.1 C30.1005,22.1 28.5005,23.7 28.5005,25.7 L28.5005,48.1 C28.5005,50.1 30.1005,51.7 32.1005,51.7 C34.1005,51.7 35.7005,50.1 35.7005,48.1 L35.7005,25.7 C35.7005,23.7 34.1005,22.1 32.1005,22.1 Z" id="Combined-Shape"></path>
        </g>
    </g>
</svg>