<?xml version="1.0" encoding="UTF-8" standalone="no"?>
<svg width="64px" height="64px" viewBox="0 0 64 64" version="1.1" xmlns="http://www.w3.org/2000/svg" xmlns:xlink="http://www.w3.org/1999/xlink">
    <!-- Generator: Sketch 39.1 (31720) - http://www.bohemiancoding.com/sketch -->
    <title>icon-eye-hide</title>
    <desc>Created with Sketch.</desc>
    <defs></defs>
    <g id="Page-6" stroke="none" stroke-width="1" fill="none" fill-rule="evenodd">
        <g id="icon-eye-hide" fill="#DCDDDE">
            <path d="M35.2539057,16.6107537 C34.1856954,16.4952313 33.1002362,16.4290052 32,16.4125109 C27.1921261,16.4338399 22.2082469,17.6033098 17.4907285,19.8441517 C13.9880265,21.5765205 10.5759643,24.0222221 7.61278722,27.0389705 C6.15749865,28.5789486 4.30012505,30.8087986 4,33.1879017 C4.03544822,35.2487563 6.2471533,37.7924802 7.61278722,39.3368333 C10.3914592,42.2351501 13.7146331,44.6107639 17.4907285,46.5316512 C17.6190362,46.593919 17.7478362,46.6554975 17.8769531,46.7162221 L14.3735931,52.8342673 L19.133839,55.6476093 L44.8665614,10.8460885 L40.2845775,8.04572437 L35.2539057,16.6107537 Z M46.1196347,19.6664175 L42.6230469,25.7264701 C44.2316147,27.8162767 45.1865239,30.3933813 45.1865239,33.1879017 C45.1865239,40.1532078 39.2821331,45.8002063 31.9965877,45.8002063 C31.6816092,45.8002063 31.3763761,45.7662241 31.0669,45.745519 L28.7529301,49.7513782 C29.8201123,49.8656532 30.8991515,49.9489317 32,49.963292 C36.8123908,49.9416471 41.7935255,48.7587017 46.5058597,46.5316512 C50.0085617,44.7992833 53.4240367,42.3535817 56.3872113,39.3368333 C57.8425113,37.7968771 59.699854,35.5670052 60,33.1879017 C59.964552,31.1270471 57.75286,28.5833129 56.3872113,27.0389705 C53.6085427,24.1406537 50.2819551,21.7650389 46.5058597,19.8441517 C46.3783831,19.7823001 46.2479097,19.7267379 46.1196347,19.6664175 L46.1196347,19.6664175 Z M31.9965877,20.5755966 C32.3160388,20.5755966 32.6330077,20.5884267 32.9467719,20.6097767 L30.2363285,25.3026429 C26.4323423,26.0738567 23.578125,29.3103609 23.578125,33.1844889 C23.578125,34.1576532 23.7573469,35.0894083 24.0873965,35.9530328 C24.0877698,35.9540175 24.0870231,35.9554735 24.0873965,35.9564581 L21.3701173,40.6630043 C19.7577546,38.5712731 18.8066403,35.9856369 18.8066403,33.1879007 C18.8066403,26.2225946 24.7110311,20.5755961 31.9965877,20.5755961 L31.9965877,20.5755966 Z M39.8818362,30.4706113 L33.7739316,41.0526429 C37.5574755,40.266892 40.3911193,37.045142 40.3911193,33.1844889 C40.3911193,32.2290547 40.2004566,31.3207063 39.8818362,30.4706113 L39.8818362,30.4706113 Z" id="path6596"></path>
        </g>
    </g>
</svg>