<?xml version="1.0" encoding="UTF-8" standalone="no"?>
<svg width="56px" height="24px" viewBox="0 0 56 24" version="1.1" xmlns="http://www.w3.org/2000/svg" xmlns:xlink="http://www.w3.org/1999/xlink">
    <!-- Generator: Sketch 3.8.3 (29802) - http://www.bohemiancoding.com/sketch -->
    <title>icon-visa</title>
    <desc>Created with Sketch.</desc>
    <defs></defs>
    <g id="Page-1" stroke="none" stroke-width="1" fill="none" fill-rule="evenodd">
        <g id="icon-visa">
            <g id="1468588482_visa" transform="translate(0.000000, 3.000000)">
                <g id="Group">
                    <g id="形状_1_3_" transform="translate(4.768212, 0.000000)" fill="#005BAC">
                        <g id="形状_1">
                            <path d="M17.4430728,0.410662252 L14.6459205,17.6010199 L19.1211258,17.6010199 L21.9186358,0.410662252 L17.4430728,0.410662252 L17.4430728,0.410662252 Z M10.8805828,0.410662252 L6.61374834,12.2340397 L6.10903311,9.68805298 L6.10939073,9.68888742 L5.99817219,9.11825166 C5.48177483,8.00535099 4.28578808,5.89017219 2.02744371,4.08504636 C1.35977483,3.55148344 0.686741722,3.09611921 0.0361192053,2.70715232 L3.91398675,17.6010199 L8.57682119,17.6010199 L15.6973113,0.410662252 L10.8805828,0.410662252 L10.8805828,0.410662252 Z M28.3466623,5.18304636 C28.3466623,3.23952318 32.7051656,3.48925828 34.6203179,4.54458278 L35.2589007,0.852556291 C35.2589007,0.852556291 33.2879603,0.102993377 31.2335762,0.102993377 C29.012543,0.102993377 23.738543,1.07427815 23.738543,5.7937351 C23.738543,10.2353245 29.9286358,10.2905166 29.9286358,12.6224106 C29.9286358,14.9543046 24.3767682,14.5375629 22.5445828,13.0665695 L21.878702,16.9256026 C21.878702,16.9256026 23.8769404,17.8968874 26.9308609,17.8968874 C29.9844238,17.8968874 34.5924238,16.3149139 34.5924238,12.0117219 C34.5924238,7.54235762 28.3466623,7.12609272 28.3466623,5.18304636 L28.3466623,5.18304636 Z M46.6089139,0.410662252 L43.010702,0.410662252 C41.3492185,0.410662252 40.9446358,1.69176159 40.9446358,1.69176159 L34.2705695,17.6010199 L38.9351921,17.6010199 L39.8683311,15.0477616 L45.5577616,15.0477616 L46.0826225,17.6010199 L50.1918675,17.6010199 L46.6089139,0.410662252 L46.6089139,0.410662252 Z M41.1580132,11.5201192 L43.5096954,5.08708609 L44.8326358,11.5201192 L41.1580132,11.5201192 L41.1580132,11.5201192 Z" id="Shape"></path>
                        </g>
                    </g>
                    <g id="形状_1_2_" transform="translate(0.000000, 0.476821)" fill="#F6AC1D">
                        <g id="形状_1_1_">
                            <path d="M9.43295364,1.55229139 C9.43295364,1.55229139 9.24770861,0.000834437086 7.27009272,0.000834437086 L0.0852317881,0.000834437086 L0.00107284768,0.292410596 C0.00107284768,0.292410596 3.45468874,0.996437086 6.768,3.63409272 C9.93433113,6.15504636 10.967245,9.29753642 10.967245,9.29753642 L9.43295364,1.55229139 L9.43295364,1.55229139 Z" id="Shape"></path>
                        </g>
                    </g>
                </g>
            </g>
        </g>
    </g>
</svg>