<?xml version="1.0" encoding="UTF-8"?>
<svg width="64px" height="64px" viewBox="0 0 64 64" version="1.1" xmlns="http://www.w3.org/2000/svg" xmlns:xlink="http://www.w3.org/1999/xlink">
    <!-- Generator: Sketch 40.1 (33804) - http://www.bohemiancoding.com/sketch -->
    <title>icon-trash-outline-white</title>
    <desc>Created with Sketch.</desc>
    <defs></defs>
    <g id="cart/order/product" stroke="none" stroke-width="1" fill="none" fill-rule="evenodd">
        <g id="icon-trash-outline-white" fill="#FFFFFF">
            <path d="M54.7,10 L47.3,10 L47.3,9.9 C47.3,3.63 45.663,0 37.3,0 L26.3,0 C19.184,0 16.9,2.406 16.9,9.9 L16.9,10 L10.1,10 C5.558,10 2,13.514 2,18 L2,18.5 C2,22.335 4.747,25.546 8.4,26.32 L8.4,54.3 C8.4,62.221 11.171,63.5 17.8,63.5 L45.399,63.5 C49.571,63.5 51.967,62.866 53.408,61.381 C54.749,60.001 55.302,57.843 55.2,54.4 L55.2,26.475 C59.433,26.218 62.8,22.744 62.8,18.5 L62.8,18 C62.8,13.589 59.166,10 54.7,10 Z M13,26.5 L50.6,26.5 L50.6,54.4 C50.6,59 50.4,59 45.3,59 L17.7,59 C15.194,59 13.993,58.917 13.5,58.43 C12.999,57.937 12.999,56.774 13,54.663 L13,26.5 Z M6.7,18 C6.7,16.211 8.257,14.7 10.1,14.7 L54.724,14.699 C54.772,14.697 54.82,14.696 54.868,14.696 C55.668,14.696 56.438,15.012 57.05,15.596 C57.717,16.232 58.1,17.108 58.1,18 L58.1,18.5 C58.1,20.289 56.543,21.8 54.7,21.8 L10.076,21.8 C9.224,21.85 8.398,21.522 7.75,20.904 C7.083,20.268 6.7,19.392 6.7,18.5 L6.7,18 Z M42.5,10 L21.5,10 L21.5,9.9 C21.5,4.974 21.609,4.6 26.2,4.6 L37.2,4.6 C41.699,4.6 42.5,4.993 42.5,9.9 L42.5,10 Z M42.5,54.5503 C43.882,54.5503 45.05,53.3823 45.05,51.9993 L45.05,32.4003 C45.05,31.0173 43.882,29.8503 42.5,29.8503 C41.118,29.8503 39.95,31.0173 39.95,32.4003 L39.95,51.9993 C39.95,53.3823 41.118,54.5503 42.5,54.5503 Z M32.1997,54.5503 C33.5817,54.5503 34.7497,53.3823 34.7497,51.9993 L34.7497,32.4003 C34.7497,31.0173 33.5817,29.8503 32.1997,29.8503 C30.8177,29.8503 29.6497,31.0173 29.6497,32.4003 L29.6497,51.9993 C29.6497,53.3823 30.8177,54.5503 32.1997,54.5503 Z M21.5996,54.5503 C22.9816,54.5503 24.1496,53.3823 24.1496,51.9993 L24.1496,32.4003 C24.1496,31.0173 22.9816,29.8503 21.5996,29.8503 C20.2176,29.8503 19.0496,31.0173 19.0496,32.4003 L19.0496,51.9993 C19.0496,53.3823 20.2176,54.5503 21.5996,54.5503 Z" id="Combined-Shape"></path>
        </g>
    </g>
</svg>