<?xml version="1.0" encoding="utf-8"?>
<!-- Generator: Adobe Illustrator 23.0.4, SVG Export Plug-In . SVG Version: 6.00 Build 0)  -->
<svg version="1.1" id="圖層_1" xmlns="http://www.w3.org/2000/svg" xmlns:xlink="http://www.w3.org/1999/xlink" x="0px" y="0px"
	 viewBox="0 0 64 64" style="enable-background:new 0 0 64 64;" xml:space="preserve">
<style type="text/css">
	.st0{fill:#6F7274;}
</style>
<title>icon-nav-phone</title>
<desc>Created with Sketch.</desc>
<path class="st0" d="M49,0.1H15c-2.9,0-5.3,2.4-5.3,5.3v17.8c0,3.3,2.1,6.3,5.3,7.3l0.9,0.3c0.7,0.2,1.3,0.9,1.3,1.7L19,56.7
	c0.3,4,3.7,7.2,7.7,7.2h10.5c4,0,7.4-3.2,7.7-7.2l1.9-24.1c0.1-0.8,0.6-1.4,1.3-1.7l0.9-0.3c3.2-1.1,5.3-4,5.3-7.3V5.4
	C54.3,2.5,51.9,0.1,49,0.1z M24.8,10.8V5.9h14.5v4.8H24.8z M47.7,24.8c-0.2,0.1-0.3,0.2-0.5,0.3l-0.9,0.3c-3,1-5,3.7-5.3,6.8
	l-1.9,24.1c-0.1,1-0.9,1.8-1.9,1.8H26.8c-1,0-1.8-0.8-1.9-1.8L23,32.2c-0.2-3.1-2.3-5.8-5.3-6.8l-0.9-0.3c-0.2-0.1-0.3-0.1-0.5-0.3
	H47.7z M21.8,15.6h20.3c1.6,0,2.9-1.3,2.9-2.9V5.9h3.4V19h-33V5.9h3.4v6.7C18.9,14.3,20.2,15.6,21.8,15.6z"/>
</svg>
