<?xml version="1.0" encoding="UTF-8" standalone="no"?>
<svg width="64px" height="64px" viewBox="0 0 64 64" version="1.1" xmlns="http://www.w3.org/2000/svg" xmlns:xlink="http://www.w3.org/1999/xlink">
    <!-- Generator: Sketch 39.1 (31720) - http://www.bohemiancoding.com/sketch -->
    <title>icon-nav-pc</title>
    <desc>Created with Sketch.</desc>
    <defs></defs>
    <g id="menu" stroke="none" stroke-width="1" fill="none" fill-rule="evenodd">
        <g id="icon-nav-pc" fill="#ffffff">
            <path d="M58.0005,49.7959 C58.0005,52.1139 56.1145,53.9999 53.7965,53.9999 L10.2045,53.9999 C7.8855,53.9999 6.0005,52.1139 6.0005,49.7959 L6.0005,49.4489 C6.0005,47.1309 7.8855,45.2449 10.2045,45.2449 L53.7965,45.2449 C56.1145,45.2449 58.0005,47.1309 58.0005,49.4489 L58.0005,49.7959 Z M11.4145,14.2479 C11.4205,11.3519 13.7785,8.9999 16.6795,8.9999 L16.6895,8.9999 L44.2515,8.9999 L36.6405,15.6229 C35.3915,16.7109 35.2595,18.6059 36.3475,19.8559 C36.9395,20.5369 37.7725,20.8859 38.6105,20.8859 C39.3095,20.8859 40.0115,20.6439 40.5795,20.1499 L51.2855,10.8329 C52.0825,11.7519 52.5835,12.9349 52.5865,14.2409 L52.5865,15.1059 C52.5415,15.1449 52.4915,15.1729 52.4475,15.2139 L39.1565,27.9269 C37.9595,29.0719 37.9165,30.9719 39.0625,32.1689 C39.6505,32.7849 40.4395,33.0959 41.2295,33.0959 C41.9765,33.0959 42.7225,32.8189 43.3035,32.2629 L52.5865,23.3839 L52.5865,33.8849 C52.5835,35.2889 52.0325,36.6079 51.0375,37.5999 C50.0455,38.5869 48.7295,39.1309 47.3225,39.1309 L47.3105,39.1309 L16.6835,39.1309 L16.6715,39.1309 C13.7775,39.1309 11.4205,36.7789 11.4145,33.8909 L11.4145,14.2479 Z M58.5865,33.8909 L58.5865,14.2349 C58.5725,8.0349 53.5245,2.9999 47.3275,2.9999 L16.6965,2.9999 C10.4765,2.9999 5.4275,8.0349 5.4145,14.2409 L5.4145,33.8979 C5.4185,36.0389 6.0345,38.0349 7.0805,39.7389 C2.9785,41.0609 0.0005,44.9119 0.0005,49.4489 L0.0005,49.7959 C0.0005,55.4229 4.5775,59.9999 10.2045,59.9999 L53.7965,59.9999 C59.4235,59.9999 64.0005,55.4229 64.0005,49.7959 L64.0005,49.4489 C64.0005,44.9139 61.0255,41.0649 56.9255,39.7409 C57.9955,37.9969 58.5815,35.9929 58.5865,33.8909 Z M41.8657,47.2471 L23.0897,47.2471 C21.7087,47.2471 20.5897,48.3661 20.5897,49.7471 C20.5897,51.1281 21.7087,52.2471 23.0897,52.2471 L41.8657,52.2471 C43.2467,52.2471 44.3657,51.1281 44.3657,49.7471 C44.3657,48.3661 43.2467,47.2471 41.8657,47.2471 Z" id="Combined-Shape"></path>
        </g>
    </g>
</svg>