<?xml version="1.0" encoding="UTF-8"?>
<svg width="64px" height="64px" viewBox="0 0 64 64" version="1.1" xmlns="http://www.w3.org/2000/svg" xmlns:xlink="http://www.w3.org/1999/xlink">
    <!-- Generator: Sketch 41.2 (35397) - http://www.bohemiancoding.com/sketch -->
    <title>icon-purview-cash-blue</title>
    <desc>Created with Sketch.</desc>
    <defs></defs>
    <g id="member" stroke="none" stroke-width="1" fill="none" fill-rule="evenodd">
        <g id="icon-purview-cash-blue" fill="#0090D4">
            <path d="M58.2136986,12.1753425 L6.04931507,12.1753425 C3.06849315,12.1753425 0.61369863,14.630137 0.61369863,17.6109589 L0.61369863,45.7534247 C0.61369863,48.7342466 3.06849315,51.1890411 6.04931507,51.1890411 L58.2136986,51.1890411 C61.1945205,51.1890411 63.6493151,48.7342466 63.6493151,45.7534247 L63.6493151,17.6986301 C63.7369863,14.630137 61.2821918,12.1753425 58.2136986,12.1753425 L58.2136986,12.1753425 Z M59.090411,40.5808219 C58.6520548,40.4931507 58.2136986,40.4054795 57.6876712,40.4054795 C54.6191781,40.4054795 52.1643836,42.860274 52.1643836,45.9287671 C52.1643836,46.1917808 52.1643836,46.3671233 52.2520548,46.630137 L11.7479452,46.630137 C11.8356164,46.2794521 11.8356164,45.9287671 11.8356164,45.5780822 C11.8356164,42.509589 9.38082192,40.0547945 6.31232877,40.0547945 C5.96164384,40.0547945 5.69863014,40.0547945 5.34794521,40.1424658 L5.34794521,23.309589 C5.69863014,23.3972603 5.96164384,23.3972603 6.31232877,23.3972603 C9.38082192,23.3972603 11.8356164,20.9424658 11.8356164,17.8739726 C11.8356164,17.5232877 11.8356164,17.1726027 11.7479452,16.8219178 L52.339726,16.8219178 C52.2520548,17.260274 52.1643836,17.6986301 52.1643836,18.1369863 C52.1643836,21.2054795 54.6191781,23.660274 57.6876712,23.660274 C58.1260274,23.660274 58.6520548,23.5726027 59.090411,23.4849315 L59.090411,40.5808219 L59.090411,40.5808219 Z M32.5260274,19.7150685 C25.8630137,19.7150685 20.5150685,25.0630137 20.5150685,31.7260274 C20.5150685,38.3890411 25.8630137,43.7369863 32.5260274,43.7369863 C39.1890411,43.7369863 44.5369863,38.3890411 44.5369863,31.7260274 C44.5369863,25.1506849 39.1890411,19.7150685 32.5260274,19.7150685 Z M36.0328767,36.460274 C35.5068493,37.0739726 34.8054795,37.5123288 34.0164384,37.7753425 C33.6657534,37.8630137 33.490411,38.0383562 33.490411,38.3890411 L33.490411,39.4410959 C33.490411,39.7917808 33.3150685,39.9671233 33.0520548,39.9671233 L31.9123288,39.9671233 C31.5616438,39.9671233 31.3863014,39.7917808 31.3863014,39.4410959 L31.3863014,38.6520548 C31.3863014,38.1260274 31.3863014,38.0383562 30.860274,37.9506849 C30.1589041,37.8630137 29.4575342,37.6876712 28.8438356,37.3369863 C28.3178082,37.0739726 28.3178082,36.9863014 28.4054795,36.460274 C28.4931507,36.0219178 28.6684932,35.6712329 28.7561644,35.3205479 C28.9315068,34.8821918 29.0191781,34.7945205 29.4575342,35.0575342 C30.1589041,35.4082192 30.9479452,35.6712329 31.7369863,35.7589041 C32.2630137,35.8465753 32.7013699,35.7589041 33.2273973,35.5835616 C34.1041096,35.2328767 34.2794521,34.1808219 33.490411,33.5671233 C33.2273973,33.3917808 32.9643836,33.2164384 32.6136986,33.0410959 C31.8246575,32.690411 31.0356164,32.4273973 30.3342466,31.9890411 C29.1945205,31.2876712 28.4054795,30.3232877 28.4931507,28.8328767 C28.5808219,27.1671233 29.5452055,26.2027397 31.0356164,25.6767123 C31.6493151,25.4136986 31.6493151,25.5013699 31.6493151,24.8 L31.6493151,24.1863014 C31.6493151,23.660274 31.7369863,23.5726027 32.2630137,23.5726027 L32.7013699,23.5726027 C33.7534247,23.5726027 33.7534247,23.5726027 33.7534247,24.6246575 C33.7534247,25.3260274 33.7534247,25.3260274 34.4547945,25.5013699 C34.9808219,25.5890411 35.5068493,25.7643836 36.0328767,26.0273973 C36.2958904,26.1150685 36.4712329,26.3780822 36.3835616,26.6410959 C36.2958904,27.0794521 36.1205479,27.5178082 35.9452055,27.9561644 C35.769863,28.3945205 35.6821918,28.4821918 35.2438356,28.2191781 C34.4547945,27.8684932 33.5780822,27.6931507 32.7013699,27.6931507 C32.4383562,27.6931507 32.2630137,27.7808219 32,27.8684932 C31.2109589,28.2191781 31.1232877,29.0082192 31.7369863,29.6219178 C32.0876712,29.8849315 32.4383562,30.060274 32.8767123,30.2356164 C33.5780822,30.4986301 34.2794521,30.7616438 34.8931507,31.1123288 C36.909589,32.0767123 37.4356164,34.7068493 36.0328767,36.460274 Z" id="Combined-Shape"></path>
        </g>
    </g>
</svg>