<?xml version="1.0" encoding="UTF-8" standalone="no"?>
<svg width="80px" height="80px" viewBox="0 0 80 80" version="1.1" xmlns="http://www.w3.org/2000/svg" xmlns:xlink="http://www.w3.org/1999/xlink" style="background: #FFFFFF;">
    <!-- Generator: Sketch 3.8.3 (29802) - http://www.bohemiancoding.com/sketch -->
    <title>icon-login-qrcode</title>
    <desc>Created with Sketch.</desc>
    <defs>
        <polygon id="path-1" points="0 8 72 80 0 80"></polygon>
        <filter x="-50%" y="-50%" width="200%" height="200%" filterUnits="objectBoundingBox" id="filter-2">
            <feOffset dx="0" dy="1" in="SourceAlpha" result="shadowOffsetOuter1"></feOffset>
            <feGaussianBlur stdDeviation="3" in="shadowOffsetOuter1" result="shadowBlurOuter1"></feGaussianBlur>
            <feColorMatrix values="0 0 0 0 0   0 0 0 0 0   0 0 0 0 0  0 0 0 0.24 0" type="matrix" in="shadowBlurOuter1"></feColorMatrix>
        </filter>
    </defs>
    <g id="Page-1" stroke="none" stroke-width="1" fill="none" fill-rule="evenodd">
        <g id="QRcode">
            <rect id="Rectangle-332" fill="#FFFFFF" x="0" y="0" width="80" height="80"></rect>
            <g id="tt-qrcode" transform="translate(8.000000, 8.000000)" fill="#000000">
                <g id="quickmark">
                    <rect id="Rectangle-path" x="0" y="0" width="2.56" height="2.56"></rect>
                    <rect id="Rectangle-path" x="2.56" y="0" width="2.56" height="2.56"></rect>
                    <rect id="Rectangle-path" x="5.12" y="0" width="2.56" height="2.56"></rect>
                    <rect id="Rectangle-path" x="7.68" y="0" width="2.56" height="2.56"></rect>
                    <rect id="Rectangle-path" x="10.24" y="0" width="2.56" height="2.56"></rect>
                    <rect id="Rectangle-path" x="12.8" y="0" width="2.56" height="2.56"></rect>
                    <rect id="Rectangle-path" x="15.36" y="0" width="2.56" height="2.56"></rect>
                    <rect id="Rectangle-path" x="20.48" y="0" width="2.56" height="2.56"></rect>
                    <rect id="Rectangle-path" x="28.16" y="0" width="2.56" height="2.56"></rect>
                    <rect id="Rectangle-path" x="30.72" y="0" width="2.56" height="2.56"></rect>
                    <rect id="Rectangle-path" x="33.28" y="0" width="2.56" height="2.56"></rect>
                    <rect id="Rectangle-path" x="35.84" y="0" width="2.56" height="2.56"></rect>
                    <rect id="Rectangle-path" x="46.08" y="0" width="2.56" height="2.56"></rect>
                    <rect id="Rectangle-path" x="48.64" y="0" width="2.56" height="2.56"></rect>
                    <rect id="Rectangle-path" x="51.2" y="0" width="2.56" height="2.56"></rect>
                    <rect id="Rectangle-path" x="53.76" y="0" width="2.56" height="2.56"></rect>
                    <rect id="Rectangle-path" x="56.32" y="0" width="2.56" height="2.56"></rect>
                    <rect id="Rectangle-path" x="58.88" y="0" width="2.56" height="2.56"></rect>
                    <rect id="Rectangle-path" x="61.44" y="0" width="2.56" height="2.56"></rect>
                    <rect id="Rectangle-path" x="0" y="2.56" width="2.56" height="2.56"></rect>
                    <rect id="Rectangle-path" x="15.36" y="2.56" width="2.56" height="2.56"></rect>
                    <rect id="Rectangle-path" x="20.48" y="2.56" width="2.56" height="2.56"></rect>
                    <rect id="Rectangle-path" x="30.72" y="2.56" width="2.56" height="2.56"></rect>
                    <rect id="Rectangle-path" x="35.84" y="2.56" width="2.56" height="2.56"></rect>
                    <rect id="Rectangle-path" x="46.08" y="2.56" width="2.56" height="2.56"></rect>
                    <rect id="Rectangle-path" x="61.44" y="2.56" width="2.56" height="2.56"></rect>
                    <rect id="Rectangle-path" x="0" y="5.12" width="2.56" height="2.56"></rect>
                    <rect id="Rectangle-path" x="5.12" y="5.12" width="2.56" height="2.56"></rect>
                    <rect id="Rectangle-path" x="7.68" y="5.12" width="2.56" height="2.56"></rect>
                    <rect id="Rectangle-path" x="10.24" y="5.12" width="2.56" height="2.56"></rect>
                    <rect id="Rectangle-path" x="15.36" y="5.12" width="2.56" height="2.56"></rect>
                    <rect id="Rectangle-path" x="20.48" y="5.12" width="2.56" height="2.56"></rect>
                    <rect id="Rectangle-path" x="23.04" y="5.12" width="2.56" height="2.56"></rect>
                    <rect id="Rectangle-path" x="30.72" y="5.12" width="2.56" height="2.56"></rect>
                    <rect id="Rectangle-path" x="33.28" y="5.12" width="2.56" height="2.56"></rect>
                    <rect id="Rectangle-path" x="35.84" y="5.12" width="2.56" height="2.56"></rect>
                    <rect id="Rectangle-path" x="46.08" y="5.12" width="2.56" height="2.56"></rect>
                    <rect id="Rectangle-path" x="51.2" y="5.12" width="2.56" height="2.56"></rect>
                    <rect id="Rectangle-path" x="53.76" y="5.12" width="2.56" height="2.56"></rect>
                    <rect id="Rectangle-path" x="56.32" y="5.12" width="2.56" height="2.56"></rect>
                    <rect id="Rectangle-path" x="61.44" y="5.12" width="2.56" height="2.56"></rect>
                    <rect id="Rectangle-path" x="0" y="7.68" width="2.56" height="2.56"></rect>
                    <rect id="Rectangle-path" x="5.12" y="7.68" width="2.56" height="2.56"></rect>
                    <rect id="Rectangle-path" x="7.68" y="7.68" width="2.56" height="2.56"></rect>
                    <rect id="Rectangle-path" x="10.24" y="7.68" width="2.56" height="2.56"></rect>
                    <rect id="Rectangle-path" x="15.36" y="7.68" width="2.56" height="2.56"></rect>
                    <rect id="Rectangle-path" x="33.28" y="7.68" width="2.56" height="2.56"></rect>
                    <rect id="Rectangle-path" x="38.4" y="7.68" width="2.56" height="2.56"></rect>
                    <rect id="Rectangle-path" x="40.96" y="7.68" width="2.56" height="2.56"></rect>
                    <rect id="Rectangle-path" x="46.08" y="7.68" width="2.56" height="2.56"></rect>
                    <rect id="Rectangle-path" x="51.2" y="7.68" width="2.56" height="2.56"></rect>
                    <rect id="Rectangle-path" x="53.76" y="7.68" width="2.56" height="2.56"></rect>
                    <rect id="Rectangle-path" x="56.32" y="7.68" width="2.56" height="2.56"></rect>
                    <rect id="Rectangle-path" x="61.44" y="7.68" width="2.56" height="2.56"></rect>
                    <rect id="Rectangle-path" x="0" y="10.24" width="2.56" height="2.56"></rect>
                    <rect id="Rectangle-path" x="5.12" y="10.24" width="2.56" height="2.56"></rect>
                    <rect id="Rectangle-path" x="7.68" y="10.24" width="2.56" height="2.56"></rect>
                    <rect id="Rectangle-path" x="10.24" y="10.24" width="2.56" height="2.56"></rect>
                    <rect id="Rectangle-path" x="15.36" y="10.24" width="2.56" height="2.56"></rect>
                    <rect id="Rectangle-path" x="20.48" y="10.24" width="2.56" height="2.56"></rect>
                    <rect id="Rectangle-path" x="23.04" y="10.24" width="2.56" height="2.56"></rect>
                    <rect id="Rectangle-path" x="25.6" y="10.24" width="2.56" height="2.56"></rect>
                    <rect id="Rectangle-path" x="33.28" y="10.24" width="2.56" height="2.56"></rect>
                    <rect id="Rectangle-path" x="35.84" y="10.24" width="2.56" height="2.56"></rect>
                    <rect id="Rectangle-path" x="46.08" y="10.24" width="2.56" height="2.56"></rect>
                    <rect id="Rectangle-path" x="51.2" y="10.24" width="2.56" height="2.56"></rect>
                    <rect id="Rectangle-path" x="53.76" y="10.24" width="2.56" height="2.56"></rect>
                    <rect id="Rectangle-path" x="56.32" y="10.24" width="2.56" height="2.56"></rect>
                    <rect id="Rectangle-path" x="61.44" y="10.24" width="2.56" height="2.56"></rect>
                    <rect id="Rectangle-path" x="0" y="12.8" width="2.56" height="2.56"></rect>
                    <rect id="Rectangle-path" x="15.36" y="12.8" width="2.56" height="2.56"></rect>
                    <rect id="Rectangle-path" x="23.04" y="12.8" width="2.56" height="2.56"></rect>
                    <rect id="Rectangle-path" x="33.28" y="12.8" width="2.56" height="2.56"></rect>
                    <rect id="Rectangle-path" x="35.84" y="12.8" width="2.56" height="2.56"></rect>
                    <rect id="Rectangle-path" x="46.08" y="12.8" width="2.56" height="2.56"></rect>
                    <rect id="Rectangle-path" x="61.44" y="12.8" width="2.56" height="2.56"></rect>
                    <rect id="Rectangle-path" x="0" y="15.36" width="2.56" height="2.56"></rect>
                    <rect id="Rectangle-path" x="2.56" y="15.36" width="2.56" height="2.56"></rect>
                    <rect id="Rectangle-path" x="5.12" y="15.36" width="2.56" height="2.56"></rect>
                    <rect id="Rectangle-path" x="7.68" y="15.36" width="2.56" height="2.56"></rect>
                    <rect id="Rectangle-path" x="10.24" y="15.36" width="2.56" height="2.56"></rect>
                    <rect id="Rectangle-path" x="12.8" y="15.36" width="2.56" height="2.56"></rect>
                    <rect id="Rectangle-path" x="15.36" y="15.36" width="2.56" height="2.56"></rect>
                    <rect id="Rectangle-path" x="20.48" y="15.36" width="2.56" height="2.56"></rect>
                    <rect id="Rectangle-path" x="25.6" y="15.36" width="2.56" height="2.56"></rect>
                    <rect id="Rectangle-path" x="30.72" y="15.36" width="2.56" height="2.56"></rect>
                    <rect id="Rectangle-path" x="35.84" y="15.36" width="2.56" height="2.56"></rect>
                    <rect id="Rectangle-path" x="40.96" y="15.36" width="2.56" height="2.56"></rect>
                    <rect id="Rectangle-path" x="46.08" y="15.36" width="2.56" height="2.56"></rect>
                    <rect id="Rectangle-path" x="48.64" y="15.36" width="2.56" height="2.56"></rect>
                    <rect id="Rectangle-path" x="51.2" y="15.36" width="2.56" height="2.56"></rect>
                    <rect id="Rectangle-path" x="53.76" y="15.36" width="2.56" height="2.56"></rect>
                    <rect id="Rectangle-path" x="56.32" y="15.36" width="2.56" height="2.56"></rect>
                    <rect id="Rectangle-path" x="58.88" y="15.36" width="2.56" height="2.56"></rect>
                    <rect id="Rectangle-path" x="61.44" y="15.36" width="2.56" height="2.56"></rect>
                    <rect id="Rectangle-path" x="23.04" y="17.92" width="2.56" height="2.56"></rect>
                    <rect id="Rectangle-path" x="25.6" y="17.92" width="2.56" height="2.56"></rect>
                    <rect id="Rectangle-path" x="28.16" y="17.92" width="2.56" height="2.56"></rect>
                    <rect id="Rectangle-path" x="30.72" y="17.92" width="2.56" height="2.56"></rect>
                    <rect id="Rectangle-path" x="33.28" y="17.92" width="2.56" height="2.56"></rect>
                    <rect id="Rectangle-path" x="38.4" y="17.92" width="2.56" height="2.56"></rect>
                    <rect id="Rectangle-path" x="40.96" y="17.92" width="2.56" height="2.56"></rect>
                    <rect id="Rectangle-path" x="0" y="20.48" width="2.56" height="2.56"></rect>
                    <rect id="Rectangle-path" x="7.68" y="20.48" width="2.56" height="2.56"></rect>
                    <rect id="Rectangle-path" x="10.24" y="20.48" width="2.56" height="2.56"></rect>
                    <rect id="Rectangle-path" x="12.8" y="20.48" width="2.56" height="2.56"></rect>
                    <rect id="Rectangle-path" x="15.36" y="20.48" width="2.56" height="2.56"></rect>
                    <rect id="Rectangle-path" x="17.92" y="20.48" width="2.56" height="2.56"></rect>
                    <rect id="Rectangle-path" x="20.48" y="20.48" width="2.56" height="2.56"></rect>
                    <rect id="Rectangle-path" x="25.6" y="20.48" width="2.56" height="2.56"></rect>
                    <rect id="Rectangle-path" x="28.16" y="20.48" width="2.56" height="2.56"></rect>
                    <rect id="Rectangle-path" x="30.72" y="20.48" width="2.56" height="2.56"></rect>
                    <rect id="Rectangle-path" x="35.84" y="20.48" width="2.56" height="2.56"></rect>
                    <rect id="Rectangle-path" x="40.96" y="20.48" width="2.56" height="2.56"></rect>
                    <rect id="Rectangle-path" x="43.52" y="20.48" width="2.56" height="2.56"></rect>
                    <rect id="Rectangle-path" x="51.2" y="20.48" width="2.56" height="2.56"></rect>
                    <rect id="Rectangle-path" x="56.32" y="20.48" width="2.56" height="2.56"></rect>
                    <rect id="Rectangle-path" x="58.88" y="20.48" width="2.56" height="2.56"></rect>
                    <rect id="Rectangle-path" x="61.44" y="20.48" width="2.56" height="2.56"></rect>
                    <rect id="Rectangle-path" x="0" y="23.04" width="2.56" height="2.56"></rect>
                    <rect id="Rectangle-path" x="12.8" y="23.04" width="2.56" height="2.56"></rect>
                    <rect id="Rectangle-path" x="17.92" y="23.04" width="2.56" height="2.56"></rect>
                    <rect id="Rectangle-path" x="20.48" y="23.04" width="2.56" height="2.56"></rect>
                    <rect id="Rectangle-path" x="23.04" y="23.04" width="2.56" height="2.56"></rect>
                    <rect id="Rectangle-path" x="25.6" y="23.04" width="2.56" height="2.56"></rect>
                    <rect id="Rectangle-path" x="28.16" y="23.04" width="2.56" height="2.56"></rect>
                    <rect id="Rectangle-path" x="33.28" y="23.04" width="2.56" height="2.56"></rect>
                    <rect id="Rectangle-path" x="35.84" y="23.04" width="2.56" height="2.56"></rect>
                    <rect id="Rectangle-path" x="38.4" y="23.04" width="2.56" height="2.56"></rect>
                    <rect id="Rectangle-path" x="43.52" y="23.04" width="2.56" height="2.56"></rect>
                    <rect id="Rectangle-path" x="48.64" y="23.04" width="2.56" height="2.56"></rect>
                    <rect id="Rectangle-path" x="51.2" y="23.04" width="2.56" height="2.56"></rect>
                    <rect id="Rectangle-path" x="53.76" y="23.04" width="2.56" height="2.56"></rect>
                    <rect id="Rectangle-path" x="56.32" y="23.04" width="2.56" height="2.56"></rect>
                    <rect id="Rectangle-path" x="58.88" y="23.04" width="2.56" height="2.56"></rect>
                    <rect id="Rectangle-path" x="2.56" y="25.6" width="2.56" height="2.56"></rect>
                    <rect id="Rectangle-path" x="5.12" y="25.6" width="2.56" height="2.56"></rect>
                    <rect id="Rectangle-path" x="7.68" y="25.6" width="2.56" height="2.56"></rect>
                    <rect id="Rectangle-path" x="10.24" y="25.6" width="2.56" height="2.56"></rect>
                    <rect id="Rectangle-path" x="12.8" y="25.6" width="2.56" height="2.56"></rect>
                    <rect id="Rectangle-path" x="15.36" y="25.6" width="2.56" height="2.56"></rect>
                    <rect id="Rectangle-path" x="17.92" y="25.6" width="2.56" height="2.56"></rect>
                    <rect id="Rectangle-path" x="20.48" y="25.6" width="2.56" height="2.56"></rect>
                    <rect id="Rectangle-path" x="28.16" y="25.6" width="2.56" height="2.56"></rect>
                    <rect id="Rectangle-path" x="38.4" y="25.6" width="2.56" height="2.56"></rect>
                    <rect id="Rectangle-path" x="40.96" y="25.6" width="2.56" height="2.56"></rect>
                    <rect id="Rectangle-path" x="46.08" y="25.6" width="2.56" height="2.56"></rect>
                    <rect id="Rectangle-path" x="48.64" y="25.6" width="2.56" height="2.56"></rect>
                    <rect id="Rectangle-path" x="53.76" y="25.6" width="2.56" height="2.56"></rect>
                    <rect id="Rectangle-path" x="61.44" y="25.6" width="2.56" height="2.56"></rect>
                    <rect id="Rectangle-path" x="2.56" y="28.16" width="2.56" height="2.56"></rect>
                    <rect id="Rectangle-path" x="7.68" y="28.16" width="2.56" height="2.56"></rect>
                    <rect id="Rectangle-path" x="10.24" y="28.16" width="2.56" height="2.56"></rect>
                    <rect id="Rectangle-path" x="17.92" y="28.16" width="2.56" height="2.56"></rect>
                    <rect id="Rectangle-path" x="25.6" y="28.16" width="2.56" height="2.56"></rect>
                    <rect id="Rectangle-path" x="35.84" y="28.16" width="2.56" height="2.56"></rect>
                    <rect id="Rectangle-path" x="40.96" y="28.16" width="2.56" height="2.56"></rect>
                    <rect id="Rectangle-path" x="48.64" y="28.16" width="2.56" height="2.56"></rect>
                    <rect id="Rectangle-path" x="53.76" y="28.16" width="2.56" height="2.56"></rect>
                    <rect id="Rectangle-path" x="56.32" y="28.16" width="2.56" height="2.56"></rect>
                    <rect id="Rectangle-path" x="58.88" y="28.16" width="2.56" height="2.56"></rect>
                    <rect id="Rectangle-path" x="61.44" y="28.16" width="2.56" height="2.56"></rect>
                    <rect id="Rectangle-path" x="5.12" y="30.72" width="2.56" height="2.56"></rect>
                    <rect id="Rectangle-path" x="10.24" y="30.72" width="2.56" height="2.56"></rect>
                    <rect id="Rectangle-path" x="12.8" y="30.72" width="2.56" height="2.56"></rect>
                    <rect id="Rectangle-path" x="15.36" y="30.72" width="2.56" height="2.56"></rect>
                    <rect id="Rectangle-path" x="17.92" y="30.72" width="2.56" height="2.56"></rect>
                    <rect id="Rectangle-path" x="23.04" y="30.72" width="2.56" height="2.56"></rect>
                    <rect id="Rectangle-path" x="28.16" y="30.72" width="2.56" height="2.56"></rect>
                    <rect id="Rectangle-path" x="35.84" y="30.72" width="2.56" height="2.56"></rect>
                    <rect id="Rectangle-path" x="38.4" y="30.72" width="2.56" height="2.56"></rect>
                    <rect id="Rectangle-path" x="40.96" y="30.72" width="2.56" height="2.56"></rect>
                    <rect id="Rectangle-path" x="43.52" y="30.72" width="2.56" height="2.56"></rect>
                    <rect id="Rectangle-path" x="46.08" y="30.72" width="2.56" height="2.56"></rect>
                    <rect id="Rectangle-path" x="61.44" y="30.72" width="2.56" height="2.56"></rect>
                    <rect id="Rectangle-path" x="10.24" y="33.28" width="2.56" height="2.56"></rect>
                    <rect id="Rectangle-path" x="20.48" y="33.28" width="2.56" height="2.56"></rect>
                    <rect id="Rectangle-path" x="23.04" y="33.28" width="2.56" height="2.56"></rect>
                    <rect id="Rectangle-path" x="30.72" y="33.28" width="2.56" height="2.56"></rect>
                    <rect id="Rectangle-path" x="35.84" y="33.28" width="2.56" height="2.56"></rect>
                    <rect id="Rectangle-path" x="38.4" y="33.28" width="2.56" height="2.56"></rect>
                    <rect id="Rectangle-path" x="40.96" y="33.28" width="2.56" height="2.56"></rect>
                    <rect id="Rectangle-path" x="51.2" y="33.28" width="2.56" height="2.56"></rect>
                    <rect id="Rectangle-path" x="58.88" y="33.28" width="2.56" height="2.56"></rect>
                    <rect id="Rectangle-path" x="10.24" y="35.84" width="2.56" height="2.56"></rect>
                    <rect id="Rectangle-path" x="12.8" y="35.84" width="2.56" height="2.56"></rect>
                    <rect id="Rectangle-path" x="15.36" y="35.84" width="2.56" height="2.56"></rect>
                    <rect id="Rectangle-path" x="17.92" y="35.84" width="2.56" height="2.56"></rect>
                    <rect id="Rectangle-path" x="25.6" y="35.84" width="2.56" height="2.56"></rect>
                    <rect id="Rectangle-path" x="35.84" y="35.84" width="2.56" height="2.56"></rect>
                    <rect id="Rectangle-path" x="38.4" y="35.84" width="2.56" height="2.56"></rect>
                    <rect id="Rectangle-path" x="40.96" y="35.84" width="2.56" height="2.56"></rect>
                    <rect id="Rectangle-path" x="43.52" y="35.84" width="2.56" height="2.56"></rect>
                    <rect id="Rectangle-path" x="51.2" y="35.84" width="2.56" height="2.56"></rect>
                    <rect id="Rectangle-path" x="53.76" y="35.84" width="2.56" height="2.56"></rect>
                    <rect id="Rectangle-path" x="56.32" y="35.84" width="2.56" height="2.56"></rect>
                    <rect id="Rectangle-path" x="58.88" y="35.84" width="2.56" height="2.56"></rect>
                    <rect id="Rectangle-path" x="61.44" y="35.84" width="2.56" height="2.56"></rect>
                    <rect id="Rectangle-path" x="2.56" y="38.4" width="2.56" height="2.56"></rect>
                    <rect id="Rectangle-path" x="5.12" y="38.4" width="2.56" height="2.56"></rect>
                    <rect id="Rectangle-path" x="10.24" y="38.4" width="2.56" height="2.56"></rect>
                    <rect id="Rectangle-path" x="23.04" y="38.4" width="2.56" height="2.56"></rect>
                    <rect id="Rectangle-path" x="25.6" y="38.4" width="2.56" height="2.56"></rect>
                    <rect id="Rectangle-path" x="30.72" y="38.4" width="2.56" height="2.56"></rect>
                    <rect id="Rectangle-path" x="35.84" y="38.4" width="2.56" height="2.56"></rect>
                    <rect id="Rectangle-path" x="38.4" y="38.4" width="2.56" height="2.56"></rect>
                    <rect id="Rectangle-path" x="48.64" y="38.4" width="2.56" height="2.56"></rect>
                    <rect id="Rectangle-path" x="51.2" y="38.4" width="2.56" height="2.56"></rect>
                    <rect id="Rectangle-path" x="56.32" y="38.4" width="2.56" height="2.56"></rect>
                    <rect id="Rectangle-path" x="61.44" y="38.4" width="2.56" height="2.56"></rect>
                    <rect id="Rectangle-path" x="2.56" y="40.96" width="2.56" height="2.56"></rect>
                    <rect id="Rectangle-path" x="5.12" y="40.96" width="2.56" height="2.56"></rect>
                    <rect id="Rectangle-path" x="12.8" y="40.96" width="2.56" height="2.56"></rect>
                    <rect id="Rectangle-path" x="15.36" y="40.96" width="2.56" height="2.56"></rect>
                    <rect id="Rectangle-path" x="17.92" y="40.96" width="2.56" height="2.56"></rect>
                    <rect id="Rectangle-path" x="20.48" y="40.96" width="2.56" height="2.56"></rect>
                    <rect id="Rectangle-path" x="28.16" y="40.96" width="2.56" height="2.56"></rect>
                    <rect id="Rectangle-path" x="30.72" y="40.96" width="2.56" height="2.56"></rect>
                    <rect id="Rectangle-path" x="33.28" y="40.96" width="2.56" height="2.56"></rect>
                    <rect id="Rectangle-path" x="40.96" y="40.96" width="2.56" height="2.56"></rect>
                    <rect id="Rectangle-path" x="43.52" y="40.96" width="2.56" height="2.56"></rect>
                    <rect id="Rectangle-path" x="46.08" y="40.96" width="2.56" height="2.56"></rect>
                    <rect id="Rectangle-path" x="48.64" y="40.96" width="2.56" height="2.56"></rect>
                    <rect id="Rectangle-path" x="51.2" y="40.96" width="2.56" height="2.56"></rect>
                    <rect id="Rectangle-path" x="56.32" y="40.96" width="2.56" height="2.56"></rect>
                    <rect id="Rectangle-path" x="58.88" y="40.96" width="2.56" height="2.56"></rect>
                    <rect id="Rectangle-path" x="20.48" y="43.52" width="2.56" height="2.56"></rect>
                    <rect id="Rectangle-path" x="23.04" y="43.52" width="2.56" height="2.56"></rect>
                    <rect id="Rectangle-path" x="28.16" y="43.52" width="2.56" height="2.56"></rect>
                    <rect id="Rectangle-path" x="35.84" y="43.52" width="2.56" height="2.56"></rect>
                    <rect id="Rectangle-path" x="40.96" y="43.52" width="2.56" height="2.56"></rect>
                    <rect id="Rectangle-path" x="51.2" y="43.52" width="2.56" height="2.56"></rect>
                    <rect id="Rectangle-path" x="58.88" y="43.52" width="2.56" height="2.56"></rect>
                    <rect id="Rectangle-path" x="0" y="46.08" width="2.56" height="2.56"></rect>
                    <rect id="Rectangle-path" x="2.56" y="46.08" width="2.56" height="2.56"></rect>
                    <rect id="Rectangle-path" x="5.12" y="46.08" width="2.56" height="2.56"></rect>
                    <rect id="Rectangle-path" x="7.68" y="46.08" width="2.56" height="2.56"></rect>
                    <rect id="Rectangle-path" x="10.24" y="46.08" width="2.56" height="2.56"></rect>
                    <rect id="Rectangle-path" x="12.8" y="46.08" width="2.56" height="2.56"></rect>
                    <rect id="Rectangle-path" x="15.36" y="46.08" width="2.56" height="2.56"></rect>
                    <rect id="Rectangle-path" x="20.48" y="46.08" width="2.56" height="2.56"></rect>
                    <rect id="Rectangle-path" x="25.6" y="46.08" width="2.56" height="2.56"></rect>
                    <rect id="Rectangle-path" x="30.72" y="46.08" width="2.56" height="2.56"></rect>
                    <rect id="Rectangle-path" x="33.28" y="46.08" width="2.56" height="2.56"></rect>
                    <rect id="Rectangle-path" x="40.96" y="46.08" width="2.56" height="2.56"></rect>
                    <rect id="Rectangle-path" x="46.08" y="46.08" width="2.56" height="2.56"></rect>
                    <rect id="Rectangle-path" x="51.2" y="46.08" width="2.56" height="2.56"></rect>
                    <rect id="Rectangle-path" x="53.76" y="46.08" width="2.56" height="2.56"></rect>
                    <rect id="Rectangle-path" x="61.44" y="46.08" width="2.56" height="2.56"></rect>
                    <rect id="Rectangle-path" x="0" y="48.64" width="2.56" height="2.56"></rect>
                    <rect id="Rectangle-path" x="15.36" y="48.64" width="2.56" height="2.56"></rect>
                    <rect id="Rectangle-path" x="20.48" y="48.64" width="2.56" height="2.56"></rect>
                    <rect id="Rectangle-path" x="23.04" y="48.64" width="2.56" height="2.56"></rect>
                    <rect id="Rectangle-path" x="28.16" y="48.64" width="2.56" height="2.56"></rect>
                    <rect id="Rectangle-path" x="33.28" y="48.64" width="2.56" height="2.56"></rect>
                    <rect id="Rectangle-path" x="35.84" y="48.64" width="2.56" height="2.56"></rect>
                    <rect id="Rectangle-path" x="38.4" y="48.64" width="2.56" height="2.56"></rect>
                    <rect id="Rectangle-path" x="40.96" y="48.64" width="2.56" height="2.56"></rect>
                    <rect id="Rectangle-path" x="51.2" y="48.64" width="2.56" height="2.56"></rect>
                    <rect id="Rectangle-path" x="61.44" y="48.64" width="2.56" height="2.56"></rect>
                    <rect id="Rectangle-path" x="0" y="51.2" width="2.56" height="2.56"></rect>
                    <rect id="Rectangle-path" x="5.12" y="51.2" width="2.56" height="2.56"></rect>
                    <rect id="Rectangle-path" x="7.68" y="51.2" width="2.56" height="2.56"></rect>
                    <rect id="Rectangle-path" x="10.24" y="51.2" width="2.56" height="2.56"></rect>
                    <rect id="Rectangle-path" x="15.36" y="51.2" width="2.56" height="2.56"></rect>
                    <rect id="Rectangle-path" x="20.48" y="51.2" width="2.56" height="2.56"></rect>
                    <rect id="Rectangle-path" x="25.6" y="51.2" width="2.56" height="2.56"></rect>
                    <rect id="Rectangle-path" x="28.16" y="51.2" width="2.56" height="2.56"></rect>
                    <rect id="Rectangle-path" x="30.72" y="51.2" width="2.56" height="2.56"></rect>
                    <rect id="Rectangle-path" x="35.84" y="51.2" width="2.56" height="2.56"></rect>
                    <rect id="Rectangle-path" x="38.4" y="51.2" width="2.56" height="2.56"></rect>
                    <rect id="Rectangle-path" x="40.96" y="51.2" width="2.56" height="2.56"></rect>
                    <rect id="Rectangle-path" x="43.52" y="51.2" width="2.56" height="2.56"></rect>
                    <rect id="Rectangle-path" x="46.08" y="51.2" width="2.56" height="2.56"></rect>
                    <rect id="Rectangle-path" x="48.64" y="51.2" width="2.56" height="2.56"></rect>
                    <rect id="Rectangle-path" x="51.2" y="51.2" width="2.56" height="2.56"></rect>
                    <rect id="Rectangle-path" x="53.76" y="51.2" width="2.56" height="2.56"></rect>
                    <rect id="Rectangle-path" x="0" y="53.76" width="2.56" height="2.56"></rect>
                    <rect id="Rectangle-path" x="5.12" y="53.76" width="2.56" height="2.56"></rect>
                    <rect id="Rectangle-path" x="7.68" y="53.76" width="2.56" height="2.56"></rect>
                    <rect id="Rectangle-path" x="10.24" y="53.76" width="2.56" height="2.56"></rect>
                    <rect id="Rectangle-path" x="15.36" y="53.76" width="2.56" height="2.56"></rect>
                    <rect id="Rectangle-path" x="20.48" y="53.76" width="2.56" height="2.56"></rect>
                    <rect id="Rectangle-path" x="30.72" y="53.76" width="2.56" height="2.56"></rect>
                    <rect id="Rectangle-path" x="38.4" y="53.76" width="2.56" height="2.56"></rect>
                    <rect id="Rectangle-path" x="40.96" y="53.76" width="2.56" height="2.56"></rect>
                    <rect id="Rectangle-path" x="43.52" y="53.76" width="2.56" height="2.56"></rect>
                    <rect id="Rectangle-path" x="46.08" y="53.76" width="2.56" height="2.56"></rect>
                    <rect id="Rectangle-path" x="48.64" y="53.76" width="2.56" height="2.56"></rect>
                    <rect id="Rectangle-path" x="53.76" y="53.76" width="2.56" height="2.56"></rect>
                    <rect id="Rectangle-path" x="58.88" y="53.76" width="2.56" height="2.56"></rect>
                    <rect id="Rectangle-path" x="61.44" y="53.76" width="2.56" height="2.56"></rect>
                    <rect id="Rectangle-path" x="0" y="56.32" width="2.56" height="2.56"></rect>
                    <rect id="Rectangle-path" x="5.12" y="56.32" width="2.56" height="2.56"></rect>
                    <rect id="Rectangle-path" x="7.68" y="56.32" width="2.56" height="2.56"></rect>
                    <rect id="Rectangle-path" x="10.24" y="56.32" width="2.56" height="2.56"></rect>
                    <rect id="Rectangle-path" x="15.36" y="56.32" width="2.56" height="2.56"></rect>
                    <rect id="Rectangle-path" x="23.04" y="56.32" width="2.56" height="2.56"></rect>
                    <rect id="Rectangle-path" x="28.16" y="56.32" width="2.56" height="2.56"></rect>
                    <rect id="Rectangle-path" x="33.28" y="56.32" width="2.56" height="2.56"></rect>
                    <rect id="Rectangle-path" x="48.64" y="56.32" width="2.56" height="2.56"></rect>
                    <rect id="Rectangle-path" x="51.2" y="56.32" width="2.56" height="2.56"></rect>
                    <rect id="Rectangle-path" x="56.32" y="56.32" width="2.56" height="2.56"></rect>
                    <rect id="Rectangle-path" x="58.88" y="56.32" width="2.56" height="2.56"></rect>
                    <rect id="Rectangle-path" x="61.44" y="56.32" width="2.56" height="2.56"></rect>
                    <rect id="Rectangle-path" x="0" y="58.88" width="2.56" height="2.56"></rect>
                    <rect id="Rectangle-path" x="15.36" y="58.88" width="2.56" height="2.56"></rect>
                    <rect id="Rectangle-path" x="23.04" y="58.88" width="2.56" height="2.56"></rect>
                    <rect id="Rectangle-path" x="25.6" y="58.88" width="2.56" height="2.56"></rect>
                    <rect id="Rectangle-path" x="35.84" y="58.88" width="2.56" height="2.56"></rect>
                    <rect id="Rectangle-path" x="43.52" y="58.88" width="2.56" height="2.56"></rect>
                    <rect id="Rectangle-path" x="46.08" y="58.88" width="2.56" height="2.56"></rect>
                    <rect id="Rectangle-path" x="48.64" y="58.88" width="2.56" height="2.56"></rect>
                    <rect id="Rectangle-path" x="51.2" y="58.88" width="2.56" height="2.56"></rect>
                    <rect id="Rectangle-path" x="56.32" y="58.88" width="2.56" height="2.56"></rect>
                    <rect id="Rectangle-path" x="58.88" y="58.88" width="2.56" height="2.56"></rect>
                    <rect id="Rectangle-path" x="61.44" y="58.88" width="2.56" height="2.56"></rect>
                    <rect id="Rectangle-path" x="0" y="61.44" width="2.56" height="2.56"></rect>
                    <rect id="Rectangle-path" x="2.56" y="61.44" width="2.56" height="2.56"></rect>
                    <rect id="Rectangle-path" x="5.12" y="61.44" width="2.56" height="2.56"></rect>
                    <rect id="Rectangle-path" x="7.68" y="61.44" width="2.56" height="2.56"></rect>
                    <rect id="Rectangle-path" x="10.24" y="61.44" width="2.56" height="2.56"></rect>
                    <rect id="Rectangle-path" x="12.8" y="61.44" width="2.56" height="2.56"></rect>
                    <rect id="Rectangle-path" x="15.36" y="61.44" width="2.56" height="2.56"></rect>
                    <rect id="Rectangle-path" x="20.48" y="61.44" width="2.56" height="2.56"></rect>
                    <rect id="Rectangle-path" x="23.04" y="61.44" width="2.56" height="2.56"></rect>
                    <rect id="Rectangle-path" x="30.72" y="61.44" width="2.56" height="2.56"></rect>
                    <rect id="Rectangle-path" x="35.84" y="61.44" width="2.56" height="2.56"></rect>
                    <rect id="Rectangle-path" x="40.96" y="61.44" width="2.56" height="2.56"></rect>
                    <rect id="Rectangle-path" x="53.76" y="61.44" width="2.56" height="2.56"></rect>
                    <rect id="Rectangle-path" x="61.44" y="61.44" width="2.56" height="2.56"></rect>
                </g>
            </g>
            <g id="Rectangle-332">
                <use fill="black" fill-opacity="1" filter="url(#filter-2)" xlink:href="#path-1"></use>
                <use fill="#FFFFFF" fill-rule="evenodd" xlink:href="#path-1"></use>
            </g>
        </g>
    </g>
</svg>