<?xml version="1.0" encoding="UTF-8" standalone="no"?>
<svg width="64px" height="64px" viewBox="0 0 64 64" version="1.1" xmlns="http://www.w3.org/2000/svg" xmlns:xlink="http://www.w3.org/1999/xlink">
    <!-- Generator: Sketch 39.1 (31720) - http://www.bohemiancoding.com/sketch -->
    <title>icon-repair-b</title>
    <desc>Created with Sketch.</desc>
    <defs></defs>
    <g id="Page-7" stroke="none" stroke-width="1" fill="none" fill-rule="evenodd">
        <g id="icon-repair-b" fill="#6F7274">
            <path d="M51.94,58 L12.135,58.001 C8.677,57.92 5.926,55.042 6.003,51.519 L6.003,44.357 L18.43,44.357 L13.383,49.406 C13.368,49.421 13.353,49.436 13.338,49.452 C12.313,50.501 12.334,52.182 13.383,53.206 C13.419,53.244 13.455,53.28 13.493,53.316 C14.538,54.3 16.183,54.251 17.168,53.206 L26.768,43.606 L26.844,43.548 C27.876,42.498 27.876,40.814 26.844,39.763 L17.17,29.132 C16.119,28.087 14.419,28.092 13.374,29.143 C12.329,30.194 12.334,31.894 13.385,32.939 L13.386,32.946 L18.433,38.946 L6.003,38.946 L6.003,24.907 L58.003,24.907 L58.003,51.585 C58.08,55.043 55.329,57.921 51.94,58 L51.94,58 Z M12.065,6 L51.902,6 C55.345,6.096 58.08,8.968 58.002,12.482 L58.003,18.907 L6.003,18.907 L6.002,12.416 C5.926,8.958 8.677,6.08 12.065,6 L12.065,6 Z M64.002,12.548 C64.151,5.786 58.772,0.157 52.009,0.001 C51.986,0 51.963,0 51.94,0 L11.995,0.001 C5.234,0.158 -0.145,5.787 0.003,12.482 L0.003,51.452 C-0.145,58.214 5.234,63.842 12.065,64 L52.009,63.999 C58.772,63.843 64.151,58.215 64.003,51.519 L64.002,12.548 Z M30.3921,16.3111 C32.4261,16.3111 34.0751,14.6691 34.0751,12.6431 C34.0751,10.6171 32.4261,8.9751 30.3921,8.9751 C28.3581,8.9751 26.7091,10.6171 26.7091,12.6431 C26.7091,14.6691 28.3581,16.3111 30.3921,16.3111 Z M40.8812,16.32 C42.9042,16.532 44.7162,15.064 44.9282,13.041 C44.9292,13.033 44.9302,13.026 44.9302,13.018 C45.1382,11.004 43.6732,9.202 41.6582,8.995 C41.6552,8.995 41.6522,8.994 41.6492,8.994 C39.6262,8.782 37.8142,10.25 37.6022,12.273 C37.3902,14.296 38.8582,16.108 40.8812,16.32 Z M50.8502,16.32 C52.8732,16.532 54.6852,15.064 54.8972,13.041 C54.8982,13.033 54.8992,13.026 54.8992,13.018 C55.1072,11.004 53.6422,9.202 51.6272,8.995 C51.6242,8.995 51.6212,8.994 51.6182,8.994 C49.5952,8.782 47.7832,10.25 47.5712,12.273 C47.3592,14.296 48.8272,16.108 50.8502,16.32 Z M52.8892,30.709 L32.9032,30.709 C31.5822,30.682 30.4892,31.752 30.4722,33.167 C30.4972,33.803 30.7682,34.391 31.2362,34.821 C31.6802,35.231 32.2502,35.454 32.8182,35.454 C32.8472,35.454 32.8772,35.453 32.9062,35.452 L52.9212,35.453 L52.9402,35.453 C53.5682,35.453 54.1592,35.211 54.6062,34.771 C55.0582,34.326 55.3102,33.731 55.3152,33.075 C55.3062,32.434 55.0472,31.834 54.5882,31.388 C54.1292,30.943 53.5182,30.684 52.8892,30.709 Z M47.2428,47.9014 L32.9448,47.9014 L32.9238,47.9004 C31.6208,47.9044 30.5078,48.9044 30.4708,50.2904 C30.4878,50.9314 30.7528,51.5284 31.2178,51.9694 C31.6668,52.3964 32.2518,52.6294 32.8448,52.6294 C32.8658,52.6294 32.8858,52.6294 32.9068,52.6284 L47.2438,52.6284 L47.2628,52.6284 C48.5638,52.6284 49.6428,51.5734 49.6708,50.2144 C49.6268,48.9174 48.5198,47.8904 47.2428,47.9014 Z M52.942,39.6318 C52.926,39.6318 52.911,39.6318 52.895,39.6328 L32.878,39.6308 C31.544,39.6218 30.486,40.6708 30.471,42.0378 C30.487,42.6798 30.753,43.2768 31.217,43.7178 C31.667,44.1448 32.252,44.3768 32.845,44.3768 C32.865,44.3768 32.886,44.3768 32.906,44.3758 L52.882,44.3758 L52.917,44.3758 C53.545,44.3758 54.138,44.1358 54.589,43.6958 C55.048,43.2488 55.306,42.6508 55.313,41.9268 C55.27,40.6458 54.214,39.6318 52.942,39.6318 Z" id="Combined-Shape"></path>
        </g>
    </g>
</svg>