<?xml version="1.0" encoding="UTF-8" standalone="no"?>
<svg width="64px" height="64px" viewBox="0 0 64 64" version="1.1" xmlns="http://www.w3.org/2000/svg" xmlns:xlink="http://www.w3.org/1999/xlink">
    <!-- Generator: Sketch 39.1 (31720) - http://www.bohemiancoding.com/sketch -->
    <title>icon-edit</title>
    <desc>Created with Sketch.</desc>
    <defs></defs>
    <g id="header" stroke="none" stroke-width="1" fill="none" fill-rule="evenodd">
        <g id="icon-edit" fill="#6F7274">
            <path d="M56.9156,24.15 L54.5156,26.65 L52.9156,28.25 L52.4156,28.65 L34.9156,11.15 L36.9156,9.15 L39.3156,6.75 C40.1156,5.95 41.3156,5.45 42.5156,5.45 C43.7156,5.45 44.9156,5.95 45.7156,6.75 L56.9156,17.95 C57.8156,18.65 58.2156,19.75 58.2156,20.95 C58.2156,22.15 57.7156,23.25 56.9156,24.15 L56.9156,24.15 Z M23.6156,57.55 L20.4156,54.35 L45.5156,29.25 L48.7156,32.45 L23.6156,57.55 Z M11.5156,45.35 L36.6156,20.35 L43.3156,27.05 L18.1156,52.05 L11.5156,45.35 Z M4.9156,58.55 L4.9156,46.35 L17.1156,58.55 L4.9156,58.55 Z M31.1156,14.85 L34.3156,18.05 L9.2156,43.15 L6.0156,39.95 L31.1156,14.85 Z M60.6156,14.05 L49.5156,2.85 C45.6156,-0.95 39.4156,-0.95 35.6156,2.85 C23.9156,14.55 12.1156,26.35 0.4156,38.05 L0.3156,38.15 L0.3156,38.25 L0.2156,38.25 L0.1156,38.35 L0.1156,38.45 L0.1156,38.55 L0.1156,38.65 L0.1156,38.75 L0.1156,38.85 L0.1156,38.95 L0.1156,39.25 L0.1156,39.35 L0.1156,60.75 C-0.3844,62.75 0.8156,63.95 2.2156,63.95 L23.8156,63.95 L23.9156,63.95 L24.0156,63.95 L24.1156,63.95 L24.2156,63.95 L24.3156,63.95 L24.6156,63.85 L24.7156,63.75 L24.8156,63.75 L24.9156,63.75 L25.0156,63.75 L25.1156,63.75 L25.2156,63.75 L25.3156,63.75 L25.5156,63.55 C37.2156,51.45 48.9156,39.75 60.7156,27.95 C62.5156,26.15 63.6156,23.65 63.5156,20.95 C63.5156,18.35 62.5156,15.85 60.6156,14.05 L60.6156,14.05 Z" id="Fill-1"></path>
        </g>
    </g>
</svg>