<?xml version="1.0" encoding="UTF-8"?>
<svg width="32px" height="32px" viewBox="0 0 32 32" version="1.1" xmlns="http://www.w3.org/2000/svg" xmlns:xlink="http://www.w3.org/1999/xlink">
    <!-- Generator: Sketch 52.5 (67469) - http://www.bohemiancoding.com/sketch -->
    <title>icon-loudspeaker-y_</title>
    <desc>Created with Sketch.</desc>
    <g id="icon-loudspeaker-y_" stroke="none" stroke-width="1" fill="none" fill-rule="evenodd">
        <g id="Group-37" transform="translate(4.000000, 3.500000)" stroke="#F3A500" stroke-width="2">
            <path d="M11.404472,6.19972631 L18.3852413,0.758612815 C18.8208366,0.419090933 19.4491933,0.496973893 19.7887152,0.932569275 C19.9256411,1.1082407 20,1.3245969 20,1.54732802 L20,20.6292629 C20,21.1815477 19.5522847,21.6292629 19,21.6292629 C18.8022386,21.6292629 18.6089173,21.5706257 18.4444783,21.4607649 L11.4637091,16.7969534 C11.1859847,16.6114073 11.0192308,16.2994546 11.0192308,15.9654513 L11.0192308,6.98844151 C11.0192308,6.6802152 11.1613692,6.38921113 11.404472,6.19972631 Z" id="Path-5" stroke-linecap="round" stroke-linejoin="round"></path>
            <path d="M11.0192308,15.5 L8,15.5 L9.60796519,21.9318608 C9.83096321,22.8238528 9.345863,23.7405269 8.48290732,24.0578367 L8.36103613,24.1026489 L8.36103613,24.1026489 C7.3639083,24.4692939 6.25835196,23.9581866 5.89170693,22.9610588 C5.86781885,22.8960927 5.84745469,22.8298847 5.83070331,22.7627235 C5.22687913,20.3418157 4.62305495,17.9209078 4.01923077,15.5 C2.01923077,15.5 0.0192307692,13.6076692 0.0192307692,11.5 C0.0192307692,9.39233085 1.88183462,7.5 3.98950377,7.5 L11.0192308,7.5" id="Combined-Shape" stroke-linejoin="round"></path>
            <path d="M20,15.5 C22.1038595,15.5 24,13.6038595 24,11.5 C24,9.39614045 22.1038595,7.5 20,7.5" id="Oval-16"></path>
        </g>
    </g>
</svg>