<?xml version="1.0" encoding="utf-8"?>
<!-- Generator: Adobe Illustrator 22.0.1, SVG Export Plug-In . SVG Version: 6.00 Build 0)  -->
<svg version="1.1" id="圖層_1" xmlns="http://www.w3.org/2000/svg" xmlns:xlink="http://www.w3.org/1999/xlink" x="0px" y="0px"
	 viewBox="0 0 64 64" style="enable-background:new 0 0 64 64;" xml:space="preserve">
<style type="text/css">
	.st0{fill:#F61A13;}
</style>
<title>icon-exclamation-circle-red</title>
<g>
	<path class="st0" d="M31-1C13.3-1-1,13.3-1,31s14.3,32,32,32s32-14.3,32-32S48.7-1,31-1z M31,58C16.1,58,4,45.9,4,31S16.1,4,31,4
		s27,12.1,27,27S45.9,58,31,58z"/>
	<path class="st0" d="M27.7,41.5c-0.9,0.9-1.4,2.1-1.4,3.3c0,1.2,0.5,2.5,1.4,3.3c0.9,0.9,2.1,1.4,3.3,1.4s2.4-0.5,3.3-1.4
		c0.9-0.9,1.4-2.1,1.4-3.3c0-1.3-0.5-2.5-1.4-3.3C32.6,39.7,29.4,39.7,27.7,41.5z"/>
	<path class="st0" d="M30.5,12.5c-3,0.3-5.2,3-4.9,6l1.7,15.6c0.2,1.8,1.6,3.2,3.4,3.4c2.1,0.2,3.9-1.3,4.1-3.4l1.7-15.6
		c0-0.3,0-0.7,0-1.1C36.2,14.4,33.5,12.2,30.5,12.5z"/>
</g>
</svg>
