<?xml version="1.0" encoding="UTF-8" standalone="no"?>
<svg width="64px" height="64px" viewBox="0 0 64 64" version="1.1" xmlns="http://www.w3.org/2000/svg" xmlns:xlink="http://www.w3.org/1999/xlink">
    <!-- Generator: Sketch 39.1 (31720) - http://www.bohemiancoding.com/sketch -->
    <title>icon-plus</title>
    <desc>Created with Sketch.</desc>
    <defs></defs>
    <g id="Page-6" stroke="none" stroke-width="1" fill="none" fill-rule="evenodd">
        <g id="icon-plus" fill="#6F7274">
            <path d="M35,29 L35,6.99100514 C35,5.34275388 33.6568542,4 32,4 C30.3465171,4 29,5.33911861 29,6.99100514 L29,29 L6.99100514,29 C5.34275388,29 4,30.3431458 4,32 C4,33.6534829 5.33911861,35 6.99100514,35 L29,35 L29,57.0089949 C29,58.6572461 30.3431458,60 32,60 C33.6534829,60 35,58.6608814 35,57.0089949 L35,35 L57.0089949,35 C58.6572461,35 60,33.6568542 60,32 C60,30.3465171 58.6608814,29 57.0089949,29 L35,29 Z" id="Combined-Shape"></path>
        </g>
    </g>
</svg>