<?xml version="1.0" encoding="UTF-8" standalone="no"?>
<svg width="64px" height="64px" viewBox="0 0 64 64" version="1.1" xmlns="http://www.w3.org/2000/svg" xmlns:xlink="http://www.w3.org/1999/xlink">
    <!-- Generator: Sketch 39.1 (31720) - http://www.bohemiancoding.com/sketch -->
    <title>icon-repair-a-blue</title>
    <desc>Created with Sketch.</desc>
    <defs></defs>
    <g id="Page-7" stroke="none" stroke-width="1" fill="none" fill-rule="evenodd">
        <g id="icon-repair-a-blue" fill="#0090D4">
            <path d="M51.94,58 L44.585,58 C44.866,57.769 45.151,57.545 45.42,57.294 L45.888,56.855 C52.561,50.187 52.713,39.395 46.328,32.539 L45.887,32.051 C39.122,25.292 28.153,25.218 21.292,31.831 L21.05,32.059 C14.214,38.894 14.214,50.018 21.05,56.854 L21.506,57.294 L21.522,57.294 C21.792,57.545 22.077,57.77 22.358,58.001 L12.135,58.001 C8.677,57.92 5.926,55.042 6.003,51.519 L6.003,24.907 L58.003,24.907 L58.003,51.585 C58.08,55.043 55.329,57.921 51.94,58 L51.94,58 Z M25.218,53.284 L24.926,52.992 C22.646,50.715 21.388,47.685 21.386,44.462 C21.384,41.238 22.637,38.207 24.927,35.915 C27.208,33.634 30.24,32.377 33.465,32.377 L33.466,32.377 C36.691,32.377 39.723,33.633 42.06,35.97 C46.711,40.677 46.687,48.312 42.005,52.988 L41.815,53.179 C37.194,57.604 29.885,57.643 25.218,53.284 L25.218,53.284 Z M12.065,6 L51.902,6 C55.345,6.096 58.08,8.968 58.002,12.482 L58.003,18.907 L6.003,18.907 L6.002,12.416 C5.926,8.958 8.677,6.08 12.065,6 L12.065,6 Z M64.002,12.548 C64.151,5.786 58.772,0.157 52.009,0.001 C51.986,0 51.963,0 51.94,0 L11.995,0.001 C5.234,0.158 -0.145,5.787 0.003,12.482 L0.003,51.452 C-0.145,58.214 5.234,63.842 12.065,64 L52.009,63.999 C58.772,63.843 64.151,58.215 64.003,51.519 L64.002,12.548 Z M30.3921,16.3111 C32.4261,16.3111 34.0751,14.6691 34.0751,12.6431 C34.0751,10.6171 32.4261,8.9751 30.3921,8.9751 C28.3581,8.9751 26.7091,10.6171 26.7091,12.6431 C26.7091,14.6691 28.3581,16.3111 30.3921,16.3111 Z M40.8812,16.32 C42.9042,16.532 44.7162,15.064 44.9282,13.041 C44.9292,13.033 44.9302,13.026 44.9302,13.018 C45.1382,11.004 43.6732,9.202 41.6582,8.995 C41.6552,8.995 41.6522,8.994 41.6492,8.994 C39.6262,8.782 37.8142,10.25 37.6022,12.273 C37.3902,14.296 38.8582,16.108 40.8812,16.32 Z M50.8502,16.32 C52.8732,16.532 54.6852,15.064 54.8972,13.041 C54.8982,13.033 54.8992,13.026 54.8992,13.018 C55.1072,11.004 53.6422,9.202 51.6272,8.995 C51.6242,8.995 51.6212,8.994 51.6182,8.994 C49.5952,8.782 47.7832,10.25 47.5712,12.273 C47.3592,14.296 48.8272,16.108 50.8502,16.32 Z M42.9432,42.1651 L42.9432,42.1699982 L36.1982,42.1699982 L36.1982,35.3421 C36.1982,33.8381 34.9752,32.6151 33.4712,32.6151 C31.9682,32.6151 30.7452,33.8381 30.7452,35.3421 L30.7452,44.4361 C30.7272,45.9381 31.9332,47.1761 33.4712,47.1951 L41.4432,47.1951 C42.9532,47.1951 44.1822,45.9671 44.1822,44.4561 C44.1822,43.4991 43.6892,42.6551 42.9432,42.1651 Z" id="Combined-Shape"></path>
        </g>
    </g>
</svg>