<?xml version="1.0" encoding="UTF-8"?>
<svg width="64px" height="64px" viewBox="0 0 64 64" version="1.1" xmlns="http://www.w3.org/2000/svg" xmlns:xlink="http://www.w3.org/1999/xlink">
    <!-- Generator: Sketch 41.2 (35397) - http://www.bohemiancoding.com/sketch -->
    <title>icon-truck</title>
    <desc>Created with Sketch.</desc>
    <defs></defs>
    <g id="member" stroke="none" stroke-width="1" fill="none" fill-rule="evenodd">
        <g id="icon-truck" fill="#6F7274">
            <path d="M58.6635342,48.3998713 L58.2355889,48.3998713 C56.7127835,44.2184057 52.0883745,42.0626812 47.9069089,43.5854866 C45.6691948,44.4003824 43.90742,46.1631572 43.0925241,48.3998713 L24.0009639,48.3998713 L24.0009639,21.2533405 L24.0009639,13.3043563 L58.6635342,13.3043563 L58.6635342,48.3998713 Z M50.6315607,53.6991941 C49.1747468,53.6901952 47.9978972,52.5063465 47.9978972,51.0495327 C47.9189073,49.6647097 48.977772,48.4778613 50.362595,48.3988714 C50.4635821,48.3928722 50.5635694,48.3938721 50.6645565,48.3998713 L50.6635566,48.3998713 C52.1273695,48.4088702 53.3062189,49.6017177 53.29722,51.0655307 C53.2882212,52.5283437 52.0953736,53.7081929 50.6315607,53.6991941 L50.6315607,53.6991941 Z M18.6676455,32.501903 L6.38221549,32.501903 L9.86876993,23.9030019 L18.6676455,23.9030019 L18.6676455,32.501903 Z M18.6676455,45.0443001 C17.1858349,43.7694631 15.2900771,43.0785514 13.3353269,43.1005485 C9.92676252,43.0305575 6.86515378,45.1732837 5.76429446,48.3998713 L5.33634915,48.3998713 L5.33634915,37.8012258 L18.6676455,37.8012258 L18.6676455,45.0443001 Z M13.3383265,53.6991941 L13.3353269,53.6991941 C11.871514,53.700194 10.6846657,52.5143455 10.6836658,51.0515324 C10.6836658,49.5877195 11.8685144,48.4008712 13.3323273,48.3998713 L13.3353269,48.3998713 C14.7991399,48.3988714 15.9859882,49.5847199 15.9869881,51.047533 C15.9869881,52.5113459 14.8021395,53.6981942 13.3383265,53.6991941 L13.3383265,53.6991941 Z M63.9948529,10.3537334 C63.907864,8.96891038 62.7150165,7.91804467 61.3301934,8.00503355 L21.3353046,8.00503355 C21.2343175,7.99903432 21.1343303,7.99803445 21.0333432,8.00403368 C19.6485201,8.08302359 18.5896555,9.26987191 18.6686454,10.6546949 L18.6686454,18.6036791 L8.00300837,18.6036791 C6.88315148,18.6296758 5.91127568,19.3815797 5.60331503,20.4584421 L0.596954819,33.3827904 C0.195006186,33.8827265 -0.0149669805,34.5106463 0.00403059172,35.1515644 L0.00403059172,51.0495327 C-0.00196864161,51.1505198 -0.000968769386,51.2515069 0.00503046394,51.3514941 C0.0930192195,52.7363171 1.28586678,53.7871828 2.67068981,53.6991941 L5.76529433,53.6991941 C6.86615365,56.9257818 9.92776239,59.0685079 13.3363268,58.9985169 C16.7448912,59.0685079 19.8064999,56.9257818 20.9073593,53.6991941 L43.0925241,53.6991941 C43.90742,55.9359083 45.6691948,57.698683 47.9069089,58.5135788 C52.0883745,60.0363842 56.7127835,57.8806597 58.2355889,53.6991941 L61.3291936,53.6991941 C61.4301807,53.7051933 61.5301679,53.7061932 61.631155,53.700194 C63.015978,53.6212041 64.0748427,52.4343557 63.9958528,51.0495327 L63.9958528,10.6546949 C64.001852,10.5547077 64.0008522,10.4537206 63.9948529,10.3537334 L63.9948529,10.3537334 Z" id="Fill-1"></path>
        </g>
    </g>
</svg>