<?xml version="1.0" encoding="utf-8"?>
<!-- Generator: Adobe Illustrator 22.1.0, SVG Export Plug-In . SVG Version: 6.00 Build 0)  -->
<svg version="1.1" id="圖層_1" xmlns="http://www.w3.org/2000/svg" xmlns:xlink="http://www.w3.org/1999/xlink" x="0px" y="0px"
	 viewBox="0 0 28 28" style="enable-background:new 0 0 28 28;" xml:space="preserve">
<style type="text/css">
	.st0{fill:#EF9F00;}
	.st1{opacity:0.1;}
	.st2{fill:#FFFFFF;}
</style>
<title>icon-heart</title>
<desc>Created with Sketch.</desc>
<g id="Page-1">
	<g id="index_x28_S-CARE_x29_-orange" transform="translate(-2333.000000, -145.000000)">
		<g id="icon-heart" transform="translate(2333.000000, 145.000000)">
			<g>
				<g id="path-1">
					<path class="st0" d="M2,0h24c1.1,0,2,0.9,2,2v24c0,1.1-0.9,2-2,2H2c-1.1,0-2-0.9-2-2V2C0,0.9,0.9,0,2,0z"/>
					<g class="st1">
						<path d="M26,1c0.6,0,1,0.4,1,1v24c0,0.6-0.4,1-1,1H2c-0.6,0-1-0.4-1-1V2c0-0.6,0.4-1,1-1H26 M26,0H2C0.9,0,0,0.9,0,2v24
							c0,1.1,0.9,2,2,2h24c1.1,0,2-0.9,2-2V2C28,0.9,27.1,0,26,0L26,0z"/>
					</g>
				</g>
			</g>
			<path id="coeur_16_" class="st2" d="M18.5,5.9c-1.4,0-3.3,0.7-4.4,2.8c-1-2.1-2.9-2.8-4.4-2.8c-2.2,0-4.5,1.6-4.5,5.2
				c0,2.6,1.5,5.4,4.4,8.1c2.1,2,4.2,3.2,4.3,3.3c0.1,0.1,0.2,0.1,0.2,0.1c0.1,0,0.2,0,0.2-0.1c0.1-0.1,2.2-1.3,4.3-3.3
				c2.9-2.8,4.4-5.4,4.4-8.1C23,7.5,20.6,5.9,18.5,5.9L18.5,5.9z"/>
		</g>
	</g>
</g>
</svg>
