<?xml version="1.0" encoding="utf-8"?>
<!-- Generator: Adobe Illustrator 22.0.1, SVG Export Plug-In . SVG Version: 6.00 Build 0)  -->
<svg version="1.1" id="圖層_1" xmlns="http://www.w3.org/2000/svg" xmlns:xlink="http://www.w3.org/1999/xlink" x="0px" y="0px"
	 viewBox="0 0 80 80" style="enable-background:new 0 0 80 80;" xml:space="preserve">
<style type="text/css">
	.st0{fill:#4990E2;}
	.st1{fill:none;}
	.st2{fill:#FFFFFF;}
</style>
<title>user headphone.1</title>
<desc>Created with Sketch.</desc>
<g id="Page-1">
	<g id="avatar">
		<g id="Frames-24px">
			<path id="Rectangle-path" class="st0" d="M40,0L40,0c22.1,0,40,17.9,40,40l0,0c0,22.1-17.9,40-40,40l0,0C17.9,80,0,62.1,0,40l0,0
				C0,17.9,17.9,0,40,0z"/>
		</g>
		<g id="_x31_457533661-headset" transform="translate(15.000000, 15.000000)">
			<g id="Layer_1">
				<rect id="Rectangle-path_1_" class="st1" width="50" height="50"/>
				<path id="Combined-Shape" class="st2" d="M41,37.8c-1.1-0.4-2-1.5-2-2.8V20c0-1.3,0.8-2.4,1.9-2.8C40,9.2,33.2,3,25,3
					S10,9.2,9.1,17.2c1.1,0.4,1.9,1.5,1.9,2.8v15c0,1.7-1.3,3-3,3c-1.3,0-2.5-0.9-2.9-2.1c-3-0.6-5.1-4.2-5.1-8.4
					c0-4.2,2.2-7.8,5.1-8.4c0.3-0.9,1-1.7,2-1.9C8,8.1,15.7,1,25,1s17,7.1,17.9,16.1c0.9,0.3,1.7,1,2,1.9c3,0.6,5.1,4.2,5.1,8.4
					c0,4.2-2.2,7.8-5.1,8.4c-0.3,0.9-1,1.6-1.9,1.9c-0.3,5.1-3.7,8.2-9,8.2h-3.2c-0.4,1.2-1.5,2-2.8,2h-5c-1.7,0-3-1.3-3-3
					s1.3-3,3-3h5c1.3,0,2.4,0.8,2.8,2H34C38.2,44,40.7,41.8,41,37.8z M5,33.8V21.2c-1.7,0.7-3,3.2-3,6.3C2,30.6,3.3,33.1,5,33.8z
					 M45,21.2v12.6c1.7-0.7,3-3.2,3-6.3C48,24.4,46.7,21.9,45,21.2z"/>
			</g>
		</g>
	</g>
</g>
</svg>
