<?xml version="1.0" encoding="UTF-8"?>
<svg width="64px" height="64px" viewBox="0 0 64 64" version="1.1" xmlns="http://www.w3.org/2000/svg" xmlns:xlink="http://www.w3.org/1999/xlink">
    <!-- Generator: Sketch 42 (36781) - http://www.bohemiancoding.com/sketch -->
    <title>icon-purview-sale-white</title>
    <desc>Created with Sketch.</desc>
    <defs></defs>
    <g id="member" stroke="none" stroke-width="1" fill="none" fill-rule="evenodd">
        <g id="icon-purview-sale-white" fill="#FFFFFF">
            <path d="M58.9399518,61.3257456 C58.9600998,61.4481832 58.9701738,61.5737205 58.9701738,61.7023575 C58.9701738,62.9709041 57.9426277,64 56.6733062,64 L8.29727546,64 C7.65254069,64 7.03647801,63.7287774 6.60097207,63.2522007 C6.16624106,62.7763988 5.9523627,62.1394132 6.00893197,61.4977782 L9.91841144,17.9564833 C10.0245757,16.7724031 11.0172503,15.864195 12.2067549,15.864195 L20.2434668,15.864195 L20.2434668,12.2422114 C20.2434668,5.49186938 25.7353362,0 32.4849033,0 C39.2352454,0 44.7263399,5.49186938 44.7263399,12.2422114 L44.7263399,15.864195 L52.7576273,15.864195 C53.9463571,15.864195 54.9398065,16.7724031 55.0459708,17.9564833 L58.9399518,61.3257456 Z M10.8095713,59.4054898 L54.154811,59.4054898 L50.6583647,20.4587052 L44.7263399,20.4587052 L44.7263399,24.5673395 C44.7263399,25.8351112 43.6980189,26.8642071 42.4294722,26.8642071 C41.1601507,26.8642071 40.1326046,25.8351112 40.1326046,24.5673395 L40.1326046,20.4587052 L24.837977,20.4587052 L24.837977,24.5673395 C24.837977,25.8351112 23.810431,26.8642071 22.5403345,26.8642071 C21.2725627,26.8642071 20.2434668,25.8351112 20.2434668,24.5673395 L20.2434668,20.4587052 L14.3075674,20.4587052 L10.8095713,59.4054898 Z M24.837977,12.2422114 L24.837977,15.864195 L40.1326046,15.864195 L40.1326046,12.2422114 C40.1326046,8.02508809 36.7020267,4.59451016 32.4849033,4.59451016 C28.2685549,4.59451016 24.837977,8.02508809 24.837977,12.2422114 Z M23.1698033,36.9758491 L21.7121757,38.2622189 C21.1999526,37.550066 20.6792053,37.1936021 20.148384,37.1936021 C19.8903351,37.1936021 19.6795564,37.263345 19.5144981,37.401281 C19.3502147,37.539992 19.268073,37.6957513 19.268073,37.8685588 C19.268073,38.0421412 19.3269671,38.2064246 19.4439802,38.360634 C19.6036141,38.567538 20.0856153,39.0100183 20.8876592,39.6896245 C21.6385582,40.3180859 22.0942121,40.713296 22.2538459,40.8775793 C22.6529306,41.2805386 22.935777,41.6664495 23.1023851,42.0337624 C23.2689932,42.4018501 23.3526848,42.8040344 23.3526848,43.2395404 C23.3526848,44.0880795 23.0589895,44.7886087 22.4731488,45.3411278 C21.8865331,45.8944218 21.1216855,46.1710688 20.1786059,46.1710688 C19.4416555,46.1710688 18.8007953,45.9905121 18.2537006,45.6293986 C17.7073809,45.26906 17.2393283,44.7018174 16.8503176,43.9284457 L18.5040003,42.9303467 C19.0022749,43.8439792 19.574942,44.301183 20.2227764,44.301183 C20.5606422,44.301183 20.8442636,44.2027679 21.0744153,44.0059378 C21.304567,43.8091078 21.4192554,43.5812808 21.4192554,43.3240068 C21.4192554,43.0899805 21.3324642,42.8551793 21.1588817,42.6211529 C20.9852993,42.3863517 20.602488,42.0283379 20.0112228,41.5455618 C18.8844868,40.6265047 18.1568354,39.9182264 17.8274938,39.4191769 C17.4997019,38.9193525 17.3354186,38.4218528 17.3354186,37.925128 C17.3354186,37.2083256 17.608191,36.5930378 18.1552856,36.0800397 C18.7016053,35.5662667 19.3757871,35.3097676 20.1786059,35.3097676 C20.6947037,35.3097676 21.186004,35.4291056 21.6525068,35.6685563 C22.1197845,35.9072322 22.6250334,36.3435131 23.1698033,36.9758491 Z M28.3840182,35.5698313 L30.3802163,35.5698313 L34.3578889,45.9111601 L32.3120958,45.9111601 L31.5030777,43.7809006 L27.2828546,43.7809006 L26.4420647,45.9111601 L24.3962717,45.9111601 L28.3840182,35.5698313 Z M29.394516,38.311504 L28.0066314,41.8621947 L30.7738765,41.8621947 L29.394516,38.311504 Z M35.8795249,35.5701413 L37.8478258,35.5701413 L37.8478258,44.033835 L40.7158106,44.033835 L40.7158106,45.9106951 L35.8795249,45.9106951 L35.8795249,35.5701413 Z M42.2204759,35.5701413 L47.8657797,35.5701413 L47.8657797,37.4958215 L44.1748282,37.4958215 L44.1748282,39.3657073 L47.8657797,39.3657073 L47.8657797,41.2572909 L44.1748282,41.2572909 L44.1748282,43.9780407 L47.8657797,43.9780407 L47.8657797,45.9106951 L42.2204759,45.9106951 L42.2204759,35.5701413 Z" id="Combined-Shape"></path>
        </g>
    </g>
</svg>