<?xml version="1.0" encoding="utf-8"?>
<!-- Generator: Adobe Illustrator 22.1.0, SVG Export Plug-In . SVG Version: 6.00 Build 0)  -->
<svg version="1.1" id="圖層_1" xmlns="http://www.w3.org/2000/svg" xmlns:xlink="http://www.w3.org/1999/xlink" x="0px" y="0px"
	 viewBox="0 0 64 64" style="enable-background:new 0 0 64 64;" xml:space="preserve">
<style type="text/css">
	.st0{fill:#6F7274;}
</style>
<g>
	<path class="st0" d="M57.8,14.9L45.3,2.3c-2.7-2.7-7.2-2.7-9.9,0.1L6.2,31.6c-2.8,2.8-2.8,7.2,0,10l20.1,20.1c2.8,2.8,7.2,2.8,10,0
		L58,40c1.3-1.5,2-3.3,2-5V20C59.9,18,59.1,16.2,57.8,14.9z M54.3,36.4L32.7,58.1c-0.8,0.8-2.2,0.8-3,0L9.6,38c-0.8-0.8-0.8-2.2,0-3
		L38.8,5.8c0.8-0.8,2.2-0.8,3,0l12.6,12.6c0.4,0.4,0.6,1,0.6,1.5V35C55,35.5,54.7,36,54.3,36.4z"/>
	<path class="st0" d="M29.4,22.5c-0.6-0.6-1.7-0.6-2.4,0L14.2,35.2c-0.7,0.7-0.7,1.7,0,2.4l16,16c0.3,0.3,0.8,0.5,1.2,0.5
		s0.9-0.2,1.2-0.5l12.8-12.8c0.7-0.7,0.7-1.7,0-2.4L29.4,22.5z M28.4,35.7c0.3-0.3,0.5-0.7,0.6-1.1c0-0.5-0.1-0.9-0.5-1.3l-3.8-3.8
		l3.6-3.6l7.1,7.1L25,43.5l-2.2-2.2L28.4,35.7z M24.9,34.5L20.4,39l-2.6-2.6l4.4-4.4L24.9,34.5z M41.8,39.6l-5.5,5.5l-4-4l5.5-5.5
		L41.8,39.6z M33.9,47.5L31.4,50l-4-4l2.5-2.5L33.9,47.5z"/>
</g>
</svg>
