<svg xmlns="http://www.w3.org/2000/svg" width="45" height="45" viewBox="0 0 45 45">
  <title>icon-exclamation-circle</title>
  <g id="圖層_2" data-name="圖層 2">
    <g id="圖層_1-2" data-name="圖層 1">
      <g>
        <path d="M22.5,0A22.57,22.57,0,0,0,0,22.35,22.17,22.17,0,0,0,6.5,38.3,22.25,22.25,0,0,0,22.35,45h.15a22.5,22.5,0,1,0,0-45Zm0,42h-.15A19.55,19.55,0,0,1,8.6,36.15,19.23,19.23,0,0,1,3.05,22.4,19.48,19.48,0,1,1,22.5,42Z"/>
        <path d="M22.5,27.5a1.69,1.69,0,0,0,1.7-1.7v-14a1.7,1.7,0,1,0-3.4,0v14A1.69,1.69,0,0,0,22.5,27.5Z"/>
        <path d="M22.5,30.8a2.33,2.33,0,0,0-2.3,2.3v.1a2.3,2.3,0,1,0,4.6,0v-.1A2.33,2.33,0,0,0,22.5,30.8Z"/>
      </g>
    </g>
  </g>
</svg>
