<?xml version="1.0" encoding="UTF-8" standalone="no"?>
<svg width="20px" height="20px" viewBox="0 0 20 20" version="1.1" xmlns="http://www.w3.org/2000/svg" xmlns:xlink="http://www.w3.org/1999/xlink">
    <!-- Generator: Sketch 39.1 (31720) - http://www.bohemiancoding.com/sketch -->
    <title>icon-checkbox-disa-false-20</title>
    <desc>Created with Sketch.</desc>
    <defs></defs>
    <g id="common" stroke="none" stroke-width="1" fill="none" fill-rule="evenodd">
        <g id="icon-checkbox-disa-false-20" fill="#B7B7B7">
            <path d="M11.1277391,9.99964458 L16.7660428,4.36134083 C17.0720512,4.0553325 17.0778511,3.54462661 16.7664345,3.23321007 C16.4528468,2.91962238 15.9499366,2.92196888 15.6383037,3.23360175 L10,8.87190549 L4.36169625,3.23360175 C4.05006338,2.92196888 3.54715317,2.91962238 3.23356548,3.23321007 C2.92214894,3.54462661 2.92794883,4.0553325 3.23395717,4.36134083 L8.87226091,9.99964458 L3.23395717,15.6379483 C2.92794883,15.9439567 2.92214894,16.4546625 3.23356548,16.7660791 C3.54715317,17.0796668 4.05006338,17.0773203 4.36169625,16.7656874 L10,11.1273837 L15.6383037,16.7656874 C15.9499366,17.0773203 16.4528468,17.0796668 16.7664345,16.7660791 C17.0778511,16.4546625 17.0720512,15.9439567 16.7660428,15.6379483 L11.1277391,9.99964458 Z" id="Combined-Shape"></path>
        </g>
    </g>
</svg>