<?xml version="1.0" encoding="UTF-8" standalone="no"?>
<svg width="64px" height="64px" viewBox="0 0 64 64" version="1.1" xmlns="http://www.w3.org/2000/svg" xmlns:xlink="http://www.w3.org/1999/xlink">
    <!-- Generator: Sketch 39.1 (31720) - http://www.bohemiancoding.com/sketch -->
    <title>icon-newspaper-light</title>
    <desc>Created with Sketch.</desc>
    <defs></defs>
    <g id="cart/order/product" stroke="none" stroke-width="1" fill="none" fill-rule="evenodd">
        <g id="icon-newspaper-light" fill="#A3A5A6">
            <path d="M61.5,4 L2.4,4 C1.1,4 0,5.1 0,6.4 L0,58.5 C0,59.9 1,61 2.4,61 L61.5,61 C62.9,61 64,59.9 64,58.5 L64,6.4 C64,5.1 62.9,4 61.5,4 L61.5,4 Z M4.9,56 L59.1,56 L59.1,20.1 L4.9,20.1 L4.9,56 Z M4.9,17.1 L59.1,17.1 L59.1,8.9 L4.9,8.9 L4.9,17.1 Z M48.5,46.4 L15.5,46.4 C14.7,46.4 14,47.1 14,47.9 C14,48.7 14.7,49.4 15.5,49.4 L48.5,49.4 C49.3,49.4 50,48.7 50,47.9 C50,47 49.3,46.4 48.5,46.4 Z M35.5,42.9 L48.5,42.9 C49.3,42.9 50,42.2 50,41.4 L50,28.3 C50,27.5 49.3,26.8 48.5,26.8 L35.5,26.8 C34.7,26.8 34.1,27.4 34,28.3 L34,41.5 C34,42.3 34.7,42.9 35.5,42.9 Z M37,29.7 L47.1,29.7 L47,39.8 L37,39.8 L37,29.7 Z M15.4,42.8 L30.4,42.8 C31.3,42.8 31.9,42.1 31.9,41.3 C31.9,40.5 31.2,39.8 30.4,39.8 L30.4,39.9 L15.4,39.9 C14.6,39.9 13.9,40.6 13.9,41.4 C13.9,42.2 14.6,42.8 15.4,42.8 Z M15.4,36.2 L30.4,36.2 C31.2,36.2 31.9,35.5 31.9,34.7 C31.9,33.9 31.2,33.3 30.4,33.3 L30.4,33.2 L15.4,33.2 C14.6,33.2 13.9,33.9 13.9,34.7 C13.9,35.5 14.6,36.2 15.4,36.2 Z M15.4,29.8 L30.4,29.8 C31.2,29.8 31.9,29.1 31.9,28.3 C31.9,27.5 31.2,26.8 30.4,26.8 L15.4,26.8 C14.6,26.8 13.9,27.5 13.9,28.3 C13.9,29.2 14.6,29.8 15.4,29.8 Z" id="Combined-Shape"></path>
        </g>
    </g>
</svg>