<?xml version="1.0" encoding="UTF-8" standalone="no"?>
<svg width="40px" height="24px" viewBox="0 0 40 24" version="1.1" xmlns="http://www.w3.org/2000/svg" xmlns:xlink="http://www.w3.org/1999/xlink">
    <!-- Generator: Sketch 3.8.3 (29802) - http://www.bohemiancoding.com/sketch -->
    <title>icon-master-card</title>
    <desc>Created with Sketch.</desc>
    <defs></defs>
    <g id="Page-1" stroke="none" stroke-width="1" fill="none" fill-rule="evenodd">
        <g id="icon-master-card">
            <g id="Group" transform="translate(2.000000, 1.000000)">
                <path d="M18.3107954,19.1265792 C20.2343938,20.8990656 22.8179073,21.9740077 25.6277066,21.9740077 C31.6617375,21.9740077 36.5459923,17.0523784 36.5459923,10.9988958 C36.5459923,4.92706564 31.6617375,0.00535135135 25.6277066,0.00535135135 C22.8179073,0.00535135135 20.2344788,1.08012355 18.3107954,2.85277992 C16.1046795,4.87032432 14.709166,7.77457915 14.709166,10.9988958 C14.709166,14.2235521 16.1047645,17.1278919 18.3107954,19.1265792 L18.3107954,19.1265792 L18.3107954,19.1265792 Z" id="Shape" fill="#FAB31E"></path>
                <path d="M21.8374208,9.82992278 C21.7997066,9.43392278 21.7243629,9.05677992 21.6485946,8.66077992 L14.9733359,8.66077992 C15.0487645,8.26477992 15.1616525,7.88755212 15.2747954,7.51040927 L21.328278,7.51040927 C21.1959382,7.11466409 21.045166,6.71849421 20.8753668,6.34135135 L15.7463938,6.34135135 C15.9349653,5.94560618 16.1423089,5.54943629 16.3686795,5.17229344 L20.2343938,5.17229344 C19.989166,4.77629344 19.7064788,4.38020849 19.4045946,4.02200772 L17.1982239,4.02200772 C17.5376525,3.60723552 17.9149653,3.21123552 18.3107104,2.85294981 C16.3686795,1.09915058 13.8039382,0.00552123552 10.9754517,0.00552123552 C4.96010811,0.00552123552 0.0571660232,4.92723552 0.0571660232,10.9990656 C0.0571660232,17.0525483 4.96010811,21.9741776 10.9754517,21.9741776 C13.8040232,21.9741776 16.3686795,20.8992355 18.3107104,19.126749 L18.3107104,19.126749 L18.3107104,19.126749 C18.7069653,18.7682085 19.065166,18.3911506 19.4045946,17.9762934 L17.1982239,17.9762934 C16.8965097,17.5992355 16.6325097,17.2220927 16.3685946,16.8072355 L20.2343089,16.8072355 C20.4793668,16.4301776 20.6867954,16.0530347 20.8752819,15.6380927 L15.7463089,15.6380927 C15.5763398,15.2610347 15.4068803,14.8838069 15.2747104,14.4876371 L21.3281931,14.4876371 C21.4601081,14.1105792 21.5542239,13.7146641 21.6485097,13.3185792 C21.724278,12.9415212 21.7995367,12.5452664 21.8373359,12.1494363 C21.8749653,11.7722934 21.8939073,11.3952355 21.8939073,10.9989807 C21.8939923,10.6031506 21.8750502,10.2070656 21.8374208,9.82992278 L21.8374208,9.82992278 L21.8374208,9.82992278 Z" id="Shape" fill="#E40520"></path>
                <path d="M35.0938224,13.5447799 C35.0938224,13.3376062 35.2445097,13.186749 35.433251,13.186749 C35.6405097,13.186749 35.7914517,13.3375212 35.7914517,13.5447799 C35.7914517,13.7333514 35.6405946,13.9033205 35.433251,13.9033205 C35.2445946,13.9033205 35.0938224,13.7333514 35.0938224,13.5447799 L35.0938224,13.5447799 L35.0938224,13.5447799 Z M35.433251,13.808695 C35.5840232,13.808695 35.7160232,13.6956371 35.7160232,13.5447799 C35.7160232,13.3938378 35.5840232,13.280695 35.433251,13.280695 C35.301251,13.280695 35.169251,13.3938378 35.169251,13.5447799 C35.169251,13.6956371 35.3013359,13.808695 35.433251,13.808695 L35.433251,13.808695 L35.433251,13.808695 Z M35.3955367,13.6956371 L35.3201081,13.6956371 L35.3201081,13.3937529 L35.4521081,13.3937529 L35.5275367,13.3937529 C35.565251,13.4129498 35.565251,13.4506641 35.565251,13.4882934 C35.565251,13.5070656 35.5464788,13.544695 35.5086795,13.5638069 L35.5841081,13.6956371 L35.4899073,13.6956371 L35.4521931,13.5824942 L35.3956216,13.5824942 L35.3956216,13.6956371 L35.3956216,13.5260927 L35.4333359,13.5260927 C35.4521931,13.5260927 35.4712201,13.5260927 35.4712201,13.5070656 C35.4899073,13.5070656 35.4899073,13.4882934 35.4899073,13.4694363 C35.4899073,13.4694363 35.4899073,13.4506641 35.4712201,13.4506641 C35.4712201,13.4314672 35.4521081,13.4506641 35.4333359,13.4506641 L35.3956216,13.4506641 L35.3956216,13.5260927 L35.3956216,13.6956371 L35.3955367,13.6956371 L35.3955367,13.6956371 Z" id="Shape" fill="#FFFFFF"></path>
                <path d="M25.5335058,8.47229344 L25.3259923,9.67906564 C24.9109653,9.47172201 24.609251,9.37735135 24.2698224,9.37735135 C23.3836216,9.37735135 22.761251,10.2447799 22.761251,11.4706641 C22.761251,12.3189807 23.1761931,12.8282085 23.8738224,12.8282085 C24.1566795,12.8282085 24.4961081,12.7342625 24.873251,12.5451815 L24.6659073,13.8087799 C24.2321931,13.9219228 23.9493359,13.9786641 23.6288494,13.9786641 C22.3465637,13.9786641 21.5544788,13.0544942 21.5544788,11.564695 C21.5544788,9.58477992 22.648278,8.18952124 24.2133359,8.18952124 C24.4206795,8.18952124 24.6093359,8.20837838 24.7603629,8.24609266 L25.2317066,8.35923552 C25.3825637,8.41572201 25.4201081,8.43457915 25.5335058,8.47229344 L25.5335058,8.47229344 L25.5335058,8.47229344 Z" id="Shape" fill="#FFFFFF"></path>
                <path d="M21.7243629,9.30192278 L21.6111351,9.30192278 C21.2148803,9.30192278 20.9887645,9.49049421 20.6303938,10.0375212 L20.7434517,9.33963707 L19.6688494,9.33963707 L18.9334208,13.8655212 L20.121251,13.8655212 C20.5549653,11.0934363 20.6681081,10.6218378 21.2338224,10.6218378 L21.309251,10.6218378 C21.4223938,10.0751506 21.573251,9.67898069 21.7619923,9.32069498 L21.7243629,9.30192278 L21.7243629,9.30192278 L21.7243629,9.30192278 Z" id="Shape" fill="#FFFFFF"></path>
                <path d="M14.8977375,13.808695 C14.5774208,13.9218378 14.3135058,13.9594672 14.0494208,13.9594672 C13.4459073,13.9594672 13.1063938,13.6201236 13.1063938,12.9603784 C13.1063938,12.8472355 13.125251,12.6959537 13.1441081,12.5642085 L13.2196216,12.1116371 L13.2761081,11.7530965 L13.7855058,8.66069498 L14.9545637,8.66069498 L14.8223089,9.33955212 L15.4257375,9.33955212 L15.2749653,10.4522934 L14.6715367,10.4522934 L14.3512201,12.3378378 C14.3321931,12.4133514 14.3321931,12.469668 14.3321931,12.5264942 C14.3321931,12.7527799 14.4453359,12.8472355 14.7283629,12.8472355 C14.8601081,12.8472355 14.9735058,12.8472355 15.0489344,12.8095212 L14.8977375,13.808695 L14.8977375,13.808695 L14.8977375,13.808695 Z" id="Shape" fill="#FFFFFF"></path>
                <path d="M10.3533359,10.772695 C10.3533359,11.3384093 10.617251,11.7344942 11.2395367,12.0362934 C11.7299073,12.2624942 11.8053359,12.3379228 11.8053359,12.5264942 C11.8053359,12.8095212 11.5979923,12.9413514 11.1264788,12.9413514 C10.7681931,12.9413514 10.4476216,12.8849498 10.0704788,12.7718919 L9.90059459,13.808695 L9.95725097,13.8278069 L10.1647645,13.8655212 C10.2401081,13.8841236 10.3344788,13.9032355 10.4853359,13.9032355 C10.7493359,13.9408649 10.9755367,13.9408649 11.1264788,13.9408649 C12.3710502,13.9408649 12.9556216,13.4693514 12.9556216,12.4322934 C12.9556216,11.8098378 12.7104788,11.4513822 12.1259073,11.1687799 C11.6167645,10.9425792 11.5601081,10.885668 11.5601081,10.6785792 C11.5601081,10.4332664 11.7676216,10.3200386 12.1447645,10.3200386 C12.3709653,10.3200386 12.6916216,10.3391506 12.993251,10.3768649 L13.1629653,9.33955212 C12.861251,9.28298069 12.3899073,9.24518147 12.1259073,9.24518147 C10.8058224,9.24526641 10.3344788,9.94298069 10.3533359,10.772695 L10.3533359,10.772695 L10.3533359,10.772695 Z" id="Shape" fill="#FFFFFF"></path>
                <path d="M34.5659073,13.8655212 L33.4534208,13.8655212 L33.5099073,13.4315521 C33.1894208,13.7709807 32.8499073,13.9218378 32.416278,13.9218378 C31.5485946,13.9218378 30.9829653,13.186749 30.9829653,12.0548958 C30.9829653,10.5464942 31.8693359,9.26420849 32.9065637,9.26420849 C33.3779923,9.26420849 33.7174208,9.47163707 34.0379073,9.88666409 L34.3019073,8.30232432 L35.4712201,8.30232432 L34.5659073,13.8655212 L34.5659073,13.8655212 L34.5659073,13.8655212 Z M32.8310502,12.8096062 C33.3779073,12.8096062 33.7551351,12.1679537 33.7551351,11.2821776 C33.7551351,10.6972664 33.5476216,10.3956371 33.1329344,10.3956371 C32.6048494,10.3956371 32.2086795,11.0180077 32.2086795,11.9041236 C32.2086795,12.5078069 32.416278,12.8096062 32.8310502,12.8096062 L32.8310502,12.8096062 L32.8310502,12.8096062 Z" id="Shape" fill="#FFFFFF"></path>
                <path d="M18.5184788,13.7709807 C18.1037066,13.9033205 17.7266486,13.9595521 17.2925946,13.9595521 C15.9727645,13.9595521 15.2939073,13.2620927 15.2939073,11.9231506 C15.2939073,10.3769498 16.161251,9.22640927 17.3495058,9.22640927 C18.3299073,9.22640927 18.9521931,9.86755212 18.9521931,10.8670656 C18.9521931,11.2064942 18.9143938,11.5268958 18.8013359,11.9985792 L16.4629653,11.9985792 C16.4441081,12.0548108 16.4441081,12.0925251 16.4441081,12.1302394 C16.4441081,12.658749 16.8023938,12.9226641 17.481251,12.9226641 C17.9150502,12.9226641 18.2921931,12.8472355 18.7071351,12.6396371 L18.5184788,13.7709807 L18.5184788,13.7709807 L18.5184788,13.7709807 Z M17.8583089,11.0743243 L17.8583089,10.8481236 C17.8583089,10.4709807 17.6511351,10.2636371 17.2925946,10.2636371 C16.9155367,10.2636371 16.6515367,10.5465792 16.5383938,11.0743243 L17.8583089,11.0743243 L17.8583089,11.0743243 L17.8583089,11.0743243 Z" id="Shape" fill="#FFFFFF"></path>
                <polygon id="Shape" fill="#FFFFFF" points="5.84639382 13.8655212 4.67733591 13.8655212 5.35610811 9.58477992 3.82867954 13.8655212 3.01773745 13.8655212 2.92353668 9.62240927 2.20688031 13.8655212 1.11325097 13.8655212 2.03725097 8.30232432 3.73439382 8.30232432 3.79096525 11.7531815 4.92230888 8.30232432 6.77039382 8.30232432"></polygon>
                <path d="M8.76925097,11.847722 C8.65610811,11.847722 8.59953668,11.8285251 8.50533591,11.8285251 C7.84525097,11.8285251 7.50582239,12.0739228 7.50582239,12.5264942 C7.50582239,12.8095212 7.65667954,12.9790656 7.92067954,12.9790656 C8.41105019,12.9791506 8.75047876,12.5265792 8.76925097,11.847722 L8.76925097,11.847722 L8.76925097,11.847722 Z M9.63667954,13.8655212 L8.65610811,13.8655212 L8.67496525,13.3937529 C8.37325097,13.7708958 7.97716602,13.9408649 7.43039382,13.9408649 C6.78933591,13.9408649 6.35562162,13.4506641 6.35562162,12.7148958 C6.35562162,11.6021544 7.10982239,10.9611815 8.42973745,10.9611815 C8.56173745,10.9611815 8.73162162,10.9802085 8.92010811,10.9988108 C8.95782239,10.8480386 8.95782239,10.791722 8.95782239,10.7162085 C8.95782239,10.4145792 8.75047876,10.3014363 8.20353668,10.3014363 C7.86410811,10.3014363 7.48696525,10.3391506 7.22305019,10.4145792 L7.05333591,10.4708958 L6.94019305,10.4899228 L7.10990734,9.47163707 C7.69439382,9.30183784 8.09056371,9.24518147 8.52419305,9.24518147 C9.54239382,9.24518147 10.0893359,9.69783784 10.0893359,10.5653514 C10.0893359,10.7916371 10.0704788,10.9610965 9.99513514,11.4704093 L9.73096525,13.0734363 L9.69325097,13.3560386 L9.67439382,13.5823243 L9.65562162,13.7521236 L9.63667954,13.8655212 L9.63667954,13.8655212 L9.63667954,13.8655212 Z" id="Shape" fill="#FFFFFF"></path>
                <path d="M27.4379073,11.847722 C27.3058224,11.847722 27.2493359,11.8285251 27.1739073,11.8285251 C26.4951351,11.8285251 26.1557066,12.0739228 26.1557066,12.5264942 C26.1557066,12.8095212 26.3254208,12.9790656 26.5894208,12.9790656 C27.0607645,12.9791506 27.4190502,12.5265792 27.4379073,11.847722 L27.4379073,11.847722 L27.4379073,11.847722 Z M28.305166,13.8655212 L27.3246795,13.8655212 L27.3435367,13.3937529 C27.0419073,13.7708958 26.6459073,13.9408649 26.0991351,13.9408649 C25.4579923,13.9408649 25.0243629,13.4506641 25.0243629,12.7148958 C25.0243629,11.6021544 25.7785637,10.9611815 27.0984788,10.9611815 C27.2304788,10.9611815 27.4001931,10.9802085 27.5699923,10.9988108 C27.6076216,10.8480386 27.6264788,10.791722 27.6264788,10.7162085 C27.6264788,10.4145792 27.4191351,10.3014363 26.8721931,10.3014363 C26.5328494,10.3014363 26.1369344,10.3391506 25.8727645,10.4145792 L25.7219923,10.4708958 L25.6088494,10.4899228 L25.7785637,9.47163707 C26.3631351,9.30183784 26.7590502,9.24518147 27.1926795,9.24518147 C28.2109653,9.24518147 28.7391351,9.69783784 28.7391351,10.5653514 C28.7391351,10.7916371 28.7391351,10.9610965 28.6445946,11.4704093 L28.3997066,13.0734363 L28.3618224,13.3560386 L28.3241931,13.5823243 L28.305251,13.7521236 L28.305251,13.8655212 L28.305166,13.8655212 L28.305166,13.8655212 Z" id="Shape" fill="#FFFFFF"></path>
                <path d="M31.473251,9.30192278 L31.3601081,9.30192278 C30.9641081,9.30192278 30.7379073,9.49049421 30.3795367,10.0375212 L30.4925946,9.33963707 L29.4179923,9.33963707 L28.701251,13.8655212 L29.8704788,13.8655212 C30.3041931,11.0934363 30.4173359,10.6218378 30.9830502,10.6218378 L31.0585637,10.6218378 C31.1716216,10.0751506 31.3224788,9.67898069 31.5110502,9.32069498 L31.473251,9.30192278 L31.473251,9.30192278 L31.473251,9.30192278 Z" id="Shape" fill="#FFFFFF"></path>
            </g>
        </g>
    </g>
</svg>