<?xml version="1.0" encoding="UTF-8" standalone="no"?>
<svg width="64px" height="64px" viewBox="0 0 64 64" version="1.1" xmlns="http://www.w3.org/2000/svg" xmlns:xlink="http://www.w3.org/1999/xlink">
    <!-- Generator: Sketch 39.1 (31720) - http://www.bohemiancoding.com/sketch -->
    <title>icon-picture-light</title>
    <desc>Created with Sketch.</desc>
    <defs></defs>
    <g id="cart/order/product" stroke="none" stroke-width="1" fill="none" fill-rule="evenodd">
        <g id="icon-picture-light" fill="#A3A5A6">
            <path d="M61.5204,4 L2.4464,4 C1.0814,4.014 -0.0136,5.132 0.0004,6.498 L0.0004,6.506 L0.0004,57.458 C-0.0226,58.834 1.0704,59.97 2.4464,60 L61.5204,60 C62.9024,59.971 64.0054,58.84 64.0004,57.458 L64.0004,6.506 C64.0034,5.131 62.8954,4.011 61.5204,4 L61.5204,4 Z M59.0754,45.86 L59.0754,45.861 L42.5514,28.895 C41.9884,28.315 41.0624,28.301 40.4824,28.864 C40.4724,28.874 40.4614,28.884 40.4514,28.895 L27.4514,42.21 L18.6514,33.173 C18.1114,32.603 17.2114,32.579 16.6414,33.119 C16.6224,33.137 16.6044,33.155 16.5874,33.173 L4.9254,45.11 L4.9254,9.03 L59.0754,9.03 L59.0754,45.86 Z M4.9254,54.934 L4.9254,49.387 L17.6074,36.376 L26.4074,45.397 L26.4074,45.432 L26.4414,45.432 L31.6824,50.782 C32.2404,51.362 33.1624,51.38 33.7424,50.822 C33.7564,50.809 33.7694,50.796 33.7824,50.782 C34.3404,50.182 34.3404,49.253 33.7824,48.653 L29.5554,44.342 L41.5004,32.117 L59.0724,50.117 L59.0724,54.93 L59.0754,54.934 L4.9254,54.934 Z M18.55,29.3244 C23.403,29.2204 27.253,25.2024 27.15,20.3494 C27.049,15.6424 23.258,11.8504 18.55,11.7504 C13.697,11.8764 9.866,15.9134 9.993,20.7664 C10.115,25.4414 13.876,29.2014 18.55,29.3244 Z M18.524,14.7574 L18.55,14.7574 C21.738,14.6754 24.388,17.1924 24.469,20.3804 C24.551,23.5674 22.034,26.2174 18.846,26.2994 C15.659,26.3804 13.009,23.8634 12.927,20.6764 C12.926,20.6364 12.926,20.5964 12.925,20.5574 C12.87,17.4094 15.376,14.8124 18.524,14.7574 Z" id="Combined-Shape"></path>
        </g>
    </g>
</svg>