<?xml version="1.0" encoding="utf-8"?>
<!-- Generator: Adobe Illustrator 21.1.0, SVG Export Plug-In . SVG Version: 6.00 Build 0)  -->
<svg version="1.1" id="圖層_1" xmlns="http://www.w3.org/2000/svg" xmlns:xlink="http://www.w3.org/1999/xlink" x="0px" y="0px"
	 viewBox="0 0 64 64" style="enable-background:new 0 0 64 64;" xml:space="preserve">
<style type="text/css">
	.st0{fill:#6F7274;}
</style>
<title>icon-ticket-light</title>
<desc>Created with Sketch.</desc>
<path class="st0" d="M58.9,29.7c2.7-2.5,3.7-6.5,2.2-10.2c-1.4-3.6-4.8-5.8-8.4-5.9l-3.5-9.1c-1-2.6-3.5-4.3-6.3-4.3
	c-0.8,0-1.6,0.1-2.4,0.4c-3,1.2-4.7,4.3-4.2,7.4c-0.2,0.1-0.3,0.3-0.5,0.4c-4.6,3.9-11.4,9.7-23.3,14.3l-2.2,0.8
	c-2.5,0.9-4.1,3.2-4.3,5.8c-3.8,2.7-5.3,7.6-3.6,12c1.5,3.9,5.3,6.6,9.6,6.6c0.4,0,0.8,0,1.2-0.1c1.2,1.2,2.9,1.9,4.6,1.9
	c0.1,0,0.1,0,0.2,0l6.4,10.9c1.2,2,3.4,3.3,5.8,3.3c0.8,0,1.6-0.2,2.4-0.4c1.8-0.7,3.2-2.2,3.9-4c0.6-1.8,0.4-3.9-0.5-5.5l-4.8-8.2
	c7.5-1.9,12.6-2.1,17.9-2.2c0.3,0,0.6,0,0.9,0c1.2,1.9,3.3,3.1,5.7,3.1c0.8,0,1.6-0.1,2.4-0.4c1.7-0.6,3-1.9,3.7-3.5
	c0.7-1.6,0.8-3.5,0.1-5.1L58.9,29.7z M56.2,41.4c-0.8,0.3-1.8-0.1-2.1-0.9C53.9,40,41.6,7.9,41.4,7.5c-0.3-0.8,0.1-1.8,0.9-2.1
	c0.2-0.1,0.4-0.1,0.6-0.1c0.2,0,0.5,0,0.7,0.1c0.4,0.2,0.7,0.5,0.9,0.9l12.6,32.9C57.5,40.1,57,41,56.2,41.4z M49.2,38.4
	c-0.4,0-0.8,0-1.2,0c-4.7,0.1-10,0.3-18.1,2.4l-6.7-17.4C30.6,19.5,34.7,16,38.3,13c0.3-0.3,0.6-0.5,0.9-0.8L49.2,38.4z M30.7,58.7
	c-0.8,0.3-1.6,0-2-0.7L22.3,47c1-0.4,2.1-0.8,3.1-1.1l6.1,10.4c0.2,0.4,0.3,0.9,0.1,1.3C31.5,58.1,31.2,58.5,30.7,58.7L30.7,58.7z
	 M26.2,41.7c-1.9,0.6-3.9,1.2-5.7,1.9l-2.2,0.8c-0.4,0.2-0.9,0.1-1.3,0c-0.4-0.2-0.7-0.5-0.9-0.9l-5-13.2c-0.2-0.4-0.1-0.9,0-1.3
	c0.2-0.4,0.5-0.7,0.9-0.9l2.2-0.8c1.8-0.7,3.7-1.5,5.5-2.4L26.2,41.7z M11.9,42.8c-2.1,0-4-1.3-4.8-3.3c-0.8-2-0.2-4.3,1.3-5.7
	L11.9,42.8z M58.3,20.6c0.8,2,0.5,4.1-0.6,5.8L54,16.8C55.9,17.3,57.5,18.7,58.3,20.6z"/>
</svg>
