<?xml version="1.0" encoding="UTF-8" standalone="no"?>
<svg width="64px" height="64px" viewBox="0 0 64 64" version="1.1" xmlns="http://www.w3.org/2000/svg" xmlns:xlink="http://www.w3.org/1999/xlink">
    <!-- Generator: Sketch 39.1 (31720) - http://www.bohemiancoding.com/sketch -->
    <title>icon-heart</title>
    <desc>Created with Sketch.</desc>
    <defs></defs>
    <g id="cart/order/product" stroke="none" stroke-width="1" fill="none" fill-rule="evenodd">
        <g id="icon-heart" fill="#6F7274">
            <path d="M50.4375,4.4564 C44.9005,3.1024 37.2645,4.5214 31.9895,12.0484 C26.7155,4.5214 19.0815,3.1004 13.5395,4.4564 C4.9975,6.5454 -0.5515,14.8124 0.0435,24.5484 C0.9735,40.7744 13.3865,54.9674 30.9315,59.8664 C31.2015,59.9414 31.4725,59.9774 31.7395,59.9774 C31.8235,59.9774 31.9055,59.9644 31.9885,59.9574 C32.0715,59.9644 32.1535,59.9774 32.2365,59.9774 C32.5045,59.9774 32.7755,59.9414 33.0455,59.8664 C50.5895,54.9674 63.0035,40.7744 63.9325,24.5594 C64.5285,14.8124 58.9795,6.5454 50.4375,4.4564" id="Fill-1"></path>
        </g>
    </g>
</svg>