<?xml version="1.0" encoding="UTF-8"?>
<svg width="64px" height="64px" viewBox="0 0 64 64" version="1.1" xmlns="http://www.w3.org/2000/svg" xmlns:xlink="http://www.w3.org/1999/xlink">
    <!-- Generator: Sketch 41.2 (35397) - http://www.bohemiancoding.com/sketch -->
    <title>icon-purview-gift-blue</title>
    <desc>Created with Sketch.</desc>
    <defs></defs>
    <g id="member" stroke="none" stroke-width="1" fill="none" fill-rule="evenodd">
        <g id="icon-purview-gift-white" fill="#0090D4">
            <path d="M58.1818182,17.0501567 L50.9592476,17.0501567 C53.4670846,15.4451411 55.1724138,12.8369906 55.1724138,9.82758621 C55.1724138,4.91222571 50.6583072,1 45.2413793,1 C40.6269592,1 35.0094044,9.02507837 32,14.1410658 C28.8902821,8.92476489 23.3730408,1 18.7586207,1 C13.2413793,1 8.82758621,5.01253918 8.82758621,9.82758621 C8.82758621,12.8369906 10.5329154,15.4451411 13.0407524,17.0501567 L5.81818182,17.0501567 C2.60815047,17.0501567 0,19.6583072 0,22.8683386 L0,31.9968652 C0,34.3040752 1.30407524,36.2100313 3.21003135,37.2131661 L3.21003135,58.1786834 C3.21003135,61.3887147 5.81818182,63.9968652 9.02821317,63.9968652 L55.3730408,63.9968652 C58.5830721,63.9968652 61.1912226,61.3887147 61.1912226,58.1786834 L61.1912226,36.9122257 C62.8965517,35.9090909 64,34.1034483 64,31.9968652 L64,22.7680251 C64,19.6583072 61.3918495,17.0501567 58.1818182,17.0501567 L58.1818182,17.0501567 Z M5.81818182,32.4984326 C5.51724138,32.4984326 5.31661442,32.2978056 5.31661442,31.9968652 L5.31661442,22.7680251 C5.31661442,22.4670846 5.51724138,22.2664577 5.81818182,22.2664577 L29.3918495,22.2664577 L29.3918495,32.4984326 L5.81818182,32.4984326 L5.81818182,32.4984326 Z M34.6081505,22.2664577 L58.1818182,22.2664577 C58.4827586,22.2664577 58.6833856,22.4670846 58.6833856,22.7680251 L58.6833856,31.8965517 C58.6833856,32.1974922 58.4827586,32.3981191 58.1818182,32.3981191 L34.6081505,32.3981191 L34.6081505,22.2664577 Z M45.2413793,6.21630094 C47.7492163,6.21630094 49.9561129,7.82131661 49.9561129,9.82758621 C49.9561129,11.7335423 47.8495298,13.4388715 45.2413793,13.4388715 L38.7210031,13.4388715 C41.4294671,9.52664577 44.137931,6.4169279 45.2413793,6.21630094 L45.2413793,6.21630094 Z M18.6583072,6.21630094 C19.862069,6.4169279 22.5705329,9.52664577 25.2789969,13.338558 L18.7586207,13.338558 C16.2507837,13.338558 14.0438871,11.7335423 14.0438871,9.72727273 C14.0438871,7.82131661 16.1504702,6.21630094 18.6583072,6.21630094 L18.6583072,6.21630094 Z M8.52664577,58.1786834 L8.52664577,37.815047 L29.3918495,37.815047 L29.3918495,58.7805643 L9.02821317,58.7805643 C8.72727273,58.6802508 8.52664577,58.4796238 8.52664577,58.1786834 L8.52664577,58.1786834 Z M55.3730408,58.6802508 L34.6081505,58.6802508 L34.6081505,37.815047 L55.8746082,37.815047 L55.8746082,58.1786834 C55.8746082,58.4796238 55.6739812,58.6802508 55.3730408,58.6802508 L55.3730408,58.6802508 Z" id="Shape"></path>
        </g>
    </g>
</svg>