<?xml version="1.0" encoding="UTF-8"?>
<svg width="26px" height="26px" viewBox="0 0 26 26" version="1.1" xmlns="http://www.w3.org/2000/svg" xmlns:xlink="http://www.w3.org/1999/xlink">
    <!-- Generator: Sketch 43.2 (39069) - http://www.bohemiancoding.com/sketch -->
    <title>icon-purview-coupon-light</title>
    <desc>Created with Sketch.</desc>
    <defs></defs>
    <g id="Page-1" stroke="none" stroke-width="1" fill="none" fill-rule="evenodd">
        <g id="icon-purview-coupon-light" transform="translate(13.074074, 13.000000) rotate(19.000000) translate(-13.074074, -13.000000) translate(2.000000, 0.000000)" fill-rule="nonzero" fill="#A6A6A6">
            <path d="M20.6479246,5.2121875 L19.7160307,4.7328125 C19.6819416,4.83974369 19.6342093,4.94210292 19.5739483,5.0375 C19.3817191,5.3421875 19.1853109,5.646875 18.984724,5.9434375 L19.9751223,6.45125 C20.5100209,6.7275 20.6646401,7.475 20.3136129,8.1209375 L11.9558211,23.5584375 C11.6047939,24.204375 10.8860238,24.505 10.3511251,24.2328125 L7.94408106,23.0140625 C7.65757233,23.2091123 7.29176479,23.257537 6.96204053,23.1440625 C5.9716422,22.7621875 4.9645283,22.4209375 3.9532355,22.0878125 C3.77354298,22.1528125 3.59802935,22.2178125 3.41415793,22.27875 L9.68250179,25.4840625 C10.9361706,26.1178125 12.5157931,25.553125 13.2345632,24.2246875 L21.592355,8.7871875 C22.3069462,7.4425 21.8848777,5.8459375 20.6479246,5.2121875 Z" id="Shape" stroke="#A6A6A6" stroke-width="0.519230769"></path>
            <path d="M6.68623341,2.2140625 L0.468036338,18.5696875 C-0.0668623341,19.979375 0.564150944,21.506875 1.87632425,21.9821875 L10.0502446,24.9234375 C11.3624179,25.3946875 12.8668204,24.635 13.3933613,23.2253125 L19.6408106,6.8696875 C20.1757093,5.46 19.544696,3.9325 18.2325227,3.4571875 L10.0502446,0.52 C8.73807128,0.0446875 7.23366876,0.8125 6.68623341,2.2140625 Z M17.7143396,4.7734375 C18.2826695,4.9765625 18.5501188,5.6996875 18.2743117,6.3984375 L12.0561146,22.75 C11.797023,23.4325 11.1200419,23.8265625 10.5517121,23.619375 L2.37779175,20.67 C1.80946191,20.466875 1.54201257,19.74375 1.81781971,19.045 L8.04855346,2.7015625 C8.307645,2.03125 8.98044724,1.625 9.54877708,1.8321875 L17.7143396,4.7734375 Z" id="Shape" stroke="#A6A6A6" stroke-width="0.519230769"></path>
            <rect id="Rectangle-path" transform="translate(7.276331, 16.540946) rotate(-69.700000) translate(-7.276331, -16.540946) " x="6.55547138" y="15.9376647" width="1.44171908" height="1.2065625"></rect>
            <rect id="Rectangle-path" transform="translate(11.926427, 18.218268) rotate(-69.680000) translate(-11.926427, -18.218268) " x="11.2055674" y="17.6149871" width="1.44171908" height="1.2065625"></rect>
            <rect id="Rectangle-path" transform="translate(4.950991, 15.707871) rotate(-69.700000) translate(-4.950991, -15.707871) " x="4.23013142" y="15.1045895" width="1.44171908" height="1.2065625"></rect>
            <rect id="Rectangle-path" transform="translate(9.601050, 17.377302) rotate(-69.690000) translate(-9.601050, -17.377302) " x="8.88019094" y="16.7740204" width="1.44171908" height="1.2065625"></rect>
            <path d="M9.10581412,9.66875 C8.04416151,9.28732836 6.86545962,9.81479287 6.47310974,10.846875 C6.08075987,11.8789571 6.62333692,13.0248284 7.68498952,13.40625 C8.74433419,13.7876716 9.92116513,13.262026 10.313515,12.2321875 C10.7058649,11.202349 10.1651588,10.0582966 9.10581412,9.676875 L9.10581412,9.66875 Z M8.08616352,12.341875 C7.6281578,12.1763802 7.39445569,11.6816385 7.56381375,11.2360732 C7.73317181,10.7905081 8.24163946,10.5623672 8.70029458,10.7261535 C9.15894969,10.8899399 9.39460147,11.3838067 9.22700209,11.83 C9.05665324,12.2769668 8.54655853,12.5058376 8.08616352,12.341875 L8.08616352,12.341875 Z" id="Shape"></path>
            <path d="M12.0853669,7.3896875 C11.6913142,8.41719317 12.2282143,9.56075711 13.284877,9.94456956 C14.3415396,10.328382 15.5182522,9.80725508 15.9138177,8.78029891 C16.3093831,7.75334271 15.7741676,6.6090327 14.7180712,6.22375 C13.6599221,5.84011423 12.482045,6.3617569 12.0853669,7.3896875 Z M14.8350804,8.385 C14.6648439,8.83024878 14.1559273,9.05744151 13.697596,8.89280064 C13.2392647,8.72815975 13.0045874,8.23385458 13.1730664,7.7879745 C13.3415454,7.34209442 13.8495622,7.1130063 14.3085395,7.2759375 C14.7683124,7.44154158 15.0037407,7.93742849 14.8350804,8.385 L14.8350804,8.385 Z" id="Shape"></path>
            <polygon id="Shape" points="13.7611042 13.6784375 7.61394829 6.963125 8.68792453 6.0328125 14.8350804 12.7440625"></polygon>
        </g>
    </g>
</svg>