<?xml version="1.0" encoding="UTF-8" standalone="no"?>
<svg width="64px" height="64px" viewBox="0 0 64 64" version="1.1" xmlns="http://www.w3.org/2000/svg" xmlns:xlink="http://www.w3.org/1999/xlink">
    <!-- Generator: Sketch 39.1 (31720) - http://www.bohemiancoding.com/sketch -->
    <title>icon-nav-user-white</title>
    <desc>Created with Sketch.</desc>
    <defs></defs>
    <g id="menu" stroke="none" stroke-width="1" fill="none" fill-rule="evenodd">
        <g id="icon-nav-user-white" fill="#FFFFFF">
            <path d="M61.0005,62.8992 C59.3435,62.8992 58.0005,61.5562 58.0005,59.8992 C58.0005,55.2172 48.5725,42.5672 43.3815,40.2832 C42.4415,39.8702 41.7785,39.0042 41.6235,37.9902 C41.4685,36.9762 41.8435,35.9532 42.6155,35.2782 C45.8615,32.4422 47.8095,28.5122 48.0995,24.2112 C48.3895,19.9112 46.9865,15.7552 44.1515,12.5092 C38.2965,5.8102 28.0835,5.1212 21.3825,10.9742 C18.1375,13.8092 16.1895,17.7392 15.8995,22.0402 C15.6095,26.3402 17.0115,30.4962 19.8475,33.7422 C20.3225,34.2862 20.8385,34.8022 21.3825,35.2772 C22.1555,35.9522 22.5295,36.9752 22.3755,37.9902 C22.2195,39.0032 21.5575,39.8692 20.6185,40.2832 C15.4265,42.5682 6.0005,55.2182 6.0005,59.8992 C6.0005,61.5562 4.6565,62.8992 3.0005,62.8992 C1.3435,62.8992 0.0005,61.5562 0.0005,59.8992 C0.0005,53.5252 8.0545,42.1732 14.7245,36.9682 C11.2405,32.6292 9.5365,27.2222 9.9135,21.6362 C10.3115,15.7362 12.9825,10.3452 17.4355,6.4552 C26.6265,-1.5748 40.6395,-0.6288 48.6695,8.5622 C52.5605,13.0152 54.4825,18.7162 54.0855,24.6152 C53.7755,29.1942 52.0975,33.4682 49.2785,36.9702 C55.9485,42.1762 64.0005,53.5252 64.0005,59.8992 C64.0005,61.5562 62.6575,62.8992 61.0005,62.8992" id="Fill-1"></path>
        </g>
    </g>
</svg>