<?xml version="1.0" encoding="UTF-8"?>
<svg width="64px" height="64px" viewBox="0 0 64 64" version="1.1" xmlns="http://www.w3.org/2000/svg" xmlns:xlink="http://www.w3.org/1999/xlink">
    <!-- Generator: Sketch 43.2 (39069) - http://www.bohemiancoding.com/sketch -->
    <title>icon-nav-phone-color</title>
    <desc>Created with Sketch.</desc>
    <defs></defs>
    <g id="menu" stroke="none" stroke-width="1" fill="none" fill-rule="evenodd">
        <g id="icon-nav-phone-color" fill="#004D98">
            <path d="M55.4264,3.7106 C57.7564,6.0776 59.0254,9.2106 58.9994,12.5316 L58.9994,51.4926 C59.0524,58.3246 53.5184,63.9466 46.6624,63.9996 L17.3604,63.9996 C10.4814,63.9446 4.9474,58.3236 5.0004,51.4686 L5.0004,12.5076 C4.9474,5.6766 10.4804,0.0546 17.3364,-0.0004 L46.6394,-0.0004 L46.6624,-0.0004 C49.9834,0.0266 53.0964,1.3446 55.4264,3.7106 Z M52.9994,51.5156 L52.9994,12.5076 C53.0274,8.9396 50.1694,6.0336 46.6264,5.9996 L17.3604,5.9996 C13.8364,6.0286 10.9724,8.9366 11.0004,12.4846 L11.0004,51.4926 C10.9734,55.0626 13.8364,57.9716 17.3844,57.9996 L46.6394,57.9996 C50.1624,57.9726 53.0264,55.0636 52.9994,51.5156 Z M49.6791,15.8143 L49.6791,40.5193 C49.6901,42.2953 49.0101,43.9693 47.7641,45.2353 C46.5151,46.5043 44.8461,47.2113 43.0661,47.2243 L20.9611,47.2243 C19.1591,47.2123 17.4901,46.5063 16.2401,45.2363 C14.9911,43.9683 14.3101,42.2893 14.3231,40.5093 L14.3231,15.8003 C14.3071,14.0463 14.9861,12.3653 16.2341,11.0953 C17.4811,9.8243 19.1491,9.1163 20.9301,9.1003 L43.0381,9.1003 C44.8401,9.1133 46.5101,9.8183 47.7601,11.0863 C49.0101,12.3543 49.6921,14.0333 49.6791,15.8143 Z M43.6791,40.5303 L43.6791,15.8003 C43.6811,15.5433 43.5751,15.3883 43.4881,15.2983 C43.3991,15.2093 43.2451,15.1013 43.0181,15.1003 L20.9611,15.1003 C20.7561,15.1023 20.6021,15.2093 20.5141,15.2993 C20.4261,15.3893 20.3211,15.5453 20.3231,15.7733 L20.3231,40.5303 C20.3211,40.7813 20.4271,40.9363 20.5151,41.0263 C20.6031,41.1163 20.7561,41.2223 20.9831,41.2243 L43.0411,41.2243 C43.2461,41.2223 43.4001,41.1153 43.4891,41.0253 C43.5761,40.9363 43.6811,40.7823 43.6791,40.5543 L43.6791,40.5303 Z M32.0003,49.032 C33.8543,49.032 35.3573,50.559 35.3573,52.442 C35.3573,54.325 33.8543,55.852 32.0003,55.852 C30.1463,55.852 28.6433,54.325 28.6433,52.442 C28.6433,50.559 30.1463,49.032 32.0003,49.032 Z" id="Combined-Shape"></path>
        </g>
    </g>
</svg>