<?xml version="1.0" encoding="UTF-8" standalone="no"?>
<svg width="64px" height="64px" viewBox="0 0 64 64" version="1.1" xmlns="http://www.w3.org/2000/svg" xmlns:xlink="http://www.w3.org/1999/xlink">
    <!-- Generator: Sketch 39.1 (31720) - http://www.bohemiancoding.com/sketch -->
    <title>icon-mail-red</title>
    <desc>Created with Sketch.</desc>
    <defs></defs>
    <g id="member" stroke="none" stroke-width="1" fill="none" fill-rule="evenodd">
        <g id="icon-mail-red" fill="#F61A13">
            <path d="M57.999,47.0869 C57.966,50.3599 55.293,53.0009 51.997,53.0009 L51.937,53.0009 L12.03,53.0009 L11.974,53.0009 C8.708,53.0009 6.033,50.3589 6,47.1169 L6,16.9149 C6.005,16.4429 6.07,15.9869 6.179,15.5469 L29.463,38.8159 C30.049,39.4009 30.816,39.6939 31.584,39.6939 C32.352,39.6939 33.119,39.4009 33.705,38.8159 L57.629,14.9079 C57.858,15.5269 57.992,16.1899 57.999,16.8839 L57.999,47.0869 Z M12.058,11.0009 L51.937,11.0009 C51.966,10.9999 51.996,10.9999 52.025,10.9999 C52.347,10.9999 52.661,11.0329 52.969,11.0819 L31.584,32.4529 L10.351,11.2339 C10.876,11.0849 11.428,10.9999 12.001,10.9999 C12.02,10.9999 12.039,11.0009 12.058,11.0009 L12.058,11.0009 Z M51.924,5.0009 L12.086,5.0009 C5.505,4.9779 0.067,10.2559 0,16.8839 L0,47.1479 C0.067,53.7069 5.428,59.0019 11.946,59.0019 C11.983,59.0019 12.021,59.0009 12.058,59.0009 L51.907,59.0009 L52.026,59.0009 C58.573,59.0009 63.933,53.7079 63.999,47.1169 L63.999,16.8539 C63.933,10.2579 58.53,4.9409 51.924,5.0009 L51.924,5.0009 Z" id="Page-1"></path>
        </g>
    </g>
</svg>