<?xml version="1.0" encoding="UTF-8"?>
<svg width="64px" height="64px" viewBox="0 0 64 64" version="1.1" xmlns="http://www.w3.org/2000/svg" xmlns:xlink="http://www.w3.org/1999/xlink">
    <!-- Generator: Sketch 40.1 (33804) - http://www.bohemiancoding.com/sketch -->
    <title>icon-truck-info</title>
    <desc>Created with Sketch.</desc>
    <defs></defs>
    <g id="cart/order/product" stroke="none" stroke-width="1" fill="none" fill-rule="evenodd">
        <g id="icon-truck-info" fill="#6F7274">
            <path d="M64.0031,8.3513 C63.9141,6.9663 62.7201,5.9163 61.3351,6.0053 L21.3351,6.0053 C21.2341,5.9993 21.1341,5.9983 21.0331,6.0043 C19.6481,6.0833 18.5891,7.2703 18.6681,8.6553 L18.6681,16.6053 L8.0041,16.6053 C6.8841,16.6313 5.9121,17.3833 5.6041,18.4603 L0.5951,33.3863 C0.1941,33.8873 -0.0149,34.5143 0.0041,35.1553 L0.0041,51.0553 C-0.0019,51.1553 -0.0009,51.2543 0.0051,51.3543 C0.0911,52.7393 1.2831,53.7913 2.6681,53.7053 L5.7601,53.7053 C6.8611,56.9323 9.9231,59.0753 13.3321,59.0053 C16.7411,59.0753 19.8031,56.9323 20.9041,53.7053 L43.0961,53.7053 C43.9111,55.9423 45.6731,57.7053 47.9111,58.5203 C52.0931,60.0433 56.7181,57.8873 58.2411,53.7053 L61.3371,53.7053 C61.4381,53.7113 61.5381,53.7123 61.6391,53.7063 C63.0241,53.6273 64.0831,52.4403 64.0041,51.0553 L64.0041,8.6553 C64.0101,8.5543 64.0091,8.4523 64.0031,8.3513 Z M58.6681,48.4053 L58.2401,48.4053 C56.7171,44.2233 52.0921,42.0673 47.9101,43.5903 C45.6721,44.4053 43.9101,46.1683 43.0951,48.4053 L24.0041,48.4053 L24.0041,19.2553 L24.0041,11.3053 L58.6681,11.3053 L58.6681,48.4053 Z M50.6341,53.7053 C49.1771,53.6963 48.0011,52.5123 48.0011,51.0553 C47.9221,49.6703 48.9811,48.4833 50.3661,48.4043 C50.4671,48.3983 50.5671,48.3993 50.6681,48.4053 C52.1321,48.4143 53.3101,49.6083 53.3011,51.0723 C53.2921,52.5353 52.0981,53.7143 50.6341,53.7053 L50.6341,53.7053 Z M18.6681,32.5053 L6.3811,32.5053 L9.8681,21.9053 L18.6681,21.9053 L18.6681,32.5053 Z M18.6681,45.0493 C17.1861,43.7743 15.2901,43.0833 13.3351,43.1053 C9.9261,43.0353 6.8641,45.1783 5.7631,48.4053 L5.3351,48.4053 L5.3351,37.8053 L18.6681,37.8053 L18.6681,45.0493 Z M13.3381,53.7053 L13.3351,53.7053 C11.8711,53.7063 10.6841,52.5203 10.6831,51.0573 C10.6831,49.5933 11.8681,48.4063 13.3321,48.4053 L13.3351,48.4053 C14.7991,48.4043 15.9861,49.5903 15.9871,51.0533 C15.9881,52.5173 14.8021,53.7043 13.3381,53.7053 Z M37.335,43.1048 L42.668,43.1048 L42.668,37.8048 L37.335,37.8048 L37.335,43.1048 Z M37.335,34.2708 L42.668,34.2708 L42.668,16.6048 L37.335,16.6048 L37.335,34.2708 Z" id="Combined-Shape"></path>
        </g>
    </g>
</svg>